<svg xmlns="http://www.w3.org/2000/svg" width="586.878" height="64.533"><g data-name="Group 2669"><path data-name="Path 4629" d="M59.155 6.453h-5.378V4.3a4.3 4.3 0 0 0-8.6 0v2.153h-8.6V4.3a4.3 4.3 0 1 0-8.6 0v2.153h-8.6V4.3a4.3 4.3 0 1 0-8.6 0v2.153H5.378A5.378 5.378 0 0 0 0 11.831v43.022a5.378 5.378 0 0 0 5.378 5.378h30.115a1.076 1.076 0 0 0 0-2.151H5.378a3.236 3.236 0 0 1-3.227-3.227V21.511h60.231V39.8a1.076 1.076 0 1 0 2.151 0V11.831a5.378 5.378 0 0 0-5.378-5.378ZM47.324 4.3a2.151 2.151 0 1 1 4.3 0v6.453a2.151 2.151 0 1 1-4.3 0Zm-17.209 0a2.151 2.151 0 1 1 4.3 0v6.453a2.151 2.151 0 1 1-4.3 0Zm-17.209 0a2.151 2.151 0 0 1 4.3 0v6.453a2.151 2.151 0 0 1-4.3 0Zm49.476 15.06H2.151v-7.529A3.236 3.236 0 0 1 5.378 8.6h5.378v2.151a4.3 4.3 0 0 0 8.6 0V8.6h8.6v2.151a4.3 4.3 0 0 0 8.6 0V8.6h8.6v2.151a4.3 4.3 0 0 0 8.6 0V8.6h5.378a3.236 3.236 0 0 1 3.227 3.227Z" fill="#4542cd"/><path data-name="Path 4630" d="M30.111 29.04a2.151 2.151 0 0 0-2.147-2.151h-4.3a2.151 2.151 0 0 0-2.153 2.151v3.227a2.151 2.151 0 0 0 2.151 2.151h4.3a2.151 2.151 0 0 0 2.149-2.151Zm-6.453 3.227V29.04h4.3v3.227Z" fill="#4542cd"/><path data-name="Path 4631" d="M17.204 29.04a2.151 2.151 0 0 0-2.147-2.151h-4.3a2.151 2.151 0 0 0-2.153 2.151v3.227a2.151 2.151 0 0 0 2.151 2.151h4.3a2.151 2.151 0 0 0 2.149-2.151Zm-6.453 3.227V29.04h4.3v3.227Z" fill="#4542cd"/><path data-name="Path 4632" d="M53.777 34.418a2.151 2.151 0 0 0 2.147-2.151V29.04a2.151 2.151 0 0 0-2.147-2.151h-4.3a2.151 2.151 0 0 0-2.153 2.151v3.227a2.151 2.151 0 0 0 2.151 2.151Zm-4.3-5.378h4.3v3.227h-4.3Z" fill="#4542cd"/><path data-name="Path 4633" d="M30.111 38.72a2.151 2.151 0 0 0-2.147-2.151h-4.3a2.151 2.151 0 0 0-2.153 2.151v3.227a2.151 2.151 0 0 0 2.151 2.151h4.3a2.151 2.151 0 0 0 2.149-2.151Zm-6.453 3.227V38.72h4.3v3.227Z" fill="#4542cd"/><path data-name="Path 4634" d="M17.204 38.72a2.151 2.151 0 0 0-2.147-2.151h-4.3a2.151 2.151 0 0 0-2.153 2.151v3.227a2.151 2.151 0 0 0 2.151 2.151h4.3a2.151 2.151 0 0 0 2.149-2.151Zm-6.453 3.227V38.72h4.3v3.227Z" fill="#4542cd"/><path data-name="Path 4635" d="M27.964 46.249h-4.3a2.151 2.151 0 0 0-2.153 2.151v3.227a2.151 2.151 0 0 0 2.151 2.151h4.3a2.151 2.151 0 0 0 2.149-2.151V48.4a2.151 2.151 0 0 0-2.147-2.151Zm-4.3 5.378V48.4h4.3v3.227Z" fill="#4542cd"/><path data-name="Path 4636" d="M36.569 34.418h4.3a2.151 2.151 0 0 0 2.149-2.151V29.04a2.151 2.151 0 0 0-2.147-2.151h-4.3a2.151 2.151 0 0 0-2.153 2.151v3.227a2.151 2.151 0 0 0 2.151 2.151Zm0-5.378h4.3v3.227h-4.3Z" fill="#4542cd"/><path data-name="Path 4637" d="M34.418 41.947a2.151 2.151 0 0 0 2.151 2.151 1.076 1.076 0 0 0 0-2.151V38.72h4.3a1.076 1.076 0 1 0 0-2.151h-4.3a2.151 2.151 0 0 0-2.151 2.151Z" fill="#4542cd"/><path data-name="Path 4638" d="M15.057 46.249h-4.3A2.151 2.151 0 0 0 8.604 48.4v3.227a2.151 2.151 0 0 0 2.151 2.151h4.3a2.151 2.151 0 0 0 2.149-2.151V48.4a2.151 2.151 0 0 0-2.147-2.151Zm-4.3 5.378V48.4h4.3v3.227Z" fill="#4542cd"/><path data-name="Path 4639" d="M50.551 36.569a13.982 13.982 0 1 0 13.982 13.982 13.982 13.982 0 0 0-13.982-13.982Zm0 25.813a11.831 11.831 0 1 1 11.831-11.831 11.831 11.831 0 0 1-11.831 11.831Z" fill="#37f2b9"/><path data-name="Path 4640" d="m56.766 46.042-8.362 8.37-3.8-3.8a1.076 1.076 0 1 0-1.521 1.521l4.563 4.563a1.076 1.076 0 0 0 1.521 0l9.126-9.126a1.076 1.076 0 1 0-1.521-1.521Z" fill="#37f2b9"/><path data-name="Path 6441" d="M82.183 14.334h2.1a2.393 2.393 0 0 0 .869 1.846 3.35 3.35 0 0 0 2.266.732 3.417 3.417 0 0 0 2.021-.542 1.72 1.72 0 0 0 .762-1.479 1.97 1.97 0 0 0-.259-1.035 1.888 1.888 0 0 0-.7-.679 5.107 5.107 0 0 0-1.006-.425q-.566-.176-1.2-.322t-1.26-.317a6.228 6.228 0 0 1-1.2-.459 4.281 4.281 0 0 1-1.006-.7 2.887 2.887 0 0 1-.7-1.1 4.453 4.453 0 0 1-.259-1.582 3.563 3.563 0 0 1 1.265-2.773 4.954 4.954 0 0 1 3.413-1.123 5.992 5.992 0 0 1 1.764.258 5.188 5.188 0 0 1 1.523.747 3.547 3.547 0 0 1 1.1 1.318 4.216 4.216 0 0 1 .425 1.88h-2.187a2.1 2.1 0 0 0-.688-1.655 2.841 2.841 0 0 0-1.948-.61 2.8 2.8 0 0 0-1.87.557 1.733 1.733 0 0 0-.649 1.367 1.6 1.6 0 0 0 .264.923 1.859 1.859 0 0 0 .7.61 5.7 5.7 0 0 0 1.016.391q.576.166 1.211.317t1.27.332a6.309 6.309 0 0 1 1.211.483 4.385 4.385 0 0 1 1.016.728 3.019 3.019 0 0 1 .7 1.118 4.489 4.489 0 0 1 .264 1.6 3.767 3.767 0 0 1-1.356 2.986 5.509 5.509 0 0 1-3.716 1.172 5.408 5.408 0 0 1-3.706-1.274 4.174 4.174 0 0 1-1.45-3.29Zm13.475 4.3 5.176-14h2.627l5.2 14h-2.275l-1.1-3.037h-6.3l-1.111 3.037Zm3.994-4.98h4.941l-2.393-6.6h-.146Zm1.6-10.762 1.123-2.773h2.217l-1.8 2.773Zm11.513 15.742v-14h4.86a4.521 4.521 0 0 1 3.115 1.016 3.331 3.331 0 0 1 1.143 2.607 3.424 3.424 0 0 1-.444 1.758 3.165 3.165 0 0 1-1.255 1.2v.119a3.229 3.229 0 0 1 .732.4 4.2 4.2 0 0 1 .693.645 2.946 2.946 0 0 1 .547.972 3.775 3.775 0 0 1 .209 1.26 3.883 3.883 0 0 1-.6 2.158 3.816 3.816 0 0 1-1.577 1.4 4.922 4.922 0 0 1-2.163.465Zm2.1-1.836h2.705a2.8 2.8 0 0 0 1.855-.586 2.133 2.133 0 0 0 .7-1.738 2.105 2.105 0 0 0-.391-1.289 2.124 2.124 0 0 0-.978-.751 3.8 3.8 0 0 0-1.333-.22h-2.558Zm0-6.26h2.588a2.371 2.371 0 0 0 1.665-.576 1.943 1.943 0 0 0 .63-1.5 1.809 1.809 0 0 0-.63-1.436 2.391 2.391 0 0 0-1.626-.547h-2.627Zm10.74 8.096 5.176-14h2.627l5.2 14h-2.283l-1.1-3.037h-6.3l-1.1 3.037Zm3.994-4.98h4.942l-2.393-6.6h-.146Zm13.114 4.98v-14h4.443a7.705 7.705 0 0 1 3.8.9A5.989 5.989 0 0 1 153.402 8a7.616 7.616 0 0 1 .83 3.618 6.954 6.954 0 0 1-1.875 5.146 7.035 7.035 0 0 1-5.201 1.87Zm2.158-1.885h2.246a4.871 4.871 0 0 0 3.574-1.328 5.11 5.11 0 0 0 1.348-3.809 5.045 5.045 0 0 0-1.343-3.74 4.847 4.847 0 0 0-3.579-1.338h-2.246Zm13.22-5.115a7.607 7.607 0 0 1 .356-2.334 6.826 6.826 0 0 1 1.016-2 7.316 7.316 0 0 1 1.562-1.552 6.923 6.923 0 0 1 2.022-1.014 7.812 7.812 0 0 1 2.368-.356 7.413 7.413 0 0 1 3.745.957 6.84 6.84 0 0 1 2.612 2.617 7.357 7.357 0 0 1 .939 3.682 7.5 7.5 0 0 1-.552 2.871 6.905 6.905 0 0 1-1.519 2.31 7.087 7.087 0 0 1-2.329 1.519 7.573 7.573 0 0 1-2.915.562 7.654 7.654 0 0 1-2.91-.552 6.921 6.921 0 0 1-2.319-1.51 6.993 6.993 0 0 1-1.519-2.314 7.507 7.507 0 0 1-.557-2.886Zm2.246 0a5.153 5.153 0 0 0 1.44 3.74 4.855 4.855 0 0 0 3.638 1.484 4.855 4.855 0 0 0 3.638-1.484 5.153 5.153 0 0 0 1.441-3.74 5.458 5.458 0 0 0-.649-2.656 4.79 4.79 0 0 0-1.82-1.877 5.072 5.072 0 0 0-2.612-.684 5.072 5.072 0 0 0-2.612.684 4.79 4.79 0 0 0-1.816 1.875 5.458 5.458 0 0 0-.647 2.658Z" fill="#0e1118"/><path data-name="Path 6443" d="M391.935 54.701v-14h2.159v5.9h6.807v-5.9h2.139v14h-2.139v-6.1h-6.807v6.1Zm15.819-7a7.607 7.607 0 0 1 .356-2.334 6.826 6.826 0 0 1 1.016-2 7.316 7.316 0 0 1 1.558-1.548 6.923 6.923 0 0 1 2.026-1.018 7.812 7.812 0 0 1 2.368-.356 7.413 7.413 0 0 1 3.745.957 6.84 6.84 0 0 1 2.612 2.617 7.357 7.357 0 0 1 .938 3.682 7.5 7.5 0 0 1-.552 2.871 6.905 6.905 0 0 1-1.519 2.31 7.087 7.087 0 0 1-2.329 1.519 7.573 7.573 0 0 1-2.915.562 7.654 7.654 0 0 1-2.91-.552 6.921 6.921 0 0 1-2.319-1.51 6.993 6.993 0 0 1-1.519-2.314 7.507 7.507 0 0 1-.556-2.886Zm2.246 0a5.153 5.153 0 0 0 1.44 3.74 4.855 4.855 0 0 0 3.638 1.484 4.855 4.855 0 0 0 3.638-1.484 5.153 5.153 0 0 0 1.44-3.74 5.458 5.458 0 0 0-.649-2.656 4.79 4.79 0 0 0-1.813-1.877 5.072 5.072 0 0 0-2.612-.684 5.072 5.072 0 0 0-2.612.684 4.79 4.79 0 0 0-1.816 1.875 5.458 5.458 0 0 0-.654 2.658Zm17.088 7v-14h5a4.824 4.824 0 0 1 3.418 1.2 4.048 4.048 0 0 1 1.288 3.1 4.194 4.194 0 0 1-.786 2.529 4.192 4.192 0 0 1-2 1.523l3.186 5.648h-2.44l-2.86-5.322h-2.646v5.322Zm2.158-7.2h2.748a2.675 2.675 0 0 0 1.865-.645 2.373 2.373 0 0 0 .709-1.855 2.357 2.357 0 0 0-.7-1.753 2.669 2.669 0 0 0-1.958-.688h-2.666Zm11.1 7.2 5.176-14h2.627l5.2 14h-2.275l-1.1-3.037h-6.3l-1.11 3.037Zm3.994-4.98h4.941l-2.393-6.6h-.146Zm20.554 4.98v-14h2.52l4.863 11.275h.117l4.444-11.275h2.5v14h-2.08v-9.58h-.117l-3.8 9.58h-2.08l-4.16-9.678h-.127v9.678Zm20 0v-14h2.158v14Zm6.3 0 5.176-14h2.624l5.2 14h-2.282l-1.1-3.037h-6.3l-1.106 3.037Zm3.994-4.98h4.941l-2.393-6.6h-.146Zm13.106 4.98v-14h2.52l4.865 11.275h.115l4.446-11.275h2.5v14h-2.08v-9.58h-.117l-3.799 9.58h-2.08l-4.16-9.678h-.127v9.678Zm20 0v-14h2.158v14Z" fill="#0e1118"/><path data-name="Path 6440" d="M83.096 38.991v-3.384a7.509 7.509 0 0 0 3.951-.75 2.644 2.644 0 0 0 1.119-2.365h4.206v20.305h-4.547V38.991Zm13.452 0v-3.384a7.51 7.51 0 0 0 3.951-.75 2.644 2.644 0 0 0 1.119-2.365h4.207v20.305h-4.545V38.991Zm20.177 6.23a8.683 8.683 0 0 1 1.933-5.862 6.3 6.3 0 0 1 5.02-2.251 5.157 5.157 0 0 1 2.7.658 4.862 4.862 0 0 1 1.621 1.466h.241v-8.185h4.485v21.75h-4.46v-1.742h-.24a3.429 3.429 0 0 1-.51.637 6.638 6.638 0 0 1-.814.673 4.223 4.223 0 0 1-1.26.588 5.736 5.736 0 0 1-1.65.227 6.533 6.533 0 0 1-5.118-2.183 8.351 8.351 0 0 1-1.948-5.776Zm4.545-.085a4.172 4.172 0 0 0 .977 2.882 3.268 3.268 0 0 0 2.563 1.1 3.188 3.188 0 0 0 2.549-1.126 4.235 4.235 0 0 0 .966-2.856 4.1 4.1 0 0 0-.991-2.882 3.3 3.3 0 0 0-2.549-1.083 3.226 3.226 0 0 0-2.535 1.1 4.157 4.157 0 0 0-.978 2.865Zm13.891.085a8.078 8.078 0 0 1 2.181-5.855 7.539 7.539 0 0 1 5.683-2.258 8.236 8.236 0 0 1 3.321.644 6.5 6.5 0 0 1 2.41 1.745 7.981 7.981 0 0 1 1.437 2.535 9.115 9.115 0 0 1 .5 3.044v1.3h-11.268a3.543 3.543 0 0 0 1.112 2.407 3.61 3.61 0 0 0 2.57.935 4.141 4.141 0 0 0 2.145-.521 2.947 2.947 0 0 0 1.239-1.3h4.064a6.15 6.15 0 0 1-2.53 3.859 8.588 8.588 0 0 1-5.088 1.423 7.838 7.838 0 0 1-3.972-1.019 7.286 7.286 0 0 1-2.79-2.846 8.3 8.3 0 0 1-1.012-4.093Zm4.349-1.824h7.023a2.991 2.991 0 0 0-1.083-2.053 3.634 3.634 0 0 0-2.428-.807 3.525 3.525 0 0 0-2.372.843 3.144 3.144 0 0 0-1.14 2.017Zm19.767 12.09h1.048a2.111 2.111 0 0 0 1.551-.552 2.052 2.052 0 0 0 .559-1.529V37.49h4.5v15.944a6.036 6.036 0 0 1-1.583 4.411 5.562 5.562 0 0 1-4.163 1.621h-1.912Zm3.512-20.362a2.309 2.309 0 0 1-.722-1.784 2.275 2.275 0 0 1 .729-1.777 2.733 2.733 0 0 1 1.9-.658 2.78 2.78 0 0 1 1.926.658 2.265 2.265 0 0 1 .736 1.777 2.265 2.265 0 0 1-.736 1.777 2.78 2.78 0 0 1-1.926.658 2.778 2.778 0 0 1-1.907-.651Zm7.536 12.572V37.49h4.489v8.807a2.83 2.83 0 0 0 .666 1.961 2.31 2.31 0 0 0 1.813.743 2.362 2.362 0 0 0 1.883-.843 3.1 3.1 0 0 0 .722-2.089v-8.581h4.489v15.309h-4.262v-1.685h-.23a3.959 3.959 0 0 1-1.57 1.458 5.073 5.073 0 0 1-2.528.609 5.313 5.313 0 0 1-3.993-1.529 5.43 5.43 0 0 1-1.479-3.953Zm17.584 5.1V37.49h4.234v1.671h.241a3.935 3.935 0 0 1 1.579-1.458 5.17 5.17 0 0 1 2.528-.595 5.313 5.313 0 0 1 3.993 1.529 5.43 5.43 0 0 1 1.487 3.951v10.209h-4.489v-8.822a2.809 2.809 0 0 0-.666-1.947 2.293 2.293 0 0 0-1.8-.743 2.362 2.362 0 0 0-1.883.843 3.1 3.1 0 0 0-.722 2.089v8.58Zm17.716-17.686a2.27 2.27 0 0 1-.736-1.77 2.27 2.27 0 0 1 .736-1.77 2.742 2.742 0 0 1 1.912-.666 2.733 2.733 0 0 1 1.9.658 2.275 2.275 0 0 1 .729 1.777 2.275 2.275 0 0 1-.729 1.777 2.733 2.733 0 0 1-1.9.658 2.742 2.742 0 0 1-1.912-.664Zm-.327 17.686V37.49h4.5v15.307Zm6.927-7.661a8.266 8.266 0 0 1 .6-3.158 7.768 7.768 0 0 1 1.664-2.549 7.591 7.591 0 0 1 2.613-1.7 8.975 8.975 0 0 1 3.377-.623 8.045 8.045 0 0 1 5.933 2.3 7.762 7.762 0 0 1 2.308 5.728 8.319 8.319 0 0 1-.6 3.165 7.639 7.639 0 0 1-1.681 2.558 7.744 7.744 0 0 1-2.627 1.7 8.936 8.936 0 0 1-3.363.623 8.548 8.548 0 0 1-4.283-1.07 7.512 7.512 0 0 1-2.917-2.9 8.179 8.179 0 0 1-1.024-4.074Zm4.545 0a4.027 4.027 0 0 0 1.041 2.867 3.461 3.461 0 0 0 2.641 1.112 3.511 3.511 0 0 0 2.667-1.118 4 4 0 0 0 1.055-2.86 3.977 3.977 0 0 0-1.055-2.853 3.522 3.522 0 0 0-2.669-1.112 3.461 3.461 0 0 0-2.641 1.112 4.008 4.008 0 0 0-1.041 2.852Z" fill="#0e1118"/><path data-name="Path 6442" d="M391.638 11.425a6.614 6.614 0 0 1 1.034-3.632 6.957 6.957 0 0 1 2.7-2.485 7.647 7.647 0 0 1 3.575-.864 7.544 7.544 0 0 1 2.747.51 7.5 7.5 0 0 1 2.315 1.4 6.493 6.493 0 0 1 1.593 2.216 6.882 6.882 0 0 1 .592 2.855 7.959 7.959 0 0 1-1.048 3.951l-5.395 9.742h-5.31l4.418-7.165-.127-.113a2.657 2.657 0 0 1-.92.142 5.957 5.957 0 0 1-1.618-.234 6.326 6.326 0 0 1-1.65-.75 6.541 6.541 0 0 1-1.466-1.26 5.734 5.734 0 0 1-1.041-1.862 7.286 7.286 0 0 1-.399-2.451Zm4.6 0a2.676 2.676 0 0 0 .772 1.94 2.586 2.586 0 0 0 1.933.793 2.523 2.523 0 0 0 1.9-.793 2.7 2.7 0 0 0 .758-1.94 2.589 2.589 0 0 0-.758-1.9 2.57 2.57 0 0 0-1.9-.765 2.622 2.622 0 0 0-1.933.772 2.571 2.571 0 0 0-.77 1.893Zm20.093 6.117a8.683 8.683 0 0 1 1.933-5.862 6.3 6.3 0 0 1 5.02-2.251 5.157 5.157 0 0 1 2.7.658 4.862 4.862 0 0 1 1.621 1.466h.241V9.811h4.489v15.307h-4.46v-1.742h-.241a3.429 3.429 0 0 1-.51.637 6.638 6.638 0 0 1-.814.673 4.223 4.223 0 0 1-1.26.588 5.736 5.736 0 0 1-1.656.226 6.533 6.533 0 0 1-5.114-2.182 8.351 8.351 0 0 1-1.947-5.776Zm4.545-.085a4.172 4.172 0 0 0 .977 2.882 3.268 3.268 0 0 0 2.563 1.1 3.188 3.188 0 0 0 2.549-1.126 4.235 4.235 0 0 0 .963-2.853 4.1 4.1 0 0 0-.991-2.882 3.3 3.3 0 0 0-2.543-1.085 3.226 3.226 0 0 0-2.535 1.1 4.157 4.157 0 0 0-.981 2.864Zm14.344 5.636a2.271 2.271 0 0 1 .729-1.713 2.447 2.447 0 0 1 1.749-.694 2.4 2.4 0 0 1 1.777.687 2.334 2.334 0 0 1 .687 1.72 2.334 2.334 0 0 1-.68 1.735 2.427 2.427 0 0 1-1.784.673 2.468 2.468 0 0 1-1.753-.683 2.269 2.269 0 0 1-.722-1.725Zm8.357 2.025V9.811h4.234v1.643h.241a4.278 4.278 0 0 1 1.558-1.444 4.844 4.844 0 0 1 2.436-.581 5.107 5.107 0 0 1 4.448 2.081h.2a5.254 5.254 0 0 1 4.432-2.082 5.519 5.519 0 0 1 4.029 1.5 5.2 5.2 0 0 1 1.536 3.894v10.296h-4.497v-8.723a3.217 3.217 0 0 0-.588-2.046 2.078 2.078 0 0 0-1.735-.743 2.2 2.2 0 0 0-1.784.821 3.2 3.2 0 0 0-.68 2.11v8.581h-4.489v-8.85a2.874 2.874 0 0 0-.623-1.933 2.184 2.184 0 0 0-1.756-.729 2.209 2.209 0 0 0-1.777.821 3.135 3.135 0 0 0-.687 2.082v8.609Zm26.026-2.025a2.271 2.271 0 0 1 .729-1.713 2.447 2.447 0 0 1 1.749-.694 2.4 2.4 0 0 1 1.777.687 2.334 2.334 0 0 1 .687 1.72 2.334 2.334 0 0 1-.68 1.735 2.427 2.427 0 0 1-1.784.673 2.468 2.468 0 0 1-1.755-.683 2.269 2.269 0 0 1-.723-1.725Zm15.336-4.942v-3.795h8.3v3.795Zm18.819.354a7.913 7.913 0 0 1 1.036-3.936l5.4-9.756h5.3l-4.4 7.165.113.113a2.7 2.7 0 0 1 .935-.142 5.957 5.957 0 0 1 1.621.234 6.326 6.326 0 0 1 1.65.75 6.541 6.541 0 0 1 1.466 1.26 5.734 5.734 0 0 1 1.041 1.862 7.286 7.286 0 0 1 .4 2.45 6.614 6.614 0 0 1-1.034 3.632 7.012 7.012 0 0 1-2.7 2.492 7.6 7.6 0 0 1-3.575.871 7.6 7.6 0 0 1-3.568-.857 6.842 6.842 0 0 1-2.662-2.478 6.732 6.732 0 0 1-1.023-3.66Zm5.336-1.926a2.672 2.672 0 0 0-.765 1.926 2.576 2.576 0 0 0 .765 1.9 2.594 2.594 0 0 0 1.912.765 2.6 2.6 0 0 0 1.926-.772 2.583 2.583 0 0 0 .765-1.89 2.665 2.665 0 0 0-.765-1.933 2.574 2.574 0 0 0-1.926-.786 2.546 2.546 0 0 0-1.912.79Zm20.223 15.208V9.811h4.446v1.7h.231a3.7 3.7 0 0 1 .51-.623 6.245 6.245 0 0 1 .814-.666 4.2 4.2 0 0 1 1.274-.573 6.06 6.06 0 0 1 1.664-.219 6.532 6.532 0 0 1 5.1 2.174 8.3 8.3 0 0 1 1.954 5.77 8.731 8.731 0 0 1-1.926 5.869 6.276 6.276 0 0 1-5.019 2.257 5.691 5.691 0 0 1-2.11-.375 4.7 4.7 0 0 1-1.43-.814 4.183 4.183 0 0 1-.779-.935h-.227v8.411Zm4.4-14.33a4.16 4.16 0 0 0 .977 2.9 3.255 3.255 0 0 0 2.535 1.083 3.226 3.226 0 0 0 2.535-1.1 4.178 4.178 0 0 0 .977-2.875 4.158 4.158 0 0 0-.97-2.882 3.25 3.25 0 0 0-2.542-1.083 3.2 3.2 0 0 0-2.556 1.112 4.221 4.221 0 0 0-.952 2.845Zm13.838 5.636a2.271 2.271 0 0 1 .729-1.713 2.447 2.447 0 0 1 1.749-.694 2.4 2.4 0 0 1 1.777.687 2.334 2.334 0 0 1 .687 1.72 2.334 2.334 0 0 1-.68 1.735 2.427 2.427 0 0 1-1.784.673 2.468 2.468 0 0 1-1.756-.683 2.269 2.269 0 0 1-.722-1.725Zm8.355 2.025V9.811h4.234v1.643h.241a4.278 4.278 0 0 1 1.558-1.444 4.844 4.844 0 0 1 2.436-.581 5.107 5.107 0 0 1 4.446 2.082h.2a5.254 5.254 0 0 1 4.432-2.082 5.519 5.519 0 0 1 4.029 1.5 5.2 5.2 0 0 1 1.536 3.894v10.295h-4.492v-8.723a3.217 3.217 0 0 0-.588-2.046 2.078 2.078 0 0 0-1.735-.743 2.2 2.2 0 0 0-1.784.821 3.2 3.2 0 0 0-.68 2.11v8.581h-4.488v-8.85a2.874 2.874 0 0 0-.623-1.933 2.184 2.184 0 0 0-1.756-.729 2.209 2.209 0 0 0-1.777.821 3.135 3.135 0 0 0-.687 2.082v8.609Zm26.026-2.025a2.271 2.271 0 0 1 .729-1.713 2.447 2.447 0 0 1 1.749-.694 2.4 2.4 0 0 1 1.78.687 2.334 2.334 0 0 1 .687 1.72 2.334 2.334 0 0 1-.687 1.735 2.427 2.427 0 0 1-1.78.672 2.468 2.468 0 0 1-1.756-.682 2.269 2.269 0 0 1-.722-1.725Z" fill="#0e1118"/><g data-name="Group 2494"><path data-name="Path 4641" d="M344.915 57.51a28.755 28.755 0 1 1 28.755-28.755 28.787 28.787 0 0 1-28.755 28.755Zm0-55.113a26.359 26.359 0 1 0 26.358 26.358A26.39 26.39 0 0 0 344.915 2.4Z" fill="#4542cd"/></g><g data-name="Group 2495"><path data-name="Path 4642" d="M358.094 43.132a1.2 1.2 0 0 1-.848-.35l-13.179-13.179a1.207 1.207 0 0 1-.35-.848v-17.97a1.2 1.2 0 1 1 2.4 0v17.474l12.826 12.826a1.2 1.2 0 0 1-.848 2.044Z" fill="#37f2b9"/></g></g></svg>