<svg xmlns="http://www.w3.org/2000/svg" width="187.634" height="26.764"><defs><clipPath id="a"><path data-name="Rectángulo 1233" fill="none" d="M0 0h157.564v16.811H0z"/></clipPath></defs><g data-name="Grupo 2580"><path data-name="Rectángulo 1226" fill="#37f2b9" opacity=".229" d="M0 9.786 186.744-.001l.89 16.977L.89 26.763z"/><g data-name="Grupo 2611"><path data-name="Trazado 5838" d="m25.552 1.122-3.564 6.491h-.153l-3.61-6.491h-3.19l5.434 9.462v5.941h2.949v-5.964l5.39-9.439Z" fill="#0e1118"/><path data-name="Trazado 5839" d="M49.379 1.122 45.11 12.564h-.132l-4.73-11.442h-3.543v15.4h2.816V6.667h.133l4.07 9.858h2.552l3.7-9.616h.131v9.616h2.817V1.122Z" fill="#0e1118"/><g data-name="Grupo 2610"><g data-name="Grupo 2609" clip-path="url(#a)" fill="#0e1118" transform="translate(15.035)"><path data-name="Trazado 5840" d="M41.184 10.781V1.122h2.927v9.638c0 2.046 1.1 3.3 3.168 3.3 2.091 0 3.191-1.254 3.191-3.323V1.122h2.9v9.638a5.706 5.706 0 0 1-6.1 6.051 5.679 5.679 0 0 1-6.1-6.03"/><path data-name="Trazado 5841" d="M55.88 8.823A7.788 7.788 0 0 1 63.933.836a7.413 7.413 0 0 1 7.525 5.743H68.29a4.378 4.378 0 0 0-4.357-2.948 4.962 4.962 0 0 0-5.017 5.192 4.937 4.937 0 0 0 5.017 5.193 4.486 4.486 0 0 0 4.4-2.9h3.212a7.448 7.448 0 0 1-7.635 5.7 7.744 7.744 0 0 1-8.03-7.993"/><path data-name="Trazado 5842" d="M74.228 1.122h2.926v6.227h6.822V1.122H86.9v15.4h-2.925v-6.4h-6.822v6.4h-2.925Z"/><path data-name="Trazado 5843" d="M89.583 8.823a8.121 8.121 0 0 1 16.239 0 8.121 8.121 0 0 1-16.239 0m13.18 0a5.073 5.073 0 1 0-10.144 0 5.073 5.073 0 1 0 10.144 0"/><path data-name="Trazado 5844" d="M114.223 4.951h2.728v1.408h.154a3.513 3.513 0 0 1 3.146-1.694 3.839 3.839 0 0 1 3.433 1.76h.176a3.809 3.809 0 0 1 3.432-1.76 4 4 0 0 1 4.225 4.181v7.679h-2.86v-6.69c0-1.584-.726-2.487-2.09-2.487a2.29 2.29 0 0 0-2.245 2.552v6.624h-2.861V9.659a2.089 2.089 0 0 0-2.156-2.311 2.315 2.315 0 0 0-2.222 2.532v6.645h-2.86Z"/><path data-name="Trazado 5845" d="M133.714 10.8c0-3.631 2.2-6.139 5.369-6.139a4.193 4.193 0 0 1 3.517 1.786h.153v-1.5h2.86v11.578H142.8V15.05h-.153a4.072 4.072 0 0 1-3.477 1.761c-3.234 0-5.457-2.421-5.457-6.007m9.109-.044c0-2.179-1.32-3.5-3.124-3.5-1.827 0-3.081 1.452-3.081 3.5 0 2.09 1.254 3.477 3.1 3.477a3.171 3.171 0 0 0 3.1-3.477M139.919 0h2.86l-2.024 3.213h-2Z"/><path data-name="Trazado 5846" d="M147.882 13.048h2.641c.11.99.9 1.519 2.2 1.519 1.32 0 2.068-.573 2.068-1.387 0-2.465-6.645-.132-6.645-4.973 0-1.958 1.694-3.542 4.554-3.542 2.509 0 4.379 1.275 4.555 3.586h-2.53c-.132-.836-.792-1.386-2.046-1.386-1.166 0-1.914.506-1.914 1.254 0 2.2 6.8-.111 6.8 4.908 0 2.2-1.783 3.784-4.885 3.784-3.125 0-4.687-1.475-4.8-3.763"/></g></g></g></g></svg>