<svg xmlns="http://www.w3.org/2000/svg" width="883" height="552"><g data-name="Group 2692"><g data-name="Group 2644"><g data-name="Group 2466" transform="translate(-313 -4570)"><rect data-name="Rectangle 1093" width="883" height="510" rx="16" transform="translate(313 4589)" fill="#fff"/><rect data-name="Rectangle 1091" width="265" height="552" rx="16" transform="translate(931 4570)" fill="#4542cd"/><path data-name="Rectangle 1091 - Outline" d="M947 4572a14 14 0 0 0-14 14v520a14 14 0 0 0 14 14h233a14 14 0 0 0 14-14v-520a14 14 0 0 0-14-14H947m0-2h233a16 16 0 0 1 16 16v520a16 16 0 0 1-16 16H947a16 16 0 0 1-16-16v-520a16 16 0 0 1 16-16Z" fill="#fff"/><path data-name="Path 6534" d="M367.6 4677v-12.6h7.47v1.71h-5.528v3.657h4.737v1.688h-4.737v3.845h5.713v1.7Zm9.967 0v-9.413h1.833v1.257h.123a2.539 2.539 0 0 1 1.04-1.064 3.327 3.327 0 0 1 1.723-.431 3.255 3.255 0 0 1 2.514 1.02 3.663 3.663 0 0 1 .94 2.584V4677h-1.89v-5.687a2.163 2.163 0 0 0-.6-1.586 2.03 2.03 0 0 0-1.507-.611 2.165 2.165 0 0 0-1.635.681 2.377 2.377 0 0 0-.65 1.709V4677Zm10.116-7.866v-1.534h1.239a.532.532 0 0 0 .4-.167.625.625 0 0 0 .158-.448v-2.061h1.78v2.663H394v1.547h-2.74v4.825q0 1.441 1.371 1.441h1.274v1.6h-1.564a2.988 2.988 0 0 1-2.188-.769 2.974 2.974 0 0 1-.782-2.219v-4.878Zm8.56 7.866v-9.413h1.819v1.635h.123a2.582 2.582 0 0 1 .923-1.151 2.614 2.614 0 0 1 1.6-.5h.826v1.835h-.879a2.276 2.276 0 0 0-1.85.809 3.246 3.246 0 0 0-.672 2.145v4.64Zm7.717-1.125a5.009 5.009 0 0 1-1.266-3.551 5.143 5.143 0 0 1 1.257-3.582 4.148 4.148 0 0 1 3.226-1.392 3.9 3.9 0 0 1 1.187.176 3.079 3.079 0 0 1 .927.457 4.765 4.765 0 0 1 .593.514 3.348 3.348 0 0 1 .369.461h.132v-1.371h1.89V4677h-1.855v-1.336h-.114a3.535 3.535 0 0 1-3.041 1.573 4.319 4.319 0 0 1-3.305-1.362Zm.659-3.577a3.345 3.345 0 0 0 .8 2.342 2.723 2.723 0 0 0 2.114.883 2.639 2.639 0 0 0 2.109-.923 3.414 3.414 0 0 0 .791-2.3 3.275 3.275 0 0 0-.822-2.351 2.764 2.764 0 0 0-2.1-.866 2.681 2.681 0 0 0-2.092.9 3.336 3.336 0 0 0-.8 2.317Zm10.969 3.577a5.009 5.009 0 0 1-1.266-3.551 5.143 5.143 0 0 1 1.257-3.582 4.148 4.148 0 0 1 3.221-1.392 3.9 3.9 0 0 1 1.187.176 3.079 3.079 0 0 1 .927.457 4.765 4.765 0 0 1 .593.514 3.348 3.348 0 0 1 .369.461h.132v-5.458h1.892v13.5h-1.852v-1.336h-.114a3.535 3.535 0 0 1-3.041 1.573 4.319 4.319 0 0 1-3.305-1.362Zm.659-3.577a3.345 3.345 0 0 0 .8 2.342 2.723 2.723 0 0 0 2.114.883 2.639 2.639 0 0 0 2.109-.923 3.414 3.414 0 0 0 .791-2.3 3.275 3.275 0 0 0-.822-2.351 2.764 2.764 0 0 0-2.1-.866 2.681 2.681 0 0 0-2.092.9 3.336 3.336 0 0 0-.8 2.317Zm10.969 3.577a5.009 5.009 0 0 1-1.266-3.551 5.143 5.143 0 0 1 1.257-3.582 4.148 4.148 0 0 1 3.226-1.392 3.9 3.9 0 0 1 1.187.176 3.079 3.079 0 0 1 .927.457 4.765 4.765 0 0 1 .593.514 3.348 3.348 0 0 1 .369.461h.132v-1.371h1.89V4677h-1.855v-1.336h-.114a3.535 3.535 0 0 1-3.041 1.573 4.319 4.319 0 0 1-3.305-1.362Zm.659-3.577a3.345 3.345 0 0 0 .8 2.342 2.723 2.723 0 0 0 2.114.883 2.639 2.639 0 0 0 2.111-.923 3.414 3.414 0 0 0 .791-2.3 3.275 3.275 0 0 0-.822-2.351 2.764 2.764 0 0 0-2.1-.866 2.681 2.681 0 0 0-2.092.9 3.336 3.336 0 0 0-.802 2.317Zm14.238-4.711h2l2.531 7.128h.132l2.514-7.128h2.039l-3.582 9.413H445.7Zm10.846-2.681a1.124 1.124 0 0 1 .352-.853 1.237 1.237 0 0 1 .889-.333 1.276 1.276 0 0 1 .91.334 1.118 1.118 0 0 1 .356.853 1.138 1.138 0 0 1-.356.87 1.276 1.276 0 0 1-.91.334 1.234 1.234 0 0 1-.892-.334 1.153 1.153 0 0 1-.349-.871Zm.29 12.094v-9.413h1.89V4677Zm4.605 0v-9.413h1.819v1.635h.127a2.582 2.582 0 0 1 .92-1.152 2.614 2.614 0 0 1 1.6-.5h.826v1.836h-.879a2.276 2.276 0 0 0-1.85.809 3.246 3.246 0 0 0-.672 2.145v4.64Zm6.724-7.866v-1.534h1.239a.532.532 0 0 0 .4-.167.625.625 0 0 0 .158-.448v-2.061h1.775v2.663h2.75v1.547h-2.742v4.825q0 1.441 1.371 1.441h1.271v1.6h-1.564a2.988 2.988 0 0 1-2.188-.769 2.974 2.974 0 0 1-.782-2.219v-4.878Zm8.42 4.5v-6.047h1.89v5.7a2.169 2.169 0 0 0 .6 1.591 2.023 2.023 0 0 0 1.5.606 2.176 2.176 0 0 0 1.639-.672 2.356 2.356 0 0 0 .646-1.7v-5.525h1.89V4677h-1.837v-1.257h-.126a2.545 2.545 0 0 1-1.033 1.063 3.3 3.3 0 0 1-1.718.431 3.255 3.255 0 0 1-2.514-1.02 3.663 3.663 0 0 1-.935-2.583Zm11.531 2.241a5.009 5.009 0 0 1-1.266-3.551 5.143 5.143 0 0 1 1.257-3.582 4.148 4.148 0 0 1 3.226-1.393 3.9 3.9 0 0 1 1.187.176 3.079 3.079 0 0 1 .927.457 4.765 4.765 0 0 1 .593.514 3.348 3.348 0 0 1 .369.461h.132v-1.37h1.89V4677h-1.854v-1.336h-.114a3.535 3.535 0 0 1-3.041 1.573 4.319 4.319 0 0 1-3.306-1.362Zm.659-3.577a3.345 3.345 0 0 0 .8 2.342 2.723 2.723 0 0 0 2.114.883 2.639 2.639 0 0 0 2.109-.923 3.414 3.414 0 0 0 .791-2.3 3.275 3.275 0 0 0-.822-2.351 2.764 2.764 0 0 0-2.1-.866 2.681 2.681 0 0 0-2.092.9 3.336 3.336 0 0 0-.8 2.317Zm10.371 2.364V4663.5h1.89v11.048a.831.831 0 0 0 .185.58.689.689 0 0 0 .536.2h.4V4677h-.773a2.164 2.164 0 0 1-1.648-.615 2.4 2.4 0 0 1-.589-1.723Zm10.925 1.213a5.009 5.009 0 0 1-1.266-3.551 5.143 5.143 0 0 1 1.257-3.582 4.148 4.148 0 0 1 3.225-1.392 3.9 3.9 0 0 1 1.187.176 3.079 3.079 0 0 1 .927.457 4.765 4.765 0 0 1 .593.514 3.348 3.348 0 0 1 .369.461h.132v-1.371h1.89V4677h-1.854v-1.336h-.114a3.535 3.535 0 0 1-3.041 1.573 4.319 4.319 0 0 1-3.305-1.362Zm.659-3.577a3.345 3.345 0 0 0 .8 2.342 2.723 2.723 0 0 0 2.114.883 2.639 2.639 0 0 0 2.109-.923 3.414 3.414 0 0 0 .791-2.3 3.275 3.275 0 0 0-.822-2.351 2.764 2.764 0 0 0-2.1-.866 2.681 2.681 0 0 0-2.092.9 3.336 3.336 0 0 0-.799 2.317Zm10.371 2.364V4663.5h1.89v11.048a.831.831 0 0 0 .185.58.689.689 0 0 0 .536.2h.4V4677h-.773a2.164 2.164 0 0 1-1.648-.615 2.4 2.4 0 0 1-.589-1.723Zm9.554-5.528v-1.534h1.239a.532.532 0 0 0 .4-.167.625.625 0 0 0 .158-.448v-2.061h1.775v2.663h2.742v1.547h-2.742v4.825q0 1.441 1.371 1.441h1.274v1.6h-1.564a2.988 2.988 0 0 1-2.188-.769 2.974 2.974 0 0 1-.782-2.219v-4.878Zm9.158 6.741a5.009 5.009 0 0 1-1.266-3.551 5.143 5.143 0 0 1 1.257-3.582 4.148 4.148 0 0 1 3.226-1.393 3.9 3.9 0 0 1 1.187.176 3.079 3.079 0 0 1 .927.457 4.765 4.765 0 0 1 .593.514 3.348 3.348 0 0 1 .369.461h.132v-1.37h1.89V4677h-1.854v-1.336h-.114a3.535 3.535 0 0 1-3.041 1.573 4.319 4.319 0 0 1-3.305-1.362Zm.659-3.577a3.345 3.345 0 0 0 .8 2.342 2.723 2.723 0 0 0 2.114.883 2.639 2.639 0 0 0 2.109-.923 3.414 3.414 0 0 0 .791-2.3 3.275 3.275 0 0 0-.822-2.351 2.764 2.764 0 0 0-2.1-.866 2.681 2.681 0 0 0-2.092.9 3.336 3.336 0 0 0-.799 2.317Zm10.371 2.364V4663.5h1.89v11.048a.831.831 0 0 0 .185.58.689.689 0 0 0 .536.2h.4V4677h-.773a2.164 2.164 0 0 1-1.648-.615 2.4 2.4 0 0 1-.589-1.723Zm5.142 0V4663.5h1.89v11.048a.831.831 0 0 0 .185.58.689.689 0 0 0 .536.2h.4V4677h-.773a2.164 2.164 0 0 1-1.648-.615 2.4 2.4 0 0 1-.588-1.723Zm4.438-2.338a5.393 5.393 0 0 1 .615-2.606 4.374 4.374 0 0 1 1.683-1.753 4.727 4.727 0 0 1 2.4-.615 4.89 4.89 0 0 1 1.951.378 3.988 3.988 0 0 1 1.455 1.037 4.7 4.7 0 0 1 .888 1.538 5.608 5.608 0 0 1 .312 1.89v.7h-7.418a2.725 2.725 0 0 0 2.9 2.751 3.175 3.175 0 0 0 1.6-.4 2.207 2.207 0 0 0 .989-1.09h1.837a3.892 3.892 0 0 1-1.569 2.237 4.917 4.917 0 0 1-2.914.848 4.509 4.509 0 0 1-3.419-1.384 4.91 4.91 0 0 1-1.309-3.531Zm1.925-.888h5.511a2.592 2.592 0 0 0-.852-1.836 2.916 2.916 0 0 0-3.762.031 2.662 2.662 0 0 0-.896 1.806Zm9.669 5.564v-9.413h1.819v1.635h.123a2.582 2.582 0 0 1 .923-1.151 2.614 2.614 0 0 1 1.6-.5h.826v1.835h-.879a2.276 2.276 0 0 0-1.85.809 3.246 3.246 0 0 0-.672 2.145v4.64Zm-201.604 42.7a6.773 6.773 0 0 1 .492-2.58 6.288 6.288 0 0 1 1.354-2.08 6.21 6.21 0 0 1 2.078-1.371 6.8 6.8 0 0 1 2.615-.5 6.2 6.2 0 0 1 3.872 1.23 5.994 5.994 0 0 1 2.175 3.252h-2.092a3.626 3.626 0 0 0-1.485-1.942 4.4 4.4 0 0 0-2.47-.7 4.453 4.453 0 0 0-2.3.611 4.331 4.331 0 0 0-1.628 1.68 4.908 4.908 0 0 0-.589 2.4 4.647 4.647 0 0 0 1.292 3.364 4.3 4.3 0 0 0 3.225 1.336 4.4 4.4 0 0 0 2.461-.694 3.684 3.684 0 0 0 1.494-1.934h2.127a5.77 5.77 0 0 1-2.175 3.243 6.354 6.354 0 0 1-3.907 1.222 6.888 6.888 0 0 1-2.619-.5 6.132 6.132 0 0 1-2.079-1.362 6.263 6.263 0 0 1-1.349-2.075 6.852 6.852 0 0 1-.492-2.6Zm14.8 2.936v-6.049h1.89v5.7a2.169 2.169 0 0 0 .6 1.591 2.023 2.023 0 0 0 1.5.606 2.176 2.176 0 0 0 1.639-.672 2.356 2.356 0 0 0 .646-1.7v-5.525h1.89V4726h-1.836v-1.257h-.123a2.545 2.545 0 0 1-1.032 1.064 3.3 3.3 0 0 1-1.718.431 3.255 3.255 0 0 1-2.514-1.02 3.663 3.663 0 0 1-.941-2.584Zm11.531 2.241a5.009 5.009 0 0 1-1.266-3.551 5.143 5.143 0 0 1 1.257-3.582 4.148 4.148 0 0 1 3.226-1.393 3.9 3.9 0 0 1 1.187.176 3.079 3.079 0 0 1 .927.457 4.765 4.765 0 0 1 .593.514 3.348 3.348 0 0 1 .369.461h.132v-1.372h1.89V4726h-1.854v-1.336h-.118a3.535 3.535 0 0 1-3.041 1.573 4.319 4.319 0 0 1-3.301-1.362Zm.659-3.577a3.345 3.345 0 0 0 .8 2.342 2.723 2.723 0 0 0 2.114.883 2.639 2.639 0 0 0 2.109-.923 3.414 3.414 0 0 0 .791-2.3 3.275 3.275 0 0 0-.822-2.351 2.764 2.764 0 0 0-2.1-.866 2.681 2.681 0 0 0-2.092.9 3.336 3.336 0 0 0-.799 2.315Zm10.969 3.577a5.009 5.009 0 0 1-1.266-3.551 5.143 5.143 0 0 1 1.257-3.582 4.148 4.148 0 0 1 3.224-1.394 3.9 3.9 0 0 1 1.187.176 3.079 3.079 0 0 1 .927.457 4.765 4.765 0 0 1 .593.514 3.348 3.348 0 0 1 .369.461h.132v-5.458h1.892v13.5h-1.854v-1.336h-.114a3.535 3.535 0 0 1-3.041 1.573 4.319 4.319 0 0 1-3.305-1.362Zm.659-3.577a3.345 3.345 0 0 0 .8 2.342 2.723 2.723 0 0 0 2.114.883 2.639 2.639 0 0 0 2.109-.923 3.414 3.414 0 0 0 .791-2.3 3.275 3.275 0 0 0-.822-2.351 2.764 2.764 0 0 0-2.1-.866 2.681 2.681 0 0 0-2.092.9 3.336 3.336 0 0 0-.799 2.315Zm9.7.026a5.393 5.393 0 0 1 .615-2.606 4.374 4.374 0 0 1 1.683-1.753 4.727 4.727 0 0 1 2.4-.615 4.89 4.89 0 0 1 1.951.378 3.988 3.988 0 0 1 1.455 1.037 4.7 4.7 0 0 1 .888 1.538 5.608 5.608 0 0 1 .312 1.89v.7h-7.41a2.725 2.725 0 0 0 2.9 2.751 3.175 3.175 0 0 0 1.6-.4 2.207 2.207 0 0 0 .989-1.09h1.837a3.892 3.892 0 0 1-1.564 2.233 4.917 4.917 0 0 1-2.914.848 4.509 4.509 0 0 1-3.419-1.384 4.91 4.91 0 0 1-1.319-3.529Zm1.925-.888h5.511a2.592 2.592 0 0 0-.853-1.833 2.916 2.916 0 0 0-3.762.031 2.662 2.662 0 0 0-.892 1.801Zm9.672 5.562v-9.413h1.819v1.635h.123a2.582 2.582 0 0 1 .923-1.151 2.614 2.614 0 0 1 1.6-.5h.826v1.837h-.879a2.276 2.276 0 0 0-1.85.809 3.246 3.246 0 0 0-.672 2.145V4726Zm7.459 0v-9.413h1.84v1.257h.123a2.539 2.539 0 0 1 1.037-1.064 3.327 3.327 0 0 1 1.723-.431 3.255 3.255 0 0 1 2.514 1.02 3.663 3.663 0 0 1 .94 2.584V4726h-1.89v-5.687a2.163 2.163 0 0 0-.6-1.586 2.03 2.03 0 0 0-1.507-.611 2.165 2.165 0 0 0-1.635.681 2.377 2.377 0 0 0-.65 1.709V4726Zm10.222-4.7a5.076 5.076 0 0 1 .637-2.531 4.568 4.568 0 0 1 1.78-1.775 5.15 5.15 0 0 1 2.566-.642 5.071 5.071 0 0 1 2.565.648 4.584 4.584 0 0 1 1.767 1.78 5.09 5.09 0 0 1 .628 2.518 5.035 5.035 0 0 1-.637 2.518 4.607 4.607 0 0 1-1.78 1.775 5.105 5.105 0 0 1-2.558.646 4.8 4.8 0 0 1-4.965-4.937Zm1.925 0a3.243 3.243 0 0 0 .857 2.316 3.082 3.082 0 0 0 4.377 0 3.546 3.546 0 0 0 0-4.623 3.1 3.1 0 0 0-4.381 0 3.24 3.24 0 0 0-.85 2.307Zm15.785 3.577a5.009 5.009 0 0 1-1.266-3.551 5.143 5.143 0 0 1 1.257-3.582 4.148 4.148 0 0 1 3.226-1.393 3.9 3.9 0 0 1 1.187.176 3.079 3.079 0 0 1 .927.457 4.765 4.765 0 0 1 .593.514 3.348 3.348 0 0 1 .369.461h.132v-5.459h1.89v13.5h-1.854v-1.336h-.114a3.535 3.535 0 0 1-3.041 1.573 4.319 4.319 0 0 1-3.303-1.362Zm.659-3.577a3.345 3.345 0 0 0 .8 2.342 2.723 2.723 0 0 0 2.114.883 2.639 2.639 0 0 0 2.109-.923 3.414 3.414 0 0 0 .791-2.3 3.275 3.275 0 0 0-.822-2.351 2.764 2.764 0 0 0-2.1-.866 2.681 2.681 0 0 0-2.092.9 3.336 3.336 0 0 0-.797 2.315Zm9.7.026a5.393 5.393 0 0 1 .615-2.606 4.374 4.374 0 0 1 1.683-1.753 4.727 4.727 0 0 1 2.4-.615 4.89 4.89 0 0 1 1.951.378 3.988 3.988 0 0 1 1.455 1.037 4.7 4.7 0 0 1 .888 1.538 5.608 5.608 0 0 1 .312 1.89v.7h-7.418a2.725 2.725 0 0 0 2.9 2.751 3.175 3.175 0 0 0 1.6-.4 2.207 2.207 0 0 0 .989-1.09h1.837a3.892 3.892 0 0 1-1.569 2.237 4.917 4.917 0 0 1-2.914.848 4.509 4.509 0 0 1-3.419-1.384 4.91 4.91 0 0 1-1.301-3.533Zm1.925-.888h5.511a2.592 2.592 0 0 0-.853-1.833 2.916 2.916 0 0 0-3.762.031 2.662 2.662 0 0 0-.89 1.801Zm13.79-2.3v-1.538h1.239a.532.532 0 0 0 .4-.167.625.625 0 0 0 .158-.448v-2.061h1.775v2.663h2.742v1.547h-2.742v4.825q0 1.441 1.371 1.441h1.274v1.6h-1.553a2.7 2.7 0 0 1-2.971-2.988v-4.878Zm8.566 7.862v-9.413h1.819v1.635h.123a2.582 2.582 0 0 1 .923-1.151 2.614 2.614 0 0 1 1.6-.5h.826v1.837h-.879a2.276 2.276 0 0 0-1.85.809 3.246 3.246 0 0 0-.672 2.145V4726Zm7.717-1.125a5.009 5.009 0 0 1-1.266-3.551 5.143 5.143 0 0 1 1.257-3.582 4.148 4.148 0 0 1 3.226-1.393 3.9 3.9 0 0 1 1.187.176 3.079 3.079 0 0 1 .927.457 4.765 4.765 0 0 1 .593.514 3.348 3.348 0 0 1 .369.461h.132v-1.37h1.89V4726h-1.854v-1.336h-.114a3.535 3.535 0 0 1-3.041 1.573 4.319 4.319 0 0 1-3.306-1.362Zm.659-3.577a3.345 3.345 0 0 0 .8 2.342 2.723 2.723 0 0 0 2.114.883 2.639 2.639 0 0 0 2.109-.923 3.414 3.414 0 0 0 .791-2.3 3.275 3.275 0 0 0-.822-2.351 2.764 2.764 0 0 0-2.1-.866 2.681 2.681 0 0 0-2.092.9 3.336 3.336 0 0 0-.8 2.317ZM515.52 4726v-13.5h1.89v5.458h.105a2.681 2.681 0 0 1 .374-.466 5.172 5.172 0 0 1 .606-.514 3.137 3.137 0 0 1 .932-.453 3.942 3.942 0 0 1 1.191-.176 4.112 4.112 0 0 1 3.208 1.393 5.165 5.165 0 0 1 1.248 3.582 5.009 5.009 0 0 1-1.266 3.551 4.3 4.3 0 0 1-3.3 1.362 3.519 3.519 0 0 1-3.023-1.573h-.123V4726Zm1.837-4.7a3.438 3.438 0 0 0 .782 2.3 2.613 2.613 0 0 0 2.1.923 2.713 2.713 0 0 0 2.114-.879 3.821 3.821 0 0 0 0-4.667 2.647 2.647 0 0 0-2.079-.9 2.764 2.764 0 0 0-2.1.866 3.275 3.275 0 0 0-.818 2.357Zm10.6 3.577a5.009 5.009 0 0 1-1.266-3.551 5.143 5.143 0 0 1 1.257-3.582 4.148 4.148 0 0 1 3.226-1.393 3.9 3.9 0 0 1 1.187.176 3.079 3.079 0 0 1 .927.457 4.765 4.765 0 0 1 .593.514 3.348 3.348 0 0 1 .369.461h.132v-1.372h1.89V4726h-1.854v-1.336h-.118a3.535 3.535 0 0 1-3.041 1.573 4.319 4.319 0 0 1-3.303-1.362Zm.659-3.577a3.345 3.345 0 0 0 .8 2.342 2.723 2.723 0 0 0 2.114.883 2.639 2.639 0 0 0 2.109-.923 3.414 3.414 0 0 0 .791-2.3 3.275 3.275 0 0 0-.822-2.351 2.764 2.764 0 0 0-2.1-.866 2.681 2.681 0 0 0-2.092.9 3.336 3.336 0 0 0-.801 2.315Zm8.464 7.154h.668a1.5 1.5 0 0 0 1.617-1.608v-10.259h1.89v10.274a3.167 3.167 0 0 1-.918 2.4 3.335 3.335 0 0 1-2.413.883h-.844Zm1.978-14.546a1.128 1.128 0 0 1 .352-.848 1.24 1.24 0 0 1 .9-.338 1.261 1.261 0 0 1 .905.334 1.124 1.124 0 0 1 .352.853 1.146 1.146 0 0 1-.352.87 1.382 1.382 0 0 1-1.8 0 1.146 1.146 0 0 1-.358-.873Zm4.5 7.392a5.076 5.076 0 0 1 .637-2.531 4.568 4.568 0 0 1 1.78-1.775 5.15 5.15 0 0 1 2.566-.642 5.071 5.071 0 0 1 2.559.648 4.584 4.584 0 0 1 1.767 1.78 5.09 5.09 0 0 1 .633 2.52 5.035 5.035 0 0 1-.637 2.518 4.607 4.607 0 0 1-1.78 1.775 5.105 5.105 0 0 1-2.558.646 4.8 4.8 0 0 1-4.966-4.939Zm1.925 0a3.243 3.243 0 0 0 .857 2.316 3.082 3.082 0 0 0 4.377 0 3.546 3.546 0 0 0 0-4.623 3.1 3.1 0 0 0-4.381 0 3.24 3.24 0 0 0-.855 2.307Zm10.141 4.6a1.109 1.109 0 0 1-.36-.835 1.137 1.137 0 0 1 .36-.844 1.18 1.18 0 0 1 .853-.352 1.135 1.135 0 0 1 .848.347 1.169 1.169 0 0 1 .338.848 1.125 1.125 0 0 1-.338.835 1.158 1.158 0 0 1-.848.334 1.212 1.212 0 0 1-.853-.333Zm-188.798 42.8a6.773 6.773 0 0 1 .492-2.58 6.288 6.288 0 0 1 1.354-2.079 6.21 6.21 0 0 1 2.079-1.371 6.8 6.8 0 0 1 2.615-.5 6.2 6.2 0 0 1 3.872 1.23 5.994 5.994 0 0 1 2.175 3.252h-2.093a3.626 3.626 0 0 0-1.485-1.942 4.4 4.4 0 0 0-2.47-.7 4.453 4.453 0 0 0-2.3.611 4.331 4.331 0 0 0-1.628 1.679 4.908 4.908 0 0 0-.589 2.4 4.647 4.647 0 0 0 1.292 3.366 4.3 4.3 0 0 0 3.225 1.334 4.4 4.4 0 0 0 2.461-.694 3.684 3.684 0 0 0 1.494-1.934h2.127a5.77 5.77 0 0 1-2.175 3.243 6.354 6.354 0 0 1-3.907 1.222 6.888 6.888 0 0 1-2.619-.5 6.132 6.132 0 0 1-2.079-1.362 6.263 6.263 0 0 1-1.349-2.075 6.852 6.852 0 0 1-.492-2.6Zm14.274 1.624a5.393 5.393 0 0 1 .615-2.606 4.374 4.374 0 0 1 1.683-1.753 4.727 4.727 0 0 1 2.4-.615 4.89 4.89 0 0 1 1.951.378 3.988 3.988 0 0 1 1.455 1.037 4.7 4.7 0 0 1 .896 1.535 5.608 5.608 0 0 1 .312 1.89v.7h-7.423a2.725 2.725 0 0 0 2.9 2.751 3.175 3.175 0 0 0 1.6-.4 2.207 2.207 0 0 0 .989-1.09h1.837a3.892 3.892 0 0 1-1.569 2.237 4.917 4.917 0 0 1-2.914.848 4.509 4.509 0 0 1-3.419-1.384 4.91 4.91 0 0 1-1.313-3.528Zm1.925-.888h5.511a2.592 2.592 0 0 0-.853-1.833 2.916 2.916 0 0 0-3.762.031 2.662 2.662 0 0 0-.897 1.803Zm9.667 5.564v-9.413h1.819v1.635h.123a2.582 2.582 0 0 1 .923-1.151 2.614 2.614 0 0 1 1.6-.5h.826v1.837h-.883a2.276 2.276 0 0 0-1.85.809 3.246 3.246 0 0 0-.672 2.145V4775Zm6.724-7.866v-1.534h1.239a.532.532 0 0 0 .4-.167.625.625 0 0 0 .158-.448v-2.065h1.775v2.663h2.742v1.547h-2.737v4.825q0 1.441 1.371 1.441h1.274V4775h-1.564a2.7 2.7 0 0 1-2.971-2.988v-4.878Zm8.271-4.228a1.124 1.124 0 0 1 .352-.853 1.237 1.237 0 0 1 .888-.334 1.276 1.276 0 0 1 .91.334 1.118 1.118 0 0 1 .356.853 1.138 1.138 0 0 1-.356.87 1.276 1.276 0 0 1-.91.334 1.234 1.234 0 0 1-.892-.334 1.153 1.153 0 0 1-.348-.87Zm.29 12.094v-9.413h1.89V4775Zm3.647-7.866v-1.547h1.714v-.94a2.968 2.968 0 0 1 .923-2.3 3.444 3.444 0 0 1 2.426-.848h1.063v1.6h-.958a1.531 1.531 0 0 0-1.2.444 1.685 1.685 0 0 0-.4 1.165v.879h2.628v1.547h-2.61V4775h-1.89v-7.866Zm8.147-4.228a1.124 1.124 0 0 1 .352-.853 1.237 1.237 0 0 1 .888-.334 1.276 1.276 0 0 1 .91.334 1.118 1.118 0 0 1 .356.853 1.138 1.138 0 0 1-.356.87 1.276 1.276 0 0 1-.91.334 1.234 1.234 0 0 1-.892-.334 1.153 1.153 0 0 1-.348-.87Zm.291 12.094v-9.413h1.89V4775Zm3.938-4.7a5.159 5.159 0 0 1 .615-2.509 4.556 4.556 0 0 1 1.735-1.791 4.915 4.915 0 0 1 2.527-.655 4.76 4.76 0 0 1 2.966.967 4.122 4.122 0 0 1 1.586 2.566h-1.942a2.416 2.416 0 0 0-.954-1.305 2.781 2.781 0 0 0-1.639-.5 2.73 2.73 0 0 0-2.136.914 3.635 3.635 0 0 0 .018 4.614 2.956 2.956 0 0 0 3.771.422 2.39 2.39 0 0 0 .958-1.292h1.925a4.035 4.035 0 0 1-1.573 2.544 4.785 4.785 0 0 1-2.962.954 5.128 5.128 0 0 1-1.991-.382 4.5 4.5 0 0 1-1.551-1.046 4.828 4.828 0 0 1-.993-1.573 5.214 5.214 0 0 1-.36-1.928Zm12.331 3.577a5.009 5.009 0 0 1-1.266-3.551 5.143 5.143 0 0 1 1.257-3.582 4.148 4.148 0 0 1 3.226-1.393 3.9 3.9 0 0 1 1.187.176 3.079 3.079 0 0 1 .927.457 4.765 4.765 0 0 1 .593.514 3.348 3.348 0 0 1 .369.461h.132v-1.371h1.89V4775h-1.856v-1.336h-.114a3.535 3.535 0 0 1-3.041 1.573 4.319 4.319 0 0 1-3.305-1.362Zm.659-3.577a3.345 3.345 0 0 0 .8 2.342 2.723 2.723 0 0 0 2.114.883 2.639 2.639 0 0 0 2.109-.923 3.414 3.414 0 0 0 .791-2.3 3.275 3.275 0 0 0-.822-2.351 2.764 2.764 0 0 0-2.1-.866 2.681 2.681 0 0 0-2.092.9 3.336 3.336 0 0 0-.801 2.315Zm10.969 3.577a5.009 5.009 0 0 1-1.266-3.551 5.143 5.143 0 0 1 1.257-3.582 4.148 4.148 0 0 1 3.226-1.393 3.9 3.9 0 0 1 1.187.176 3.079 3.079 0 0 1 .927.457 4.765 4.765 0 0 1 .593.514 3.348 3.348 0 0 1 .369.461h.132v-5.459h1.89v13.5h-1.856v-1.336h-.118a3.535 3.535 0 0 1-3.041 1.573 4.319 4.319 0 0 1-3.301-1.362Zm.659-3.577a3.345 3.345 0 0 0 .8 2.342 2.723 2.723 0 0 0 2.114.883 2.639 2.639 0 0 0 2.109-.923 3.414 3.414 0 0 0 .791-2.3 3.275 3.275 0 0 0-.822-2.351 2.764 2.764 0 0 0-2.1-.866 2.681 2.681 0 0 0-2.092.9 3.336 3.336 0 0 0-.801 2.315Zm9.7 0a5.076 5.076 0 0 1 .637-2.531 4.568 4.568 0 0 1 1.78-1.775 5.15 5.15 0 0 1 2.566-.642 5.071 5.071 0 0 1 2.562.65 4.584 4.584 0 0 1 1.767 1.78 5.09 5.09 0 0 1 .628 2.518 5.035 5.035 0 0 1-.637 2.518 4.607 4.607 0 0 1-1.78 1.775 5.105 5.105 0 0 1-2.558.646 4.8 4.8 0 0 1-4.963-4.939Zm1.925 0a3.243 3.243 0 0 0 .857 2.316 3.082 3.082 0 0 0 4.377 0 3.546 3.546 0 0 0 0-4.623 3.1 3.1 0 0 0-4.381 0 3.24 3.24 0 0 0-.851 2.307Zm15.785 3.577a5.009 5.009 0 0 1-1.266-3.551 5.143 5.143 0 0 1 1.257-3.582 4.148 4.148 0 0 1 3.226-1.393 3.9 3.9 0 0 1 1.187.176 3.079 3.079 0 0 1 .927.457 4.765 4.765 0 0 1 .593.514 3.348 3.348 0 0 1 .369.461h.132v-5.459h1.89v13.5h-1.853v-1.336h-.114a3.535 3.535 0 0 1-3.041 1.573 4.319 4.319 0 0 1-3.305-1.362Zm.659-3.577a3.345 3.345 0 0 0 .8 2.342 2.723 2.723 0 0 0 2.114.883 2.639 2.639 0 0 0 2.109-.923 3.414 3.414 0 0 0 .791-2.3 3.275 3.275 0 0 0-.822-2.351 2.764 2.764 0 0 0-2.1-.866 2.681 2.681 0 0 0-2.092.9 3.336 3.336 0 0 0-.798 2.315Zm9.7.026a5.393 5.393 0 0 1 .615-2.606 4.374 4.374 0 0 1 1.683-1.753 4.727 4.727 0 0 1 2.4-.615 4.89 4.89 0 0 1 1.951.378 3.988 3.988 0 0 1 1.455 1.037 4.7 4.7 0 0 1 .888 1.538 5.608 5.608 0 0 1 .312 1.89v.7h-7.418a2.725 2.725 0 0 0 2.9 2.751 3.175 3.175 0 0 0 1.6-.4 2.207 2.207 0 0 0 .989-1.09h1.837a3.892 3.892 0 0 1-1.569 2.237 4.917 4.917 0 0 1-2.914.848 4.509 4.509 0 0 1-3.419-1.384 4.91 4.91 0 0 1-1.304-3.533Zm1.925-.888h5.511a2.592 2.592 0 0 0-.853-1.833 2.916 2.916 0 0 0-3.762.031 2.662 2.662 0 0 0-.891 1.801Zm15.161 4.438a5.009 5.009 0 0 1-1.266-3.551 5.143 5.143 0 0 1 1.257-3.582 4.148 4.148 0 0 1 3.226-1.393 3.9 3.9 0 0 1 1.187.176 3.079 3.079 0 0 1 .927.457 4.765 4.765 0 0 1 .593.514 3.348 3.348 0 0 1 .369.461h.132v-1.371h1.89V4775h-1.854v-1.336h-.114a3.535 3.535 0 0 1-3.041 1.573 4.319 4.319 0 0 1-3.3-1.362Zm.659-3.577a3.345 3.345 0 0 0 .8 2.342 2.723 2.723 0 0 0 2.114.883 2.639 2.639 0 0 0 2.109-.923 3.414 3.414 0 0 0 .791-2.3 3.275 3.275 0 0 0-.822-2.351 2.764 2.764 0 0 0-2.1-.866 2.681 2.681 0 0 0-2.092.9 3.336 3.336 0 0 0-.794 2.316Zm9.826 1.916h1.784q.185 1.468 2.057 1.468a2.35 2.35 0 0 0 1.419-.374 1.187 1.187 0 0 0 .505-1.006.984.984 0 0 0-.3-.751 1.86 1.86 0 0 0-.791-.422 10.1 10.1 0 0 0-1.077-.233 11.814 11.814 0 0 1-1.173-.255 4.985 4.985 0 0 1-1.072-.422 2.005 2.005 0 0 1-.791-.8 2.618 2.618 0 0 1-.3-1.314 2.419 2.419 0 0 1 .984-1.982 4.047 4.047 0 0 1 2.584-.778 3.842 3.842 0 0 1 2.426.756 2.78 2.78 0 0 1 1.081 2.074h-1.731a1.368 1.368 0 0 0-.554-.967 2.143 2.143 0 0 0-1.3-.352 2.1 2.1 0 0 0-1.252.338 1.034 1.034 0 0 0-.47.875.843.843 0 0 0 .242.615 1.362 1.362 0 0 0 .633.352q.391.105.892.207t1.024.18a4.851 4.851 0 0 1 1.024.272 4.077 4.077 0 0 1 .892.47 1.952 1.952 0 0 1 .633.8 2.95 2.95 0 0 1 .242 1.239 2.679 2.679 0 0 1-1.033 2.188 4.3 4.3 0 0 1-2.782.835 4.118 4.118 0 0 1-2.72-.813 3.021 3.021 0 0 1-1.07-2.201Zm9.791-9.308a1.124 1.124 0 0 1 .352-.853 1.237 1.237 0 0 1 .888-.334 1.276 1.276 0 0 1 .91.334 1.118 1.118 0 0 1 .356.853 1.138 1.138 0 0 1-.356.87 1.276 1.276 0 0 1-.91.334 1.234 1.234 0 0 1-.892-.334 1.153 1.153 0 0 1-.342-.871Zm.29 12.094v-9.413h1.89V4775Zm4.061-2.786h1.784q.185 1.468 2.057 1.468a2.35 2.35 0 0 0 1.419-.374 1.187 1.187 0 0 0 .505-1.006.984.984 0 0 0-.3-.751 1.86 1.86 0 0 0-.791-.422 10.1 10.1 0 0 0-1.077-.233 11.814 11.814 0 0 1-1.173-.255 4.985 4.985 0 0 1-1.072-.422 2.005 2.005 0 0 1-.791-.8 2.618 2.618 0 0 1-.3-1.314 2.419 2.419 0 0 1 .984-1.982 4.047 4.047 0 0 1 2.584-.778 3.842 3.842 0 0 1 2.426.756 2.78 2.78 0 0 1 1.081 2.074H533.7a1.368 1.368 0 0 0-.554-.967 2.143 2.143 0 0 0-1.3-.352 2.1 2.1 0 0 0-1.252.338 1.034 1.034 0 0 0-.47.875.843.843 0 0 0 .242.615 1.362 1.362 0 0 0 .633.352q.391.105.892.207t1.024.18a4.851 4.851 0 0 1 1.024.272 4.077 4.077 0 0 1 .892.47 1.952 1.952 0 0 1 .633.8 2.95 2.95 0 0 1 .242 1.239 2.679 2.679 0 0 1-1.033 2.188 4.3 4.3 0 0 1-2.782.835 4.118 4.118 0 0 1-2.72-.813 3.021 3.021 0 0 1-1.066-2.201Zm9.308-5.08v-1.535h1.239a.532.532 0 0 0 .4-.167.625.625 0 0 0 .158-.448v-2.065h1.775v2.663h2.742v1.547h-2.732v4.825q0 1.441 1.371 1.441h1.274V4775h-1.564a2.7 2.7 0 0 1-2.971-2.988v-4.878Zm7.893 3.19a5.393 5.393 0 0 1 .615-2.606 4.374 4.374 0 0 1 1.683-1.753 4.727 4.727 0 0 1 2.4-.615 4.89 4.89 0 0 1 1.951.378 3.988 3.988 0 0 1 1.455 1.037 4.7 4.7 0 0 1 .888 1.538 5.608 5.608 0 0 1 .312 1.89v.7H547.2a2.725 2.725 0 0 0 2.9 2.751 3.175 3.175 0 0 0 1.6-.4 2.207 2.207 0 0 0 .989-1.09h1.837a3.892 3.892 0 0 1-1.569 2.237 4.917 4.917 0 0 1-2.914.848 4.509 4.509 0 0 1-3.419-1.384 4.91 4.91 0 0 1-1.318-3.532Zm1.925-.888h5.511a2.592 2.592 0 0 0-.853-1.833 2.916 2.916 0 0 0-3.762.031 2.662 2.662 0 0 0-.892 1.802ZM556.9 4775v-9.413h1.837v1.257h.123a2.539 2.539 0 0 1 1.037-1.063 3.327 3.327 0 0 1 1.723-.431 3.255 3.255 0 0 1 2.514 1.02 3.663 3.663 0 0 1 .94 2.584V4775h-1.89v-5.687a2.163 2.163 0 0 0-.6-1.586 2.03 2.03 0 0 0-1.507-.611 2.165 2.165 0 0 0-1.635.681 2.377 2.377 0 0 0-.65 1.709V4775Zm10.222-4.7a5.159 5.159 0 0 1 .615-2.509 4.556 4.556 0 0 1 1.734-1.791 4.915 4.915 0 0 1 2.529-.65 4.76 4.76 0 0 1 2.966.967 4.122 4.122 0 0 1 1.586 2.566h-1.942a2.416 2.416 0 0 0-.954-1.305 2.781 2.781 0 0 0-1.639-.5 2.73 2.73 0 0 0-2.136.914 3.635 3.635 0 0 0 .018 4.614 2.956 2.956 0 0 0 3.771.422 2.39 2.39 0 0 0 .958-1.292h1.925a4.035 4.035 0 0 1-1.573 2.544 4.785 4.785 0 0 1-2.962.954 5.128 5.128 0 0 1-1.991-.382 4.5 4.5 0 0 1-1.551-1.046 4.828 4.828 0 0 1-.993-1.573 5.214 5.214 0 0 1-.363-1.933Zm11.443-7.392a1.124 1.124 0 0 1 .352-.853 1.237 1.237 0 0 1 .888-.334 1.276 1.276 0 0 1 .91.334 1.118 1.118 0 0 1 .356.853 1.138 1.138 0 0 1-.356.87 1.276 1.276 0 0 1-.91.334 1.234 1.234 0 0 1-.892-.334 1.153 1.153 0 0 1-.35-.872Zm.29 12.094v-9.413h1.89V4775Zm5.2-1.125a5.009 5.009 0 0 1-1.266-3.551 5.143 5.143 0 0 1 1.257-3.582 4.148 4.148 0 0 1 3.226-1.393 3.9 3.9 0 0 1 1.187.176 3.079 3.079 0 0 1 .927.457 4.765 4.765 0 0 1 .593.514 3.348 3.348 0 0 1 .369.461h.132v-1.371h1.89V4775h-1.854v-1.336h-.116a3.535 3.535 0 0 1-3.041 1.573 4.319 4.319 0 0 1-3.302-1.362Zm.659-3.577a3.345 3.345 0 0 0 .8 2.342 2.723 2.723 0 0 0 2.114.883 2.639 2.639 0 0 0 2.109-.923 3.414 3.414 0 0 0 .791-2.3 3.275 3.275 0 0 0-.822-2.351 2.764 2.764 0 0 0-2.1-.866 2.681 2.681 0 0 0-2.092.9 3.336 3.336 0 0 0-.798 2.315ZM367.6 4824v-12.6h7.47v1.714h-5.528v3.656h4.737v1.688h-4.737v3.85h5.713V4824Zm9.967 0v-9.413h1.833v1.257h.123a2.539 2.539 0 0 1 1.037-1.063 3.327 3.327 0 0 1 1.723-.431 3.255 3.255 0 0 1 2.514 1.02 3.663 3.663 0 0 1 .94 2.584V4824h-1.89v-5.687a2.163 2.163 0 0 0-.6-1.586 2.03 2.03 0 0 0-1.507-.611 2.165 2.165 0 0 0-1.635.681 2.377 2.377 0 0 0-.65 1.709V4824Zm10.116-7.866v-1.534h1.239a.532.532 0 0 0 .4-.167.625.625 0 0 0 .158-.448v-2.065h1.78v2.663H394v1.547h-2.74v4.825q0 1.441 1.371 1.441h1.274V4824h-1.564a2.7 2.7 0 0 1-2.971-2.988v-4.878Zm8.56 7.866v-9.413h1.819v1.635h.123a2.582 2.582 0 0 1 .923-1.151 2.614 2.614 0 0 1 1.6-.5h.826v1.837h-.879a2.276 2.276 0 0 0-1.85.809 3.246 3.246 0 0 0-.672 2.145V4824Zm7.717-1.125a5.009 5.009 0 0 1-1.266-3.551 5.143 5.143 0 0 1 1.257-3.582 4.148 4.148 0 0 1 3.226-1.393 3.9 3.9 0 0 1 1.187.176 3.079 3.079 0 0 1 .927.457 4.765 4.765 0 0 1 .593.514 3.348 3.348 0 0 1 .369.461h.132v-1.371h1.89V4824h-1.855v-1.336h-.114a3.535 3.535 0 0 1-3.041 1.573 4.319 4.319 0 0 1-3.305-1.362Zm.659-3.577a3.345 3.345 0 0 0 .8 2.342 2.723 2.723 0 0 0 2.114.883 2.639 2.639 0 0 0 2.109-.923 3.414 3.414 0 0 0 .791-2.3 3.275 3.275 0 0 0-.822-2.351 2.764 2.764 0 0 0-2.1-.866 2.681 2.681 0 0 0-2.092.9 3.336 3.336 0 0 0-.8 2.317Zm10.969 3.577a5.009 5.009 0 0 1-1.266-3.551 5.143 5.143 0 0 1 1.257-3.582 4.148 4.148 0 0 1 3.221-1.392 3.9 3.9 0 0 1 1.187.176 3.079 3.079 0 0 1 .927.457 4.765 4.765 0 0 1 .593.514 3.348 3.348 0 0 1 .369.461h.132v-5.458h1.892v13.5h-1.852v-1.336h-.114a3.535 3.535 0 0 1-3.041 1.573 4.319 4.319 0 0 1-3.305-1.362Zm.659-3.577a3.345 3.345 0 0 0 .8 2.342 2.723 2.723 0 0 0 2.114.883 2.639 2.639 0 0 0 2.109-.923 3.414 3.414 0 0 0 .791-2.3 3.275 3.275 0 0 0-.822-2.351 2.764 2.764 0 0 0-2.1-.866 2.681 2.681 0 0 0-2.092.9 3.336 3.336 0 0 0-.8 2.317Zm10.969 3.577a5.009 5.009 0 0 1-1.266-3.551 5.143 5.143 0 0 1 1.257-3.582 4.148 4.148 0 0 1 3.226-1.393 3.9 3.9 0 0 1 1.187.176 3.079 3.079 0 0 1 .927.457 4.765 4.765 0 0 1 .593.514 3.348 3.348 0 0 1 .369.461h.132v-1.371h1.89V4824h-1.855v-1.336h-.114a3.535 3.535 0 0 1-3.041 1.573 4.319 4.319 0 0 1-3.305-1.362Zm.659-3.577a3.345 3.345 0 0 0 .8 2.342 2.723 2.723 0 0 0 2.114.883 2.639 2.639 0 0 0 2.111-.923 3.414 3.414 0 0 0 .791-2.3 3.275 3.275 0 0 0-.822-2.351 2.764 2.764 0 0 0-2.1-.866 2.681 2.681 0 0 0-2.092.9 3.336 3.336 0 0 0-.802 2.317Zm14.238-4.711h2l2.531 7.128h.132l2.514-7.128h2.039l-3.582 9.413H445.7Zm10.846-2.681a1.124 1.124 0 0 1 .352-.853 1.237 1.237 0 0 1 .888-.334 1.276 1.276 0 0 1 .91.334 1.118 1.118 0 0 1 .356.853 1.138 1.138 0 0 1-.356.87 1.276 1.276 0 0 1-.91.334 1.234 1.234 0 0 1-.892-.334 1.153 1.153 0 0 1-.348-.87Zm.29 12.094v-9.413h1.89V4824Zm4.605 0v-9.413h1.819v1.635h.127a2.582 2.582 0 0 1 .923-1.151 2.614 2.614 0 0 1 1.6-.5h.826v1.837h-.879a2.276 2.276 0 0 0-1.85.809 3.246 3.246 0 0 0-.672 2.145V4824Zm6.724-7.866v-1.534h1.239a.532.532 0 0 0 .4-.167.625.625 0 0 0 .158-.448v-2.065h1.775v2.663h2.75v1.547h-2.742v4.825q0 1.441 1.371 1.441h1.271V4824h-1.564a2.7 2.7 0 0 1-2.971-2.988v-4.878Zm8.42 4.5v-6.047h1.89v5.7a2.169 2.169 0 0 0 .6 1.591 2.023 2.023 0 0 0 1.5.606 2.176 2.176 0 0 0 1.639-.672 2.356 2.356 0 0 0 .646-1.7v-5.528h1.89V4824h-1.837v-1.257h-.126a2.545 2.545 0 0 1-1.033 1.063 3.3 3.3 0 0 1-1.718.431 3.255 3.255 0 0 1-2.514-1.02 3.663 3.663 0 0 1-.935-2.583Zm11.531 2.241a5.009 5.009 0 0 1-1.266-3.551 5.143 5.143 0 0 1 1.257-3.582 4.148 4.148 0 0 1 3.226-1.393 3.9 3.9 0 0 1 1.187.176 3.079 3.079 0 0 1 .927.457 4.765 4.765 0 0 1 .593.514 3.348 3.348 0 0 1 .369.461h.132v-1.371h1.89V4824h-1.854v-1.336h-.114a3.535 3.535 0 0 1-3.041 1.573 4.319 4.319 0 0 1-3.306-1.362Zm.659-3.577a3.345 3.345 0 0 0 .8 2.342 2.723 2.723 0 0 0 2.114.883 2.639 2.639 0 0 0 2.109-.923 3.414 3.414 0 0 0 .791-2.3 3.275 3.275 0 0 0-.822-2.351 2.764 2.764 0 0 0-2.1-.866 2.681 2.681 0 0 0-2.092.9 3.336 3.336 0 0 0-.8 2.317Zm10.371 2.364V4810.5h1.89v11.048a.831.831 0 0 0 .185.58.689.689 0 0 0 .536.2h.4V4824h-.773a2.164 2.164 0 0 1-1.648-.615 2.4 2.4 0 0 1-.589-1.723Zm10.925 1.213a5.009 5.009 0 0 1-1.266-3.551 5.143 5.143 0 0 1 1.257-3.582 4.148 4.148 0 0 1 3.226-1.393 3.9 3.9 0 0 1 1.187.176 3.079 3.079 0 0 1 .927.457 4.765 4.765 0 0 1 .593.514 3.348 3.348 0 0 1 .369.461h.132v-1.371h1.89V4824h-1.854v-1.336h-.114a3.535 3.535 0 0 1-3.041 1.573 4.319 4.319 0 0 1-3.306-1.362Zm.659-3.577a3.345 3.345 0 0 0 .8 2.342 2.723 2.723 0 0 0 2.114.883 2.639 2.639 0 0 0 2.109-.923 3.414 3.414 0 0 0 .791-2.3 3.275 3.275 0 0 0-.822-2.351 2.764 2.764 0 0 0-2.1-.866 2.681 2.681 0 0 0-2.092.9 3.336 3.336 0 0 0-.799 2.317Zm10.371 2.364V4810.5h1.89v11.048a.831.831 0 0 0 .185.58.689.689 0 0 0 .536.2h.4V4824h-.773a2.164 2.164 0 0 1-1.648-.615 2.4 2.4 0 0 1-.589-1.723Zm10.451 2.338v-12.6h1.942v12.6Zm5.019 0v-9.413h1.837v1.257h.123a2.539 2.539 0 0 1 1.037-1.063 3.327 3.327 0 0 1 1.723-.431 3.255 3.255 0 0 1 2.514 1.02 3.663 3.663 0 0 1 .94 2.584V4824h-1.89v-5.687a2.163 2.163 0 0 0-.6-1.586 2.03 2.03 0 0 0-1.507-.611 2.165 2.165 0 0 0-1.635.681 2.377 2.377 0 0 0-.65 1.709V4824Zm10.116-7.866v-1.534h1.239a.532.532 0 0 0 .4-.167.625.625 0 0 0 .158-.448v-2.065h1.775v2.663h2.742v1.547h-2.742v4.825q0 1.441 1.371 1.441h1.274V4824h-1.564a2.7 2.7 0 0 1-2.971-2.988v-4.878Zm7.893 3.19a5.393 5.393 0 0 1 .615-2.606 4.374 4.374 0 0 1 1.683-1.753 4.727 4.727 0 0 1 2.4-.615 4.89 4.89 0 0 1 1.951.378 3.988 3.988 0 0 1 1.455 1.037 4.7 4.7 0 0 1 .888 1.538 5.608 5.608 0 0 1 .312 1.89v.7h-7.418a2.725 2.725 0 0 0 2.9 2.751 3.175 3.175 0 0 0 1.6-.4 2.207 2.207 0 0 0 .989-1.09h1.837a3.892 3.892 0 0 1-1.569 2.237 4.917 4.917 0 0 1-2.914.848 4.509 4.509 0 0 1-3.419-1.384 4.91 4.91 0 0 1-1.311-3.531Zm1.925-.888h5.511a2.592 2.592 0 0 0-.853-1.833 2.916 2.916 0 0 0-3.762.031 2.662 2.662 0 0 0-.897 1.803Zm9.667 5.564v-9.413h1.815v1.635h.123a2.582 2.582 0 0 1 .923-1.151 2.614 2.614 0 0 1 1.6-.5h.826v1.837H567a2.276 2.276 0 0 0-1.85.809 3.246 3.246 0 0 0-.672 2.145V4824Zm7.462 0v-9.413h1.837v1.257h.123a2.539 2.539 0 0 1 1.037-1.063 3.327 3.327 0 0 1 1.723-.431 3.255 3.255 0 0 1 2.514 1.02 3.663 3.663 0 0 1 .94 2.584V4824h-1.89v-5.687a2.163 2.163 0 0 0-.6-1.586 2.03 2.03 0 0 0-1.507-.611 2.165 2.165 0 0 0-1.635.681 2.377 2.377 0 0 0-.65 1.709V4824Zm10.222-4.676a5.393 5.393 0 0 1 .615-2.606 4.374 4.374 0 0 1 1.683-1.753 4.727 4.727 0 0 1 2.4-.615 4.89 4.89 0 0 1 1.951.378 3.988 3.988 0 0 1 1.455 1.037 4.7 4.7 0 0 1 .888 1.538 5.608 5.608 0 0 1 .312 1.89v.7h-7.418a2.725 2.725 0 0 0 2.9 2.751 3.175 3.175 0 0 0 1.6-.4 2.207 2.207 0 0 0 .989-1.09h1.837a3.892 3.892 0 0 1-1.569 2.237 4.917 4.917 0 0 1-2.914.848 4.509 4.509 0 0 1-3.419-1.384 4.91 4.91 0 0 1-1.31-3.531Zm1.925-.888h5.506a2.592 2.592 0 0 0-.853-1.833 2.916 2.916 0 0 0-3.762.031 2.662 2.662 0 0 0-.892 1.803Zm8.895-2.3v-1.536h1.239a.532.532 0 0 0 .4-.167.625.625 0 0 0 .158-.448v-2.065h1.775v2.663h2.742v1.547h-2.742v4.825q0 1.441 1.371 1.441h1.274V4824h-1.564a2.7 2.7 0 0 1-2.971-2.988v-4.878ZM367.6 4853v-12.6h2.267l4.377 10.151h.106l4-10.151h2.25v12.6h-1.873v-8.622h-.105L375.2 4853h-1.87l-3.744-8.71h-.114v8.71Zm16.673-1.125a5.009 5.009 0 0 1-1.266-3.551 5.143 5.143 0 0 1 1.257-3.582 4.148 4.148 0 0 1 3.226-1.393 3.9 3.9 0 0 1 1.187.176 3.079 3.079 0 0 1 .927.457 4.765 4.765 0 0 1 .593.514 3.348 3.348 0 0 1 .369.461h.134v-1.371h1.89V4853h-1.858v-1.336h-.114a3.535 3.535 0 0 1-3.041 1.573 4.319 4.319 0 0 1-3.305-1.362Zm.659-3.577a3.345 3.345 0 0 0 .8 2.342 2.723 2.723 0 0 0 2.114.883 2.639 2.639 0 0 0 2.109-.923 3.414 3.414 0 0 0 .791-2.3 3.275 3.275 0 0 0-.822-2.351 2.764 2.764 0 0 0-2.1-.866 2.681 2.681 0 0 0-2.092.9 3.336 3.336 0 0 0-.8 2.317ZM395.3 4853v-9.413h1.819v1.635h.123a2.582 2.582 0 0 1 .923-1.151 2.614 2.614 0 0 1 1.6-.5h.826v1.837h-.879a2.276 2.276 0 0 0-1.85.809 3.246 3.246 0 0 0-.672 2.145V4853Zm7.462 0v-13.5h1.89v8.1h.105l3.568-4.017h2.355l-3.278 3.56 3.519 5.857h-2.145l-2.663-4.447-1.459 1.6V4853Zm8.763-4.676a5.393 5.393 0 0 1 .615-2.606 4.374 4.374 0 0 1 1.683-1.753 4.727 4.727 0 0 1 2.4-.615 4.89 4.89 0 0 1 1.951.378 3.988 3.988 0 0 1 1.455 1.037 4.7 4.7 0 0 1 .888 1.538 5.608 5.608 0 0 1 .312 1.89v.7h-7.412a2.725 2.725 0 0 0 2.9 2.751 3.175 3.175 0 0 0 1.6-.4 2.207 2.207 0 0 0 .989-1.09h1.837a3.892 3.892 0 0 1-1.569 2.237 4.917 4.917 0 0 1-2.914.848 4.509 4.509 0 0 1-3.419-1.384 4.91 4.91 0 0 1-1.314-3.531Zm1.925-.888h5.511a2.592 2.592 0 0 0-.853-1.833 2.916 2.916 0 0 0-3.762.031 2.662 2.662 0 0 0-.894 1.803Zm8.895-2.3v-1.536h1.239a.532.532 0 0 0 .4-.167.625.625 0 0 0 .158-.448v-2.065h1.775v2.663h2.742v1.547h-2.735v4.825q0 1.441 1.371 1.441h1.274V4853H427a2.7 2.7 0 0 1-2.971-2.988v-4.878Zm8.271-4.228a1.124 1.124 0 0 1 .352-.853 1.237 1.237 0 0 1 .888-.334 1.276 1.276 0 0 1 .91.334 1.118 1.118 0 0 1 .356.853 1.138 1.138 0 0 1-.356.87 1.276 1.276 0 0 1-.91.334 1.234 1.234 0 0 1-.892-.334 1.153 1.153 0 0 1-.347-.872Zm.291 12.092v-9.413h1.893V4853Zm4.605 0v-9.413h1.838v1.257h.123a2.539 2.539 0 0 1 1.037-1.063 3.327 3.327 0 0 1 1.723-.431 3.255 3.255 0 0 1 2.514 1.02 3.663 3.663 0 0 1 .94 2.584V4853H441.8v-5.687a2.163 2.163 0 0 0-.6-1.586 2.03 2.03 0 0 0-1.507-.611 2.165 2.165 0 0 0-1.635.681 2.377 2.377 0 0 0-.65 1.709V4853Zm11.5-1.16a5.631 5.631 0 0 1-.012-7.119 4.163 4.163 0 0 1 3.2-1.371 3.973 3.973 0 0 1 1.2.176 3.137 3.137 0 0 1 .932.453 4.618 4.618 0 0 1 .6.519 2.731 2.731 0 0 1 .36.461h.132v-1.371h1.89v9.378a4.258 4.258 0 0 1-1.239 3.221 4.793 4.793 0 0 1-3.463 1.191 4.556 4.556 0 0 1-2.927-.883 3.321 3.321 0 0 1-1.283-2.237h1.749a1.751 1.751 0 0 0 .813 1.125 3.059 3.059 0 0 0 1.648.4 2.536 2.536 0 0 0 2.848-2.821v-1.354h-.132a3.709 3.709 0 0 1-.237.316 3.927 3.927 0 0 1-.413.4 3.741 3.741 0 0 1-.593.426 3.394 3.394 0 0 1-.791.312 3.776 3.776 0 0 1-1.006.132 4.306 4.306 0 0 1-3.279-1.354Zm.65-3.56a3.312 3.312 0 0 0 .8 2.333 2.736 2.736 0 0 0 2.114.875 2.65 2.65 0 0 0 2.109-.914 3.38 3.38 0 0 0 .791-2.294 3.243 3.243 0 0 0-.822-2.342 2.778 2.778 0 0 0-2.1-.857 2.693 2.693 0 0 0-2.092.892 3.3 3.3 0 0 0-.803 2.307Zm14.528.853h1.89a2.154 2.154 0 0 0 .782 1.661 3.015 3.015 0 0 0 2.039.659 3.075 3.075 0 0 0 1.819-.488 1.548 1.548 0 0 0 .686-1.332 1.773 1.773 0 0 0-.233-.932 1.7 1.7 0 0 0-.628-.611 4.6 4.6 0 0 0-.905-.382q-.51-.158-1.077-.29t-1.134-.286a5.605 5.605 0 0 1-1.077-.413 3.853 3.853 0 0 1-.905-.633 2.6 2.6 0 0 1-.628-.989 4.008 4.008 0 0 1-.233-1.424 3.207 3.207 0 0 1 1.138-2.5 4.458 4.458 0 0 1 3.072-1.011 5.393 5.393 0 0 1 1.578.229 4.669 4.669 0 0 1 1.371.672 3.192 3.192 0 0 1 .993 1.187 3.794 3.794 0 0 1 .382 1.692h-1.969a1.89 1.89 0 0 0-.62-1.49 2.557 2.557 0 0 0-1.753-.549 2.515 2.515 0 0 0-1.683.5 1.56 1.56 0 0 0-.584 1.23 1.436 1.436 0 0 0 .237.831 1.673 1.673 0 0 0 .633.549 5.134 5.134 0 0 0 .914.352q.519.149 1.09.286t1.143.3a5.678 5.678 0 0 1 1.09.435 3.946 3.946 0 0 1 .914.655 2.717 2.717 0 0 1 .633 1.006 4.04 4.04 0 0 1 .237 1.441 3.39 3.39 0 0 1-1.226 2.689 4.958 4.958 0 0 1-3.344 1.055 4.867 4.867 0 0 1-3.335-1.147 3.756 3.756 0 0 1-1.309-2.952Zm11.338.5v-6.047h1.89v5.7a2.169 2.169 0 0 0 .6 1.591 2.023 2.023 0 0 0 1.5.606 2.176 2.176 0 0 0 1.639-.672 2.356 2.356 0 0 0 .646-1.7v-5.528h1.89V4853h-1.837v-1.257h-.123a2.545 2.545 0 0 1-1.033 1.063 3.3 3.3 0 0 1-1.718.431 3.255 3.255 0 0 1-2.514-1.02 3.663 3.663 0 0 1-.943-2.583Zm10.931 3.367v-9.413h1.841v1.239h.123a2.663 2.663 0 0 1 1.011-1.063 3.08 3.08 0 0 1 1.635-.413 3.43 3.43 0 0 1 1.731.422 3 3 0 0 1 1.151 1.16h.123a3.081 3.081 0 0 1 2.9-1.582 3.319 3.319 0 0 1 2.492.971 3.447 3.447 0 0 1 .945 2.509v6.17h-1.89v-5.528a2.622 2.622 0 0 0-.519-1.745 1.809 1.809 0 0 0-1.459-.611 2.022 2.022 0 0 0-1.534.646 2.436 2.436 0 0 0-.611 1.745V4853h-1.89v-5.739a2.155 2.155 0 0 0-.562-1.56 1.945 1.945 0 0 0-1.468-.584 1.989 1.989 0 0 0-1.516.655 2.369 2.369 0 0 0-.611 1.683V4853Zm16.664 0v-9.413h1.837v1.239h.123a2.663 2.663 0 0 1 1.011-1.063 3.08 3.08 0 0 1 1.635-.413 3.43 3.43 0 0 1 1.731.422 3 3 0 0 1 1.151 1.16h.123a3.081 3.081 0 0 1 2.9-1.582 3.319 3.319 0 0 1 2.492.971 3.447 3.447 0 0 1 .945 2.509v6.17h-1.89v-5.528a2.622 2.622 0 0 0-.519-1.745 1.809 1.809 0 0 0-1.459-.611 2.022 2.022 0 0 0-1.534.646 2.436 2.436 0 0 0-.611 1.745V4853h-1.89v-5.739a2.155 2.155 0 0 0-.562-1.56 1.945 1.945 0 0 0-1.468-.584 1.989 1.989 0 0 0-1.516.655 2.369 2.369 0 0 0-.611 1.683V4853Zm16.377-12.094a1.124 1.124 0 0 1 .352-.853 1.237 1.237 0 0 1 .888-.334 1.276 1.276 0 0 1 .91.334 1.118 1.118 0 0 1 .356.853 1.138 1.138 0 0 1-.356.87 1.276 1.276 0 0 1-.91.334 1.234 1.234 0 0 1-.892-.334 1.153 1.153 0 0 1-.348-.87Zm.29 12.094v-9.413h1.89V4853Zm3.832-7.866v-1.534h1.239a.532.532 0 0 0 .4-.167.625.625 0 0 0 .158-.448v-2.065h1.781v2.663h2.742v1.547H525.2v4.825q0 1.441 1.371 1.441h1.274V4853h-1.564a2.7 2.7 0 0 1-2.971-2.988v-4.878Zm8.429 7.77a1.109 1.109 0 0 1-.36-.835 1.137 1.137 0 0 1 .36-.844 1.18 1.18 0 0 1 .853-.352 1.135 1.135 0 0 1 .848.347 1.169 1.169 0 0 1 .338.848 1.125 1.125 0 0 1-.338.835 1.158 1.158 0 0 1-.848.334 1.212 1.212 0 0 1-.856-.337Zm9.545-3.524h1.793a1.989 1.989 0 0 0 .642 1.441 2.2 2.2 0 0 0 1.573.58 2.345 2.345 0 0 0 1.7-.624 2.2 2.2 0 0 0 .646-1.661 2.127 2.127 0 0 0-.672-1.613 2.385 2.385 0 0 0-1.709-.637H542v-1.547l3.059-3.067v-.105h-5.2v-1.747h7.62v1.731l-3.138 3.059v.105a3.834 3.834 0 0 1 2.544 1.191 3.635 3.635 0 0 1 1.024 2.615 4.241 4.241 0 0 1-.5 2.035 3.833 3.833 0 0 1-1.49 1.507 4.482 4.482 0 0 1-2.3.58 4.274 4.274 0 0 1-1.745-.347 3.552 3.552 0 0 1-1.274-.91 4.174 4.174 0 0 1-.747-1.23 3.713 3.713 0 0 1-.26-1.357Zm16.541 2.5a5.009 5.009 0 0 1-1.266-3.551 5.143 5.143 0 0 1 1.257-3.582 4.148 4.148 0 0 1 3.226-1.393 3.9 3.9 0 0 1 1.187.176 3.079 3.079 0 0 1 .927.457 4.765 4.765 0 0 1 .593.514 3.348 3.348 0 0 1 .369.461h.132v-5.462h1.89v13.5h-1.854v-1.336h-.114a3.535 3.535 0 0 1-3.041 1.573 4.319 4.319 0 0 1-3.309-1.362Zm.659-3.577a3.345 3.345 0 0 0 .8 2.342 2.723 2.723 0 0 0 2.114.883 2.639 2.639 0 0 0 2.109-.923 3.414 3.414 0 0 0 .791-2.3 3.275 3.275 0 0 0-.822-2.351 2.764 2.764 0 0 0-2.1-.866 2.681 2.681 0 0 0-2.092.9 3.336 3.336 0 0 0-.803 2.312Zm10.371 4.7v-9.413h1.89v9.41Zm.053-10.942 1.011-2.5h2l-1.617 2.5Zm5.15 9.817a5.009 5.009 0 0 1-1.266-3.551 5.143 5.143 0 0 1 1.257-3.582 4.148 4.148 0 0 1 3.226-1.393 3.9 3.9 0 0 1 1.187.176 3.079 3.079 0 0 1 .927.457 4.765 4.765 0 0 1 .593.514 3.348 3.348 0 0 1 .369.461h.132v-1.371h1.89V4853h-1.854v-1.336h-.114a3.535 3.535 0 0 1-3.041 1.573 4.319 4.319 0 0 1-3.309-1.362Zm.659-3.577a3.345 3.345 0 0 0 .8 2.342 2.723 2.723 0 0 0 2.114.883 2.639 2.639 0 0 0 2.109-.923 3.414 3.414 0 0 0 .791-2.3 3.275 3.275 0 0 0-.822-2.351 2.764 2.764 0 0 0-2.1-.866 2.681 2.681 0 0 0-2.092.9 3.336 3.336 0 0 0-.803 2.314Zm9.826 1.916h1.784q.185 1.468 2.057 1.468a2.35 2.35 0 0 0 1.419-.374 1.187 1.187 0 0 0 .505-1.006.984.984 0 0 0-.3-.751 1.86 1.86 0 0 0-.791-.422 10.1 10.1 0 0 0-1.077-.233 11.814 11.814 0 0 1-1.173-.255 4.985 4.985 0 0 1-1.072-.422 2.005 2.005 0 0 1-.791-.8 2.618 2.618 0 0 1-.3-1.314 2.419 2.419 0 0 1 .984-1.982 4.047 4.047 0 0 1 2.584-.778 3.842 3.842 0 0 1 2.426.756 2.78 2.78 0 0 1 1.081 2.074h-1.731a1.368 1.368 0 0 0-.554-.967 2.143 2.143 0 0 0-1.3-.352 2.1 2.1 0 0 0-1.252.338 1.034 1.034 0 0 0-.47.875.843.843 0 0 0 .242.615 1.362 1.362 0 0 0 .633.352q.391.105.892.207t1.024.18a4.851 4.851 0 0 1 1.024.272 4.077 4.077 0 0 1 .892.47 1.952 1.952 0 0 1 .633.8 2.95 2.95 0 0 1 .242 1.239 2.679 2.679 0 0 1-1.033 2.188 4.3 4.3 0 0 1-2.782.835 4.118 4.118 0 0 1-2.72-.813 3.021 3.021 0 0 1-1.078-2.203ZM366.7 4898.133h1.89a2.154 2.154 0 0 0 .782 1.661 3.015 3.015 0 0 0 2.039.659 3.075 3.075 0 0 0 1.819-.488 1.548 1.548 0 0 0 .686-1.332 1.773 1.773 0 0 0-.233-.932 1.7 1.7 0 0 0-.628-.611 4.6 4.6 0 0 0-.905-.382q-.51-.158-1.077-.29t-1.134-.286a5.605 5.605 0 0 1-1.077-.413 3.853 3.853 0 0 1-.905-.633 2.6 2.6 0 0 1-.628-.989 4.008 4.008 0 0 1-.233-1.424 3.207 3.207 0 0 1 1.138-2.5 4.458 4.458 0 0 1 3.072-1.011 5.393 5.393 0 0 1 1.578.229 4.669 4.669 0 0 1 1.371.672 3.192 3.192 0 0 1 .993 1.187 3.794 3.794 0 0 1 .382 1.692h-1.966a1.89 1.89 0 0 0-.62-1.49 2.557 2.557 0 0 0-1.753-.549 2.515 2.515 0 0 0-1.683.5 1.56 1.56 0 0 0-.584 1.23 1.436 1.436 0 0 0 .237.831 1.673 1.673 0 0 0 .633.549 5.134 5.134 0 0 0 .914.352q.519.149 1.09.286t1.143.3a5.678 5.678 0 0 1 1.09.435 3.946 3.946 0 0 1 .914.655 2.717 2.717 0 0 1 .633 1.006 4.04 4.04 0 0 1 .237 1.441 3.39 3.39 0 0 1-1.226 2.689 4.958 4.958 0 0 1-3.344 1.055 4.867 4.867 0 0 1-3.335-1.147 3.756 3.756 0 0 1-1.31-2.952Zm10.811-.809a5.393 5.393 0 0 1 .615-2.606 4.374 4.374 0 0 1 1.683-1.753 4.727 4.727 0 0 1 2.4-.615 4.89 4.89 0 0 1 1.951.378 3.988 3.988 0 0 1 1.455 1.037 4.7 4.7 0 0 1 .888 1.538 5.608 5.608 0 0 1 .312 1.89v.7H379.4a2.725 2.725 0 0 0 2.9 2.751 3.175 3.175 0 0 0 1.6-.4 2.207 2.207 0 0 0 .989-1.09h1.837a3.892 3.892 0 0 1-1.569 2.237 4.917 4.917 0 0 1-2.914.848 4.509 4.509 0 0 1-3.419-1.384 4.91 4.91 0 0 1-1.31-3.531Zm1.925-.888h5.511a2.592 2.592 0 0 0-.847-1.836 2.916 2.916 0 0 0-3.762.031 2.662 2.662 0 0 0-.9 1.806Zm9.123 2.777h1.784q.185 1.468 2.057 1.468a2.35 2.35 0 0 0 1.419-.374 1.187 1.187 0 0 0 .505-1.006.984.984 0 0 0-.3-.751 1.86 1.86 0 0 0-.791-.422 10.1 10.1 0 0 0-1.077-.233 11.814 11.814 0 0 1-1.173-.255 4.985 4.985 0 0 1-1.072-.422 2.005 2.005 0 0 1-.791-.8 2.618 2.618 0 0 1-.3-1.314 2.419 2.419 0 0 1 .984-1.982 4.047 4.047 0 0 1 2.584-.778 3.842 3.842 0 0 1 2.426.756 2.78 2.78 0 0 1 1.081 2.074h-1.735a1.368 1.368 0 0 0-.554-.967 2.143 2.143 0 0 0-1.3-.352 2.1 2.1 0 0 0-1.252.338 1.034 1.034 0 0 0-.47.875.843.843 0 0 0 .242.615 1.362 1.362 0 0 0 .633.352q.391.105.892.207t1.024.18a4.851 4.851 0 0 1 1.024.272 4.077 4.077 0 0 1 .892.47 1.952 1.952 0 0 1 .633.8 2.95 2.95 0 0 1 .242 1.239 2.679 2.679 0 0 1-1.033 2.188 4.3 4.3 0 0 1-2.782.835 4.118 4.118 0 0 1-2.72-.813 3.021 3.021 0 0 1-1.069-2.199Zm9.791-9.308a1.124 1.124 0 0 1 .352-.853 1.237 1.237 0 0 1 .888-.334 1.276 1.276 0 0 1 .91.334 1.118 1.118 0 0 1 .356.853 1.138 1.138 0 0 1-.356.87 1.276 1.276 0 0 1-.91.334 1.234 1.234 0 0 1-.892-.334 1.153 1.153 0 0 1-.345-.869Zm.293 12.095v-9.413h1.89V4902Zm3.938-4.7a5.076 5.076 0 0 1 .637-2.531 4.568 4.568 0 0 1 1.782-1.778 5.15 5.15 0 0 1 2.566-.642 5.071 5.071 0 0 1 2.562.65 4.584 4.584 0 0 1 1.767 1.78 5.09 5.09 0 0 1 .628 2.518 5.035 5.035 0 0 1-.637 2.518 4.607 4.607 0 0 1-1.78 1.775 5.105 5.105 0 0 1-2.558.646 4.8 4.8 0 0 1-4.968-4.936Zm1.925 0a3.243 3.243 0 0 0 .857 2.316 3.082 3.082 0 0 0 4.377 0 3.546 3.546 0 0 0 0-4.623 3.1 3.1 0 0 0-4.381 0 3.24 3.24 0 0 0-.859 2.307Zm2.2-6.24 1.011-2.5h2l-1.617 2.5ZM414.8 4902v-9.413h1.837v1.257h.123a2.539 2.539 0 0 1 1.037-1.063 3.327 3.327 0 0 1 1.723-.431 3.255 3.255 0 0 1 2.514 1.02 3.663 3.663 0 0 1 .94 2.584V4902h-1.89v-5.687a2.163 2.163 0 0 0-.6-1.586 2.03 2.03 0 0 0-1.507-.611 2.165 2.165 0 0 0-1.635.681 2.377 2.377 0 0 0-.65 1.709V4902Zm16.383-1.125a5.009 5.009 0 0 1-1.266-3.551 5.143 5.143 0 0 1 1.257-3.582 4.148 4.148 0 0 1 3.226-1.392 3.9 3.9 0 0 1 1.187.176 3.079 3.079 0 0 1 .927.457 4.765 4.765 0 0 1 .593.514 3.348 3.348 0 0 1 .369.461h.124v-5.458h1.89v13.5h-1.85v-1.336h-.114a3.535 3.535 0 0 1-3.041 1.573 4.319 4.319 0 0 1-3.305-1.362Zm.659-3.577a3.345 3.345 0 0 0 .8 2.342 2.723 2.723 0 0 0 2.114.883 2.639 2.639 0 0 0 2.109-.923 3.414 3.414 0 0 0 .791-2.3 3.275 3.275 0 0 0-.822-2.351 2.764 2.764 0 0 0-2.1-.866 2.681 2.681 0 0 0-2.092.9 3.336 3.336 0 0 0-.803 2.317Zm9.7.026a5.393 5.393 0 0 1 .615-2.606 4.374 4.374 0 0 1 1.683-1.753 4.727 4.727 0 0 1 2.4-.615 4.89 4.89 0 0 1 1.951.378 3.988 3.988 0 0 1 1.455 1.037 4.7 4.7 0 0 1 .888 1.538 5.608 5.608 0 0 1 .312 1.89v.7h-7.414a2.725 2.725 0 0 0 2.9 2.751 3.175 3.175 0 0 0 1.6-.4 2.207 2.207 0 0 0 .989-1.09h1.837a3.892 3.892 0 0 1-1.569 2.237 4.917 4.917 0 0 1-2.914.848 4.509 4.509 0 0 1-3.419-1.384 4.91 4.91 0 0 1-1.314-3.531Zm1.925-.888h5.511a2.592 2.592 0 0 0-.853-1.833 2.916 2.916 0 0 0-3.762.031 2.662 2.662 0 0 0-.896 1.803Zm14.563 9.7v-13.549h1.837v1.345h.123q.114-.167.233-.316a3.582 3.582 0 0 1 .4-.4 3.4 3.4 0 0 1 .593-.426 3.538 3.538 0 0 1 .791-.308 3.776 3.776 0 0 1 1.006-.132 4.3 4.3 0 0 1 3.3 1.362 5.009 5.009 0 0 1 1.266 3.551 5.165 5.165 0 0 1-1.248 3.582 4.112 4.112 0 0 1-3.208 1.393 3.973 3.973 0 0 1-1.2-.176 3.207 3.207 0 0 1-.932-.448 4.407 4.407 0 0 1-.6-.514 2.929 2.929 0 0 1-.369-.47h-.102v5.511Zm1.837-8.859a3.323 3.323 0 0 0 .822 2.364 2.744 2.744 0 0 0 2.1.879 2.633 2.633 0 0 0 2.074-.91 3.4 3.4 0 0 0 .8-2.333 3.348 3.348 0 0 0-.8-2.342 2.719 2.719 0 0 0-2.114-.875 2.618 2.618 0 0 0-2.1.918 3.421 3.421 0 0 0-.782 2.302Zm10 4.72v-9.413h1.819v1.635h.123a2.582 2.582 0 0 1 .923-1.151 2.614 2.614 0 0 1 1.6-.5h.826v1.837h-.879a2.276 2.276 0 0 0-1.85.809 3.246 3.246 0 0 0-.672 2.145V4902Zm6.451-4.676a5.393 5.393 0 0 1 .615-2.606 4.374 4.374 0 0 1 1.683-1.753 4.727 4.727 0 0 1 2.4-.615 4.89 4.89 0 0 1 1.951.378 3.988 3.988 0 0 1 1.455 1.037 4.7 4.7 0 0 1 .888 1.538 5.608 5.608 0 0 1 .312 1.89v.7h-7.412a2.725 2.725 0 0 0 2.9 2.751 3.175 3.175 0 0 0 1.6-.4 2.207 2.207 0 0 0 .989-1.09h1.837a3.892 3.892 0 0 1-1.569 2.237 4.917 4.917 0 0 1-2.914.848 4.509 4.509 0 0 1-3.419-1.384 4.91 4.91 0 0 1-1.314-3.528Zm1.925-.888h5.511a2.592 2.592 0 0 0-.853-1.833 2.916 2.916 0 0 0-3.762.031 2.662 2.662 0 0 0-.894 1.806Zm10.274 4.4a5.631 5.631 0 0 1-.013-7.119 4.163 4.163 0 0 1 3.2-1.371 3.973 3.973 0 0 1 1.2.176 3.137 3.137 0 0 1 .932.453 4.618 4.618 0 0 1 .6.519 2.731 2.731 0 0 1 .36.461h.132v-1.371h1.89v9.378a4.258 4.258 0 0 1-1.239 3.221 4.793 4.793 0 0 1-3.463 1.191 4.556 4.556 0 0 1-2.927-.883 3.321 3.321 0 0 1-1.283-2.237h1.749a1.751 1.751 0 0 0 .813 1.125 3.059 3.059 0 0 0 1.648.4 2.536 2.536 0 0 0 2.848-2.821v-1.354h-.132a3.709 3.709 0 0 1-.237.316 3.927 3.927 0 0 1-.413.4 3.741 3.741 0 0 1-.593.426 3.394 3.394 0 0 1-.791.312 3.776 3.776 0 0 1-1.006.132 4.306 4.306 0 0 1-3.272-1.347Zm.65-3.56a3.312 3.312 0 0 0 .8 2.333 2.736 2.736 0 0 0 2.114.875 2.65 2.65 0 0 0 2.109-.914 3.38 3.38 0 0 0 .791-2.294 3.243 3.243 0 0 0-.822-2.342 2.778 2.778 0 0 0-2.1-.857 2.693 2.693 0 0 0-2.092.892 3.3 3.3 0 0 0-.797 2.314Zm10.266 1.354v-6.047h1.89v5.7a2.169 2.169 0 0 0 .6 1.591 2.023 2.023 0 0 0 1.5.606 2.176 2.176 0 0 0 1.639-.672 2.356 2.356 0 0 0 .646-1.7v-5.528h1.89V4902h-1.837v-1.257h-.123a2.545 2.545 0 0 1-1.033 1.063 3.3 3.3 0 0 1-1.718.431 3.255 3.255 0 0 1-2.514-1.02 3.663 3.663 0 0 1-.937-2.583Zm10.936 3.373v-9.413h1.837v1.257h.123a2.539 2.539 0 0 1 1.037-1.063 3.327 3.327 0 0 1 1.723-.431 3.255 3.255 0 0 1 2.514 1.02 3.663 3.663 0 0 1 .94 2.584V4902h-1.89v-5.687a2.163 2.163 0 0 0-.6-1.586 2.03 2.03 0 0 0-1.507-.611 2.165 2.165 0 0 0-1.635.681 2.377 2.377 0 0 0-.65 1.709V4902Zm10.116-7.866v-1.534h1.239a.532.532 0 0 0 .4-.167.625.625 0 0 0 .158-.448v-2.065h1.775v2.663h2.743v1.547h-2.742v4.825q0 1.441 1.371 1.441h1.274V4902h-1.564a2.7 2.7 0 0 1-2.971-2.988v-4.878Zm9.158 6.741a5.009 5.009 0 0 1-1.266-3.551 5.143 5.143 0 0 1 1.257-3.582 4.148 4.148 0 0 1 3.226-1.393 3.9 3.9 0 0 1 1.187.176 3.079 3.079 0 0 1 .927.457 4.765 4.765 0 0 1 .593.514 3.348 3.348 0 0 1 .369.461h.132v-1.371h1.89V4902H536.1v-1.336h-.114a3.535 3.535 0 0 1-3.041 1.573 4.319 4.319 0 0 1-3.301-1.362Zm.659-3.577a3.345 3.345 0 0 0 .8 2.342 2.723 2.723 0 0 0 2.114.883 2.639 2.639 0 0 0 2.109-.923 3.414 3.414 0 0 0 .791-2.3 3.275 3.275 0 0 0-.822-2.351 2.764 2.764 0 0 0-2.1-.866 2.681 2.681 0 0 0-2.092.9 3.336 3.336 0 0 0-.802 2.317Zm9.826 1.916h1.784q.185 1.468 2.057 1.468a2.35 2.35 0 0 0 1.419-.374 1.187 1.187 0 0 0 .505-1.006.984.984 0 0 0-.3-.751 1.86 1.86 0 0 0-.791-.422 10.1 10.1 0 0 0-1.077-.233 11.814 11.814 0 0 1-1.173-.255 4.985 4.985 0 0 1-1.072-.422 2.005 2.005 0 0 1-.791-.8 2.618 2.618 0 0 1-.3-1.314 2.419 2.419 0 0 1 .984-1.982 4.047 4.047 0 0 1 2.584-.778 3.842 3.842 0 0 1 2.426.756 2.78 2.78 0 0 1 1.081 2.074h-1.731a1.368 1.368 0 0 0-.554-.967 2.143 2.143 0 0 0-1.3-.352 2.1 2.1 0 0 0-1.252.338 1.034 1.034 0 0 0-.47.875.843.843 0 0 0 .242.615 1.362 1.362 0 0 0 .633.352q.391.105.892.207t1.024.18a4.851 4.851 0 0 1 1.024.272 4.077 4.077 0 0 1 .892.47 1.952 1.952 0 0 1 .633.8 2.95 2.95 0 0 1 .242 1.239 2.679 2.679 0 0 1-1.039 2.196 4.3 4.3 0 0 1-2.782.835 4.118 4.118 0 0 1-2.72-.813 3.021 3.021 0 0 1-1.069-2.208Zm13.948-6.627h2.057l2.61 7.269h.123l2.593-7.269h2.065l-4.315 11.285a3.754 3.754 0 0 1-1.147 1.7 3.077 3.077 0 0 1-1.947.567h-1.063v-1.687h.826a1.646 1.646 0 0 0 1.652-1.16l.343-.9Zm16.27 9.413v-9.413h1.819v1.635h.123a2.582 2.582 0 0 1 .923-1.151 2.614 2.614 0 0 1 1.6-.5h.826v1.837h-.879a2.276 2.276 0 0 0-1.85.809 3.246 3.246 0 0 0-.672 2.145V4902Zm6.451-4.676a5.393 5.393 0 0 1 .615-2.606 4.374 4.374 0 0 1 1.683-1.753 4.727 4.727 0 0 1 2.4-.615 4.89 4.89 0 0 1 1.951.378 3.988 3.988 0 0 1 1.455 1.037 4.7 4.7 0 0 1 .888 1.538 5.608 5.608 0 0 1 .312 1.89v.7h-7.418a2.725 2.725 0 0 0 2.9 2.751 3.175 3.175 0 0 0 1.6-.4 2.207 2.207 0 0 0 .989-1.09h1.837a3.892 3.892 0 0 1-1.569 2.237 4.917 4.917 0 0 1-2.914.848 4.509 4.509 0 0 1-3.419-1.384 4.91 4.91 0 0 1-1.307-3.531Zm1.925-.888h5.511a2.592 2.592 0 0 0-.853-1.833 2.916 2.916 0 0 0-3.762.031 2.662 2.662 0 0 0-.896 1.803Zm9.123 2.777h1.784q.185 1.468 2.057 1.468a2.35 2.35 0 0 0 1.419-.374 1.187 1.187 0 0 0 .505-1.006.984.984 0 0 0-.3-.751 1.86 1.86 0 0 0-.791-.422 10.1 10.1 0 0 0-1.077-.233 11.814 11.814 0 0 1-1.173-.255 4.985 4.985 0 0 1-1.072-.422 2.005 2.005 0 0 1-.791-.8 2.618 2.618 0 0 1-.3-1.314 2.419 2.419 0 0 1 .984-1.982 4.047 4.047 0 0 1 2.584-.778 3.842 3.842 0 0 1 2.426.756 2.78 2.78 0 0 1 1.081 2.074h-1.731a1.368 1.368 0 0 0-.554-.967 2.143 2.143 0 0 0-1.3-.352 2.1 2.1 0 0 0-1.252.338 1.034 1.034 0 0 0-.47.875.843.843 0 0 0 .242.615 1.362 1.362 0 0 0 .633.352q.391.105.892.207t1.024.18a4.851 4.851 0 0 1 1.024.272 4.077 4.077 0 0 1 .892.47 1.952 1.952 0 0 1 .633.8 2.95 2.95 0 0 1 .242 1.239 2.679 2.679 0 0 1-1.033 2.188 4.3 4.3 0 0 1-2.782.835 4.118 4.118 0 0 1-2.72-.813 3.021 3.021 0 0 1-1.076-2.199Zm10.081 6.926v-13.552h1.837v1.345h.123q.114-.167.233-.316a3.582 3.582 0 0 1 .4-.4 3.4 3.4 0 0 1 .593-.426 3.538 3.538 0 0 1 .791-.308 3.776 3.776 0 0 1 1.006-.132 4.3 4.3 0 0 1 3.3 1.362 5.009 5.009 0 0 1 1.266 3.551 5.165 5.165 0 0 1-1.248 3.582 4.112 4.112 0 0 1-3.208 1.393 3.973 3.973 0 0 1-1.2-.176 3.207 3.207 0 0 1-.932-.448 4.407 4.407 0 0 1-.6-.514 2.929 2.929 0 0 1-.369-.47h-.105v5.511Zm1.837-8.859a3.323 3.323 0 0 0 .822 2.364 2.744 2.744 0 0 0 2.1.879 2.633 2.633 0 0 0 2.074-.91 3.4 3.4 0 0 0 .8-2.333 3.348 3.348 0 0 0-.8-2.342 2.719 2.719 0 0 0-2.114-.875 2.618 2.618 0 0 0-2.1.918 3.421 3.421 0 0 0-.782 2.299Zm9.861 1.354v-6.047h1.89v5.7a2.169 2.169 0 0 0 .6 1.591 2.023 2.023 0 0 0 1.5.606 2.176 2.176 0 0 0 1.639-.672 2.356 2.356 0 0 0 .646-1.7v-5.528h1.89V4902h-1.837v-1.257h-.123a2.545 2.545 0 0 1-1.033 1.063 3.3 3.3 0 0 1-1.718.431 3.255 3.255 0 0 1-2.514-1.02 3.663 3.663 0 0 1-.94-2.583Zm10.266-1.31a5.393 5.393 0 0 1 .615-2.606 4.374 4.374 0 0 1 1.683-1.753 4.727 4.727 0 0 1 2.4-.615 4.89 4.89 0 0 1 1.951.378 3.988 3.988 0 0 1 1.461 1.037 4.7 4.7 0 0 1 .888 1.538 5.608 5.608 0 0 1 .312 1.89v.7h-7.418a2.725 2.725 0 0 0 2.9 2.751 3.175 3.175 0 0 0 1.6-.4 2.207 2.207 0 0 0 .989-1.09h1.837a3.892 3.892 0 0 1-1.569 2.237 4.917 4.917 0 0 1-2.914.848 4.509 4.509 0 0 1-3.419-1.384 4.91 4.91 0 0 1-1.316-3.531Zm1.925-.888h5.511a2.592 2.592 0 0 0-.853-1.833 2.916 2.916 0 0 0-3.762.031 2.662 2.662 0 0 0-.897 1.803Zm9.123 2.777h1.784q.185 1.468 2.057 1.468a2.35 2.35 0 0 0 1.419-.374 1.187 1.187 0 0 0 .505-1.006.984.984 0 0 0-.3-.751 1.86 1.86 0 0 0-.791-.422 10.1 10.1 0 0 0-1.077-.233 11.814 11.814 0 0 1-1.173-.255 4.985 4.985 0 0 1-1.072-.422 2.005 2.005 0 0 1-.791-.8 2.618 2.618 0 0 1-.3-1.314 2.419 2.419 0 0 1 .984-1.982 4.047 4.047 0 0 1 2.584-.778 3.842 3.842 0 0 1 2.426.756 2.78 2.78 0 0 1 1.081 2.074h-1.731a1.368 1.368 0 0 0-.554-.967 2.143 2.143 0 0 0-1.3-.352 2.1 2.1 0 0 0-1.252.338 1.034 1.034 0 0 0-.47.875.843.843 0 0 0 .242.615 1.362 1.362 0 0 0 .633.352q.391.105.892.207t1.024.18a4.851 4.851 0 0 1 1.024.272 4.077 4.077 0 0 1 .892.47 1.952 1.952 0 0 1 .633.8 2.95 2.95 0 0 1 .242 1.239 2.679 2.679 0 0 1-1.033 2.188 4.3 4.3 0 0 1-2.782.835 4.118 4.118 0 0 1-2.72-.813 3.021 3.021 0 0 1-1.076-2.199Zm9.308-5.08v-1.533h1.239a.532.532 0 0 0 .4-.167.625.625 0 0 0 .158-.448v-2.065h1.775v2.663h2.742v1.547h-2.742v4.825q0 1.441 1.371 1.441h1.274V4902H644.9a2.7 2.7 0 0 1-2.971-2.988v-4.878Zm9.158 6.741a5.009 5.009 0 0 1-1.266-3.551 5.143 5.143 0 0 1 1.257-3.582 4.148 4.148 0 0 1 3.226-1.393 3.9 3.9 0 0 1 1.187.176 3.079 3.079 0 0 1 .927.457 4.765 4.765 0 0 1 .593.514 3.348 3.348 0 0 1 .369.461h.132v-1.371h1.89V4902h-1.854v-1.336h-.114a3.535 3.535 0 0 1-3.041 1.573 4.319 4.319 0 0 1-3.31-1.362Zm.659-3.577a3.345 3.345 0 0 0 .8 2.342 2.723 2.723 0 0 0 2.114.883 2.639 2.639 0 0 0 2.109-.923 3.414 3.414 0 0 0 .791-2.3 3.275 3.275 0 0 0-.822-2.351 2.764 2.764 0 0 0-2.1-.866 2.681 2.681 0 0 0-2.092.9 3.336 3.336 0 0 0-.8 2.318Zm9.826 1.916h1.784q.185 1.468 2.057 1.468a2.35 2.35 0 0 0 1.419-.374 1.187 1.187 0 0 0 .505-1.006.984.984 0 0 0-.3-.751 1.86 1.86 0 0 0-.791-.422 10.1 10.1 0 0 0-1.077-.233 11.814 11.814 0 0 1-1.173-.255 4.985 4.985 0 0 1-1.072-.422 2.005 2.005 0 0 1-.791-.8 2.618 2.618 0 0 1-.3-1.314 2.419 2.419 0 0 1 .984-1.982 4.047 4.047 0 0 1 2.584-.778 3.842 3.842 0 0 1 2.426.756 2.78 2.78 0 0 1 1.081 2.074h-1.731a1.368 1.368 0 0 0-.554-.967 2.143 2.143 0 0 0-1.3-.352 2.1 2.1 0 0 0-1.252.338 1.034 1.034 0 0 0-.47.875.843.843 0 0 0 .242.615 1.362 1.362 0 0 0 .633.352q.391.105.892.207t1.024.18a4.851 4.851 0 0 1 1.024.272 4.077 4.077 0 0 1 .892.47 1.952 1.952 0 0 1 .633.8 2.95 2.95 0 0 1 .242 1.239 2.679 2.679 0 0 1-1.033 2.188 4.3 4.3 0 0 1-2.782.835 4.118 4.118 0 0 1-2.72-.813 3.021 3.021 0 0 1-1.076-2.199ZM366.826 4944.7a6.686 6.686 0 0 1 .835-3.327 6.071 6.071 0 0 1 2.339-2.348 6.716 6.716 0 0 1 3.379-.857 6.3 6.3 0 0 1 3.836 1.187 5.869 5.869 0 0 1 2.193 3.076h-2.14a3.821 3.821 0 0 0-1.468-1.771 4.326 4.326 0 0 0-2.417-.66 4.305 4.305 0 0 0-3.274 1.332 5.14 5.14 0 0 0 0 6.75 4.33 4.33 0 0 0 3.291 1.336 4.418 4.418 0 0 0 2.918-.984 3.45 3.45 0 0 0 1.292-2.514h-4.535v-1.635h6.7v.167a8.119 8.119 0 0 1-.466 2.821 5.832 5.832 0 0 1-1.354 2.188 5.938 5.938 0 0 1-2.039 1.318 6.891 6.891 0 0 1-2.531.457 6.888 6.888 0 0 1-2.619-.5 6.054 6.054 0 0 1-3.448-3.436 6.852 6.852 0 0 1-.492-2.6Zm15.258 6.3v-9.413h1.816v1.635h.123a2.582 2.582 0 0 1 .923-1.151 2.614 2.614 0 0 1 1.6-.5h.826v1.837h-.872a2.276 2.276 0 0 0-1.85.809 3.246 3.246 0 0 0-.672 2.145V4951Zm7.717-1.125a5.009 5.009 0 0 1-1.266-3.551 5.143 5.143 0 0 1 1.257-3.582 4.148 4.148 0 0 1 3.226-1.393 3.9 3.9 0 0 1 1.187.176 3.079 3.079 0 0 1 .927.457 4.765 4.765 0 0 1 .593.514 3.348 3.348 0 0 1 .369.461h.132v-1.371h1.89V4951h-1.855v-1.336h-.114a3.535 3.535 0 0 1-3.041 1.573 4.319 4.319 0 0 1-3.306-1.362Zm.659-3.577a3.345 3.345 0 0 0 .8 2.342 2.723 2.723 0 0 0 2.114.883 2.639 2.639 0 0 0 2.109-.923 3.414 3.414 0 0 0 .791-2.3 3.275 3.275 0 0 0-.822-2.351 2.764 2.764 0 0 0-2.1-.866 2.681 2.681 0 0 0-2.092.9 3.336 3.336 0 0 0-.8 2.317Zm10.371 4.702v-13.5h1.89v5.458h.105a2.681 2.681 0 0 1 .374-.466 5.172 5.172 0 0 1 .606-.514 3.137 3.137 0 0 1 .932-.453 3.942 3.942 0 0 1 1.191-.176 4.112 4.112 0 0 1 3.208 1.393 5.165 5.165 0 0 1 1.248 3.582 5.009 5.009 0 0 1-1.266 3.551 4.3 4.3 0 0 1-3.3 1.362 3.519 3.519 0 0 1-3.023-1.573h-.123V4951Zm1.837-4.7a3.438 3.438 0 0 0 .782 2.3 2.613 2.613 0 0 0 2.1.923 2.713 2.713 0 0 0 2.114-.879 3.821 3.821 0 0 0 0-4.667 2.647 2.647 0 0 0-2.079-.9 2.764 2.764 0 0 0-2.1.866 3.275 3.275 0 0 0-.817 2.357Zm10.6 3.577a5.009 5.009 0 0 1-1.268-3.553 5.143 5.143 0 0 1 1.257-3.582 4.148 4.148 0 0 1 3.226-1.393 3.9 3.9 0 0 1 1.187.176 3.079 3.079 0 0 1 .927.457 4.765 4.765 0 0 1 .593.514 3.348 3.348 0 0 1 .369.461h.132v-1.371h1.89V4951h-1.853v-1.336h-.114a3.535 3.535 0 0 1-3.041 1.573 4.319 4.319 0 0 1-3.305-1.362Zm.659-3.577a3.345 3.345 0 0 0 .8 2.342 2.723 2.723 0 0 0 2.114.883 2.639 2.639 0 0 0 2.109-.923 3.414 3.414 0 0 0 .791-2.3 3.275 3.275 0 0 0-.822-2.351 2.764 2.764 0 0 0-2.1-.866 2.681 2.681 0 0 0-2.092.9 3.336 3.336 0 0 0-.8 2.315Zm9.7 0a5.159 5.159 0 0 1 .615-2.509 4.556 4.556 0 0 1 1.739-1.791 4.915 4.915 0 0 1 2.527-.655 4.76 4.76 0 0 1 2.966.967 4.122 4.122 0 0 1 1.586 2.566h-1.942a2.416 2.416 0 0 0-.954-1.305 2.781 2.781 0 0 0-1.639-.5 2.73 2.73 0 0 0-2.135.927 3.635 3.635 0 0 0 .018 4.614 2.956 2.956 0 0 0 3.771.422 2.39 2.39 0 0 0 .958-1.292h1.925a4.035 4.035 0 0 1-1.573 2.544 4.785 4.785 0 0 1-2.962.954 5.128 5.128 0 0 1-1.991-.382 4.5 4.5 0 0 1-1.551-1.046 4.828 4.828 0 0 1-.993-1.573 5.214 5.214 0 0 1-.362-1.941Zm11.443-7.392a1.124 1.124 0 0 1 .352-.853 1.237 1.237 0 0 1 .888-.334 1.276 1.276 0 0 1 .91.334 1.118 1.118 0 0 1 .356.853 1.138 1.138 0 0 1-.356.87 1.276 1.276 0 0 1-.91.334 1.234 1.234 0 0 1-.892-.334 1.153 1.153 0 0 1-.345-.872Zm.293 12.092v-9.413h1.89V4951Zm3.938-4.7a5.076 5.076 0 0 1 .637-2.531 4.568 4.568 0 0 1 1.78-1.775 5.15 5.15 0 0 1 2.566-.642 5.071 5.071 0 0 1 2.562.65 4.584 4.584 0 0 1 1.767 1.78 5.09 5.09 0 0 1 .628 2.518 5.035 5.035 0 0 1-.637 2.518 4.607 4.607 0 0 1-1.78 1.775 5.105 5.105 0 0 1-2.558.646 4.8 4.8 0 0 1-4.966-4.939Zm1.925 0a3.243 3.243 0 0 0 .857 2.316 3.082 3.082 0 0 0 4.377 0 3.546 3.546 0 0 0 0-4.623 3.1 3.1 0 0 0-4.381 0 3.24 3.24 0 0 0-.853 2.307Zm2.2-6.24 1.011-2.5h2l-1.617 2.5Zm8.092 10.94v-9.413h1.837v1.257h.123a2.539 2.539 0 0 1 1.037-1.063 3.327 3.327 0 0 1 1.723-.431 3.255 3.255 0 0 1 2.514 1.02 3.663 3.663 0 0 1 .94 2.584V4951H457.8v-5.687a2.163 2.163 0 0 0-.6-1.586 2.03 2.03 0 0 0-1.507-.611 2.165 2.165 0 0 0-1.635.681 2.377 2.377 0 0 0-.65 1.709V4951Zm16.383-1.125a5.009 5.009 0 0 1-1.266-3.551 5.143 5.143 0 0 1 1.257-3.582 4.148 4.148 0 0 1 3.226-1.393 3.9 3.9 0 0 1 1.187.176 3.079 3.079 0 0 1 .927.457 4.765 4.765 0 0 1 .593.514 3.348 3.348 0 0 1 .369.461h.132v-5.457h1.89v13.5h-1.856v-1.336h-.114a3.535 3.535 0 0 1-3.041 1.573 4.319 4.319 0 0 1-3.305-1.362Zm.659-3.577a3.345 3.345 0 0 0 .8 2.342 2.723 2.723 0 0 0 2.114.883 2.639 2.639 0 0 0 2.109-.923 3.414 3.414 0 0 0 .791-2.3 3.275 3.275 0 0 0-.822-2.351 2.764 2.764 0 0 0-2.1-.866 2.681 2.681 0 0 0-2.092.9 3.336 3.336 0 0 0-.8 2.317Zm9.7.026a5.393 5.393 0 0 1 .615-2.606 4.374 4.374 0 0 1 1.683-1.753 4.727 4.727 0 0 1 2.4-.615 4.89 4.89 0 0 1 1.951.378 3.988 3.988 0 0 1 1.455 1.037 4.7 4.7 0 0 1 .888 1.538 5.608 5.608 0 0 1 .312 1.89v.7h-7.418a2.725 2.725 0 0 0 2.9 2.751 3.175 3.175 0 0 0 1.6-.4 2.207 2.207 0 0 0 .989-1.09h1.837a3.892 3.892 0 0 1-1.569 2.237 4.917 4.917 0 0 1-2.914.848 4.509 4.509 0 0 1-3.419-1.384 4.91 4.91 0 0 1-1.307-3.531Zm1.925-.888h5.515a2.592 2.592 0 0 0-.853-1.833 2.916 2.916 0 0 0-3.762.031 2.662 2.662 0 0 0-.897 1.803Zm9.255 3.226V4937.5h1.89v11.048a.831.831 0 0 0 .185.58.689.689 0 0 0 .536.2h.4V4951h-.773a2.164 2.164 0 0 1-1.648-.615 2.4 2.4 0 0 1-.588-1.723Zm9.56-5.528v-1.534h1.239a.532.532 0 0 0 .4-.167.625.625 0 0 0 .158-.448v-2.065h1.775v2.663h2.742v1.547h-2.742v4.825q0 1.441 1.371 1.441h1.274V4951h-1.564a2.7 2.7 0 0 1-2.971-2.988v-4.878Zm9.158 6.741a5.009 5.009 0 0 1-1.266-3.551 5.143 5.143 0 0 1 1.257-3.582 4.148 4.148 0 0 1 3.226-1.393 3.9 3.9 0 0 1 1.187.176 3.079 3.079 0 0 1 .927.457 4.765 4.765 0 0 1 .593.514 3.348 3.348 0 0 1 .369.461h.132v-1.371h1.89V4951h-1.854v-1.336h-.119a3.535 3.535 0 0 1-3.041 1.573 4.319 4.319 0 0 1-3.305-1.362Zm.659-3.577a3.345 3.345 0 0 0 .8 2.342 2.723 2.723 0 0 0 2.114.883 2.639 2.639 0 0 0 2.109-.923 3.414 3.414 0 0 0 .791-2.3 3.275 3.275 0 0 0-.822-2.351 2.764 2.764 0 0 0-2.1-.866 2.681 2.681 0 0 0-2.092.9 3.336 3.336 0 0 0-.804 2.317Zm10.371 2.364V4937.5h1.89v11.048a.831.831 0 0 0 .185.58.689.689 0 0 0 .536.2h.4V4951h-.773a2.164 2.164 0 0 1-1.648-.615 2.4 2.4 0 0 1-.593-1.723Zm5.142 0V4937.5h1.89v11.048a.831.831 0 0 0 .185.58.689.689 0 0 0 .536.2h.4V4951h-.773a2.164 2.164 0 0 1-1.648-.615 2.4 2.4 0 0 1-.594-1.723Zm4.438-2.338a5.393 5.393 0 0 1 .615-2.606 4.374 4.374 0 0 1 1.683-1.753 4.727 4.727 0 0 1 2.4-.615 4.89 4.89 0 0 1 1.951.378 3.988 3.988 0 0 1 1.455 1.037 4.7 4.7 0 0 1 .888 1.538 5.608 5.608 0 0 1 .312 1.89v.7h-7.418a2.725 2.725 0 0 0 2.9 2.751 3.175 3.175 0 0 0 1.6-.4 2.207 2.207 0 0 0 .989-1.09h1.837a3.892 3.892 0 0 1-1.569 2.237 4.917 4.917 0 0 1-2.914.848 4.509 4.509 0 0 1-3.419-1.384 4.91 4.91 0 0 1-1.313-3.531Zm1.925-.888h5.507a2.592 2.592 0 0 0-.853-1.833 2.916 2.916 0 0 0-3.762.031 2.662 2.662 0 0 0-.896 1.803Zm9.664 5.564v-9.413h1.819v1.635h.123a2.582 2.582 0 0 1 .923-1.151 2.614 2.614 0 0 1 1.6-.5h.826v1.837h-.879a2.276 2.276 0 0 0-1.85.809 3.246 3.246 0 0 0-.672 2.145V4951Zm12.48 0v-12.6h1.942v10.872h5.256V4951Zm6.363-10.872v-1.728h9.413v1.731h-3.735V4951h-1.934v-10.872ZM570.732 4951v-12.6h2.074l5.977 9.325h.105v-9.325h1.89v12.6h-2.092l-5.933-9.325h-.114V4951Z" fill="#0e1118"/><path data-name="Path 6535" d="M366.237 4991.4h3.163l2.9 8.75h.141l2.919-8.75h3.129l-4.676 12.6h-2.935Zm11.496 12.6 4.28-12.6h3.639l4.333 12.6h-3.023l-.756-2.232h-4.825l-.738 2.232Zm4.421-4.772h3.278l-1.546-4.694h-.158Zm9.299 4.772v-12.6h2.847v10.06h4.931v2.54Zm8.438-6.3a6.569 6.569 0 0 1 .51-2.58 6.214 6.214 0 0 1 3.52-3.45 7.31 7.31 0 0 1 5.331 0 6.441 6.441 0 0 1 2.131 1.375 6.339 6.339 0 0 1 1.393 2.079 6.546 6.546 0 0 1 .51 2.571 6.488 6.488 0 0 1-.87 3.318 6.285 6.285 0 0 1-2.4 2.36 6.869 6.869 0 0 1-3.423.861 7.1 7.1 0 0 1-2.672-.5 6.421 6.421 0 0 1-2.131-1.367 6.223 6.223 0 0 1-1.39-2.076 6.673 6.673 0 0 1-.509-2.591Zm2.953 0a3.736 3.736 0 0 0 1.05 2.72 3.886 3.886 0 0 0 5.37 0 3.736 3.736 0 0 0 1.05-2.72 3.744 3.744 0 0 0-1.05-2.711 3.858 3.858 0 0 0-5.366 0 3.736 3.736 0 0 0-1.054 2.711Zm12.375 6.3v-12.6h4.931a4.548 4.548 0 0 1 3.2 1.16 3.887 3.887 0 0 1 1.261 3 3.984 3.984 0 0 1-.62 2.2 4.13 4.13 0 0 1-1.613 1.477l2.693 4.763H421.9l-2.145-4.21h-1.689v4.21Zm2.848-6.645h1.833a1.814 1.814 0 0 0 1.3-.475 1.74 1.74 0 0 0 .5-1.327 1.636 1.636 0 0 0-.5-1.253 1.873 1.873 0 0 0-1.336-.47h-1.8Zm8.49 5.388a1.41 1.41 0 0 1 .453-1.063 1.519 1.519 0 0 1 1.085-.431 1.493 1.493 0 0 1 1.1.426 1.568 1.568 0 0 1 0 2.145 1.506 1.506 0 0 1-1.107.417 1.532 1.532 0 0 1-1.088-.422 1.408 1.408 0 0 1-.443-1.072Zm0-6.144a1.41 1.41 0 0 1 .453-1.063 1.519 1.519 0 0 1 1.085-.431 1.493 1.493 0 0 1 1.1.426 1.449 1.449 0 0 1 .429 1.069 1.467 1.467 0 0 1-.426 1.09 1.623 1.623 0 0 1-2.198-.009 1.437 1.437 0 0 1-.443-1.081Z" fill="#0e1118"/><path data-name="Path 6536" d="M754.113 4999.2h2.834a3.284 3.284 0 0 0 .844 2.175 3.885 3.885 0 0 0 2.254 1.2v-6.1q-.646-.158-1.127-.3t-1.074-.375a5.814 5.814 0 0 1-1.009-.51 5.67 5.67 0 0 1-.844-.686 3.67 3.67 0 0 1-.692-.91 4.984 4.984 0 0 1-.428-1.18 6.428 6.428 0 0 1-.165-1.5 4.8 4.8 0 0 1 1.43-3.487 6.194 6.194 0 0 1 3.909-1.727v-1.49h1.951v1.49a7.865 7.865 0 0 1 2.07.527 6.212 6.212 0 0 1 1.734 1.073 4.839 4.839 0 0 1 1.233 1.707 5.77 5.77 0 0 1 .475 2.314h-2.95a2.933 2.933 0 0 0-.659-1.964 3.115 3.115 0 0 0-1.9-1V4994q.751.185 1.226.31t1.167.382a6.611 6.611 0 0 1 1.134.527 7.173 7.173 0 0 1 .943.705 3.569 3.569 0 0 1 .791.956 5.361 5.361 0 0 1 .481 1.252 6.327 6.327 0 0 1 .191 1.6 5.127 5.127 0 0 1-1.575 3.8 6.816 6.816 0 0 1-4.361 1.798v1.964h-1.951v-1.994a6.854 6.854 0 0 1-4.287-1.955 5.676 5.676 0 0 1-1.645-4.145Zm3.48-8.24a2.057 2.057 0 0 0 .62 1.589 4.815 4.815 0 0 0 1.833.956v-5.049a3.2 3.2 0 0 0-1.826.9 2.285 2.285 0 0 0-.627 1.603Zm4.4 11.667a3.8 3.8 0 0 0 2.149-.864 2.318 2.318 0 0 0 .791-1.813 2.386 2.386 0 0 0-.765-1.912 5.643 5.643 0 0 0-2.172-1.054Zm9.065-10.534a6.156 6.156 0 0 1 .883-3.243 6.224 6.224 0 0 1 2.373-2.281 6.659 6.659 0 0 1 3.256-.817 6.353 6.353 0 0 1 4.575 1.8 6.033 6.033 0 0 1 1.872 4.542 7.227 7.227 0 0 1-.962 3.533l-5.251 9.373h-3.309l4.179-6.908-.105-.105a4.142 4.142 0 0 1-1.437.237 6.268 6.268 0 0 1-2.986-.732 5.726 5.726 0 0 1-2.235-2.149 6.156 6.156 0 0 1-.853-3.25Zm2.953 0a3.6 3.6 0 0 0 .989 2.564 3.373 3.373 0 0 0 2.571 1.048 3.342 3.342 0 0 0 2.544-1.048 3.6 3.6 0 0 0 .989-2.564 3.592 3.592 0 0 0-.982-2.584 3.369 3.369 0 0 0-2.551-1.028 3.4 3.4 0 0 0-2.577 1.028 3.592 3.592 0 0 0-.987 2.584Zm13.513-3.375v-2.624h11.927v2.465L792.858 5005h-3.123l6.645-16.124v-.158Z" fill="#0e1118"/><path data-name="Path 6539" d="M1032.055 5002.2h2.834a3.284 3.284 0 0 0 .844 2.175 3.885 3.885 0 0 0 2.254 1.2v-6.1q-.646-.158-1.127-.3t-1.074-.375a5.814 5.814 0 0 1-1.009-.51 5.67 5.67 0 0 1-.844-.686 3.67 3.67 0 0 1-.692-.91 4.984 4.984 0 0 1-.428-1.18 6.428 6.428 0 0 1-.165-1.5 4.8 4.8 0 0 1 1.43-3.487 6.194 6.194 0 0 1 3.909-1.727v-1.49h1.951v1.49a7.865 7.865 0 0 1 2.07.527 6.212 6.212 0 0 1 1.734 1.073 4.839 4.839 0 0 1 1.233 1.707 5.77 5.77 0 0 1 .475 2.314h-2.95a2.933 2.933 0 0 0-.659-1.964 3.115 3.115 0 0 0-1.9-1V4997q.751.185 1.226.31t1.167.382a6.611 6.611 0 0 1 1.134.527 7.173 7.173 0 0 1 .943.705 3.569 3.569 0 0 1 .791.956 5.361 5.361 0 0 1 .481 1.252 6.327 6.327 0 0 1 .191 1.6 5.127 5.127 0 0 1-1.575 3.8 6.816 6.816 0 0 1-4.361 1.798v1.964h-1.951v-1.994a6.854 6.854 0 0 1-4.287-1.955 5.676 5.676 0 0 1-1.645-4.145Zm3.48-8.24a2.057 2.057 0 0 0 .62 1.589 4.815 4.815 0 0 0 1.833.956v-5.049a3.2 3.2 0 0 0-1.826.9 2.285 2.285 0 0 0-.627 1.603Zm4.4 11.667a3.8 3.8 0 0 0 2.149-.864 2.318 2.318 0 0 0 .791-1.813 2.386 2.386 0 0 0-.765-1.912 5.643 5.643 0 0 0-2.172-1.054Zm9.149-3.059h2.689a2.984 2.984 0 0 0 .967 2.162 3.3 3.3 0 0 0 2.36.87 3.517 3.517 0 0 0 2.551-.936 3.3 3.3 0 0 0 .969-2.492 3.19 3.19 0 0 0-1.009-2.419 3.578 3.578 0 0 0-2.564-.953h-2.347v-2.32l4.588-4.6v-.158h-7.8v-2.624h11.43v2.6l-4.711 4.582v.158a5.751 5.751 0 0 1 3.817 1.786 5.453 5.453 0 0 1 1.536 3.922 6.362 6.362 0 0 1-.745 3.054 5.749 5.749 0 0 1-2.235 2.259 6.723 6.723 0 0 1-3.454.87 6.412 6.412 0 0 1-2.617-.521 5.329 5.329 0 0 1-1.909-1.364 6.261 6.261 0 0 1-1.123-1.844 5.57 5.57 0 0 1-.389-2.032Zm16.387 0h2.689a2.984 2.984 0 0 0 .962 2.162 3.3 3.3 0 0 0 2.36.87 3.517 3.517 0 0 0 2.551-.936 3.3 3.3 0 0 0 .969-2.492 3.19 3.19 0 0 0-1.002-2.418 3.578 3.578 0 0 0-2.566-.954h-2.347v-2.32l4.588-4.6v-.158h-7.8v-2.624h11.425v2.6l-4.706 4.582v.158a5.751 5.751 0 0 1 3.817 1.786 5.453 5.453 0 0 1 1.536 3.922 6.362 6.362 0 0 1-.747 3.054 5.749 5.749 0 0 1-2.233 2.259 6.723 6.723 0 0 1-3.454.87 6.412 6.412 0 0 1-2.613-.52 5.329 5.329 0 0 1-1.912-1.365 6.261 6.261 0 0 1-1.124-1.844 5.57 5.57 0 0 1-.389-2.032Zm16 1.16v-2.373l5.59-12.261h2.993l-5.304 11.892v.158h4.97V4997h2.887v4.14h2.293v2.584h-2.293V5008h-2.887v-4.271Z" fill="#fff"/><path data-name="Path 6533" d="M716.873 4627.23a10.792 10.792 0 0 1-.752-4.03 10.52 10.52 0 0 1 .766-4.02 9.743 9.743 0 0 1 2.113-3.229 9.645 9.645 0 0 1 3.28-2.133 11.073 11.073 0 0 1 4.177-.779 10.06 10.06 0 0 1 6.364 2.023 8.977 8.977 0 0 1 3.343 5.168h-4.894a4.343 4.343 0 0 0-1.778-2.13 5.511 5.511 0 0 0-3.035-.813 5.461 5.461 0 0 0-4.157 1.679 5.909 5.909 0 0 0-1.585 4.234 6.1 6.1 0 0 0 1.585 4.324 5.416 5.416 0 0 0 4.156 1.7 6.058 6.058 0 0 0 3.444-.941 3.69 3.69 0 0 0 1.7-2.338h-5.348v-3.637h10.281q.014.3.014.6a10.531 10.531 0 0 1-2.611 7.479 9.725 9.725 0 0 1-7.479 2.982 11.163 11.163 0 0 1-4.197-.779 9.558 9.558 0 0 1-3.281-2.133 9.8 9.8 0 0 1-2.106-3.227Zm22.695 5.77v-19.605h12.414v3.787H744v4.061h6.809v3.773H744v4.17h8.285V4633Zm15.723 0v-19.605h4.909l7.505 12.332h.164v-12.332h4.279V4633h-4.921l-7.479-12.318h-.164V4633Zm20.709 0v-19.605h12.418v3.787h-7.984v4.061h6.809v3.773h-6.809v4.17h8.285V4633Zm15.727 0v-19.605h7.673a7.075 7.075 0 0 1 4.983 1.8 6.046 6.046 0 0 1 1.962 4.662 6.2 6.2 0 0 1-.964 3.418 6.425 6.425 0 0 1-2.509 2.3l4.181 7.425h-4.936l-3.336-6.549h-2.625V4633Zm4.43-10.336h2.857a2.822 2.822 0 0 0 2.023-.738 2.707 2.707 0 0 0 .779-2.064 2.545 2.545 0 0 0-.779-1.948 2.913 2.913 0 0 0-2.078-.731h-2.8ZM808.283 4633l6.658-19.605h5.66l6.741 19.605h-4.7l-1.176-3.473h-7.509l-1.148 3.473Zm6.877-7.424h5.1l-2.406-7.3h-.246Zm14.465 7.424v-19.605h4.43v15.654h7.67V4633Z" fill="#0e1118"/><path data-name="Path 6538" d="M1043.369 4613.395h4.922l4.509 13.617h.219l4.539-13.617h4.867l-7.271 19.605h-4.566Zm21.342 19.605v-19.605h4.43V4633Zm8.289 0v-19.605h7.588a6.841 6.841 0 0 1 4.888 1.839 6.206 6.206 0 0 1 1.948 4.724 6.422 6.422 0 0 1-.923 3.4 6.427 6.427 0 0 1-2.485 2.362 7.111 7.111 0 0 1-3.432.841h-3.158V4633Zm4.43-10.186h2.721a2.661 2.661 0 0 0 1.982-.793 2.819 2.819 0 0 0 .779-2.064 2.7 2.7 0 0 0-.772-2.017 2.719 2.719 0 0 0-1.989-.759h-2.725Z" fill="#fff"/><path data-name="Path 4567" d="M906.137 4694.637h-562.2v-1h562.2Z" fill="#4542cd"/><path data-name="Path 4572" d="M1171.139 4694.637H962.863v-1h208.276Z" fill="#fff"/><path data-name="Path 4568" d="M906.137 4745.637h-562.2v-1h562.2Z" fill="#4542cd"/><path data-name="Path 4573" d="M1171.139 4745.637H962.863v-1h208.276Z" fill="#fff"/><path data-name="Path 4569" d="M906.137 4794.774h-562.2v-1h562.2Z" fill="#4542cd"/><path data-name="Path 4574" d="M1171.139 4794.774H962.863v-1h208.276Z" fill="#fff"/><path data-name="Path 4570" d="M906.137 4870.774h-562.2v-1h562.2Z" fill="#4542cd"/><path data-name="Path 4575" d="M1171.139 4870.774H962.863v-1h208.276Z" fill="#fff"/><path data-name="Path 4571" d="M906.137 4921.774h-562.2v-1h562.2Z" fill="#4542cd"/><path data-name="Path 4587" d="M906.137 4968.774h-562.2v-1h562.2Z" fill="#4542cd"/><path data-name="Path 4576" d="M1171.139 4921.774H962.863v-1h208.276Z" fill="#fff"/><path data-name="Path 4588" d="M1171.139 4968.774H962.863v-1h208.276Z" fill="#fff"/><path data-name="Path 4577" d="m775.156 4680.096-10.641-10.641 3.536-3.535 7.105 7.1 14.793-14.792 3.536 3.535Z" fill="#4542cd"/><path data-name="Path 4584" d="m1063.157 4680.096-10.641-10.641 3.536-3.535 7.105 7.1 14.793-14.792 3.536 3.535Z" fill="#37f2b9"/><path data-name="Path 4578" d="m775.156 4731.233-10.641-10.641 3.536-3.535 7.105 7.1 14.793-14.792 3.536 3.535Z" fill="#4542cd"/><path data-name="Path 4583" d="m1063.157 4731.233-10.641-10.641 3.536-3.535 7.105 7.1 14.793-14.792 3.536 3.535Z" fill="#37f2b9"/><path data-name="Path 4579" d="m775.156 4782.596-10.641-10.641 3.536-3.535 7.105 7.1 14.793-14.792 3.536 3.535Z" fill="#4542cd"/><path data-name="Path 4582" d="m1063.157 4782.596-10.641-10.641 3.536-3.535 7.105 7.1 14.793-14.792 3.536 3.535Z" fill="#37f2b9"/><path data-name="Path 4581" d="m1061.657 4846.316-10.641-10.641 3.536-3.535 7.105 7.1 14.793-14.792 3.536 3.535Z" fill="#37f2b9"/><path data-name="Path 4585" d="m1063.157 4907.369-10.641-10.641 3.536-3.535 7.105 7.1 14.793-14.792 3.536 3.535Z" fill="#37f2b9"/><path data-name="Path 4586" d="m1063.157 4951.596-10.641-10.641 3.536-3.535 7.105 7.1 14.793-14.792 3.536 3.535Z" fill="#37f2b9"/><path data-name="Path 6021" d="m743.345 5006.514-.817-2.887 67.917-19.221.817 2.887Z" fill="#e8041c"/><path data-name="Path 6410" d="m1031.947 5006.514-.817-2.887 67.917-19.221.817 2.887Z" fill="#e8041c"/></g><path data-name="Path 6537" d="M400.475 485.376a14.261 14.261 0 0 1-.994-5.33 13.9 13.9 0 0 1 1.012-5.312 12.874 12.874 0 0 1 2.791-4.264 12.746 12.746 0 0 1 4.336-2.817 14.633 14.633 0 0 1 5.519-1.03 13.293 13.293 0 0 1 8.411 2.677 11.862 11.862 0 0 1 4.417 6.829H419.5a5.739 5.739 0 0 0-2.349-2.809 7.283 7.283 0 0 0-4.011-1.075 7.216 7.216 0 0 0-5.492 2.213 7.809 7.809 0 0 0-2.1 5.592 8.057 8.057 0 0 0 2.1 5.718 7.157 7.157 0 0 0 5.492 2.246 8.005 8.005 0 0 0 4.544-1.247 4.876 4.876 0 0 0 2.249-3.089h-7.064v-4.806h13.586q.018.4.018.795 0 6.179-3.451 9.882a12.852 12.852 0 0 1-9.882 3.939 14.751 14.751 0 0 1-5.547-1.03 12.63 12.63 0 0 1-4.336-2.818 12.947 12.947 0 0 1-2.782-4.264Zm29.99 7.624v-25.907H440.6a9.349 9.349 0 0 1 6.585 2.385 7.989 7.989 0 0 1 2.593 6.161 8.189 8.189 0 0 1-1.278 4.516 8.489 8.489 0 0 1-3.311 3.035l5.529 9.81H444.2l-4.412-8.654h-3.469V493Zm5.854-13.658h3.776a3.729 3.729 0 0 0 2.674-.976 3.577 3.577 0 0 0 1.03-2.728 3.364 3.364 0 0 0-1.03-2.574 3.85 3.85 0 0 0-2.746-.967h-3.7ZM452.344 493l8.8-25.907h7.479L477.528 493h-6.215l-1.553-4.589h-9.919L458.324 493Zm9.087-9.81h6.739l-3.18-9.647h-.325Zm15.447-11.021v-5.077h20.361v5.077h-7.263V493H484.1v-20.831ZM500.762 493v-25.907h5.854V493Zm9.431-8.437h5.6a3.407 3.407 0 0 0 1.319 2.574 5.26 5.26 0 0 0 3.378.985 5.158 5.158 0 0 0 2.854-.677 2.14 2.14 0 0 0 1.03-1.888 1.908 1.908 0 0 0-.461-1.292 3.027 3.027 0 0 0-1.247-.831 14.059 14.059 0 0 0-1.8-.533q-1.012-.235-2.132-.479t-2.24-.569a9.775 9.775 0 0 1-2.132-.9 8.014 8.014 0 0 1-1.8-1.391 5.731 5.731 0 0 1-1.247-2.141 9.207 9.207 0 0 1-.461-3.026 7.108 7.108 0 0 1 2.493-5.564 9.949 9.949 0 0 1 6.829-2.2 10.553 10.553 0 0 1 6.829 2.123 7.83 7.83 0 0 1 2.8 6.115h-5.854a2.827 2.827 0 0 0-1.021-2.186 4.147 4.147 0 0 0-2.755-.831 4.252 4.252 0 0 0-2.565.668 2.064 2.064 0 0 0-.9 1.734 1.74 1.74 0 0 0 .47 1.229 3.164 3.164 0 0 0 1.265.795 13.423 13.423 0 0 0 1.834.506l2.177.452q1.138.235 2.276.551a9.924 9.924 0 0 1 2.177.894 8.245 8.245 0 0 1 1.834 1.373 5.6 5.6 0 0 1 1.265 2.1 8.749 8.749 0 0 1 .47 2.981 7.588 7.588 0 0 1-2.71 6.034 11.1 11.1 0 0 1-7.476 2.319 10.593 10.593 0 0 1-7.407-2.439 8.166 8.166 0 0 1-2.692-6.377Z" fill="#e8041c"/><path data-name="Path 6540" d="M680.651 488.143h7.871a4.7 4.7 0 0 0 1.13 2.933 5.7 5.7 0 0 0 2.958 1.738v-7.693q-1.32-.279-2.272-.546t-2.171-.736a12.409 12.409 0 0 1-2.095-1.016 11.048 11.048 0 0 1-1.777-1.409 7.459 7.459 0 0 1-1.447-1.892 10.737 10.737 0 0 1-.9-2.488 13.458 13.458 0 0 1-.355-3.187 10.052 10.052 0 0 1 2.92-7.287 12.7 12.7 0 0 1 8.1-3.529v-2.869h4.367v2.869a13.453 13.453 0 0 1 8.02 3.517 11.109 11.109 0 0 1 3.225 7.96H700a4.208 4.208 0 0 0-.812-2.437 4.4 4.4 0 0 0-2.209-1.5v7.059q1.27.254 2.12.457t2.095.559a12.213 12.213 0 0 1 2.082.774q.838.419 1.841 1.028a6.515 6.515 0 0 1 1.663 1.409 13.113 13.113 0 0 1 1.244 1.815 7.954 7.954 0 0 1 .863 2.349 14.184 14.184 0 0 1 .279 2.907 10.693 10.693 0 0 1-3.226 7.949 14.2 14.2 0 0 1-8.962 3.707v3.834h-4.368v-3.834a13.655 13.655 0 0 1-8.8-3.948 11.63 11.63 0 0 1-3.159-8.493Zm9.877-16.453a2.929 2.929 0 0 0-.711 1.955 2.39 2.39 0 0 0 .711 1.8 5.458 5.458 0 0 0 2.082 1.145v-6.068a3.8 3.8 0 0 0-2.082 1.167Zm6.449 21.3a5.066 5.066 0 0 0 2.667-1.19 2.976 2.976 0 0 0 .939-2.26 2.566 2.566 0 0 0-.914-2.082 7.662 7.662 0 0 0-2.691-1.295Zm16.707.609v-6.855l9.039-23.156h8.377l-8.582 22.42v.3h7.008v-7.49h8.125v7.49h3.682v7.292h-3.682v6.4h-8.125v-6.4Zm32.094-22.722v-7.338h24.248v7.033L757.585 500H748.6l12.463-28.768v-.355Zm27.974 23.269V484.6h3.5v9.528a2.988 2.988 0 0 0 .709 2.116 2.678 2.678 0 0 0 2.064.756 2.678 2.678 0 0 0 2.063-.763 3.021 3.021 0 0 0 .712-2.137v-9.5h3.491v9.528a6 6 0 0 1-1.724 4.463 6.179 6.179 0 0 1-4.542 1.699 6.2 6.2 0 0 1-4.549-1.7 5.963 5.963 0 0 1-1.724-4.444Zm14.513.838h3.33a2.026 2.026 0 0 0 .784 1.531 3.128 3.128 0 0 0 2.009.585 3.067 3.067 0 0 0 1.7-.4 1.272 1.272 0 0 0 .612-1.126 1.134 1.134 0 0 0-.274-.768 1.8 1.8 0 0 0-.741-.494 8.359 8.359 0 0 0-1.072-.312q-.6-.14-1.268-.285t-1.332-.338a5.812 5.812 0 0 1-1.268-.537 4.765 4.765 0 0 1-1.069-.827 3.408 3.408 0 0 1-.741-1.273 5.475 5.475 0 0 1-.274-1.8 4.226 4.226 0 0 1 1.482-3.309 5.915 5.915 0 0 1 4.061-1.311 6.275 6.275 0 0 1 4.061 1.262 4.656 4.656 0 0 1 1.665 3.636h-3.48a1.681 1.681 0 0 0-.607-1.3 2.466 2.466 0 0 0-1.638-.494 2.528 2.528 0 0 0-1.525.4 1.227 1.227 0 0 0-.537 1.031 1.035 1.035 0 0 0 .279.73 1.881 1.881 0 0 0 .752.473 7.981 7.981 0 0 0 1.09.3l1.294.269q.677.14 1.354.328a5.9 5.9 0 0 1 1.294.532 4.9 4.9 0 0 1 1.094.813 3.33 3.33 0 0 1 .752 1.246 5.2 5.2 0 0 1 .279 1.772 4.512 4.512 0 0 1-1.614 3.582 6.6 6.6 0 0 1-4.447 1.39 6.3 6.3 0 0 1-4.4-1.45 4.855 4.855 0 0 1-1.6-3.792ZM802.541 500v-15.4h5.479a9.342 9.342 0 0 1 3.314.564 6.99 6.99 0 0 1 2.508 1.568 6.858 6.858 0 0 1 1.558 2.413 8.471 8.471 0 0 1 .548 3.088 7.606 7.606 0 0 1-2.122 5.677 7.915 7.915 0 0 1-5.806 2.09Zm3.48-3.019h1.848a5.5 5.5 0 0 0 1.331-.155 4.287 4.287 0 0 0 1.208-.51 3.712 3.712 0 0 0 1-.892 4.121 4.121 0 0 0 .666-1.354 6.334 6.334 0 0 0 .247-1.837 5.6 5.6 0 0 0-.371-2.116 3.59 3.59 0 0 0-1.01-1.445 4.418 4.418 0 0 0-1.413-.795 5.1 5.1 0 0 0-1.654-.263h-1.852Z" fill="#ffd800"/></g><g data-name="Group 2642" fill="#e8041c"><path data-name="Path 6019" d="m458.692 337.689-2.891-2.765 20.508-21.442 2.891 2.765Z"/><path data-name="Path 6020" d="m476.309 337.689-20.508-21.442 2.891-2.765 20.508 21.442Z"/></g><g data-name="Group 2673" fill="#e8041c"><path data-name="Path 6019" d="m458.692 274.383-2.891-2.765 20.508-21.442 2.891 2.765Z"/><path data-name="Path 6020" d="m476.309 274.383-20.508-21.442 2.891-2.765 20.508 21.442Z"/></g><g data-name="Group 2643" fill="#e8041c"><path data-name="Path 6019" d="m458.692 388.689-2.891-2.765 20.508-21.442 2.891 2.765Z"/><path data-name="Path 6020" d="m476.309 388.689-20.508-21.442 2.891-2.765 20.508 21.442Z"/></g></g></svg>