<svg xmlns="http://www.w3.org/2000/svg" width="304" height="508"><g data-name="Group 2689" transform="translate(-12884 -5631.827)"><rect data-name="Rectangle 1288" width="304" height="508" rx="16" transform="translate(12884 5631.827)" fill="#4542cd"/><path data-name="Path 6494" d="M13006.461 5665.32h6.153l5.64 17.021h.273l5.673-17.021h6.084l-9.091 24.507h-5.708Zm26.678 24.507v-24.507h5.537v24.507Zm10.361 0v-24.507h9.48a8.551 8.551 0 0 1 6.11 2.3 7.758 7.758 0 0 1 2.435 5.9 8.028 8.028 0 0 1-1.154 4.255 8.034 8.034 0 0 1-3.101 2.952 8.889 8.889 0 0 1-4.29 1.051h-3.948v8.049Zm5.537-12.732h3.4a3.326 3.326 0 0 0 2.478-.991 3.524 3.524 0 0 0 .974-2.581 3.374 3.374 0 0 0-.966-2.521 3.4 3.4 0 0 0-2.487-.948h-3.4Z" fill="#fff"/><path data-name="Path 6495" d="M12942.333 5731.827v-10.5h6.226v1.425h-4.607v3.047h3.948v1.406h-3.948v3.208h4.76v1.414Zm8.306 0v-7.844h1.531v1.044h.1a2.116 2.116 0 0 1 .864-.886 2.772 2.772 0 0 1 1.436-.359 2.712 2.712 0 0 1 2.095.85 3.052 3.052 0 0 1 .784 2.153v5.042h-1.574v-4.739a1.8 1.8 0 0 0-.5-1.322 1.691 1.691 0 0 0-1.256-.509 1.8 1.8 0 0 0-1.364.57 1.981 1.981 0 0 0-.542 1.425v4.575Zm8.43-6.555v-1.275h1.031a.444.444 0 0 0 .337-.139.521.521 0 0 0 .132-.374v-1.72h1.481v2.219h2.285v1.289h-2.285v4.021q0 1.2 1.143 1.2h1.062v1.334h-1.3a2.49 2.49 0 0 1-1.824-.641 2.479 2.479 0 0 1-.652-1.849v-4.065Zm7.131 6.555v-7.844h1.516v1.362h.1a2.152 2.152 0 0 1 .769-.959 2.178 2.178 0 0 1 1.333-.417h.688v1.53h-.732a1.9 1.9 0 0 0-1.542.674 2.705 2.705 0 0 0-.56 1.787v3.867Zm6.431-.937a4.174 4.174 0 0 1-1.052-2.963 4.285 4.285 0 0 1 1.047-2.985 3.457 3.457 0 0 1 2.688-1.161 3.25 3.25 0 0 1 .986.146 2.566 2.566 0 0 1 .773.381 3.971 3.971 0 0 1 .494.428 2.79 2.79 0 0 1 .308.385h.11v-1.138h1.575v7.844h-1.543v-1.113h-.1a2.946 2.946 0 0 1-2.53 1.313 3.6 3.6 0 0 1-2.754-1.137Zm.549-2.981a2.787 2.787 0 0 0 .67 1.952 2.269 2.269 0 0 0 1.761.736 2.2 2.2 0 0 0 1.761-.77 2.845 2.845 0 0 0 .659-1.919 2.729 2.729 0 0 0-.685-1.959 2.3 2.3 0 0 0-1.746-.722 2.234 2.234 0 0 0-1.743.751 2.78 2.78 0 0 0-.674 1.931Zm9.141 2.981a4.174 4.174 0 0 1-1.052-2.963 4.285 4.285 0 0 1 1.047-2.985 3.457 3.457 0 0 1 2.684-1.157 3.25 3.25 0 0 1 .989.146 2.566 2.566 0 0 1 .773.381 3.971 3.971 0 0 1 .494.428 2.79 2.79 0 0 1 .308.385h.11v-4.548h1.575v11.25h-1.542v-1.113h-.1a2.946 2.946 0 0 1-2.53 1.313 3.6 3.6 0 0 1-2.754-1.137Zm.549-2.981a2.787 2.787 0 0 0 .67 1.952 2.269 2.269 0 0 0 1.761.736 2.2 2.2 0 0 0 1.761-.77 2.845 2.845 0 0 0 .659-1.919 2.729 2.729 0 0 0-.685-1.959 2.3 2.3 0 0 0-1.746-.722 2.234 2.234 0 0 0-1.743.751 2.78 2.78 0 0 0-.674 1.931Zm9.141 2.981a4.174 4.174 0 0 1-1.053-2.963 4.285 4.285 0 0 1 1.047-2.985 3.457 3.457 0 0 1 2.688-1.161 3.25 3.25 0 0 1 .989.146 2.566 2.566 0 0 1 .773.381 3.971 3.971 0 0 1 .494.428 2.79 2.79 0 0 1 .308.385h.11v-1.138h1.575v7.844h-1.542v-1.113h-.1a2.946 2.946 0 0 1-2.533 1.313 3.6 3.6 0 0 1-2.754-1.137Zm.549-2.981a2.787 2.787 0 0 0 .67 1.952 2.269 2.269 0 0 0 1.761.736 2.2 2.2 0 0 0 1.761-.77 2.845 2.845 0 0 0 .659-1.919 2.729 2.729 0 0 0-.685-1.959 2.3 2.3 0 0 0-1.747-.722 2.234 2.234 0 0 0-1.743.751 2.78 2.78 0 0 0-.673 1.931Zm11.868-3.926h1.672l2.109 5.94h.11l2.095-5.94h1.7l-2.991 7.844h-1.707Zm9.038-2.234a.937.937 0 0 1 .293-.71 1.031 1.031 0 0 1 .74-.278 1.064 1.064 0 0 1 .758.278.931.931 0 0 1 .3.71.949.949 0 0 1-.3.725 1.064 1.064 0 0 1-.758.278 1.028 1.028 0 0 1-.743-.278.961.961 0 0 1-.29-.725Zm.242 10.078v-7.844h1.575v7.844Zm3.838 0v-7.844h1.516v1.362h.1a2.152 2.152 0 0 1 .769-.959 2.178 2.178 0 0 1 1.333-.417h.688v1.53h-.732a1.9 1.9 0 0 0-1.542.674 2.705 2.705 0 0 0-.56 1.787v3.867Zm5.6-6.555v-1.275h1.033a.444.444 0 0 0 .337-.139.521.521 0 0 0 .132-.374v-1.72h1.479v2.219h2.285v1.289h-2.283v4.021q0 1.2 1.143 1.2h1.062v1.334h-1.3a2.49 2.49 0 0 1-1.824-.641 2.479 2.479 0 0 1-.652-1.849v-4.065Zm7.017 3.75v-5.039h1.577v4.753a1.807 1.807 0 0 0 .5 1.326 1.685 1.685 0 0 0 1.252.505 1.813 1.813 0 0 0 1.366-.56 1.963 1.963 0 0 0 .538-1.417v-4.607h1.575v7.844h-1.533v-1.047h-.1a2.12 2.12 0 0 1-.861.886 2.753 2.753 0 0 1-1.432.359 2.712 2.712 0 0 1-2.095-.85 3.052 3.052 0 0 1-.785-2.153Zm9.609 1.868a4.174 4.174 0 0 1-1.052-2.963 4.285 4.285 0 0 1 1.047-2.985 3.457 3.457 0 0 1 2.688-1.161 3.25 3.25 0 0 1 .989.146 2.566 2.566 0 0 1 .773.381 3.971 3.971 0 0 1 .494.428 2.79 2.79 0 0 1 .308.385h.11v-1.138h1.571v7.844h-1.545v-1.113h-.1a2.946 2.946 0 0 1-2.534 1.311 3.6 3.6 0 0 1-2.747-1.135Zm.549-2.981a2.787 2.787 0 0 0 .67 1.952 2.269 2.269 0 0 0 1.761.736 2.2 2.2 0 0 0 1.761-.77 2.845 2.845 0 0 0 .659-1.919 2.729 2.729 0 0 0-.685-1.959 2.3 2.3 0 0 0-1.747-.721 2.234 2.234 0 0 0-1.74.751 2.78 2.78 0 0 0-.676 1.93Zm8.643 1.97v-9.302h1.575v9.207a.692.692 0 0 0 .154.483.575.575 0 0 0 .447.168h.33v1.392h-.645a1.8 1.8 0 0 1-1.373-.513 2 2 0 0 1-.486-1.435Zm9.1 1.011a4.174 4.174 0 0 1-1.055-2.959 4.285 4.285 0 0 1 1.047-2.985 3.457 3.457 0 0 1 2.688-1.161 3.25 3.25 0 0 1 .989.146 2.566 2.566 0 0 1 .773.381 3.971 3.971 0 0 1 .494.428 2.79 2.79 0 0 1 .308.385h.11v-1.142h1.582v7.844h-1.545v-1.113h-.1a2.946 2.946 0 0 1-2.534 1.311 3.6 3.6 0 0 1-2.751-1.135Zm.549-2.981a2.787 2.787 0 0 0 .67 1.952 2.269 2.269 0 0 0 1.761.736 2.2 2.2 0 0 0 1.765-.77 2.845 2.845 0 0 0 .659-1.919 2.729 2.729 0 0 0-.685-1.959 2.3 2.3 0 0 0-1.747-.721 2.234 2.234 0 0 0-1.743.751 2.78 2.78 0 0 0-.673 1.93Zm8.643 1.97v-9.302h1.575v9.207a.692.692 0 0 0 .154.483.575.575 0 0 0 .447.168h.33v1.392h-.645a1.8 1.8 0 0 1-1.373-.513 2 2 0 0 1-.482-1.435Zm7.961-4.607v-1.275h1.033a.444.444 0 0 0 .337-.139.521.521 0 0 0 .132-.374v-1.72h1.481v2.219h2.285v1.289h-2.285v4.021q0 1.2 1.143 1.2h1.062v1.334h-1.3a2.49 2.49 0 0 1-1.824-.641 2.479 2.479 0 0 1-.652-1.849v-4.065Zm7.632 5.618a4.174 4.174 0 0 1-1.049-2.963 4.285 4.285 0 0 1 1.047-2.985 3.457 3.457 0 0 1 2.688-1.161 3.25 3.25 0 0 1 .989.146 2.566 2.566 0 0 1 .773.381 3.971 3.971 0 0 1 .494.428 2.79 2.79 0 0 1 .308.385h.11v-1.138h1.575v7.844h-1.545v-1.113h-.1a2.946 2.946 0 0 1-2.534 1.311 3.6 3.6 0 0 1-2.75-1.135Zm.549-2.981a2.787 2.787 0 0 0 .67 1.952 2.269 2.269 0 0 0 1.761.736 2.2 2.2 0 0 0 1.765-.77 2.845 2.845 0 0 0 .659-1.919 2.729 2.729 0 0 0-.685-1.959 2.3 2.3 0 0 0-1.747-.721 2.234 2.234 0 0 0-1.743.751 2.78 2.78 0 0 0-.678 1.93Zm8.643 1.97v-9.302h1.575v9.207a.692.692 0 0 0 .154.483.575.575 0 0 0 .447.168h.33v1.392h-.645a1.8 1.8 0 0 1-1.373-.513 2 2 0 0 1-.482-1.435Zm4.285 0v-9.302h1.575v9.207a.692.692 0 0 0 .154.483.575.575 0 0 0 .447.168h.33v1.392h-.645a1.8 1.8 0 0 1-1.373-.513 2 2 0 0 1-.482-1.435Zm3.7-1.948a4.494 4.494 0 0 1 .513-2.172 3.645 3.645 0 0 1 1.4-1.461 3.94 3.94 0 0 1 2-.513 4.075 4.075 0 0 1 1.626.315 3.324 3.324 0 0 1 1.212.864 3.92 3.92 0 0 1 .74 1.282 4.673 4.673 0 0 1 .26 1.575v.586h-6.182a2.27 2.27 0 0 0 2.417 2.292 2.646 2.646 0 0 0 1.337-.337 1.839 1.839 0 0 0 .824-.908h1.531a3.244 3.244 0 0 1-1.307 1.864 4.1 4.1 0 0 1-2.428.707 3.757 3.757 0 0 1-2.849-1.154 4.091 4.091 0 0 1-1.089-2.944Zm1.6-.74h4.592a2.16 2.16 0 0 0-.71-1.527 2.43 2.43 0 0 0-3.135.026 2.218 2.218 0 0 0-.738 1.501Zm8.065 4.636v-7.844h1.516v1.362h.1a2.152 2.152 0 0 1 .769-.959 2.178 2.178 0 0 1 1.333-.417h.688v1.53h-.732a1.9 1.9 0 0 0-1.542.674 2.705 2.705 0 0 0-.56 1.787v3.867Zm-168.003 34.749a5.644 5.644 0 0 1 .412-2.149 5.24 5.24 0 0 1 1.128-1.732 5.175 5.175 0 0 1 1.732-1.143 5.669 5.669 0 0 1 2.179-.417 5.164 5.164 0 0 1 3.226 1.025 5 5 0 0 1 1.813 2.71h-1.744a3.022 3.022 0 0 0-1.234-1.62 3.668 3.668 0 0 0-2.058-.586 3.711 3.711 0 0 0-1.919.509 3.609 3.609 0 0 0-1.355 1.406 4.09 4.09 0 0 0-.491 2 3.872 3.872 0 0 0 1.073 2.802 3.586 3.586 0 0 0 2.688 1.113 3.666 3.666 0 0 0 2.051-.579 3.07 3.07 0 0 0 1.245-1.611h1.772a4.808 4.808 0 0 1-1.813 2.7 5.3 5.3 0 0 1-3.255 1.023 5.74 5.74 0 0 1-2.183-.414 5.11 5.11 0 0 1-1.732-1.135 5.219 5.219 0 0 1-1.123-1.734 5.71 5.71 0 0 1-.412-2.168Zm12.334 2.446v-5.039h1.578v4.753a1.807 1.807 0 0 0 .5 1.326 1.685 1.685 0 0 0 1.252.505 1.813 1.813 0 0 0 1.366-.56 1.963 1.963 0 0 0 .538-1.417v-4.607h1.575v7.844h-1.531v-1.047h-.1a2.12 2.12 0 0 1-.861.886 2.753 2.753 0 0 1-1.439.361 2.712 2.712 0 0 1-2.095-.85 3.052 3.052 0 0 1-.783-2.155Zm9.609 1.868a4.174 4.174 0 0 1-1.054-2.963 4.285 4.285 0 0 1 1.047-2.985 3.457 3.457 0 0 1 2.688-1.161 3.25 3.25 0 0 1 .989.146 2.566 2.566 0 0 1 .773.381 3.971 3.971 0 0 1 .494.428 2.79 2.79 0 0 1 .308.385h.11v-1.138h1.575v7.844h-1.546v-1.113h-.1a2.946 2.946 0 0 1-2.529 1.313 3.6 3.6 0 0 1-2.754-1.137Zm.549-2.981a2.787 2.787 0 0 0 .67 1.952 2.269 2.269 0 0 0 1.761.736 2.2 2.2 0 0 0 1.76-.77 2.845 2.845 0 0 0 .659-1.919 2.729 2.729 0 0 0-.685-1.959 2.3 2.3 0 0 0-1.745-.722 2.234 2.234 0 0 0-1.743.751 2.78 2.78 0 0 0-.676 1.931Zm9.141 2.981a4.174 4.174 0 0 1-1.054-2.963 4.285 4.285 0 0 1 1.047-2.985 3.457 3.457 0 0 1 2.686-1.157 3.25 3.25 0 0 1 .989.146 2.566 2.566 0 0 1 .773.381 3.971 3.971 0 0 1 .494.428 2.79 2.79 0 0 1 .308.385h.11v-4.548h1.576v11.25h-1.545v-1.113h-.1a2.946 2.946 0 0 1-2.529 1.313 3.6 3.6 0 0 1-2.754-1.137Zm.549-2.981a2.787 2.787 0 0 0 .67 1.952 2.269 2.269 0 0 0 1.761.736 2.2 2.2 0 0 0 1.76-.77 2.845 2.845 0 0 0 .659-1.919 2.729 2.729 0 0 0-.685-1.959 2.3 2.3 0 0 0-1.747-.721 2.234 2.234 0 0 0-1.743.751 2.78 2.78 0 0 0-.674 1.93Zm8.086.022a4.494 4.494 0 0 1 .513-2.172 3.645 3.645 0 0 1 1.4-1.461 3.94 3.94 0 0 1 2-.513 4.075 4.075 0 0 1 1.626.315 3.324 3.324 0 0 1 1.212.864 3.92 3.92 0 0 1 .74 1.282 4.673 4.673 0 0 1 .26 1.575v.586h-6.175a2.27 2.27 0 0 0 2.417 2.292 2.646 2.646 0 0 0 1.337-.337 1.839 1.839 0 0 0 .824-.908h1.53a3.244 3.244 0 0 1-1.307 1.864 4.1 4.1 0 0 1-2.433.709 3.757 3.757 0 0 1-2.849-1.154 4.091 4.091 0 0 1-1.094-2.946Zm1.6-.74h4.592a2.16 2.16 0 0 0-.71-1.527 2.43 2.43 0 0 0-3.135.026 2.218 2.218 0 0 0-.742 1.501Zm8.062 4.636v-7.844h1.516v1.362h.1a2.152 2.152 0 0 1 .769-.959 2.178 2.178 0 0 1 1.333-.417h.688v1.531h-.732a1.9 1.9 0 0 0-1.542.674 2.705 2.705 0 0 0-.56 1.787v3.866Zm6.218 0v-7.844h1.531v1.044h.1a2.116 2.116 0 0 1 .864-.886 2.772 2.772 0 0 1 1.436-.359 2.712 2.712 0 0 1 2.095.85 3.052 3.052 0 0 1 .784 2.153v5.042h-1.573v-4.739a1.8 1.8 0 0 0-.5-1.322 1.691 1.691 0 0 0-1.256-.509 1.8 1.8 0 0 0-1.364.57 1.981 1.981 0 0 0-.542 1.425v4.575Zm8.518-3.918a4.23 4.23 0 0 1 .531-2.109 3.807 3.807 0 0 1 1.483-1.479 4.292 4.292 0 0 1 2.139-.535 4.226 4.226 0 0 1 2.135.542 3.82 3.82 0 0 1 1.472 1.483 4.242 4.242 0 0 1 .524 2.1 4.2 4.2 0 0 1-.531 2.1 3.839 3.839 0 0 1-1.483 1.479 4.254 4.254 0 0 1-2.131.538 4 4 0 0 1-4.138-4.116Zm1.6 0a2.7 2.7 0 0 0 .714 1.93 2.568 2.568 0 0 0 3.647 0 2.955 2.955 0 0 0 0-3.853 2.582 2.582 0 0 0-3.651 0 2.7 2.7 0 0 0-.706 1.923Zm13.154 2.981a4.174 4.174 0 0 1-1.05-2.963 4.285 4.285 0 0 1 1.042-2.981 3.457 3.457 0 0 1 2.688-1.161 3.25 3.25 0 0 1 .989.146 2.566 2.566 0 0 1 .773.381 3.971 3.971 0 0 1 .494.428 2.79 2.79 0 0 1 .308.385h.11v-4.548h1.575v11.25h-1.537v-1.113h-.1a2.946 2.946 0 0 1-2.534 1.313 3.6 3.6 0 0 1-2.754-1.137Zm.549-2.981a2.787 2.787 0 0 0 .67 1.952 2.269 2.269 0 0 0 1.761.736 2.2 2.2 0 0 0 1.763-.77 2.845 2.845 0 0 0 .659-1.919 2.729 2.729 0 0 0-.685-1.959 2.3 2.3 0 0 0-1.747-.721 2.234 2.234 0 0 0-1.743.751 2.78 2.78 0 0 0-.673 1.93Zm8.086.022a4.494 4.494 0 0 1 .513-2.172 3.645 3.645 0 0 1 1.4-1.461 3.94 3.94 0 0 1 2-.513 4.075 4.075 0 0 1 1.626.315 3.324 3.324 0 0 1 1.212.864 3.92 3.92 0 0 1 .74 1.282 4.673 4.673 0 0 1 .26 1.575v.586h-6.172a2.27 2.27 0 0 0 2.417 2.292 2.646 2.646 0 0 0 1.337-.337 1.839 1.839 0 0 0 .824-.908h1.531a3.244 3.244 0 0 1-1.307 1.864 4.1 4.1 0 0 1-2.424.709 3.757 3.757 0 0 1-2.849-1.154 4.091 4.091 0 0 1-1.103-2.946Zm1.6-.74h4.592a2.16 2.16 0 0 0-.71-1.527 2.43 2.43 0 0 0-3.135.026 2.218 2.218 0 0 0-.738 1.501Zm11.492-1.919v-1.275h1.033a.444.444 0 0 0 .337-.139.521.521 0 0 0 .132-.374v-1.72h1.479v2.219h2.285v1.289h-2.285v4.021q0 1.2 1.143 1.2h1.062v1.334h-1.3a2.252 2.252 0 0 1-2.476-2.49v-4.065Zm7.142 6.555v-7.844h1.516v1.362h.1a2.152 2.152 0 0 1 .769-.959 2.178 2.178 0 0 1 1.333-.417h.688v1.531h-.732a1.9 1.9 0 0 0-1.542.674 2.705 2.705 0 0 0-.56 1.787v3.866Zm6.431-.937a4.174 4.174 0 0 1-1.055-2.959 4.285 4.285 0 0 1 1.047-2.985 3.457 3.457 0 0 1 2.688-1.161 3.25 3.25 0 0 1 .989.146 2.566 2.566 0 0 1 .773.381 3.971 3.971 0 0 1 .494.428 2.79 2.79 0 0 1 .308.385h.11v-1.142h1.575v7.844h-1.545v-1.113h-.1a2.946 2.946 0 0 1-2.534 1.311 3.6 3.6 0 0 1-2.75-1.135Zm.549-2.981a2.787 2.787 0 0 0 .67 1.952 2.269 2.269 0 0 0 1.761.736 2.2 2.2 0 0 0 1.758-.77 2.845 2.845 0 0 0 .659-1.919 2.729 2.729 0 0 0-.685-1.959 2.3 2.3 0 0 0-1.747-.721 2.234 2.234 0 0 0-1.743.751 2.78 2.78 0 0 0-.673 1.93Zm8.643 3.918v-11.25h1.575v4.55h.088a2.234 2.234 0 0 1 .311-.388 4.31 4.31 0 0 1 .505-.428 2.614 2.614 0 0 1 .776-.377 3.285 3.285 0 0 1 .992-.146 3.426 3.426 0 0 1 2.673 1.161 4.3 4.3 0 0 1 1.04 2.985 4.174 4.174 0 0 1-1.055 2.959 3.585 3.585 0 0 1-2.754 1.135 2.932 2.932 0 0 1-2.52-1.311h-.1v1.11Zm1.531-3.918a2.865 2.865 0 0 0 .651 1.918 2.177 2.177 0 0 0 1.75.769 2.26 2.26 0 0 0 1.761-.732 3.184 3.184 0 0 0 0-3.889 2.206 2.206 0 0 0-1.732-.747 2.3 2.3 0 0 0-1.747.721 2.729 2.729 0 0 0-.684 1.96Zm8.833 2.981a4.174 4.174 0 0 1-1.055-2.959 4.285 4.285 0 0 1 1.047-2.985 3.457 3.457 0 0 1 2.688-1.161 3.25 3.25 0 0 1 .989.146 2.566 2.566 0 0 1 .773.381 3.971 3.971 0 0 1 .494.428 2.79 2.79 0 0 1 .308.385h.11v-1.142h1.575v7.844h-1.545v-1.113h-.1a2.946 2.946 0 0 1-2.534 1.311 3.6 3.6 0 0 1-2.751-1.135Zm.549-2.981a2.787 2.787 0 0 0 .67 1.952 2.269 2.269 0 0 0 1.761.736 2.2 2.2 0 0 0 1.756-.77 2.845 2.845 0 0 0 .659-1.919 2.729 2.729 0 0 0-.685-1.959 2.3 2.3 0 0 0-1.747-.721 2.234 2.234 0 0 0-1.743.751 2.78 2.78 0 0 0-.671 1.93Zm7.053 5.962h.557a1.251 1.251 0 0 0 1.348-1.34v-8.548h1.575v8.562a2.639 2.639 0 0 1-.765 2 2.779 2.779 0 0 1-2.01.736h-.7Zm1.648-12.122a.94.94 0 0 1 .293-.707 1.033 1.033 0 0 1 .747-.282 1.051 1.051 0 0 1 .754.278.937.937 0 0 1 .293.71.955.955 0 0 1-.293.725 1.152 1.152 0 0 1-1.5 0 .955.955 0 0 1-.294-.724Zm3.75 6.16a4.23 4.23 0 0 1 .531-2.109 3.807 3.807 0 0 1 1.483-1.479 4.292 4.292 0 0 1 2.139-.535 4.226 4.226 0 0 1 2.135.542 3.82 3.82 0 0 1 1.472 1.483 4.242 4.242 0 0 1 .524 2.1 4.2 4.2 0 0 1-.531 2.1 3.839 3.839 0 0 1-1.483 1.479 4.254 4.254 0 0 1-2.131.538 4 4 0 0 1-4.138-4.116Zm1.6 0a2.7 2.7 0 0 0 .714 1.93 2.568 2.568 0 0 0 3.647 0 2.955 2.955 0 0 0 0-3.853 2.582 2.582 0 0 0-3.651 0 2.7 2.7 0 0 0-.706 1.923Zm-148.231 43.918v-10.5h6.226v1.428h-4.607v3.047h3.948v1.406h-3.948v3.208h4.76v1.411Zm8.306 0v-7.844h1.531v1.044h.1a2.116 2.116 0 0 1 .864-.886 2.772 2.772 0 0 1 1.436-.359 2.712 2.712 0 0 1 2.095.85 3.052 3.052 0 0 1 .784 2.153v5.042h-1.574v-4.739a1.8 1.8 0 0 0-.5-1.322 1.691 1.691 0 0 0-1.256-.509 1.8 1.8 0 0 0-1.364.57 1.981 1.981 0 0 0-.542 1.425v4.575Zm8.43-6.555v-1.275h1.031a.444.444 0 0 0 .337-.139.521.521 0 0 0 .132-.374v-1.72h1.481v2.219h2.285v1.289h-2.285v4.021q0 1.2 1.143 1.2h1.062v1.334h-1.3a2.252 2.252 0 0 1-2.476-2.49v-4.065Zm7.131 6.555v-7.844h1.516v1.362h.1a2.152 2.152 0 0 1 .769-.959 2.178 2.178 0 0 1 1.333-.417h.688v1.531h-.732a1.9 1.9 0 0 0-1.542.674 2.705 2.705 0 0 0-.56 1.787v3.866Zm6.431-.937a4.174 4.174 0 0 1-1.052-2.963 4.285 4.285 0 0 1 1.047-2.985 3.457 3.457 0 0 1 2.688-1.161 3.25 3.25 0 0 1 .989.146 2.566 2.566 0 0 1 .773.381 3.971 3.971 0 0 1 .494.428 2.79 2.79 0 0 1 .308.385h.11v-1.138h1.575v7.844h-1.546v-1.113h-.1a2.946 2.946 0 0 1-2.53 1.313 3.6 3.6 0 0 1-2.754-1.137Zm.549-2.981a2.787 2.787 0 0 0 .67 1.952 2.269 2.269 0 0 0 1.761.736 2.2 2.2 0 0 0 1.761-.77 2.845 2.845 0 0 0 .659-1.919 2.729 2.729 0 0 0-.685-1.959 2.3 2.3 0 0 0-1.746-.722 2.234 2.234 0 0 0-1.743.751 2.78 2.78 0 0 0-.674 1.931Zm9.141 2.981a4.174 4.174 0 0 1-1.052-2.963 4.285 4.285 0 0 1 1.047-2.985 3.457 3.457 0 0 1 2.684-1.157 3.25 3.25 0 0 1 .989.146 2.566 2.566 0 0 1 .773.381 3.971 3.971 0 0 1 .494.428 2.79 2.79 0 0 1 .308.385h.11v-4.548h1.575v11.25h-1.542v-1.113h-.1a2.946 2.946 0 0 1-2.53 1.313 3.6 3.6 0 0 1-2.754-1.137Zm.549-2.981a2.787 2.787 0 0 0 .67 1.952 2.269 2.269 0 0 0 1.761.736 2.2 2.2 0 0 0 1.761-.77 2.845 2.845 0 0 0 .659-1.919 2.729 2.729 0 0 0-.685-1.959 2.3 2.3 0 0 0-1.746-.722 2.234 2.234 0 0 0-1.743.751 2.78 2.78 0 0 0-.674 1.931Zm9.141 2.981a4.174 4.174 0 0 1-1.053-2.963 4.285 4.285 0 0 1 1.047-2.985 3.457 3.457 0 0 1 2.688-1.161 3.25 3.25 0 0 1 .989.146 2.566 2.566 0 0 1 .773.381 3.971 3.971 0 0 1 .494.428 2.79 2.79 0 0 1 .308.385h.11v-1.138h1.575v7.844h-1.542v-1.113h-.1a2.946 2.946 0 0 1-2.533 1.313 3.6 3.6 0 0 1-2.754-1.137Zm.549-2.981a2.787 2.787 0 0 0 .67 1.952 2.269 2.269 0 0 0 1.761.736 2.2 2.2 0 0 0 1.761-.77 2.845 2.845 0 0 0 .659-1.919 2.729 2.729 0 0 0-.685-1.959 2.3 2.3 0 0 0-1.747-.721 2.234 2.234 0 0 0-1.743.751 2.78 2.78 0 0 0-.673 1.93Zm11.865-3.926h1.675l2.109 5.94h.11l2.095-5.94h1.7l-2.991 7.844h-1.707Zm9.038-2.234a.937.937 0 0 1 .293-.71 1.031 1.031 0 0 1 .74-.278 1.064 1.064 0 0 1 .758.278.931.931 0 0 1 .3.71.949.949 0 0 1-.3.725 1.064 1.064 0 0 1-.758.278 1.028 1.028 0 0 1-.743-.278.961.961 0 0 1-.287-.725Zm.245 10.078v-7.844h1.575v7.844Zm3.838 0v-7.844h1.516v1.362h.1a2.152 2.152 0 0 1 .769-.959 2.178 2.178 0 0 1 1.333-.417h.688v1.531h-.732a1.9 1.9 0 0 0-1.542.674 2.705 2.705 0 0 0-.56 1.787v3.866Zm5.6-6.555v-1.275h1.033a.444.444 0 0 0 .337-.139.521.521 0 0 0 .132-.374v-1.72h1.479v2.219h2.285v1.289h-2.283v4.021q0 1.2 1.143 1.2h1.062v1.334h-1.3a2.252 2.252 0 0 1-2.476-2.49v-4.065Zm7.017 3.75v-5.039h1.577v4.753a1.807 1.807 0 0 0 .5 1.326 1.685 1.685 0 0 0 1.252.505 1.813 1.813 0 0 0 1.366-.56 1.963 1.963 0 0 0 .538-1.417v-4.607h1.575v7.844h-1.533v-1.047h-.1a2.12 2.12 0 0 1-.861.886 2.753 2.753 0 0 1-1.432.359 2.712 2.712 0 0 1-2.095-.85 3.052 3.052 0 0 1-.785-2.153Zm9.609 1.868a4.174 4.174 0 0 1-1.052-2.963 4.285 4.285 0 0 1 1.047-2.985 3.457 3.457 0 0 1 2.688-1.161 3.25 3.25 0 0 1 .989.146 2.566 2.566 0 0 1 .773.381 3.971 3.971 0 0 1 .494.428 2.79 2.79 0 0 1 .308.385h.11v-1.138h1.571v7.844h-1.545v-1.113h-.1a2.946 2.946 0 0 1-2.534 1.311 3.6 3.6 0 0 1-2.747-1.135Zm.549-2.981a2.787 2.787 0 0 0 .67 1.952 2.269 2.269 0 0 0 1.761.736 2.2 2.2 0 0 0 1.761-.77 2.845 2.845 0 0 0 .659-1.919 2.729 2.729 0 0 0-.685-1.959 2.3 2.3 0 0 0-1.747-.721 2.234 2.234 0 0 0-1.743.751 2.78 2.78 0 0 0-.673 1.93Zm8.643 1.97v-9.3h1.575v9.207a.692.692 0 0 0 .154.483.575.575 0 0 0 .447.168h.33v1.39h-.645a1.8 1.8 0 0 1-1.373-.513 2 2 0 0 1-.486-1.435Zm9.1 1.011a4.174 4.174 0 0 1-1.055-2.959 4.285 4.285 0 0 1 1.047-2.985 3.457 3.457 0 0 1 2.688-1.161 3.25 3.25 0 0 1 .989.146 2.566 2.566 0 0 1 .773.381 3.971 3.971 0 0 1 .494.428 2.79 2.79 0 0 1 .308.385h.11v-1.142h1.582v7.844h-1.545v-1.113h-.1a2.946 2.946 0 0 1-2.534 1.311 3.6 3.6 0 0 1-2.751-1.135Zm.549-2.981a2.787 2.787 0 0 0 .67 1.952 2.269 2.269 0 0 0 1.761.736 2.2 2.2 0 0 0 1.765-.77 2.845 2.845 0 0 0 .659-1.919 2.729 2.729 0 0 0-.685-1.959 2.3 2.3 0 0 0-1.747-.721 2.234 2.234 0 0 0-1.743.751 2.78 2.78 0 0 0-.673 1.93Zm8.643 1.97v-9.3h1.575v9.207a.692.692 0 0 0 .154.483.575.575 0 0 0 .447.168h.33v1.39h-.645a1.8 1.8 0 0 1-1.373-.513 2 2 0 0 1-.482-1.435Zm8.715 1.948v-10.5h1.619v10.5Zm4.182 0v-7.844h1.531v1.044h.1a2.116 2.116 0 0 1 .864-.886 2.772 2.772 0 0 1 1.436-.359 2.712 2.712 0 0 1 2.095.85 3.052 3.052 0 0 1 .784 2.153v5.042h-1.573v-4.739a1.8 1.8 0 0 0-.5-1.322 1.691 1.691 0 0 0-1.256-.509 1.8 1.8 0 0 0-1.364.57 1.981 1.981 0 0 0-.542 1.425v4.575Zm8.43-6.555v-1.275h1.033a.444.444 0 0 0 .337-.139.521.521 0 0 0 .132-.374v-1.72h1.479v2.219h2.285v1.289h-2.285v4.021q0 1.2 1.143 1.2h1.062v1.334h-1.3a2.252 2.252 0 0 1-2.476-2.49v-4.065Zm6.577 2.655a4.494 4.494 0 0 1 .513-2.172 3.645 3.645 0 0 1 1.4-1.461 3.94 3.94 0 0 1 2-.513 4.075 4.075 0 0 1 1.626.315 3.324 3.324 0 0 1 1.212.864 3.92 3.92 0 0 1 .74 1.282 4.673 4.673 0 0 1 .26 1.575v.586h-6.182a2.27 2.27 0 0 0 2.417 2.292 2.646 2.646 0 0 0 1.337-.337 1.839 1.839 0 0 0 .824-.908h1.531a3.244 3.244 0 0 1-1.307 1.864 4.1 4.1 0 0 1-2.428.707 3.757 3.757 0 0 1-2.849-1.154 4.091 4.091 0 0 1-1.094-2.94Zm1.6-.74h4.592a2.16 2.16 0 0 0-.71-1.527 2.43 2.43 0 0 0-3.135.026 2.218 2.218 0 0 0-.743 1.505Zm8.061 4.64v-7.844h1.516v1.362h.1a2.152 2.152 0 0 1 .769-.959 2.178 2.178 0 0 1 1.333-.417h.688v1.531h-.727a1.9 1.9 0 0 0-1.542.674 2.705 2.705 0 0 0-.56 1.787v3.866Zm6.218 0v-7.844h1.531v1.044h.1a2.116 2.116 0 0 1 .864-.886 2.772 2.772 0 0 1 1.436-.359 2.712 2.712 0 0 1 2.095.85 3.052 3.052 0 0 1 .784 2.153v5.042h-1.575v-4.739a1.8 1.8 0 0 0-.5-1.322 1.691 1.691 0 0 0-1.256-.509 1.8 1.8 0 0 0-1.362.568 1.981 1.981 0 0 0-.542 1.425v4.577Zm8.518-3.9a4.494 4.494 0 0 1 .513-2.172 3.645 3.645 0 0 1 1.4-1.461 3.94 3.94 0 0 1 2-.513 4.075 4.075 0 0 1 1.626.315 3.324 3.324 0 0 1 1.212.864 3.92 3.92 0 0 1 .74 1.282 4.673 4.673 0 0 1 .26 1.575v.586h-6.182a2.27 2.27 0 0 0 2.417 2.292 2.646 2.646 0 0 0 1.337-.337 1.839 1.839 0 0 0 .824-.908h1.531a3.244 3.244 0 0 1-1.307 1.864 4.1 4.1 0 0 1-2.428.707 3.757 3.757 0 0 1-2.849-1.154 4.091 4.091 0 0 1-1.094-2.94Zm1.6-.74h4.592a2.16 2.16 0 0 0-.71-1.527 2.43 2.43 0 0 0-3.135.026 2.218 2.218 0 0 0-.743 1.505Zm7.412-1.919v-1.271h1.033a.444.444 0 0 0 .337-.139.521.521 0 0 0 .132-.374v-1.72h1.479v2.219h2.285v1.289h-2.285v4.021q0 1.2 1.143 1.2h1.062v1.334h-1.3a2.252 2.252 0 0 1-2.476-2.49v-4.065Zm-186.236 26.559v-10.5h1.89l3.647 8.459h.088l3.333-8.459h1.875v10.5h-1.56v-7.185h-.088l-2.85 7.185h-1.56l-3.12-7.258h-.1v7.258Zm13.894-.937a4.174 4.174 0 0 1-1.055-2.959 4.285 4.285 0 0 1 1.047-2.985 3.457 3.457 0 0 1 2.688-1.161 3.25 3.25 0 0 1 .989.146 2.566 2.566 0 0 1 .773.381 3.971 3.971 0 0 1 .494.428 2.79 2.79 0 0 1 .308.385h.11v-1.143h1.575v7.845h-1.546v-1.113h-.1a2.946 2.946 0 0 1-2.534 1.311 3.6 3.6 0 0 1-2.749-1.135Zm.549-2.981a2.787 2.787 0 0 0 .67 1.952 2.269 2.269 0 0 0 1.761.736 2.2 2.2 0 0 0 1.759-.77 2.845 2.845 0 0 0 .659-1.919 2.729 2.729 0 0 0-.685-1.959 2.3 2.3 0 0 0-1.747-.721 2.234 2.234 0 0 0-1.743.751 2.78 2.78 0 0 0-.674 1.93Zm8.643 3.918v-7.844h1.516v1.362h.1a2.152 2.152 0 0 1 .769-.959 2.178 2.178 0 0 1 1.333-.417h.688v1.531h-.725a1.9 1.9 0 0 0-1.542.674 2.705 2.705 0 0 0-.56 1.787v3.866Zm6.218 0v-11.25h1.575v6.75h.088l2.974-3.347h1.963l-2.737 2.969 2.934 4.878h-1.787l-2.219-3.706-1.216 1.333v2.373Zm7.3-3.9a4.494 4.494 0 0 1 .513-2.172 3.645 3.645 0 0 1 1.4-1.461 3.94 3.94 0 0 1 2-.513 4.075 4.075 0 0 1 1.626.315 3.324 3.324 0 0 1 1.212.864 3.92 3.92 0 0 1 .74 1.282 4.673 4.673 0 0 1 .26 1.575v.586h-6.174a2.27 2.27 0 0 0 2.417 2.292 2.646 2.646 0 0 0 1.337-.337 1.839 1.839 0 0 0 .824-.908h1.531a3.244 3.244 0 0 1-1.307 1.864 4.1 4.1 0 0 1-2.428.707 3.757 3.757 0 0 1-2.849-1.154 4.091 4.091 0 0 1-1.1-2.94Zm1.6-.74h4.592a2.16 2.16 0 0 0-.71-1.527 2.43 2.43 0 0 0-3.135.026 2.218 2.218 0 0 0-.741 1.505Zm7.412-1.919v-1.271h1.033a.444.444 0 0 0 .337-.139.521.521 0 0 0 .132-.374v-1.721h1.479v2.219h2.285v1.289h-2.278v4.021q0 1.2 1.143 1.2h1.062v1.335h-1.3a2.252 2.252 0 0 1-2.476-2.49v-4.065Zm6.892-3.523a.937.937 0 0 1 .293-.71 1.031 1.031 0 0 1 .74-.278 1.064 1.064 0 0 1 .758.278.931.931 0 0 1 .3.71.949.949 0 0 1-.3.725 1.064 1.064 0 0 1-.758.278 1.028 1.028 0 0 1-.743-.278.961.961 0 0 1-.283-.721Zm.248 10.082v-7.844h1.575v7.844Zm3.838 0v-7.844h1.531v1.044h.1a2.116 2.116 0 0 1 .864-.886 2.772 2.772 0 0 1 1.436-.359 2.712 2.712 0 0 1 2.095.85 3.052 3.052 0 0 1 .784 2.153v5.042h-1.573v-4.739a1.8 1.8 0 0 0-.5-1.322 1.691 1.691 0 0 0-1.256-.509 1.8 1.8 0 0 0-1.362.568 1.981 1.981 0 0 0-.542 1.425v4.577Zm9.58-.967a4.692 4.692 0 0 1-.007-5.933 3.469 3.469 0 0 1 2.67-1.143 3.311 3.311 0 0 1 1 .146 2.614 2.614 0 0 1 .776.377 3.849 3.849 0 0 1 .5.432 2.276 2.276 0 0 1 .3.385h.11v-1.143h1.575v7.815a3.549 3.549 0 0 1-1.033 2.684 3.994 3.994 0 0 1-2.886.992 3.8 3.8 0 0 1-2.439-.736 2.767 2.767 0 0 1-1.073-1.862h1.458a1.459 1.459 0 0 0 .677.938 2.549 2.549 0 0 0 1.373.337 2.114 2.114 0 0 0 2.373-2.351v-1.128h-.11a3.091 3.091 0 0 1-.2.264 3.272 3.272 0 0 1-.344.337 3.118 3.118 0 0 1-.494.355 2.828 2.828 0 0 1-.659.26 3.147 3.147 0 0 1-.839.11 3.588 3.588 0 0 1-2.728-1.136Zm.542-2.966a2.76 2.76 0 0 0 .67 1.945 2.28 2.28 0 0 0 1.761.729 2.208 2.208 0 0 0 1.758-.762 2.817 2.817 0 0 0 .659-1.912 2.7 2.7 0 0 0-.685-1.952 2.315 2.315 0 0 0-1.747-.714 2.244 2.244 0 0 0-1.743.743 2.753 2.753 0 0 0-.673 1.923Zm12.107.71h1.575a1.8 1.8 0 0 0 .652 1.384 2.512 2.512 0 0 0 1.7.549 2.563 2.563 0 0 0 1.517-.41 1.29 1.29 0 0 0 .571-1.11 1.478 1.478 0 0 0-.194-.776 1.416 1.416 0 0 0-.524-.509 3.83 3.83 0 0 0-.754-.319q-.425-.132-.9-.242t-.945-.238a4.671 4.671 0 0 1-.9-.344 3.211 3.211 0 0 1-.754-.527 2.166 2.166 0 0 1-.524-.824 3.34 3.34 0 0 1-.194-1.187 2.673 2.673 0 0 1 .948-2.08 3.715 3.715 0 0 1 2.56-.842 4.494 4.494 0 0 1 1.315.19 3.891 3.891 0 0 1 1.143.56 2.66 2.66 0 0 1 .828.989 3.162 3.162 0 0 1 .319 1.41h-1.638a1.575 1.575 0 0 0-.516-1.241 2.13 2.13 0 0 0-1.461-.458 2.1 2.1 0 0 0-1.4.417 1.3 1.3 0 0 0-.487 1.025 1.2 1.2 0 0 0 .2.692 1.394 1.394 0 0 0 .527.458 4.279 4.279 0 0 0 .762.293q.432.125.908.238t.952.249a4.732 4.732 0 0 1 .908.363 3.288 3.288 0 0 1 .762.546 2.264 2.264 0 0 1 .527.839 3.367 3.367 0 0 1 .2 1.2 2.825 2.825 0 0 1-1.022 2.241 4.132 4.132 0 0 1-2.787.879 4.056 4.056 0 0 1-2.78-.956 3.13 3.13 0 0 1-1.094-2.459Zm9.448.417v-5.039h1.575v4.753a1.807 1.807 0 0 0 .5 1.326 1.685 1.685 0 0 0 1.252.505 1.813 1.813 0 0 0 1.366-.56 1.963 1.963 0 0 0 .538-1.417v-4.607h1.575v7.845h-1.532v-1.047h-.1a2.12 2.12 0 0 1-.861.886 2.753 2.753 0 0 1-1.432.359 2.712 2.712 0 0 1-2.095-.85 3.052 3.052 0 0 1-.79-2.153Zm9.112 2.806v-7.844h1.531v1.033h.1a2.219 2.219 0 0 1 .842-.886 2.566 2.566 0 0 1 1.362-.344 2.858 2.858 0 0 1 1.443.352 2.5 2.5 0 0 1 .959.967h.1a2.568 2.568 0 0 1 2.417-1.318 2.766 2.766 0 0 1 2.076.809 2.873 2.873 0 0 1 .787 2.091v5.14h-1.575v-4.607a2.185 2.185 0 0 0-.432-1.454 1.508 1.508 0 0 0-1.216-.509 1.685 1.685 0 0 0-1.278.538 2.03 2.03 0 0 0-.509 1.454v4.578h-1.575v-4.783a1.8 1.8 0 0 0-.469-1.3 1.621 1.621 0 0 0-1.223-.487 1.658 1.658 0 0 0-1.263.546 1.974 1.974 0 0 0-.509 1.4v4.624Zm13.887 0v-7.844h1.531v1.033h.1a2.219 2.219 0 0 1 .842-.886 2.566 2.566 0 0 1 1.362-.344 2.858 2.858 0 0 1 1.443.352 2.5 2.5 0 0 1 .959.967h.1a2.568 2.568 0 0 1 2.417-1.318 2.766 2.766 0 0 1 2.076.809 2.873 2.873 0 0 1 .787 2.091v5.14h-1.575v-4.607a2.185 2.185 0 0 0-.432-1.454 1.508 1.508 0 0 0-1.213-.509 1.685 1.685 0 0 0-1.278.538 2.03 2.03 0 0 0-.509 1.454v4.578h-1.575v-4.783a1.8 1.8 0 0 0-.469-1.3 1.621 1.621 0 0 0-1.223-.487 1.658 1.658 0 0 0-1.263.546 1.974 1.974 0 0 0-.509 1.4v4.624Zm13.645-10.078a.937.937 0 0 1 .293-.71 1.031 1.031 0 0 1 .74-.278 1.064 1.064 0 0 1 .758.278.931.931 0 0 1 .3.71.949.949 0 0 1-.3.725 1.064 1.064 0 0 1-.758.278 1.028 1.028 0 0 1-.743-.278.961.961 0 0 1-.29-.725Zm.241 10.078v-7.844h1.575v7.844Zm3.193-6.555v-1.275h1.033a.444.444 0 0 0 .337-.139.521.521 0 0 0 .132-.374v-1.721h1.479v2.219h2.285v1.289h-2.285v4.021q0 1.2 1.143 1.2h1.062v1.335h-1.3a2.252 2.252 0 0 1-2.476-2.49v-4.065Zm7.024 6.475a.924.924 0 0 1-.3-.7.947.947 0 0 1 .3-.7.983.983 0 0 1 .71-.293.946.946 0 0 1 .707.289.974.974 0 0 1 .282.707.938.938 0 0 1-.282.7.965.965 0 0 1-.707.278 1.01 1.01 0 0 1-.709-.282Zm7.954-2.937h1.494a1.658 1.658 0 0 0 .535 1.2 1.834 1.834 0 0 0 1.311.483 1.954 1.954 0 0 0 1.417-.52 1.836 1.836 0 0 0 .538-1.384 1.772 1.772 0 0 0-.56-1.344 1.988 1.988 0 0 0-1.425-.531h-1.3v-1.287l2.549-2.556v-.088h-4.339v-1.456h6.35v1.443l-2.615 2.549v.088a3.2 3.2 0 0 1 2.12.992 3.03 3.03 0 0 1 .853 2.179 3.534 3.534 0 0 1-.414 1.7 3.194 3.194 0 0 1-1.241 1.256 3.735 3.735 0 0 1-1.919.483 3.562 3.562 0 0 1-1.454-.289 2.96 2.96 0 0 1-1.062-.758 3.478 3.478 0 0 1-.623-1.025 3.094 3.094 0 0 1-.214-1.136Zm13.784 2.08a4.174 4.174 0 0 1-1.055-2.959 4.285 4.285 0 0 1 1.047-2.985 3.457 3.457 0 0 1 2.688-1.161 3.25 3.25 0 0 1 .989.146 2.566 2.566 0 0 1 .773.381 3.971 3.971 0 0 1 .494.428 2.79 2.79 0 0 1 .308.385h.11v-4.548h1.575v11.25h-1.545v-1.113h-.1a2.946 2.946 0 0 1-2.528 1.313 3.6 3.6 0 0 1-2.755-1.137Zm.549-2.981a2.787 2.787 0 0 0 .67 1.952 2.269 2.269 0 0 0 1.761.736 2.2 2.2 0 0 0 1.758-.769 2.845 2.845 0 0 0 .659-1.919 2.729 2.729 0 0 0-.685-1.959 2.3 2.3 0 0 0-1.747-.721 2.234 2.234 0 0 0-1.743.751 2.78 2.78 0 0 0-.672 1.929Zm8.644 3.918v-7.844h1.575v7.844Zm.044-9.119.842-2.087h1.663l-1.348 2.087Zm4.292 8.181a4.174 4.174 0 0 1-1.055-2.959 4.285 4.285 0 0 1 1.047-2.985 3.457 3.457 0 0 1 2.688-1.161 3.25 3.25 0 0 1 .989.146 2.566 2.566 0 0 1 .773.381 3.971 3.971 0 0 1 .494.428 2.79 2.79 0 0 1 .308.385h.11v-1.143h1.573v7.846h-1.545v-1.113h-.1a2.946 2.946 0 0 1-2.534 1.311 3.6 3.6 0 0 1-2.748-1.135Zm.549-2.981a2.787 2.787 0 0 0 .67 1.952 2.269 2.269 0 0 0 1.761.736 2.2 2.2 0 0 0 1.758-.769 2.845 2.845 0 0 0 .659-1.919 2.729 2.729 0 0 0-.685-1.959 2.3 2.3 0 0 0-1.747-.721 2.234 2.234 0 0 0-1.743.751 2.78 2.78 0 0 0-.673 1.93Zm8.188 1.6h1.49q.154 1.223 1.714 1.223a1.959 1.959 0 0 0 1.183-.311.989.989 0 0 0 .421-.839.82.82 0 0 0-.253-.626 1.55 1.55 0 0 0-.659-.352 8.415 8.415 0 0 0-.9-.194 9.845 9.845 0 0 1-.978-.212 4.155 4.155 0 0 1-.894-.352 1.671 1.671 0 0 1-.659-.663 2.182 2.182 0 0 1-.253-1.095 2.016 2.016 0 0 1 .82-1.652 3.372 3.372 0 0 1 2.153-.648 3.2 3.2 0 0 1 2.021.63 2.316 2.316 0 0 1 .9 1.729h-1.443a1.14 1.14 0 0 0-.461-.806 1.786 1.786 0 0 0-1.084-.293 1.75 1.75 0 0 0-1.044.282.861.861 0 0 0-.392.729.7.7 0 0 0 .2.513 1.135 1.135 0 0 0 .527.293q.326.088.743.172t.853.15a4.042 4.042 0 0 1 .853.227 3.4 3.4 0 0 1 .743.392 1.627 1.627 0 0 1 .527.67 2.459 2.459 0 0 1 .2 1.033 2.232 2.232 0 0 1-.861 1.824 3.58 3.58 0 0 1-2.318.7 3.432 3.432 0 0 1-2.267-.677 2.517 2.517 0 0 1-.882-1.85Zm-180.022 37.068a5.644 5.644 0 0 1 .41-2.15 5.24 5.24 0 0 1 1.128-1.732 5.175 5.175 0 0 1 1.732-1.143 5.669 5.669 0 0 1 2.179-.417 5.164 5.164 0 0 1 3.226 1.025 5 5 0 0 1 1.813 2.71h-1.742a3.022 3.022 0 0 0-1.234-1.619 3.668 3.668 0 0 0-2.058-.586 3.711 3.711 0 0 0-1.919.509 3.609 3.609 0 0 0-1.355 1.406 4.09 4.09 0 0 0-.491 2 3.872 3.872 0 0 0 1.077 2.805 3.586 3.586 0 0 0 2.688 1.113 3.666 3.666 0 0 0 2.051-.579 3.07 3.07 0 0 0 1.245-1.611h1.772a4.808 4.808 0 0 1-1.813 2.7 5.3 5.3 0 0 1-3.259 1.02 5.74 5.74 0 0 1-2.183-.414 5.11 5.11 0 0 1-1.732-1.135 5.219 5.219 0 0 1-1.123-1.734 5.71 5.71 0 0 1-.412-2.168Zm11.895 1.351a4.494 4.494 0 0 1 .513-2.172 3.645 3.645 0 0 1 1.4-1.461 3.94 3.94 0 0 1 2-.513 4.075 4.075 0 0 1 1.626.315 3.324 3.324 0 0 1 1.212.864 3.92 3.92 0 0 1 .74 1.282 4.673 4.673 0 0 1 .26 1.575v.586h-6.176a2.27 2.27 0 0 0 2.417 2.292 2.646 2.646 0 0 0 1.337-.337 1.839 1.839 0 0 0 .824-.908h1.531a3.244 3.244 0 0 1-1.307 1.864 4.1 4.1 0 0 1-2.428.707 3.757 3.757 0 0 1-2.849-1.154 4.091 4.091 0 0 1-1.1-2.94Zm1.6-.74h4.592a2.16 2.16 0 0 0-.71-1.527 2.43 2.43 0 0 0-3.135.026 2.218 2.218 0 0 0-.743 1.505Zm8.061 4.64v-7.844h1.516v1.362h.1a2.152 2.152 0 0 1 .769-.959 2.178 2.178 0 0 1 1.333-.417h.688v1.531h-.73a1.9 1.9 0 0 0-1.542.674 2.705 2.705 0 0 0-.56 1.787v3.866Zm5.6-6.555v-1.275h1.033a.444.444 0 0 0 .337-.139.521.521 0 0 0 .132-.374v-1.721h1.479v2.219h2.285v1.289h-2.282v4.021q0 1.2 1.143 1.2h1.062v1.335h-1.3a2.252 2.252 0 0 1-2.476-2.49v-4.065Zm6.892-3.523a.937.937 0 0 1 .293-.71 1.031 1.031 0 0 1 .74-.278 1.064 1.064 0 0 1 .758.278.931.931 0 0 1 .3.71.949.949 0 0 1-.3.725 1.064 1.064 0 0 1-.758.278 1.028 1.028 0 0 1-.743-.278.961.961 0 0 1-.287-.725Zm.244 10.078v-7.844h1.575v7.844Zm3.04-6.555v-1.289h1.428v-.784a2.473 2.473 0 0 1 .769-1.915 2.87 2.87 0 0 1 2.021-.707h.886v1.333h-.8a1.276 1.276 0 0 0-1 .37 1.4 1.4 0 0 0-.33.97v.732h2.19v1.289h-2.176v6.556h-1.574v-6.555Zm6.79-3.523a.937.937 0 0 1 .293-.71 1.031 1.031 0 0 1 .74-.278 1.064 1.064 0 0 1 .758.278.931.931 0 0 1 .3.71.949.949 0 0 1-.3.725 1.064 1.064 0 0 1-.758.278 1.028 1.028 0 0 1-.743-.278.961.961 0 0 1-.29-.725Zm.241 10.078v-7.844h1.575v7.844Zm3.281-3.918a4.3 4.3 0 0 1 .513-2.091 3.8 3.8 0 0 1 1.447-1.487 4.1 4.1 0 0 1 2.106-.546 3.966 3.966 0 0 1 2.472.806 3.435 3.435 0 0 1 1.322 2.139h-1.619a2.014 2.014 0 0 0-.795-1.088 2.318 2.318 0 0 0-1.366-.414 2.275 2.275 0 0 0-1.78.762 3.029 3.029 0 0 0 .015 3.845 2.463 2.463 0 0 0 3.142.352 1.992 1.992 0 0 0 .8-1.077h1.6a3.362 3.362 0 0 1-1.311 2.12 3.987 3.987 0 0 1-2.468.795 4.274 4.274 0 0 1-1.659-.319 3.752 3.752 0 0 1-1.293-.872 4.023 4.023 0 0 1-.828-1.311 4.345 4.345 0 0 1-.297-1.614Zm10.276 2.981a4.174 4.174 0 0 1-1.055-2.959 4.285 4.285 0 0 1 1.047-2.985 3.457 3.457 0 0 1 2.688-1.161 3.25 3.25 0 0 1 .989.146 2.566 2.566 0 0 1 .773.381 3.971 3.971 0 0 1 .494.428 2.79 2.79 0 0 1 .308.385h.11v-1.143h1.575v7.845h-1.545v-1.113h-.1a2.946 2.946 0 0 1-2.534 1.311 3.6 3.6 0 0 1-2.75-1.135Zm.549-2.981a2.787 2.787 0 0 0 .67 1.952 2.269 2.269 0 0 0 1.761.736 2.2 2.2 0 0 0 1.759-.77 2.845 2.845 0 0 0 .659-1.919 2.729 2.729 0 0 0-.685-1.959 2.3 2.3 0 0 0-1.747-.721 2.234 2.234 0 0 0-1.743.751 2.78 2.78 0 0 0-.673 1.93Zm9.141 2.981a4.174 4.174 0 0 1-1.055-2.959 4.285 4.285 0 0 1 1.047-2.985 3.457 3.457 0 0 1 2.688-1.161 3.25 3.25 0 0 1 .989.146 2.566 2.566 0 0 1 .773.381 3.971 3.971 0 0 1 .494.428 2.79 2.79 0 0 1 .308.385h.11v-4.548h1.575v11.25h-1.545v-1.113h-.1a2.946 2.946 0 0 1-2.534 1.311 3.6 3.6 0 0 1-2.748-1.135Zm.549-2.981a2.787 2.787 0 0 0 .67 1.952 2.269 2.269 0 0 0 1.761.736 2.2 2.2 0 0 0 1.759-.77 2.845 2.845 0 0 0 .659-1.919 2.729 2.729 0 0 0-.685-1.959 2.3 2.3 0 0 0-1.747-.721 2.234 2.234 0 0 0-1.743.751 2.78 2.78 0 0 0-.673 1.93Zm8.086 0a4.23 4.23 0 0 1 .531-2.109 3.807 3.807 0 0 1 1.483-1.479 4.292 4.292 0 0 1 2.139-.535 4.226 4.226 0 0 1 2.135.542 3.82 3.82 0 0 1 1.472 1.483 4.242 4.242 0 0 1 .524 2.1 4.2 4.2 0 0 1-.531 2.1 3.839 3.839 0 0 1-1.483 1.479 4.254 4.254 0 0 1-2.131.538 4 4 0 0 1-4.138-4.116Zm1.6 0a2.7 2.7 0 0 0 .714 1.93 2.568 2.568 0 0 0 3.647 0 2.955 2.955 0 0 0 0-3.853 2.582 2.582 0 0 0-3.651 0 2.7 2.7 0 0 0-.705 1.923Zm13.154 2.981a4.174 4.174 0 0 1-1.055-2.959 4.285 4.285 0 0 1 1.047-2.985 3.457 3.457 0 0 1 2.688-1.161 3.25 3.25 0 0 1 .989.146 2.566 2.566 0 0 1 .773.381 3.971 3.971 0 0 1 .494.428 2.79 2.79 0 0 1 .308.385h.11v-4.548h1.575v11.25h-1.541v-1.113h-.1a2.946 2.946 0 0 1-2.534 1.311 3.6 3.6 0 0 1-2.749-1.135Zm.549-2.981a2.787 2.787 0 0 0 .67 1.952 2.269 2.269 0 0 0 1.761.736 2.2 2.2 0 0 0 1.764-.77 2.845 2.845 0 0 0 .659-1.919 2.729 2.729 0 0 0-.685-1.959 2.3 2.3 0 0 0-1.747-.721 2.234 2.234 0 0 0-1.743.751 2.78 2.78 0 0 0-.674 1.93Zm8.086.022a4.494 4.494 0 0 1 .513-2.172 3.645 3.645 0 0 1 1.4-1.461 3.94 3.94 0 0 1 2-.513 4.075 4.075 0 0 1 1.626.315 3.324 3.324 0 0 1 1.212.864 3.92 3.92 0 0 1 .74 1.282 4.673 4.673 0 0 1 .26 1.575v.586h-6.173a2.27 2.27 0 0 0 2.417 2.292 2.646 2.646 0 0 0 1.337-.337 1.839 1.839 0 0 0 .824-.908h1.531a3.244 3.244 0 0 1-1.307 1.864 4.1 4.1 0 0 1-2.428.707 3.757 3.757 0 0 1-2.849-1.154 4.091 4.091 0 0 1-1.098-2.944Zm1.6-.74h4.592a2.16 2.16 0 0 0-.71-1.527 2.43 2.43 0 0 0-3.135.026 2.218 2.218 0 0 0-.738 1.501Zm12.634 3.7a4.174 4.174 0 0 1-1.055-2.959 4.285 4.285 0 0 1 1.047-2.985 3.457 3.457 0 0 1 2.688-1.161 3.25 3.25 0 0 1 .989.146 2.566 2.566 0 0 1 .773.381 3.971 3.971 0 0 1 .494.428 2.79 2.79 0 0 1 .308.385h.11v-1.143h1.575v7.844h-1.545v-1.113h-.1a2.946 2.946 0 0 1-2.534 1.311 3.6 3.6 0 0 1-2.741-1.135Zm.549-2.981a2.787 2.787 0 0 0 .67 1.952 2.269 2.269 0 0 0 1.761.736 2.2 2.2 0 0 0 1.764-.771 2.845 2.845 0 0 0 .659-1.919 2.729 2.729 0 0 0-.685-1.959 2.3 2.3 0 0 0-1.747-.721 2.234 2.234 0 0 0-1.743.751 2.78 2.78 0 0 0-.669 1.93Zm8.188 1.6h1.487q.154 1.223 1.714 1.223a1.959 1.959 0 0 0 1.183-.311.989.989 0 0 0 .421-.839.82.82 0 0 0-.253-.626 1.55 1.55 0 0 0-.659-.352 8.415 8.415 0 0 0-.9-.194 9.845 9.845 0 0 1-.978-.212 4.155 4.155 0 0 1-.894-.352 1.671 1.671 0 0 1-.659-.663 2.182 2.182 0 0 1-.253-1.095 2.016 2.016 0 0 1 .82-1.652 3.372 3.372 0 0 1 2.153-.648 3.2 3.2 0 0 1 2.021.63 2.316 2.316 0 0 1 .9 1.729h-1.443a1.14 1.14 0 0 0-.461-.806 1.786 1.786 0 0 0-1.084-.293 1.75 1.75 0 0 0-1.044.282.861.861 0 0 0-.392.729.7.7 0 0 0 .2.513 1.135 1.135 0 0 0 .527.293q.326.088.743.172t.853.15a4.042 4.042 0 0 1 .853.227 3.4 3.4 0 0 1 .743.392 1.627 1.627 0 0 1 .527.67 2.459 2.459 0 0 1 .2 1.033 2.232 2.232 0 0 1-.861 1.824 3.58 3.58 0 0 1-2.318.7 3.432 3.432 0 0 1-2.267-.677 2.517 2.517 0 0 1-.872-1.852Zm8.159-7.756a.937.937 0 0 1 .293-.71 1.031 1.031 0 0 1 .74-.278 1.064 1.064 0 0 1 .758.278.931.931 0 0 1 .3.71.949.949 0 0 1-.3.725 1.064 1.064 0 0 1-.758.278 1.028 1.028 0 0 1-.743-.278.961.961 0 0 1-.28-.73Zm.248 10.073v-7.844h1.575v7.844Zm3.384-2.322h1.487q.154 1.223 1.714 1.223a1.959 1.959 0 0 0 1.183-.311.989.989 0 0 0 .421-.839.82.82 0 0 0-.253-.626 1.55 1.55 0 0 0-.659-.352 8.415 8.415 0 0 0-.9-.194 9.845 9.845 0 0 1-.978-.212 4.155 4.155 0 0 1-.894-.352 1.671 1.671 0 0 1-.659-.663 2.182 2.182 0 0 1-.253-1.095 2.016 2.016 0 0 1 .82-1.652 3.372 3.372 0 0 1 2.153-.648 3.2 3.2 0 0 1 2.021.63 2.316 2.316 0 0 1 .9 1.729h-1.443a1.14 1.14 0 0 0-.461-.806 1.786 1.786 0 0 0-1.084-.293 1.75 1.75 0 0 0-1.044.282.861.861 0 0 0-.392.729.7.7 0 0 0 .2.513 1.135 1.135 0 0 0 .527.293q.326.088.743.172t.853.15a4.042 4.042 0 0 1 .853.227 3.4 3.4 0 0 1 .743.392 1.627 1.627 0 0 1 .527.67 2.459 2.459 0 0 1 .2 1.033 2.232 2.232 0 0 1-.861 1.824 3.58 3.58 0 0 1-2.318.7 3.432 3.432 0 0 1-2.267-.677 2.517 2.517 0 0 1-.875-1.847Zm7.756-4.233v-1.275h1.033a.444.444 0 0 0 .337-.139.521.521 0 0 0 .132-.374v-1.721h1.479v2.219h2.285v1.289h-2.285v4.021q0 1.2 1.143 1.2h1.062v1.335h-1.3a2.252 2.252 0 0 1-2.476-2.49v-4.065Zm6.577 2.659a4.494 4.494 0 0 1 .513-2.172 3.645 3.645 0 0 1 1.4-1.461 3.94 3.94 0 0 1 2-.513 4.075 4.075 0 0 1 1.626.315 3.324 3.324 0 0 1 1.212.864 3.92 3.92 0 0 1 .74 1.282 4.673 4.673 0 0 1 .26 1.575v.586H13092a2.27 2.27 0 0 0 2.417 2.292 2.646 2.646 0 0 0 1.337-.337 1.839 1.839 0 0 0 .824-.908h1.522a3.244 3.244 0 0 1-1.307 1.864 4.1 4.1 0 0 1-2.428.707 3.757 3.757 0 0 1-2.849-1.154 4.091 4.091 0 0 1-1.095-2.944Zm1.6-.74h4.592a2.16 2.16 0 0 0-.71-1.527 2.43 2.43 0 0 0-3.135.026 2.218 2.218 0 0 0-.739 1.501Zm8.065 4.636v-7.844h1.531v1.044h.1a2.116 2.116 0 0 1 .864-.886 2.772 2.772 0 0 1 1.436-.359 2.712 2.712 0 0 1 2.095.85 3.052 3.052 0 0 1 .784 2.153v5.042h-1.575v-4.739a1.8 1.8 0 0 0-.5-1.322 1.691 1.691 0 0 0-1.256-.509 1.8 1.8 0 0 0-1.361.57 1.981 1.981 0 0 0-.542 1.425v4.575Zm8.518-3.918a4.3 4.3 0 0 1 .513-2.091 3.8 3.8 0 0 1 1.447-1.487 4.1 4.1 0 0 1 2.106-.546 3.966 3.966 0 0 1 2.472.806 3.435 3.435 0 0 1 1.322 2.139h-1.62a2.014 2.014 0 0 0-.795-1.088 2.318 2.318 0 0 0-1.366-.414 2.275 2.275 0 0 0-1.78.762 3.029 3.029 0 0 0 .015 3.845 2.463 2.463 0 0 0 3.142.352 1.992 1.992 0 0 0 .8-1.077h1.6a3.362 3.362 0 0 1-1.311 2.12 3.987 3.987 0 0 1-2.468.795 4.274 4.274 0 0 1-1.659-.319 3.752 3.752 0 0 1-1.293-.872 4.023 4.023 0 0 1-.828-1.311 4.345 4.345 0 0 1-.297-1.614Zm9.536-6.16a.937.937 0 0 1 .293-.71 1.031 1.031 0 0 1 .74-.278 1.064 1.064 0 0 1 .758.278.931.931 0 0 1 .3.71.949.949 0 0 1-.3.725 1.064 1.064 0 0 1-.758.278 1.028 1.028 0 0 1-.743-.278.961.961 0 0 1-.29-.725Zm.242 10.078v-7.844h1.575v7.844Zm4.336-.937a4.174 4.174 0 0 1-1.055-2.959 4.285 4.285 0 0 1 1.047-2.985 3.457 3.457 0 0 1 2.688-1.161 3.25 3.25 0 0 1 .989.146 2.566 2.566 0 0 1 .773.381 3.971 3.971 0 0 1 .494.428 2.79 2.79 0 0 1 .308.385h.11v-1.143h1.575v7.845h-1.543v-1.113h-.1a2.946 2.946 0 0 1-2.534 1.311 3.6 3.6 0 0 1-2.752-1.135Zm.549-2.981a2.787 2.787 0 0 0 .67 1.952 2.269 2.269 0 0 0 1.761.736 2.2 2.2 0 0 0 1.758-.769 2.845 2.845 0 0 0 .659-1.919 2.729 2.729 0 0 0-.685-1.959 2.3 2.3 0 0 0-1.747-.721 2.234 2.234 0 0 0-1.743.751 2.78 2.78 0 0 0-.673 1.929Zm-181.846 40.498h2.271a1.381 1.381 0 0 0 .535 1.044 2.133 2.133 0 0 0 1.37.4 2.091 2.091 0 0 0 1.157-.275.867.867 0 0 0 .417-.765.773.773 0 0 0-.187-.524 1.227 1.227 0 0 0-.505-.337 5.7 5.7 0 0 0-.729-.216q-.41-.1-.864-.194t-.908-.231a3.963 3.963 0 0 1-.864-.366 3.249 3.249 0 0 1-.729-.564 2.323 2.323 0 0 1-.505-.868 3.733 3.733 0 0 1-.187-1.227 2.882 2.882 0 0 1 1.011-2.257 4.033 4.033 0 0 1 2.769-.894 4.278 4.278 0 0 1 2.769.861 3.174 3.174 0 0 1 1.135 2.479H12947a1.146 1.146 0 0 0-.414-.886 1.681 1.681 0 0 0-1.117-.337 1.724 1.724 0 0 0-1.04.271.837.837 0 0 0-.366.7.705.705 0 0 0 .19.5 1.283 1.283 0 0 0 .513.322 5.442 5.442 0 0 0 .743.205l.883.183q.461.1.923.223a4.023 4.023 0 0 1 .883.363 3.343 3.343 0 0 1 .743.557 2.271 2.271 0 0 1 .513.85 3.547 3.547 0 0 1 .19 1.208 3.076 3.076 0 0 1-1.1 2.446 4.5 4.5 0 0 1-3.032.945 4.3 4.3 0 0 1-3-.989 3.31 3.31 0 0 1-1.091-2.585Zm9.243-.5a4.178 4.178 0 0 1 1.128-3.029 3.9 3.9 0 0 1 2.937-1.168 4.26 4.26 0 0 1 1.718.333 3.361 3.361 0 0 1 1.249.9 4.128 4.128 0 0 1 .743 1.311 4.715 4.715 0 0 1 .26 1.575v.674h-5.83a1.833 1.833 0 0 0 .575 1.245 1.867 1.867 0 0 0 1.329.483 2.142 2.142 0 0 0 1.11-.271 1.524 1.524 0 0 0 .641-.674h2.1a3.181 3.181 0 0 1-1.311 2 4.442 4.442 0 0 1-2.629.736 4.054 4.054 0 0 1-2.054-.527 3.769 3.769 0 0 1-1.443-1.472 4.292 4.292 0 0 1-.522-2.114Zm2.249-.945h3.633a1.547 1.547 0 0 0-.56-1.062 1.88 1.88 0 0 0-1.256-.417 1.823 1.823 0 0 0-1.227.436 1.626 1.626 0 0 0-.59 1.045Zm6.87 2.432h2.109a.809.809 0 0 0 .381.626 1.682 1.682 0 0 0 .916.216 1.7 1.7 0 0 0 .9-.2.6.6 0 0 0 .319-.535.507.507 0 0 0-.194-.414 1.145 1.145 0 0 0-.505-.22q-.311-.062-.714-.132t-.824-.128a3.41 3.41 0 0 1-.824-.223 3.023 3.023 0 0 1-.714-.406 1.708 1.708 0 0 1-.505-.692 2.659 2.659 0 0 1-.194-1.058 2.253 2.253 0 0 1 .868-1.791 3.607 3.607 0 0 1 2.391-.729 3.757 3.757 0 0 1 2.292.656 2.372 2.372 0 0 1 .959 1.864h-2.01a.847.847 0 0 0-.374-.59 1.524 1.524 0 0 0-.872-.216 1.593 1.593 0 0 0-.842.194.581.581 0 0 0-.315.509.41.41 0 0 0 .157.333 1.073 1.073 0 0 0 .425.194 4.989 4.989 0 0 0 .615.106q.348.04.729.1t.765.143a2.983 2.983 0 0 1 .732.264 2.613 2.613 0 0 1 .615.436 1.782 1.782 0 0 1 .425.685 2.87 2.87 0 0 1 .157.992 2.332 2.332 0 0 1-.916 1.912 4.005 4.005 0 0 1-2.563.732 3.876 3.876 0 0 1-2.509-.7 2.467 2.467 0 0 1-.88-1.927Zm8.577-6.716a1.291 1.291 0 0 1 0-1.831 1.594 1.594 0 0 1 1.974 0 1.309 1.309 0 0 1 0 1.838 1.594 1.594 0 0 1-1.974 0Zm-.168 9.149v-7.917h2.329v7.917Zm3.582-3.962a4.276 4.276 0 0 1 .311-1.633 4.018 4.018 0 0 1 .861-1.318 3.926 3.926 0 0 1 1.351-.879 4.642 4.642 0 0 1 1.747-.322 4.161 4.161 0 0 1 3.069 1.19 4.015 4.015 0 0 1 1.194 2.963 4.3 4.3 0 0 1-.311 1.637 3.951 3.951 0 0 1-.869 1.324 4.006 4.006 0 0 1-1.359.879 4.622 4.622 0 0 1-1.74.322 4.421 4.421 0 0 1-2.216-.553 3.886 3.886 0 0 1-1.509-1.5 4.23 4.23 0 0 1-.53-2.11Zm2.351 0a2.083 2.083 0 0 0 .538 1.483 1.79 1.79 0 0 0 1.366.575 1.816 1.816 0 0 0 1.381-.579 2.274 2.274 0 0 0 0-2.955 1.822 1.822 0 0 0-1.381-.575 1.79 1.79 0 0 0-1.366.575 2.073 2.073 0 0 0-.539 1.476Zm.989-5.083.74-2.278h2.219l-1.384 2.278Zm6.715 9.045v-7.917h2.19v.864h.125a2.036 2.036 0 0 1 .817-.754 2.674 2.674 0 0 1 1.307-.308 2.748 2.748 0 0 1 2.065.791 2.808 2.808 0 0 1 .769 2.043v5.281h-2.322v-4.563a1.453 1.453 0 0 0-.344-1.007 1.186 1.186 0 0 0-.93-.385 1.222 1.222 0 0 0-.974.436 1.6 1.6 0 0 0-.374 1.08v4.439Zm12.415-3.918a4.491 4.491 0 0 1 1-3.032 3.261 3.261 0 0 1 2.6-1.165 2.668 2.668 0 0 1 1.4.341 2.515 2.515 0 0 1 .839.758h.125v-4.234h2.322v11.25h-2.317v-.9h-.125a1.774 1.774 0 0 1-.264.33 3.434 3.434 0 0 1-.421.348 2.184 2.184 0 0 1-.652.3 2.967 2.967 0 0 1-.853.117 3.379 3.379 0 0 1-2.648-1.128 4.319 4.319 0 0 1-1.006-2.985Zm2.351-.044a2.158 2.158 0 0 0 .505 1.49 1.69 1.69 0 0 0 1.326.568 1.649 1.649 0 0 0 1.318-.582 2.191 2.191 0 0 0 .5-1.476 2.122 2.122 0 0 0-.513-1.49 1.706 1.706 0 0 0-1.318-.56 1.669 1.669 0 0 0-1.311.571 2.15 2.15 0 0 0-.507 1.479Zm7.185.044a4.178 4.178 0 0 1 1.128-3.029 3.9 3.9 0 0 1 2.937-1.168 4.26 4.26 0 0 1 1.718.333 3.361 3.361 0 0 1 1.249.9 4.128 4.128 0 0 1 .743 1.311 4.715 4.715 0 0 1 .26 1.575v.674h-5.831a1.833 1.833 0 0 0 .575 1.245 1.867 1.867 0 0 0 1.329.483 2.142 2.142 0 0 0 1.11-.271 1.524 1.524 0 0 0 .641-.674h2.1a3.181 3.181 0 0 1-1.311 2 4.442 4.442 0 0 1-2.629.736 4.054 4.054 0 0 1-2.054-.527 3.769 3.769 0 0 1-1.441-1.47 4.292 4.292 0 0 1-.524-2.118Zm2.249-.945h3.633a1.547 1.547 0 0 0-.56-1.062 1.88 1.88 0 0 0-1.256-.417 1.823 1.823 0 0 0-1.227.436 1.626 1.626 0 0 0-.591 1.043Zm11.184 8.313v-11.367h2.3v.879h.117a1.913 1.913 0 0 1 .264-.322 3.23 3.23 0 0 1 .421-.344 2.172 2.172 0 0 1 .659-.3 3.134 3.134 0 0 1 .861-.114 3.379 3.379 0 0 1 2.637 1.124 4.3 4.3 0 0 1 1.011 2.985 4.516 4.516 0 0 1-1 3.036 3.246 3.246 0 0 1-2.593 1.168 2.944 2.944 0 0 1-1.086-.195 2.432 2.432 0 0 1-.74-.421 2.164 2.164 0 0 1-.4-.483h-.117v4.351Zm2.278-7.412a2.152 2.152 0 0 0 .505 1.5 1.8 1.8 0 0 0 2.622-.011 2.452 2.452 0 0 0 0-2.977 1.681 1.681 0 0 0-1.315-.56 1.656 1.656 0 0 0-1.322.575 2.183 2.183 0 0 0-.491 1.473Zm7.513 3.962v-7.917h2.19v1.194h.125a2.241 2.241 0 0 1 .769-.883 2.141 2.141 0 0 1 1.267-.377h.769v2.19h-.916a1.715 1.715 0 0 0-1.37.586 2.375 2.375 0 0 0-.505 1.6v3.607Zm5.94-3.918a4.178 4.178 0 0 1 1.128-3.029 3.9 3.9 0 0 1 2.937-1.168 4.26 4.26 0 0 1 1.718.333 3.361 3.361 0 0 1 1.249.9 4.128 4.128 0 0 1 .743 1.311 4.715 4.715 0 0 1 .26 1.575v.674h-5.83a1.833 1.833 0 0 0 .575 1.245 1.867 1.867 0 0 0 1.329.483 2.142 2.142 0 0 0 1.11-.271 1.524 1.524 0 0 0 .641-.674h2.1a3.181 3.181 0 0 1-1.311 2 4.442 4.442 0 0 1-2.629.736 4.054 4.054 0 0 1-2.054-.527 3.769 3.769 0 0 1-1.443-1.472 4.292 4.292 0 0 1-.522-2.116Zm2.249-.945h3.633a1.547 1.547 0 0 0-.56-1.062 1.88 1.88 0 0 0-1.256-.417 1.823 1.823 0 0 0-1.227.436 1.626 1.626 0 0 0-.59 1.043Zm6.87.857a4.293 4.293 0 0 1 1.011-2.988 3.293 3.293 0 0 1 2.556-1.121 2.72 2.72 0 0 1 1.436.352 2.462 2.462 0 0 1 .828.747h.125v-.9h2.322v7.83a4.109 4.109 0 0 1-.253 1.461 3.429 3.429 0 0 1-.747 1.183 3.337 3.337 0 0 1-1.3.8 5.421 5.421 0 0 1-1.838.289 5.031 5.031 0 0 1-1.611-.242 3.257 3.257 0 0 1-1.172-.656 3.028 3.028 0 0 1-.7-.934 2.853 2.853 0 0 1-.278-1.1h2.131a1.14 1.14 0 0 0 .491.765 1.957 1.957 0 0 0 1.143.289 1.632 1.632 0 0 0 1.831-1.86v-.909h-.134a2.5 2.5 0 0 1-.293.341 3.267 3.267 0 0 1-.436.348 2.226 2.226 0 0 1-.656.293 3.055 3.055 0 0 1-.835.11 3.541 3.541 0 0 1-1.849-.487 3.425 3.425 0 0 1-1.3-1.425 4.729 4.729 0 0 1-.471-2.186Zm2.351 0a2.061 2.061 0 0 0 .5 1.458 1.725 1.725 0 0 0 1.329.542 1.68 1.68 0 0 0 1.322-.557 2.092 2.092 0 0 0 .494-1.443 2.051 2.051 0 0 0-.509-1.469 1.737 1.737 0 0 0-1.322-.538 1.7 1.7 0 0 0-1.315.549 2.077 2.077 0 0 0-.498 1.458Zm7.69 1.37v-5.281h2.322v4.556a1.464 1.464 0 0 0 .344 1.014 1.2 1.2 0 0 0 .938.385 1.222 1.222 0 0 0 .974-.436 1.6 1.6 0 0 0 .374-1.08v-4.438h2.322v7.916h-2.2v-.872h-.117a2.048 2.048 0 0 1-.809.754 2.624 2.624 0 0 1-1.307.315 2.748 2.748 0 0 1-2.065-.791 2.808 2.808 0 0 1-.776-2.043Zm9.1 2.636v-7.917h2.19v.864h.125a2.036 2.036 0 0 1 .817-.754 2.674 2.674 0 0 1 1.307-.308 2.748 2.748 0 0 1 2.065.791 2.808 2.808 0 0 1 .769 2.043v5.281h-2.322v-4.563a1.453 1.453 0 0 0-.344-1.007 1.186 1.186 0 0 0-.93-.385 1.222 1.222 0 0 0-.974.436 1.6 1.6 0 0 0-.374 1.08v4.439Zm8.562-6.108v-1.792h.747a.6.6 0 0 0 .476-.194.76.76 0 0 0 .168-.516v-1.45h2.2v2.146h2.073v1.809h-2.073v3.245a.918.918 0 0 0 .26.7 1.066 1.066 0 0 0 .765.249h1.022v1.911h-1.6a2.764 2.764 0 0 1-2.032-.721 2.722 2.722 0 0 1-.729-2.025v-3.362Zm6.643 2.19a4.491 4.491 0 0 1 1-3.032 3.261 3.261 0 0 1 2.6-1.165 2.668 2.668 0 0 1 1.4.341 2.515 2.515 0 0 1 .839.758h.125v-.9h2.322v7.916h-2.307v-.9h-.125a1.774 1.774 0 0 1-.264.33 3.434 3.434 0 0 1-.421.348 2.184 2.184 0 0 1-.652.3 2.967 2.967 0 0 1-.853.117 3.379 3.379 0 0 1-2.648-1.128 4.319 4.319 0 0 1-1.021-2.985Zm2.351-.044a2.158 2.158 0 0 0 .505 1.49 1.69 1.69 0 0 0 1.326.568 1.649 1.649 0 0 0 1.318-.582 2.191 2.191 0 0 0 .5-1.476 2.122 2.122 0 0 0-.513-1.49 1.706 1.706 0 0 0-1.318-.56 1.669 1.669 0 0 0-1.311.571 2.15 2.15 0 0 0-.509 1.479Zm7.185 1.531h2.109a.809.809 0 0 0 .381.626 1.682 1.682 0 0 0 .916.216 1.7 1.7 0 0 0 .9-.2.6.6 0 0 0 .319-.535.507.507 0 0 0-.194-.414 1.145 1.145 0 0 0-.505-.22q-.311-.062-.714-.132t-.824-.128a3.41 3.41 0 0 1-.824-.223 3.023 3.023 0 0 1-.714-.406 1.708 1.708 0 0 1-.505-.692 2.659 2.659 0 0 1-.194-1.058 2.253 2.253 0 0 1 .868-1.791 3.607 3.607 0 0 1 2.391-.729 3.757 3.757 0 0 1 2.292.656 2.372 2.372 0 0 1 .959 1.864h-2.012a.847.847 0 0 0-.374-.59 1.524 1.524 0 0 0-.872-.216 1.593 1.593 0 0 0-.842.194.581.581 0 0 0-.315.509.41.41 0 0 0 .157.333 1.073 1.073 0 0 0 .425.194 4.989 4.989 0 0 0 .615.106q.348.04.729.1t.765.143a2.983 2.983 0 0 1 .732.264 2.613 2.613 0 0 1 .615.436 1.782 1.782 0 0 1 .425.685 2.87 2.87 0 0 1 .157.992 2.332 2.332 0 0 1-.916 1.912 4.005 4.005 0 0 1-2.563.732 3.876 3.876 0 0 1-2.509-.7 2.467 2.467 0 0 1-.88-1.929Zm11.528-5.486h2.431l1.736 5.024h.117l1.655-5.024h2.461l-3.362 9.06a3.824 3.824 0 0 1-1.165 1.725 3.048 3.048 0 0 1-1.941.582h-1.047v-2.058h.916a1.222 1.222 0 0 0 1.194-.864l.139-.381Zm-155.48 27.917v-7.917h2.19v1.194h.121a2.241 2.241 0 0 1 .769-.883 2.141 2.141 0 0 1 1.267-.377h.769v2.19h-.912a1.715 1.715 0 0 0-1.37.586 2.375 2.375 0 0 0-.505 1.6v3.607Zm5.94-3.918a4.178 4.178 0 0 1 1.128-3.029 3.9 3.9 0 0 1 2.937-1.168 4.26 4.26 0 0 1 1.718.333 3.361 3.361 0 0 1 1.249.9 4.128 4.128 0 0 1 .743 1.311 4.715 4.715 0 0 1 .26 1.575v.674h-5.831a1.833 1.833 0 0 0 .575 1.245 1.867 1.867 0 0 0 1.329.483 2.142 2.142 0 0 0 1.11-.271 1.524 1.524 0 0 0 .641-.674h2.1a3.181 3.181 0 0 1-1.311 2 4.442 4.442 0 0 1-2.629.736 4.054 4.054 0 0 1-2.048-.527 3.769 3.769 0 0 1-1.448-1.47 4.292 4.292 0 0 1-.523-2.118Zm2.249-.945h3.632a1.547 1.547 0 0 0-.56-1.062 1.88 1.88 0 0 0-1.256-.417 1.823 1.823 0 0 0-1.227.436 1.626 1.626 0 0 0-.59 1.043Zm6.87 2.432h2.109a.809.809 0 0 0 .381.626 1.682 1.682 0 0 0 .916.216 1.7 1.7 0 0 0 .9-.2.6.6 0 0 0 .319-.535.507.507 0 0 0-.194-.414 1.145 1.145 0 0 0-.505-.22q-.311-.062-.714-.132t-.824-.128a3.41 3.41 0 0 1-.824-.223 3.023 3.023 0 0 1-.714-.406 1.708 1.708 0 0 1-.505-.692 2.659 2.659 0 0 1-.194-1.058 2.253 2.253 0 0 1 .868-1.791 3.607 3.607 0 0 1 2.391-.729 3.757 3.757 0 0 1 2.292.656 2.372 2.372 0 0 1 .959 1.864h-2.009a.847.847 0 0 0-.374-.59 1.524 1.524 0 0 0-.872-.216 1.593 1.593 0 0 0-.842.194.581.581 0 0 0-.315.509.41.41 0 0 0 .157.333 1.073 1.073 0 0 0 .425.194 4.989 4.989 0 0 0 .615.106q.348.04.729.1t.765.143a2.983 2.983 0 0 1 .732.264 2.613 2.613 0 0 1 .615.436 1.782 1.782 0 0 1 .425.685 2.87 2.87 0 0 1 .157.992 2.332 2.332 0 0 1-.917 1.912 4.005 4.005 0 0 1-2.563.732 3.876 3.876 0 0 1-2.509-.7 2.467 2.467 0 0 1-.881-1.929Zm8.408 5.881v-11.367h2.3v.879h.117a1.913 1.913 0 0 1 .264-.322 3.23 3.23 0 0 1 .421-.344 2.172 2.172 0 0 1 .659-.3 3.134 3.134 0 0 1 .861-.114 3.379 3.379 0 0 1 2.637 1.124 4.3 4.3 0 0 1 1.011 2.985 4.516 4.516 0 0 1-1 3.036 3.246 3.246 0 0 1-2.593 1.168 2.944 2.944 0 0 1-1.089-.195 2.432 2.432 0 0 1-.74-.421 2.164 2.164 0 0 1-.4-.483h-.117v4.351Zm2.278-7.412a2.152 2.152 0 0 0 .505 1.5 1.8 1.8 0 0 0 2.622-.011 2.452 2.452 0 0 0 0-2.977 1.681 1.681 0 0 0-1.315-.56 1.656 1.656 0 0 0-1.322.575 2.183 2.183 0 0 0-.491 1.473Zm7.471 1.326v-5.281h2.322v4.556a1.464 1.464 0 0 0 .344 1.014 1.2 1.2 0 0 0 .938.385 1.222 1.222 0 0 0 .974-.436 1.6 1.6 0 0 0 .374-1.08v-4.438h2.322v7.916h-2.2v-.872h-.117a2.048 2.048 0 0 1-.809.754 2.624 2.624 0 0 1-1.307.315 2.748 2.748 0 0 1-2.065-.791 2.808 2.808 0 0 1-.781-2.043Zm8.65-1.282a4.178 4.178 0 0 1 1.128-3.029 3.9 3.9 0 0 1 2.937-1.168 4.26 4.26 0 0 1 1.718.333 3.361 3.361 0 0 1 1.249.9 4.128 4.128 0 0 1 .743 1.311 4.715 4.715 0 0 1 .26 1.575v.674h-5.83a1.833 1.833 0 0 0 .575 1.245 1.867 1.867 0 0 0 1.329.483 2.142 2.142 0 0 0 1.11-.271 1.524 1.524 0 0 0 .641-.674h2.1a3.181 3.181 0 0 1-1.311 2 4.442 4.442 0 0 1-2.629.736 4.054 4.054 0 0 1-2.054-.527 3.769 3.769 0 0 1-1.443-1.472 4.292 4.292 0 0 1-.524-2.116Zm2.249-.945h3.633a1.547 1.547 0 0 0-.56-1.062 1.88 1.88 0 0 0-1.256-.417 1.823 1.823 0 0 0-1.227.436 1.626 1.626 0 0 0-.594 1.043Zm6.87 2.432h2.109a.809.809 0 0 0 .381.626 1.682 1.682 0 0 0 .916.216 1.7 1.7 0 0 0 .9-.2.6.6 0 0 0 .319-.535.507.507 0 0 0-.194-.414 1.145 1.145 0 0 0-.505-.22q-.311-.062-.714-.132t-.824-.128a3.41 3.41 0 0 1-.824-.223 3.023 3.023 0 0 1-.714-.406 1.708 1.708 0 0 1-.505-.692 2.659 2.659 0 0 1-.194-1.058 2.253 2.253 0 0 1 .868-1.791 3.607 3.607 0 0 1 2.391-.729 3.757 3.757 0 0 1 2.292.656 2.372 2.372 0 0 1 .959 1.864h-2.011a.847.847 0 0 0-.374-.59 1.524 1.524 0 0 0-.872-.216 1.593 1.593 0 0 0-.842.194.581.581 0 0 0-.315.509.41.41 0 0 0 .157.333 1.073 1.073 0 0 0 .425.194 4.989 4.989 0 0 0 .615.106q.348.04.729.1t.765.143a2.983 2.983 0 0 1 .732.264 2.613 2.613 0 0 1 .615.436 1.782 1.782 0 0 1 .425.685 2.87 2.87 0 0 1 .157.992 2.332 2.332 0 0 1-.916 1.912 4.005 4.005 0 0 1-2.563.732 3.876 3.876 0 0 1-2.509-.7 2.467 2.467 0 0 1-.88-1.929Zm7.976-3.677v-1.792h.75a.6.6 0 0 0 .476-.194.76.76 0 0 0 .168-.516v-1.45h2.2v2.146h2.073v1.809h-2.072v3.245a.918.918 0 0 0 .26.7 1.066 1.066 0 0 0 .765.249h1.018v1.911h-1.6a2.764 2.764 0 0 1-2.032-.721 2.722 2.722 0 0 1-.729-2.025v-3.362Zm6.643 2.19a4.491 4.491 0 0 1 1-3.032 3.261 3.261 0 0 1 2.6-1.165 2.668 2.668 0 0 1 1.4.341 2.515 2.515 0 0 1 .839.758h.125v-.9h2.322v7.916h-2.318v-.9h-.125a1.774 1.774 0 0 1-.264.33 3.434 3.434 0 0 1-.421.348 2.184 2.184 0 0 1-.652.3 2.967 2.967 0 0 1-.853.117 3.379 3.379 0 0 1-2.646-1.125 4.319 4.319 0 0 1-1.008-2.988Zm2.351-.044a2.158 2.158 0 0 0 .505 1.49 1.69 1.69 0 0 0 1.326.568 1.649 1.649 0 0 0 1.318-.582 2.191 2.191 0 0 0 .5-1.476 2.122 2.122 0 0 0-.513-1.49 1.706 1.706 0 0 0-1.318-.56 1.669 1.669 0 0 0-1.311.571 2.15 2.15 0 0 0-.508 1.479Zm7.185 1.531h2.109a.809.809 0 0 0 .381.626 1.682 1.682 0 0 0 .916.216 1.7 1.7 0 0 0 .9-.2.6.6 0 0 0 .319-.535.507.507 0 0 0-.194-.414 1.145 1.145 0 0 0-.505-.22q-.311-.062-.714-.132t-.824-.128a3.41 3.41 0 0 1-.824-.223 3.023 3.023 0 0 1-.714-.406 1.708 1.708 0 0 1-.505-.692 2.659 2.659 0 0 1-.194-1.058 2.253 2.253 0 0 1 .868-1.791 3.607 3.607 0 0 1 2.391-.729 3.757 3.757 0 0 1 2.292.656 2.372 2.372 0 0 1 .959 1.864h-2.011a.847.847 0 0 0-.374-.59 1.524 1.524 0 0 0-.872-.216 1.593 1.593 0 0 0-.842.194.581.581 0 0 0-.315.509.41.41 0 0 0 .157.333 1.073 1.073 0 0 0 .425.194 4.989 4.989 0 0 0 .615.106q.348.04.729.1t.765.143a2.983 2.983 0 0 1 .732.264 2.613 2.613 0 0 1 .615.436 1.782 1.782 0 0 1 .425.685 2.87 2.87 0 0 1 .157.992 2.332 2.332 0 0 1-.916 1.912 4.005 4.005 0 0 1-2.563.732 3.876 3.876 0 0 1-2.509-.7 2.467 2.467 0 0 1-.88-1.929Zm-75.129 39.34a5.782 5.782 0 0 1-.4-2.161 5.636 5.636 0 0 1 .41-2.153 5.219 5.219 0 0 1 1.132-1.729 5.167 5.167 0 0 1 1.758-1.142 5.932 5.932 0 0 1 2.238-.417 5.389 5.389 0 0 1 3.409 1.084 4.809 4.809 0 0 1 1.791 2.769h-2.622a2.326 2.326 0 0 0-.952-1.139 2.953 2.953 0 0 0-1.626-.436 2.925 2.925 0 0 0-2.227.9 3.166 3.166 0 0 0-.85 2.267 3.266 3.266 0 0 0 .85 2.318 2.9 2.9 0 0 0 2.227.912 3.245 3.245 0 0 0 1.842-.505 1.977 1.977 0 0 0 .912-1.252h-2.864v-1.948h5.508q.007.161.007.322a5.642 5.642 0 0 1-1.4 4.006 5.21 5.21 0 0 1-4.006 1.6 5.98 5.98 0 0 1-2.249-.417 5.12 5.12 0 0 1-1.758-1.143 5.249 5.249 0 0 1-1.13-1.736Zm12.118 3.091v-7.917h2.19v1.194h.125a2.241 2.241 0 0 1 .769-.883 2.141 2.141 0 0 1 1.267-.377h.769v2.19h-.916a1.715 1.715 0 0 0-1.37.586 2.375 2.375 0 0 0-.505 1.6v3.607Zm5.94-3.918a4.491 4.491 0 0 1 1-3.032 3.261 3.261 0 0 1 2.6-1.165 2.668 2.668 0 0 1 1.4.341 2.515 2.515 0 0 1 .839.758h.125v-.9h2.322v7.916h-2.317v-.9h-.127a1.774 1.774 0 0 1-.264.33 3.434 3.434 0 0 1-.421.348 2.184 2.184 0 0 1-.652.3 2.967 2.967 0 0 1-.853.117 3.379 3.379 0 0 1-2.648-1.128 4.319 4.319 0 0 1-1.004-2.985Zm2.351-.044a2.158 2.158 0 0 0 .505 1.49 1.69 1.69 0 0 0 1.326.568 1.649 1.649 0 0 0 1.318-.582 2.191 2.191 0 0 0 .5-1.476 2.122 2.122 0 0 0-.513-1.49 1.706 1.706 0 0 0-1.318-.56 1.669 1.669 0 0 0-1.311.571 2.15 2.15 0 0 0-.507 1.479Zm7.632 3.962v-11.25h2.329v4.233h.117a2.532 2.532 0 0 1 .831-.758 2.659 2.659 0 0 1 1.4-.341 3.25 3.25 0 0 1 2.593 1.165 4.5 4.5 0 0 1 1 3.032 4.309 4.309 0 0 1-1.011 2.989 3.374 3.374 0 0 1-2.637 1.128 3.043 3.043 0 0 1-.861-.117 2.175 2.175 0 0 1-.659-.3 3.434 3.434 0 0 1-.421-.348 1.774 1.774 0 0 1-.264-.33h-.118v.9Zm2.278-3.962a2.191 2.191 0 0 0 .5 1.476 1.649 1.649 0 0 0 1.318.582 1.674 1.674 0 0 0 1.311-.568 2.434 2.434 0 0 0 0-2.97 1.669 1.669 0 0 0-1.311-.571 1.689 1.689 0 0 0-1.311.557 2.138 2.138 0 0 0-.508 1.494Zm7.068.044a4.491 4.491 0 0 1 1-3.032 3.261 3.261 0 0 1 2.6-1.165 2.668 2.668 0 0 1 1.4.341 2.515 2.515 0 0 1 .839.758h.125v-.9h2.322v7.916h-2.318v-.9h-.125a1.774 1.774 0 0 1-.264.33 3.434 3.434 0 0 1-.421.348 2.184 2.184 0 0 1-.652.3 2.967 2.967 0 0 1-.853.117 3.379 3.379 0 0 1-2.648-1.128 4.319 4.319 0 0 1-1.006-2.985Zm2.351-.044a2.158 2.158 0 0 0 .505 1.49 1.69 1.69 0 0 0 1.326.568 1.649 1.649 0 0 0 1.318-.582 2.191 2.191 0 0 0 .5-1.476 2.122 2.122 0 0 0-.513-1.49 1.706 1.706 0 0 0-1.318-.56 1.669 1.669 0 0 0-1.311.571 2.15 2.15 0 0 0-.508 1.479Zm7.185 0a4.354 4.354 0 0 1 .509-2.106 3.772 3.772 0 0 1 1.469-1.494 4.335 4.335 0 0 1 2.2-.553 4.167 4.167 0 0 1 2.739.9 3.458 3.458 0 0 1 1.267 2.362h-2.355a1.617 1.617 0 0 0-.6-.842 1.827 1.827 0 0 0-2.377.264 2.373 2.373 0 0 0 .007 2.937 1.836 1.836 0 0 0 2.351.286 1.481 1.481 0 0 0 .586-.784h2.381a3.488 3.488 0 0 1-1.278 2.3 4.126 4.126 0 0 1-2.7.883 4.353 4.353 0 0 1-2.212-.557 3.777 3.777 0 0 1-1.476-1.5 4.36 4.36 0 0 1-.512-2.096Zm9.9-5.186a1.291 1.291 0 0 1 0-1.831 1.594 1.594 0 0 1 1.974 0 1.309 1.309 0 0 1 0 1.838 1.594 1.594 0 0 1-1.974 0Zm-.174 9.148v-7.917h2.329v7.917Zm3.582-3.962a4.276 4.276 0 0 1 .311-1.633 4.018 4.018 0 0 1 .861-1.318 3.926 3.926 0 0 1 1.351-.879 4.642 4.642 0 0 1 1.747-.322 4.161 4.161 0 0 1 3.069 1.19 4.015 4.015 0 0 1 1.194 2.963 4.3 4.3 0 0 1-.311 1.637 3.951 3.951 0 0 1-.869 1.324 4.006 4.006 0 0 1-1.359.879 4.622 4.622 0 0 1-1.74.322 4.421 4.421 0 0 1-2.216-.553 3.886 3.886 0 0 1-1.509-1.5 4.23 4.23 0 0 1-.53-2.11Zm2.351 0a2.083 2.083 0 0 0 .538 1.483 1.79 1.79 0 0 0 1.366.575 1.816 1.816 0 0 0 1.381-.579 2.274 2.274 0 0 0 0-2.955 1.822 1.822 0 0 0-1.381-.575 1.79 1.79 0 0 0-1.366.575 2.073 2.073 0 0 0-.538 1.476Zm.989-5.083.74-2.278h2.219l-1.384 2.278Zm6.716 9.045v-7.917h2.19v.864h.123a2.036 2.036 0 0 1 .817-.754 2.674 2.674 0 0 1 1.307-.308 2.748 2.748 0 0 1 2.065.791 2.808 2.808 0 0 1 .769 2.043v5.281h-2.32v-4.563a1.453 1.453 0 0 0-.344-1.007 1.186 1.186 0 0 0-.93-.385 1.222 1.222 0 0 0-.974.436 1.6 1.6 0 0 0-.374 1.08v4.439Zm12.413-3.918a4.491 4.491 0 0 1 1-3.032 3.261 3.261 0 0 1 2.6-1.165 2.668 2.668 0 0 1 1.4.341 2.515 2.515 0 0 1 .839.758h.125v-4.234h2.322v11.25h-2.316v-.9h-.125a1.774 1.774 0 0 1-.264.33 3.434 3.434 0 0 1-.421.348 2.184 2.184 0 0 1-.652.3 2.967 2.967 0 0 1-.853.117 3.379 3.379 0 0 1-2.648-1.128 4.319 4.319 0 0 1-1.007-2.985Zm2.351-.044a2.158 2.158 0 0 0 .505 1.49 1.69 1.69 0 0 0 1.326.568 1.649 1.649 0 0 0 1.318-.582 2.191 2.191 0 0 0 .5-1.476 2.122 2.122 0 0 0-.513-1.49 1.706 1.706 0 0 0-1.318-.56 1.669 1.669 0 0 0-1.311.571 2.15 2.15 0 0 0-.506 1.479Zm7.185.044a4.178 4.178 0 0 1 1.128-3.029 3.9 3.9 0 0 1 2.937-1.168 4.26 4.26 0 0 1 1.718.333 3.361 3.361 0 0 1 1.249.9 4.128 4.128 0 0 1 .743 1.311 4.715 4.715 0 0 1 .26 1.575v.674h-5.83a1.833 1.833 0 0 0 .575 1.245 1.867 1.867 0 0 0 1.329.483 2.142 2.142 0 0 0 1.11-.271 1.524 1.524 0 0 0 .641-.674h2.1a3.181 3.181 0 0 1-1.311 2 4.442 4.442 0 0 1-2.629.736 4.054 4.054 0 0 1-2.054-.527 3.769 3.769 0 0 1-1.443-1.472 4.292 4.292 0 0 1-.522-2.116Zm2.249-.945h3.633a1.547 1.547 0 0 0-.56-1.062 1.88 1.88 0 0 0-1.256-.417 1.823 1.823 0 0 0-1.227.436 1.626 1.626 0 0 0-.589 1.043Zm7.185 2.373v-8.76h2.33v8.489q0 .718.659.718h.286v2.043h-.8a2.447 2.447 0 0 1-1.827-.659 2.5 2.5 0 0 1-.647-1.831Zm8.276-3.618v-1.792h.747a.6.6 0 0 0 .476-.194.76.76 0 0 0 .168-.516v-1.45h2.2v2.146h2.073v1.809h-2.073v3.245a.918.918 0 0 0 .26.7 1.066 1.066 0 0 0 .765.249h1.018v1.911h-1.6a2.764 2.764 0 0 1-2.032-.721 2.722 2.722 0 0 1-.729-2.025v-3.362Zm6.643 2.19a4.491 4.491 0 0 1 1-3.032 3.261 3.261 0 0 1 2.6-1.165 2.668 2.668 0 0 1 1.4.341 2.515 2.515 0 0 1 .839.758h.125v-.9h2.322v7.916h-2.315v-.9h-.125a1.774 1.774 0 0 1-.264.33 3.434 3.434 0 0 1-.421.348 2.184 2.184 0 0 1-.652.3 2.967 2.967 0 0 1-.853.117 3.379 3.379 0 0 1-2.648-1.128 4.319 4.319 0 0 1-1.007-2.985Zm2.351-.044a2.158 2.158 0 0 0 .505 1.49 1.69 1.69 0 0 0 1.326.568 1.649 1.649 0 0 0 1.318-.582 2.191 2.191 0 0 0 .5-1.476 2.122 2.122 0 0 0-.513-1.49 1.706 1.706 0 0 0-1.318-.56 1.669 1.669 0 0 0-1.311.571 2.15 2.15 0 0 0-.506 1.479Zm7.632 1.472v-8.76h2.328v8.489q0 .718.659.718h.286v2.043h-.8a2.447 2.447 0 0 1-1.827-.659 2.5 2.5 0 0 1-.645-1.831Zm4.57 0v-8.76h2.329v8.489q0 .718.659.718h.286v2.043h-.8a2.447 2.447 0 0 1-1.827-.659 2.5 2.5 0 0 1-.645-1.831Zm4.2-1.428a4.178 4.178 0 0 1 1.128-3.029 3.9 3.9 0 0 1 2.937-1.168 4.26 4.26 0 0 1 1.718.333 3.361 3.361 0 0 1 1.249.9 4.128 4.128 0 0 1 .743 1.311 4.715 4.715 0 0 1 .26 1.575v.674h-5.83a1.833 1.833 0 0 0 .575 1.245 1.867 1.867 0 0 0 1.329.483 2.142 2.142 0 0 0 1.11-.271 1.524 1.524 0 0 0 .641-.674h2.1a3.181 3.181 0 0 1-1.311 2 4.442 4.442 0 0 1-2.629.736 4.054 4.054 0 0 1-2.054-.527 3.769 3.769 0 0 1-1.443-1.472 4.292 4.292 0 0 1-.525-2.116Zm2.249-.945h3.633a1.547 1.547 0 0 0-.56-1.062 1.88 1.88 0 0 0-1.256-.417 1.823 1.823 0 0 0-1.227.436 1.626 1.626 0 0 0-.592 1.043Zm7.315 4.863v-7.917h2.19v1.194h.125a2.241 2.241 0 0 1 .769-.883 2.141 2.141 0 0 1 1.267-.377h.769v2.19h-.916a1.715 1.715 0 0 0-1.37.586 2.375 2.375 0 0 0-.505 1.6v3.607Zm10.554 0v-10.5h2.373v8.386h4.109v2.114Zm5.618-8.445v-2.055h8.254v2.058h-2.944v8.442h-2.38v-8.445Zm9.682 8.445v-10.5h2.629l4.021 6.606h.088v-6.606h2.292v10.5h-2.637l-4.006-6.6h-.088v6.6Z" fill="#fff"/><path data-name="Path 6481" d="m12917.159 5734.195-8.644-8.644 3.535-3.535 5.108 5.108 11.066-11.065 3.536 3.535Z" fill="#37f2b9"/><path data-name="Path 6482" d="m12917.159 5776.195-8.644-8.644 3.535-3.535 5.108 5.108 11.066-11.065 3.536 3.535Z" fill="#37f2b9"/><path data-name="Path 6483" d="m12917.159 5818.195-8.644-8.644 3.535-3.535 5.108 5.108 11.066-11.065 3.536 3.535Z" fill="#37f2b9"/><path data-name="Path 6484" d="m12917.159 5874.695-8.644-8.644 3.535-3.535 5.108 5.108 11.066-11.065 3.536 3.535Z" fill="#37f2b9"/><path data-name="Path 6489" d="m12917.159 5916.695-8.644-8.644 3.535-3.535 5.108 5.108 11.066-11.065 3.536 3.535Z" fill="#37f2b9"/><path data-name="Path 6490" d="m12917.159 5974.695-8.644-8.644 3.535-3.535 5.108 5.108 11.066-11.065 3.536 3.535Z" fill="#37f2b9"/><path data-name="Path 6485" d="M13170.301 5747.464h-262.8v-1h262.8Z" fill="#fff"/><path data-name="Path 6486" d="M13170.301 5789.464h-262.8v-1h262.8Z" fill="#fff"/><path data-name="Path 6487" d="M13170.301 5846.161h-262.8v-1h262.8Z" fill="#fff"/><path data-name="Path 6488" d="M13170.301 5887.964h-262.8v-1h262.8Z" fill="#fff"/><path data-name="Path 6491" d="M13170.301 5945.964h-262.8v-1h262.8Z" fill="#fff"/><path data-name="Path 6492" d="M13170.301 5988.328h-262.8v-1h262.8Z" fill="#fff"/><path data-name="Path 6496" d="M12960.237 6011.227h3.163l2.9 8.75h.141l2.919-8.75h3.129l-4.676 12.6h-2.935Zm11.496 12.6 4.28-12.6h3.639l4.333 12.6h-3.023l-.756-2.232h-4.825l-.738 2.232Zm4.421-4.772h3.278l-1.546-4.694h-.158Zm9.299 4.772v-12.6h2.847v10.06h4.931v2.54Zm8.438-6.3a6.569 6.569 0 0 1 .51-2.58 6.214 6.214 0 0 1 3.52-3.45 7.31 7.31 0 0 1 5.331 0 6.441 6.441 0 0 1 2.131 1.375 6.339 6.339 0 0 1 1.393 2.079 6.546 6.546 0 0 1 .51 2.571 6.488 6.488 0 0 1-.87 3.318 6.285 6.285 0 0 1-2.4 2.36 6.869 6.869 0 0 1-3.423.861 7.1 7.1 0 0 1-2.672-.5 6.421 6.421 0 0 1-2.131-1.367 6.223 6.223 0 0 1-1.39-2.076 6.673 6.673 0 0 1-.509-2.591Zm2.953 0a3.736 3.736 0 0 0 1.05 2.72 3.886 3.886 0 0 0 5.37 0 3.736 3.736 0 0 0 1.05-2.72 3.744 3.744 0 0 0-1.05-2.711 3.858 3.858 0 0 0-5.366 0 3.736 3.736 0 0 0-1.054 2.711Zm12.375 6.3v-12.6h4.931a4.548 4.548 0 0 1 3.2 1.16 3.887 3.887 0 0 1 1.261 3 3.984 3.984 0 0 1-.62 2.2 4.13 4.13 0 0 1-1.613 1.477l2.693 4.763h-3.171l-2.145-4.21h-1.689v4.21Zm2.848-6.645h1.833a1.814 1.814 0 0 0 1.3-.475 1.74 1.74 0 0 0 .5-1.327 1.636 1.636 0 0 0-.5-1.253 1.873 1.873 0 0 0-1.336-.47h-1.8Zm8.49 5.388a1.41 1.41 0 0 1 .453-1.063 1.519 1.519 0 0 1 1.085-.431 1.493 1.493 0 0 1 1.1.426 1.568 1.568 0 0 1 0 2.145 1.506 1.506 0 0 1-1.107.417 1.532 1.532 0 0 1-1.088-.422 1.408 1.408 0 0 1-.443-1.072Zm0-6.144a1.41 1.41 0 0 1 .453-1.063 1.519 1.519 0 0 1 1.085-.431 1.493 1.493 0 0 1 1.1.426 1.449 1.449 0 0 1 .429 1.069 1.467 1.467 0 0 1-.426 1.09 1.623 1.623 0 0 1-2.198-.009 1.437 1.437 0 0 1-.443-1.081Z" fill="#fff"/><path data-name="Path 6497" d="M13037.055 6019.027h2.834a3.284 3.284 0 0 0 .844 2.175 3.885 3.885 0 0 0 2.254 1.2v-6.1q-.646-.158-1.127-.3t-1.074-.375a5.814 5.814 0 0 1-1.009-.51 5.67 5.67 0 0 1-.844-.686 3.67 3.67 0 0 1-.692-.91 4.984 4.984 0 0 1-.428-1.18 6.428 6.428 0 0 1-.165-1.5 4.8 4.8 0 0 1 1.43-3.487 6.194 6.194 0 0 1 3.909-1.727v-1.49h1.951v1.49a7.865 7.865 0 0 1 2.07.527 6.212 6.212 0 0 1 1.734 1.073 4.839 4.839 0 0 1 1.233 1.707 5.77 5.77 0 0 1 .475 2.314h-2.95a2.933 2.933 0 0 0-.659-1.964 3.115 3.115 0 0 0-1.9-1v5.543q.751.185 1.226.31t1.167.382a6.611 6.611 0 0 1 1.134.527 7.173 7.173 0 0 1 .943.705 3.569 3.569 0 0 1 .791.956 5.361 5.361 0 0 1 .481 1.252 6.327 6.327 0 0 1 .191 1.6 5.127 5.127 0 0 1-1.575 3.8 6.816 6.816 0 0 1-4.361 1.798v1.964h-1.951v-1.994a6.854 6.854 0 0 1-4.287-1.955 5.676 5.676 0 0 1-1.645-4.145Zm3.48-8.24a2.057 2.057 0 0 0 .62 1.589 4.815 4.815 0 0 0 1.833.956v-5.049a3.2 3.2 0 0 0-1.826.9 2.285 2.285 0 0 0-.627 1.603Zm4.4 11.667a3.8 3.8 0 0 0 2.149-.864 2.318 2.318 0 0 0 .791-1.813 2.386 2.386 0 0 0-.765-1.912 5.643 5.643 0 0 0-2.172-1.054Zm9.149-3.059h2.689a2.984 2.984 0 0 0 .967 2.162 3.3 3.3 0 0 0 2.36.87 3.517 3.517 0 0 0 2.551-.936 3.3 3.3 0 0 0 .969-2.492 3.19 3.19 0 0 0-1.009-2.419 3.578 3.578 0 0 0-2.564-.953h-2.347v-2.32l4.588-4.6v-.158h-7.8v-2.624h11.43v2.6l-4.711 4.582v.158a5.751 5.751 0 0 1 3.817 1.786 5.453 5.453 0 0 1 1.536 3.922 6.362 6.362 0 0 1-.745 3.054 5.749 5.749 0 0 1-2.235 2.259 6.723 6.723 0 0 1-3.454.87 6.412 6.412 0 0 1-2.617-.521 5.329 5.329 0 0 1-1.909-1.364 6.261 6.261 0 0 1-1.123-1.844 5.57 5.57 0 0 1-.389-2.032Zm16.387 0h2.689a2.984 2.984 0 0 0 .962 2.162 3.3 3.3 0 0 0 2.36.87 3.517 3.517 0 0 0 2.551-.936 3.3 3.3 0 0 0 .969-2.492 3.19 3.19 0 0 0-1.002-2.418 3.578 3.578 0 0 0-2.566-.954h-2.347v-2.32l4.588-4.6v-.158h-7.8v-2.624h11.425v2.6l-4.706 4.582v.158a5.751 5.751 0 0 1 3.817 1.786 5.453 5.453 0 0 1 1.536 3.922 6.362 6.362 0 0 1-.747 3.054 5.749 5.749 0 0 1-2.233 2.259 6.723 6.723 0 0 1-3.454.87 6.412 6.412 0 0 1-2.613-.52 5.329 5.329 0 0 1-1.912-1.365 6.261 6.261 0 0 1-1.124-1.844 5.57 5.57 0 0 1-.389-2.032Zm16 1.16v-2.373l5.59-12.261h2.993l-5.304 11.892v.158h4.97v-4.144h2.887v4.14h2.293v2.584h-2.293v4.276h-2.887v-4.271Z" fill="#fff"/><path data-name="Path 6498" d="M12985.7 6088.917h9.233a5.516 5.516 0 0 0 1.325 3.44 6.684 6.684 0 0 0 3.47 2.04v-9.025q-1.549-.328-2.666-.64t-2.547-.864a14.557 14.557 0 0 1-2.458-1.191 12.96 12.96 0 0 1-2.085-1.65 8.75 8.75 0 0 1-1.7-2.219 12.6 12.6 0 0 1-1.057-2.919 15.787 15.787 0 0 1-.415-3.741 11.792 11.792 0 0 1 3.425-8.548q3.425-3.515 9.5-4.14v-3.366h5.125v3.366a15.782 15.782 0 0 1 9.412 4.125 13.031 13.031 0 0 1 3.782 9.342h-9.65a4.936 4.936 0 0 0-.953-2.859 5.167 5.167 0 0 0-2.591-1.757v8.28q1.489.3 2.487.536t2.457.655a14.327 14.327 0 0 1 2.442.908q.983.491 2.159 1.206a7.643 7.643 0 0 1 1.951 1.653 15.383 15.383 0 0 1 1.459 2.13 9.331 9.331 0 0 1 1.014 2.748 16.639 16.639 0 0 1 .328 3.41 12.543 12.543 0 0 1-3.783 9.323q-3.783 3.727-10.514 4.352v4.5h-5.123v-4.5a16.019 16.019 0 0 1-10.321-4.632 13.642 13.642 0 0 1-3.706-9.963Zm11.586-19.3a3.436 3.436 0 0 0-.834 2.293 2.8 2.8 0 0 0 .834 2.115 6.4 6.4 0 0 0 2.442 1.34v-7.119a4.457 4.457 0 0 0-2.444 1.371Zm7.564 24.989a5.943 5.943 0 0 0 3.127-1.4 3.491 3.491 0 0 0 1.1-2.651 3.01 3.01 0 0 0-1.072-2.442 8.989 8.989 0 0 0-3.157-1.519Zm19.6.715v-8.042l10.6-27.164h9.829l-10.067 26.3v.357h8.221v-8.787h9.531v8.787h4.319v8.548h-4.318v7.507h-9.531v-7.506Zm37.65-26.658v-8.608h28.445v8.25l-14.598 34.522h-10.547l14.627-33.747v-.417Z" fill="#ffd800"/><path data-name="Path 6493" d="m13030.286 6027.491-.817-2.887 67.917-19.221.817 2.887Z" fill="#e8041c"/></g></svg>