<svg xmlns="http://www.w3.org/2000/svg" width="304" height="501"><g data-name="Grupo 2692" transform="translate(-12419 -4410)"><rect data-name="Rectangle 1292" width="304" height="501" rx="16" transform="translate(12419 4410)" fill="#fff"/><path data-name="Rectangle 1292 - Outline" d="M12435 4411a15 15 0 0 0-15 15v469a15 15 0 0 0 15 15h272a15 15 0 0 0 15-15v-469a15 15 0 0 0-15-15h-272m0-1h272a16 16 0 0 1 16 16v469a16 16 0 0 1-16 16h-272a16 16 0 0 1-16-16v-469a16 16 0 0 1 16-16Z" fill="#37f2b9"/><text transform="translate(12492 4465)" fill="#0e1118" font-size="35" font-family="Silka-Bold, Silka" font-weight="700"><tspan x="0" y="0">GENERAL</tspan></text><text data-name="Entrada virtual al taller Cuaderno de trabajo Certificado de asistencia Entrada virtual al Internet Marketing Summit. 3 días Sesión de preguntas y respuestas	Grabación del taller LTN" transform="translate(12476 4496)" fill="#0e1118" font-size="15" font-family="Silka-Medium, Silka" font-weight="500"><tspan x="0" y="14" xml:space="preserve">Entrada virtual al taller		</tspan><tspan x="0" y="54" xml:space="preserve">Cuaderno de trabajo 		</tspan><tspan x="0" y="94">Certificado de asistencia</tspan><tspan fill="#525252"><tspan x="0" y="134">Entrada virtual al Internet </tspan><tspan x="0" y="154" xml:space="preserve">Marketing Summit. 3 días       </tspan><tspan x="0" y="194">Sesión de preguntas y </tspan><tspan x="0" y="214">respuestas	</tspan><tspan x="0" y="254" xml:space="preserve">Grabación del taller LTN 		</tspan><tspan x="0" y="274">	</tspan></tspan></text><path data-name="Path 6510" d="m12452.159 4512.368-8.644-8.644 3.535-3.535 5.108 5.108 11.066-11.065 3.536 3.535Z" fill="#4542cd"/><path data-name="Path 6511" d="m12452.159 4554.368-8.644-8.644 3.535-3.535 5.108 5.108 11.066-11.065 3.536 3.535Z" fill="#4542cd"/><path data-name="Path 6512" d="m12452.159 4596.368-8.644-8.644 3.535-3.535 5.108 5.108 11.066-11.065 3.536 3.535Z" fill="#4542cd"/><g data-name="Group 2689" fill="#e8041c"><path data-name="Path 6019" d="m12449.888 4693.689-2.891-2.765 13.392-14 2.891 2.765Z"/><path data-name="Path 6020" d="m12460.389 4693.689-13.392-14 2.891-2.765 13.392 14Z"/></g><g data-name="Group 2690" fill="#e8041c"><path data-name="Path 6019" d="m12449.888 4634.689-2.891-2.765 13.392-14 2.891 2.765Z"/><path data-name="Path 6020" d="m12460.389 4634.689-13.392-14 2.891-2.765 13.392 14Z"/></g><g data-name="Group 2691" fill="#e8041c"><path data-name="Path 6019" d="m12449.888 4754.325-2.891-2.765 13.392-14 2.891 2.765Z"/><path data-name="Path 6020" d="m12460.389 4754.325-13.392-14 2.891-2.765 13.392 14Z"/></g><path data-name="Path 6513" d="M12705.301 4525.637h-262.8v-1h262.8Z" fill="#4542cd"/><path data-name="Path 6514" d="M12705.301 4567.637h-262.8v-1h262.8Z" fill="#4542cd"/><path data-name="Path 6515" d="M12705.301 4609.637h-262.8v-1h262.8Z" fill="#4542cd"/><path data-name="Path 6516" d="M12705.301 4666.137h-262.8v-1h262.8Z" fill="#4542cd"/><path data-name="Path 6517" d="M12705.301 4725.137h-262.8v-1h262.8Z" fill="#4542cd"/><path data-name="Path 6518" d="M12705.301 4768.501h-262.8v-1h262.8Z" fill="#4542cd"/><text transform="translate(12501 4788)" fill="#0e1118" font-size="18" font-family="Silka-Bold, Silka" font-weight="700"><tspan x="0" y="17">VALOR:</tspan></text><text data-name="$97" transform="translate(12573 4806)" fill="#0e1118" font-size="27" font-family="Silka-Medium, Silka" font-weight="500"><tspan x="0" y="0">$97	</tspan></text><text transform="translate(12489 4870)" fill="#e8041c" font-size="45" font-family="Silka-Bold, Silka" font-weight="700"><tspan x="0" y="0">GRATIS</tspan></text><path data-name="Path 6519" d="m12565.286 4808.066-.817-2.887 67.917-19.221.817 2.887Z" fill="#e8041c"/></g></svg>