<svg data-name="Grupo 2638" xmlns="http://www.w3.org/2000/svg" width="300.51" height="311.305"><defs><clipPath id="a"><path data-name="Rectángulo 1240" fill="none" d="M0 0h300.51v311.305H0z"/></clipPath></defs><path data-name="Trazado 5932" d="M28.981 92.907h-7.9V88.58h7.9v-8.192h4.536v8.192h7.9v4.327h-7.9v8.233h-4.536Z" fill="#37f2b9"/><g data-name="Grupo 2630"><g data-name="Grupo 2629" clip-path="url(#a)"><path data-name="Trazado 5933" d="M51.577 82.992H44.6v-4.157c5.587 0 7.352-1.429 7.352-4.412h5.167v29.406h-5.542Z"/><path data-name="Trazado 5934" d="M63.84 94.755V83.5c0-6.091 4.957-9.619 10-9.619 5.082 0 10.039 3.528 10.039 9.619v11.255c0 6.091-4.957 9.619-10.039 9.619-5.041 0-10-3.528-10-9.619m14.534-.379v-10.5a4.521 4.521 0 1 0-9.031 0v10.5a4.521 4.521 0 1 0 9.031 0"/><path data-name="Trazado 5935" d="M89.753 95.091h5.167a4.15 4.15 0 0 0 4.411 3.99 4.313 4.313 0 0 0 4.663-4.452 4.422 4.422 0 0 0-4.747-4.411H95.34v-4.327l6.512-6.217v-.294h-11.51v-4.957H108.7V79.3l-6.678 6.343v.252a8.6 8.6 0 0 1 7.561 8.7c0 5.166-3.739 9.745-10.208 9.745a9.164 9.164 0 0 1-9.62-9.241"/></g></g><path data-name="Trazado 5936" d="M196.769 92.907h-7.9V88.58h7.9v-8.192h4.531v8.192h7.9v4.327h-7.9v8.233h-4.536Z" fill="#37f2b9"/><g data-name="Grupo 2632"><g data-name="Grupo 2631" clip-path="url(#a)"><path data-name="Trazado 5937" d="M219.363 82.992h-6.973v-4.157c5.587 0 7.352-1.429 7.352-4.412h5.167v29.406h-5.546Z"/><path data-name="Trazado 5938" d="M231.627 94.755V83.5c0-6.091 4.957-9.619 10-9.619 5.082 0 10.039 3.528 10.039 9.619v11.255c0 6.091-4.957 9.619-10.039 9.619-5.041 0-10-3.528-10-9.619m14.534-.379v-10.5a4.522 4.522 0 1 0-9.032 0v10.5a4.522 4.522 0 1 0 9.032 0"/><path data-name="Trazado 5939" d="M257.372 99.165c0-3.906 1.806-6.385 5.713-8.779l5.419-3.361a4.745 4.745 0 0 0 2.6-4.159c0-2.142-1.553-3.864-4.327-3.864a4.111 4.111 0 0 0-4.284 4.116h-5.163a9.1 9.1 0 0 1 9.535-9.241c6.092 0 9.83 4.032 9.83 8.779 0 3.823-1.847 6.385-5.335 8.486l-5.629 3.4c-2.141 1.344-2.814 2.435-2.814 3.948v.42h13.862v4.915h-19.407Z"/><path data-name="Trazado 5940" d="M294.5 79.674v-.294h-13.1v-4.957h19.11v4.747l-10.166 24.658H284.3Z"/></g></g><path data-name="Trazado 5941" d="M5.415 120.467h2.4v10.479H12.9v2.125H5.415Z" fill="#0e1118"/><g data-name="Grupo 2634"><g data-name="Grupo 2633" clip-path="url(#a)" fill="#0e1118"><path data-name="Trazado 5942" d="M14.02 128.389c0-2.971 1.8-5.023 4.392-5.023a3.424 3.424 0 0 1 2.881 1.459h.127V123.6h2.34v9.471h-2.305v-1.206h-.126a3.331 3.331 0 0 1-2.844 1.44c-2.647 0-4.465-1.98-4.465-4.916m7.454-.036a2.555 2.555 0 1 0-2.539 2.845 2.6 2.6 0 0 0 2.539-2.845"/><path data-name="Trazado 5943" d="M26.151 123.6h2.232v1.152h.126a2.966 2.966 0 0 1 2.665-1.386 3.283 3.283 0 0 1 3.421 3.511v6.194h-2.34v-5.582a1.778 1.778 0 0 0-1.819-1.926 1.961 1.961 0 0 0-1.944 2.088v5.42h-2.341Z"/><path data-name="Trazado 5944" d="m36.573 131.018 4.5-5.329v-.126h-4.356V123.6h7.346v1.963l-4.5 5.383v.126h4.592v2h-7.58Z"/><path data-name="Trazado 5945" d="M45.591 128.389c0-2.971 1.8-5.023 4.393-5.023a3.426 3.426 0 0 1 2.881 1.459h.126V123.6h2.341v9.471h-2.305v-1.206H52.9a3.333 3.333 0 0 1-2.844 1.44c-2.648 0-4.466-1.98-4.466-4.916m7.454-.036a2.555 2.555 0 1 0-2.538 2.845 2.6 2.6 0 0 0 2.538-2.845"/><path data-name="Trazado 5946" d="M57.723 123.6h2.232v1.152h.126a2.881 2.881 0 0 1 2.576-1.386 3.139 3.139 0 0 1 2.808 1.44h.145a3.116 3.116 0 0 1 2.808-1.44 3.27 3.27 0 0 1 3.457 3.421v6.284h-2.34V127.6c0-1.3-.594-2.034-1.71-2.034a1.872 1.872 0 0 0-1.837 2.088v5.42h-2.341v-5.617a1.71 1.71 0 0 0-1.765-1.891 1.893 1.893 0 0 0-1.818 2.07v5.438h-2.341Z"/><path data-name="Trazado 5947" d="M74 120.971a1.442 1.442 0 1 1 1.441 1.368A1.33 1.33 0 0 1 74 120.971m.27 2.629h2.341v9.471h-2.346Z"/><path data-name="Trazado 5948" d="M78.4 128.389a4.694 4.694 0 0 1 4.771-5.023c3.043 0 4.7 2.251 4.7 4.916v.738h-7.2a2.654 2.654 0 0 0 4.934 1.1h2.179c-.468 1.927-2.161 3.187-4.61 3.187a4.683 4.683 0 0 1-4.771-4.916m7.238-1.026a2.307 2.307 0 0 0-2.467-2.124 2.435 2.435 0 0 0-2.467 2.124Z"/><path data-name="Trazado 5949" d="M89.942 123.6h2.232v1.152h.126a2.966 2.966 0 0 1 2.665-1.386 3.283 3.283 0 0 1 3.421 3.511v6.194h-2.34v-5.582a1.778 1.778 0 0 0-1.819-1.926 1.961 1.961 0 0 0-1.944 2.088v5.42h-2.341Z"/><path data-name="Trazado 5950" d="M101.732 129.919v-4.447h-1.6v-1.855h1.063a.652.652 0 0 0 .684-.719v-1.91h2.2v2.612h2.61v1.872h-2.61v4.357a1.16 1.16 0 0 0 1.3 1.3h1.26v1.944h-1.747a2.871 2.871 0 0 1-3.15-3.151"/><path data-name="Trazado 5951" d="M108.067 128.335a5.042 5.042 0 1 1 5.042 4.97 4.844 4.844 0 0 1-5.042-4.97m7.706 0a2.67 2.67 0 1 0-2.664 2.845 2.671 2.671 0 0 0 2.664-2.845"/><path data-name="Trazado 5952" d="M119.678 130.226h2.161c.09.811.737 1.242 1.8 1.242 1.081 0 1.692-.468 1.692-1.134 0-2.017-5.437-.108-5.437-4.069 0-1.6 1.387-2.9 3.727-2.9 2.053 0 3.583 1.045 3.727 2.935h-2.07c-.109-.684-.649-1.135-1.675-1.135-.954 0-1.567.414-1.567 1.027 0 1.8 5.565-.09 5.565 4.014 0 1.8-1.459 3.1-4 3.1-2.557 0-3.835-1.207-3.925-3.079"/><path data-name="Trazado 5953" d="M29.283 148.389a4.693 4.693 0 0 1 4.771-5.023c3.043 0 4.7 2.251 4.7 4.916v.738h-7.2a2.42 2.42 0 0 0 2.575 2.412 2.436 2.436 0 0 0 2.359-1.314h2.179c-.469 1.927-2.161 3.187-4.61 3.187a4.683 4.683 0 0 1-4.771-4.916m7.238-1.026a2.307 2.307 0 0 0-2.467-2.124 2.435 2.435 0 0 0-2.467 2.124Z"/><path data-name="Trazado 5954" d="m42.55 148.156-3.007-4.556h2.574l1.856 2.989h.107l1.837-2.989h2.575l-2.992 4.591 3.241 4.88h-2.59l-2.071-3.205h-.143l-2.072 3.205h-2.574Z"/><path data-name="Trazado 5955" d="M50.127 140.971a1.442 1.442 0 1 1 1.44 1.368 1.33 1.33 0 0 1-1.44-1.368m.273 2.629h2.341v9.471H50.4Z"/><path data-name="Trazado 5956" d="M56.085 149.919v-4.447h-1.6v-1.855h1.063a.652.652 0 0 0 .684-.719v-1.91h2.2v2.612h2.611v1.872h-2.617v4.357a1.161 1.161 0 0 0 1.3 1.3h1.259v1.944h-1.749a2.871 2.871 0 0 1-3.151-3.151"/><path data-name="Trazado 5957" d="M62.42 148.335a5.043 5.043 0 1 1 5.042 4.97 4.844 4.844 0 0 1-5.042-4.97m7.707 0a2.671 2.671 0 1 0-2.665 2.845 2.672 2.672 0 0 0 2.665-2.845"/><path data-name="Trazado 5958" d="M74.03 150.226h2.161c.09.811.738 1.242 1.8 1.242 1.08 0 1.691-.468 1.691-1.134 0-2.017-5.437-.108-5.437-4.069 0-1.6 1.387-2.9 3.727-2.9 2.053 0 3.583 1.045 3.728 2.935h-2.07c-.11-.684-.649-1.135-1.676-1.135-.953 0-1.567.414-1.567 1.027 0 1.8 5.565-.09 5.565 4.014 0 1.8-1.459 3.1-4 3.1-2.557 0-3.834-1.207-3.925-3.079"/><path data-name="Trazado 5959" d="M83.517 148.335a5.042 5.042 0 1 1 5.042 4.97 4.844 4.844 0 0 1-5.042-4.97m7.706 0a2.671 2.671 0 1 0-2.664 2.845 2.671 2.671 0 0 0 2.664-2.845"/><path data-name="Trazado 5960" d="M95.126 150.226h2.161c.09.811.738 1.242 1.8 1.242 1.08 0 1.691-.468 1.691-1.134 0-2.017-5.437-.108-5.437-4.069 0-1.6 1.387-2.9 3.727-2.9 2.053 0 3.583 1.045 3.728 2.935h-2.07c-.11-.684-.649-1.135-1.676-1.135-.953 0-1.567.414-1.567 1.027 0 1.8 5.565-.09 5.565 4.014 0 1.8-1.459 3.1-4 3.1-2.557 0-3.834-1.207-3.925-3.079"/></g></g><path data-name="Trazado 5961" d="M204.64 120.467h2.611l2.071 9.057h.144l2.2-9.057h2.954l2.2 9.057h.126l2.089-9.057h2.592l-3.258 12.6h-2.889l-2.287-9.219h-.126l-2.286 9.219H207.9Z" fill="#0e1118"/><g data-name="Grupo 2636"><g data-name="Grupo 2635" clip-path="url(#a)"><path data-name="Trazado 5962" d="M221.92 128.389a4.694 4.694 0 0 1 4.771-5.023c3.043 0 4.7 2.251 4.7 4.916v.738h-7.2a2.654 2.654 0 0 0 4.934 1.1h2.175c-.468 1.927-2.161 3.187-4.61 3.187a4.683 4.683 0 0 1-4.771-4.916m7.238-1.026a2.307 2.307 0 0 0-2.467-2.124 2.435 2.435 0 0 0-2.467 2.124Z" fill="#0e1118"/><path data-name="Trazado 5963" d="M235.888 131.865h-.126v1.206h-2.3v-13.5h2.338v5.258h.126a3.369 3.369 0 0 1 2.88-1.459c2.593 0 4.394 2.052 4.394 5.023 0 2.936-1.818 4.916-4.466 4.916a3.306 3.306 0 0 1-2.845-1.44m4.934-3.512a2.593 2.593 0 0 0-2.539-2.862 2.565 2.565 0 0 0-2.538 2.862 2.592 2.592 0 0 0 2.52 2.845 2.562 2.562 0 0 0 2.557-2.845" fill="#0e1118"/><path data-name="Trazado 5964" d="M245 120.971a1.442 1.442 0 1 1 1.441 1.368 1.33 1.33 0 0 1-1.441-1.368m.27 2.629h2.341v9.471h-2.341Z" fill="#0e1118"/><path data-name="Trazado 5965" d="M250 123.6h2.232v1.152h.126a2.965 2.965 0 0 1 2.665-1.386 3.284 3.284 0 0 1 3.421 3.511v6.194H256.1v-5.582a1.779 1.779 0 0 0-1.819-1.926 1.96 1.96 0 0 0-1.944 2.088v5.42H250Z" fill="#0e1118"/><path data-name="Trazado 5966" d="M260.241 128.389c0-2.971 1.8-5.023 4.393-5.023a3.426 3.426 0 0 1 2.881 1.459h.126V123.6h2.341v9.471h-2.3v-1.206h-.126a3.333 3.333 0 0 1-2.844 1.44c-2.648 0-4.466-1.98-4.466-4.916m7.454-.036a2.555 2.555 0 1 0-2.538 2.845 2.6 2.6 0 0 0 2.538-2.845" fill="#0e1118"/><path data-name="Trazado 5967" d="M272.373 123.6h2.215v1.549h.143a2.679 2.679 0 0 1 2.486-1.585h.864v2.236h-.973c-1.494 0-2.394 1.1-2.394 2.791v4.484h-2.341Z" fill="#0e1118"/><path data-name="Trazado 5968" d="M279.555 130.226h2.161c.09.811.737 1.242 1.8 1.242 1.081 0 1.692-.468 1.692-1.134 0-2.017-5.437-.108-5.437-4.069 0-1.6 1.387-2.9 3.727-2.9 2.053 0 3.583 1.045 3.727 2.935h-2.07c-.109-.684-.649-1.135-1.675-1.135-.954 0-1.567.414-1.567 1.027 0 1.8 5.565-.09 5.565 4.014 0 1.8-1.459 3.1-4 3.1-2.557 0-3.835-1.207-3.925-3.079" fill="#0e1118"/><path data-name="Trazado 5969" d="M67.4 27.083a1.113 1.113 0 1 0 0 1.574 1.112 1.112 0 0 0 0-1.574" fill="#4744c4"/><path data-name="Trazado 5970" d="M81.569 12.918a5.564 5.564 0 1 0 0 7.869 5.564 5.564 0 0 0 0-7.869ZM80 19.218a3.339 3.339 0 1 1 0-4.722 3.343 3.343 0 0 1 0 4.716Z" fill="#4744c4"/><path data-name="Trazado 5971" d="M94.158.327A1.111 1.111 0 0 0 93.331 0a49.423 49.423 0 0 0-13.364 2.768 37.259 37.259 0 0 0-14.138 8.574c-.823.823-1.625 1.7-2.391 2.6-3.633-2.139-6.545-1.468-8.385-.483-4.238 2.268-6.861 8.426-6.861 12.831a1.113 1.113 0 0 0 1.9.787 7.083 7.083 0 0 1 5.892-1.977l.39.39a39.249 39.249 0 0 0-1.838 5.4 3.151 3.151 0 0 0 .135 1.933 10.547 10.547 0 0 0-3.005 2.119C48.8 37.808 48.22 44.789 48.2 45.085a1.113 1.113 0 0 0 1.023 1.2h.174c.3-.023 7.277-.6 10.142-3.47a10.54 10.54 0 0 0 2.118-3 3.147 3.147 0 0 0 1.934.134 39.25 39.25 0 0 0 5.4-1.838l.39.39a7.084 7.084 0 0 1-1.981 5.892 1.113 1.113 0 0 0 .787 1.9c4.4 0 10.563-2.623 12.83-6.861.985-1.84 1.656-4.752-.483-8.385a41.258 41.258 0 0 0 2.6-2.391 37.255 37.255 0 0 0 8.574-14.137 49.437 49.437 0 0 0 2.767-13.365 1.112 1.112 0 0 0-.317-.827M50.68 23.9c.691-3.346 2.7-7.017 5.423-8.475a5.928 5.928 0 0 1 5.926.279 44.987 44.987 0 0 0-4.676 7.622 1.175 1.175 0 0 0-.589-.346 9.513 9.513 0 0 0-6.084.92m7.281 17.346c-1.53 1.53-5.12 2.337-7.388 2.667.33-2.269 1.137-5.858 2.667-7.388a8.027 8.027 0 0 1 2.849-1.872l3.745 3.747a8.022 8.022 0 0 1-1.873 2.847Zm5.073-3.453a1.043 1.043 0 0 1-.972-.315l-2.18-2.18-2.874-2.874a1.046 1.046 0 0 1-.316-.973 36.241 36.241 0 0 1 1.389-4.25l9.2 9.2a36.206 36.206 0 0 1-4.247 1.391Zm16.025.588c-1.458 2.724-5.129 4.732-8.475 5.423a9.469 9.469 0 0 0 .912-6.112 1.161 1.161 0 0 0-.338-.562 45.018 45.018 0 0 0 7.621-4.676 5.93 5.93 0 0 1 .281 5.927Zm2.509-11.3a40.53 40.53 0 0 1-3.209 2.879 42.718 42.718 0 0 1-8.871 5.5L59.025 25a42.718 42.718 0 0 1 5.5-8.871A40.368 40.368 0 0 1 67.4 12.92a34.712 34.712 0 0 1 12.65-7.809l9.325 9.325a34.7 34.7 0 0 1-7.81 12.646Zm8.61-15L82.4 4.3a50.028 50.028 0 0 1 9.765-1.986 50.043 50.043 0 0 1-1.991 9.767Z" fill="#4744c4"/><path data-name="Trazado 5972" d="M64.256 45.967a1.112 1.112 0 0 0-1.574 0l-3.147 3.148a1.113 1.113 0 1 0 1.534 1.613l.04-.04 3.147-3.148a1.113 1.113 0 0 0 0-1.573" fill="#37f2b9"/><path data-name="Trazado 5973" d="M48.519 30.229a1.112 1.112 0 0 0-1.574 0L43.8 33.376a1.113 1.113 0 1 0 1.53 1.614l.04-.04 3.149-3.15a1.113 1.113 0 0 0 0-1.573" fill="#37f2b9"/><path data-name="Trazado 5974" d="M56.388 47.545a1.112 1.112 0 0 0-1.574 0l-7.538 7.537a1.113 1.113 0 0 0 1.566 1.582l.008-.008 7.538-7.537a1.112 1.112 0 0 0 0-1.574" fill="#37f2b9"/><path data-name="Trazado 5975" d="M47.486 47.545a1.112 1.112 0 0 0-1.574 0l-7.538 7.537a1.113 1.113 0 1 0 1.567 1.581l.007-.007 7.538-7.537c5.174 0 9.368 4.387 9.368-.787s-4.194-9.368-9.368-.787" fill="#37f2b9"/><path data-name="Trazado 5976" d="M46.944 38.1a1.112 1.112 0 0 0-1.574 0l-7.537 7.538a1.113 1.113 0 0 0 1.573 1.574l7.537-7.538a1.113 1.113 0 0 0 0-1.574" fill="#37f2b9"/><path data-name="Trazado 5977" d="M72.126 22.36a1.112 1.112 0 0 0-1.574 0l-1.571 1.574a1.113 1.113 0 1 0 1.567 1.581l.007-.007 1.574-1.574a1.113 1.113 0 0 0 0-1.574" fill="#4744c4"/><path data-name="Trazado 5978" d="M246.651 42.463a.831.831 0 0 1-.832-.832V36.7a.832.832 0 0 1 1.665 0v4.928a.832.832 0 0 1-.832.832Z" fill="#4744c4"/><path data-name="Trazado 5979" d="M230.531 42.463a.832.832 0 0 1-.832-.832V36.7a.832.832 0 0 1 1.665 0v4.928a.831.831 0 0 1-.832.832Z" fill="#4744c4"/><path data-name="Trazado 5980" d="M256.548 30.28h10.087a1.257 1.257 0 0 0 1.254-1.257v-3.165a1.257 1.257 0 0 0-1.254-1.257h-10.087a1.257 1.257 0 0 0-1.254 1.257v3.165a1.257 1.257 0 0 0 1.254 1.257m.41-4.013h9.266v2.349h-9.267Z" fill="#37f2b9"/><path data-name="Trazado 5981" d="M256.126 34.108h10.931a.833.833 0 0 0 0-1.665h-10.931a.833.833 0 1 0 0 1.665" fill="#37f2b9"/><path data-name="Trazado 5982" d="M256.126 38.128h10.931a.832.832 0 0 0 0-1.665h-10.931a.832.832 0 1 0 0 1.665" fill="#37f2b9"/><path data-name="Trazado 5983" d="M268.686 13.577a7.158 7.158 0 0 0-7.115-8.325h-6.488a7.179 7.179 0 0 0-7.123 8.3h-2.014v-1.775c0-3.414-1.408-5.238-2.588-6.168a7.8 7.8 0 0 0-6.624-1.21c-3.489.847-5.49 3.536-5.49 7.378v1.774h-6.792a3.824 3.824 0 0 0-3.818 3.818v26.292a3.821 3.821 0 0 0 3.818 3.818h13.841l-2.617 5.8h-1.642a.833.833 0 1 0 0 1.665h24.8a.833.833 0 0 0 0-1.665H257.2l-2.619-5.8h13.841a3.825 3.825 0 0 0 3.821-3.818V17.369a3.813 3.813 0 0 0-3.559-3.792m-13.6-6.66h6.487a5.546 5.546 0 0 1 0 11.092h-2.739a.831.831 0 0 0-.613.27l-2.247 2.449c-.456.359-.775.4-.871.337a.546.546 0 0 1-.087-.545l.441-1.45a.833.833 0 0 0-.555-1.039.846.846 0 0 0-.186-.034 5.546 5.546 0 0 1 .369-11.079Zm-6.655 8.3a7.239 7.239 0 0 0 5.152 4.3l-.168.554a2.131 2.131 0 0 0 .792 2.4 1.825 1.825 0 0 0 .995.285 3.028 3.028 0 0 0 1.871-.771.95.95 0 0 0 .086-.082l2.042-2.225h2.372a7.22 7.22 0 0 0 6.661-4.463h.192a2.158 2.158 0 0 1 2.156 2.153V40.8h-18.051v-6.339a11.134 11.134 0 0 0-9.318-10.913v-2.087a7.339 7.339 0 0 0 2.735-5.714v-.527Zm-12.88 13.424c-.013.012-.029.02-.041.032l-.282.218-2.4-3.348a9.221 9.221 0 0 1 1.737-.387l2.688 2.17Zm.945 3.809-1.411 8.35h-8.762v-6.339a9.449 9.449 0 0 1 4.94-8.243l3.117 4.343a.828.828 0 0 0 .556.338.808.808 0 0 0 .12.009.831.831 0 0 0 .509-.174l.183-.141Zm2.1-6.181-2.953-2.384v-1.414a7.3 7.3 0 0 0 5.907 0v1.414Zm0 2.123 1.463 1.132-.806 2h-1.336l-.8-1.988Zm-.533 4.8h1.049l1.29 7.608h-3.625Zm1.871-5.866 2.688-2.17a9.22 9.22 0 0 1 1.737.387l-2.4 3.348Zm1.49 3.257.2.153a.831.831 0 0 0 .509.174.808.808 0 0 0 .12-.009.828.828 0 0 0 .556-.338l3.117-4.344a9.449 9.449 0 0 1 4.938 8.242V40.8h-8.782l-1.41-8.349Zm-4.3-24.567a6.139 6.139 0 0 1 5.206.9 5.763 5.763 0 0 1 1.952 4.725h-2.73c-3.918 0-4.322-.766-5.072-2.188a.832.832 0 0 0-1.542.181c-.508 1.971-.555 2.028-2.03 2.017.041-2.985 1.535-4.984 4.217-5.635Zm-4.217 7.3h.127c1.494 0 2.314-.218 2.947-1.584.906 1 2.327 1.574 5.566 1.574h2.731v2.436a5.688 5.688 0 0 1-11.376 0Zm-8.453 1.9h6.788v.527a7.339 7.339 0 0 0 2.735 5.714v2.091a11.134 11.134 0 0 0-9.321 10.913V40.8H222.3V17.369a2.154 2.154 0 0 1 2.153-2.153Zm30.922 38.066H237.5l2.617-5.8h12.638Zm13.048-7.469h-43.97a2.155 2.155 0 0 1-2.153-2.152v-1.2h48.281v1.2a2.157 2.157 0 0 1-2.156 2.152" fill="#4744c4"/><path data-name="Trazado 5984" d="m246.1 43.338-.04.02a.815.815 0 0 0-.355 1.095l.007.013a.835.835 0 0 0 .752.45.854.854 0 0 0 .387-.092.832.832 0 1 0-.75-1.486Z" fill="#4744c4"/><path data-name="Trazado 5985" d="M254.018 11.729h8.617a.833.833 0 1 0 0-1.665h-8.617a.833.833 0 0 0 0 1.665" fill="#4744c4"/><path data-name="Trazado 5986" d="M254.018 15.131h2.293a.833.833 0 1 0 0-1.665h-2.293a.833.833 0 0 0 0 1.665" fill="#4744c4"/><path data-name="Trazado 5987" d="M262.635 13.466h-2.293a.833.833 0 1 0 0 1.665h2.293a.833.833 0 0 0 0-1.665" fill="#4744c4"/><path data-name="Trazado 5988" d="M7.9 271.805H0v-4.327h7.9v-8.192h4.536v8.192h7.9v4.327h-7.9v8.233H7.9Z" fill="#37f2b9"/><path data-name="Trazado 5989" d="M30.493 261.891h-6.974v-4.158c5.587 0 7.352-1.429 7.352-4.411h5.167v29.4h-5.545Z"/><path data-name="Trazado 5990" d="M49.813 261.891h-6.974v-4.158c5.587 0 7.352-1.429 7.352-4.411h5.167v29.4h-5.545Z"/><path data-name="Trazado 5991" d="M74.509 258.573v-.294H61.4v-4.957h19.117v4.747l-10.166 24.658H64.3Z"/><path data-name="Trazado 5992" d="m96.433 272.141-.168-.168a4.4 4.4 0 0 1-1.764.336 9.178 9.178 0 0 1-9.2-9.535 10.318 10.318 0 0 1 20.626 0 11.82 11.82 0 0 1-1.513 5.629l-7.981 14.324h-6.427Zm3.907-9.367a4.705 4.705 0 1 0-9.41 0 4.706 4.706 0 1 0 9.41 0"/><path data-name="Trazado 5993" d="M111.425 278.064c0-3.906 1.806-6.385 5.713-8.779l5.419-3.361a4.746 4.746 0 0 0 2.6-4.159c0-2.142-1.554-3.864-4.327-3.864a4.11 4.11 0 0 0-4.284 4.116h-5.167a9.1 9.1 0 0 1 9.535-9.241c6.092 0 9.83 4.032 9.83 8.779 0 3.823-1.848 6.385-5.335 8.486l-5.629 3.4c-2.142 1.344-2.814 2.435-2.814 3.948v.42h13.862v4.915h-19.403Z"/><path data-name="Trazado 5994" d="M234.653 276.8h-12.812v-4.579l7.981-18.9h5.756l-7.647 18.315v.252h6.722v-6.258h5.5v6.259h3.277v4.911h-3.277v5.923h-5.5Z"/><path data-name="Trazado 5995" d="M248.427 274.409a8.064 8.064 0 0 1 4.495-7.267v-.294a7.238 7.238 0 0 1-3.361-6.175c0-4.747 4.033-7.9 9.284-7.9 5.377 0 9.368 3.15 9.368 7.9a7.27 7.27 0 0 1-3.4 6.175v.294a8.065 8.065 0 0 1 4.495 7.267c0 5.335-4.243 8.864-10.46 8.864-6.175 0-10.418-3.529-10.418-8.864m15.249-.335c0-2.689-2.1-4.37-4.831-4.37-2.689 0-4.831 1.681-4.831 4.37 0 2.31 1.806 4.242 4.831 4.242 3.066 0 4.831-1.932 4.831-4.242m-.883-12.771a3.682 3.682 0 0 0-3.948-3.654 3.645 3.645 0 0 0-3.907 3.654 3.935 3.935 0 0 0 7.855 0"/><path data-name="Trazado 5996" d="M32.309 298.467h3.006l4.5 12.6h-2.538l-.881-2.484h-5.24l-.865 2.484h-2.467Zm3.4 7.977-1.854-5.312h-.144l-1.856 5.312Z" fill="#0e1118"/><path data-name="Trazado 5997" d="M41.254 308.406v-10.839h2.34v10.623c0 .54.27.828.756.828h.379v2.053h-.883a2.4 2.4 0 0 1-2.592-2.665" fill="#0e1118"/><path data-name="Trazado 5998" d="M46.779 307.793V301.6h2.34v5.6a1.808 1.808 0 0 0 1.837 1.945 1.977 1.977 0 0 0 1.944-2.107V301.6h2.342v9.47h-2.234v-1.152h-.143a2.956 2.956 0 0 1-2.647 1.387 3.3 3.3 0 0 1-3.439-3.512" fill="#0e1118"/><path data-name="Trazado 5999" d="M57.723 301.6h2.232v1.152h.127a2.878 2.878 0 0 1 2.575-1.386 3.138 3.138 0 0 1 2.808 1.44h.145a3.116 3.116 0 0 1 2.808-1.44 3.27 3.27 0 0 1 3.457 3.421v6.284h-2.339V305.6c0-1.3-.6-2.034-1.711-2.034a1.872 1.872 0 0 0-1.837 2.088v5.42h-2.341v-5.617a1.709 1.709 0 0 0-1.764-1.891 1.894 1.894 0 0 0-1.819 2.07v5.438h-2.341Z" fill="#0e1118"/><path data-name="Trazado 6000" d="M74.265 301.6H76.5v1.152h.126a2.966 2.966 0 0 1 2.665-1.386 3.284 3.284 0 0 1 3.421 3.511v6.194h-2.34v-5.582a1.779 1.779 0 0 0-1.819-1.926 1.961 1.961 0 0 0-1.944 2.088v5.42h-2.344Z" fill="#0e1118"/><path data-name="Trazado 6001" d="M84.506 306.335a5.043 5.043 0 1 1 5.042 4.97 4.844 4.844 0 0 1-5.042-4.97m7.707 0a2.671 2.671 0 1 0-2.665 2.845 2.672 2.672 0 0 0 2.665-2.845" fill="#0e1118"/><path data-name="Trazado 6002" d="M96.116 308.226h2.161c.09.811.738 1.242 1.8 1.242 1.08 0 1.691-.468 1.691-1.134 0-2.017-5.437-.108-5.437-4.069 0-1.6 1.387-2.9 3.727-2.9 2.053 0 3.583 1.045 3.728 2.935h-2.07c-.11-.684-.649-1.135-1.676-1.135-.953 0-1.567.414-1.567 1.027 0 1.8 5.565-.09 5.565 4.014 0 1.8-1.459 3.1-4 3.1-2.557 0-3.834-1.207-3.925-3.079" fill="#0e1118"/><path data-name="Trazado 6003" d="M219.364 298.467h4.772a3.983 3.983 0 0 1 4.214 4.07 4.088 4.088 0 0 1-4.214 4.123h-2.376v4.411h-2.4Zm4.52 6.14a1.943 1.943 0 0 0 2.017-2.07 1.909 1.909 0 0 0-2.017-2.017h-2.124v4.087Z" fill="#0e1118"/><path data-name="Trazado 6004" d="M229.174 306.389c0-2.971 1.8-5.023 4.392-5.023a3.424 3.424 0 0 1 2.881 1.459h.127V301.6h2.34v9.471h-2.305v-1.206h-.125a3.335 3.335 0 0 1-2.845 1.44c-2.647 0-4.465-1.98-4.465-4.916m7.454-.036a2.555 2.555 0 1 0-2.538 2.845 2.6 2.6 0 0 0 2.538-2.845" fill="#0e1118"/><path data-name="Trazado 6005" d="M241.306 301.6h2.34v9.471h-2.34Zm1.1-4.052h2.341l-1.657 2.629h-1.64Z" fill="#0e1118"/><path data-name="Trazado 6006" d="M245.5 308.226h2.16c.09.811.738 1.242 1.8 1.242 1.08 0 1.692-.468 1.692-1.134 0-2.017-5.437-.108-5.437-4.069 0-1.6 1.386-2.9 3.727-2.9 2.053 0 3.582 1.045 3.727 2.935H251.1c-.109-.684-.649-1.135-1.675-1.135-.954 0-1.567.414-1.567 1.027 0 1.8 5.564-.09 5.564 4.014 0 1.8-1.458 3.1-4 3.1-2.557 0-3.835-1.207-3.925-3.079" fill="#0e1118"/><path data-name="Trazado 6007" d="M254.987 306.389a4.693 4.693 0 0 1 4.771-5.023c3.043 0 4.7 2.251 4.7 4.916v.738h-7.2a2.654 2.654 0 0 0 4.934 1.1h2.18c-.469 1.927-2.162 3.187-4.61 3.187a4.683 4.683 0 0 1-4.771-4.916m7.238-1.026a2.309 2.309 0 0 0-2.467-2.124 2.434 2.434 0 0 0-2.467 2.124Z" fill="#0e1118"/><path data-name="Trazado 6008" d="M265.982 308.226h2.162c.09.811.737 1.242 1.8 1.242 1.081 0 1.692-.468 1.692-1.134 0-2.017-5.437-.108-5.437-4.069 0-1.6 1.387-2.9 3.726-2.9 2.053 0 3.584 1.045 3.728 2.935h-2.07c-.109-.684-.649-1.135-1.675-1.135-.954 0-1.567.414-1.567 1.027 0 1.8 5.565-.09 5.565 4.014 0 1.8-1.459 3.1-4 3.1-2.557 0-3.835-1.207-3.926-3.079" fill="#0e1118"/><path data-name="Trazado 6009" d="M66.562 221.829a4.049 4.049 0 1 1 4.049-4.049 4.049 4.049 0 0 1-4.049 4.049m0-6.478a2.429 2.429 0 1 0 2.429 2.429 2.428 2.428 0 0 0-2.429-2.429Z" fill="#37f2b9"/><path data-name="Trazado 6010" d="M87.456 208.38a.81.81 0 0 0-.648-.318H80.7a8.8 8.8 0 0 0-6.845-3.239h-2.434v-3.086a8.928 8.928 0 0 0 4.049-7.442v-1.3a2.42 2.42 0 0 0 1.62-2.289v-3.738l.81-.257v8.979l-2.314 3.856a.81.81 0 0 0 .694 1.227h4.859a.809.809 0 0 0 .694-1.227l-2.314-3.856v-9.49l2.673-.848a.81.81 0 0 0 0-1.539l-15.345-4.965a.806.806 0 0 0-.5 0L50.928 183.8a.81.81 0 0 0 0 1.539l5.1 1.612v3.749a2.419 2.419 0 0 0 1.624 2.3v1.3a8.929 8.929 0 0 0 4.048 7.441v3.085h-2.426a8.851 8.851 0 0 0-6.3 2.61c-.195.2-.365.415-.541.63h-6.116a.809.809 0 0 0-.81.808.819.819 0 0 0 .029.215L50.4 226.9a.811.811 0 0 0 .781.6h30.768a.81.81 0 0 0 .782-.6l4.859-17.816a.81.81 0 0 0-.134-.709m-7.747-9.226h-2l1-1.666Zm-5.859 7.288a7.2 7.2 0 0 1 4.574 1.62h-9.555l2.025-1.62Zm-7.288 1.393-3.239-2.591v-2.661a8.767 8.767 0 0 0 6.478 0v2.661Zm.038-27.372 12.7 4.106-12.7 4.036-12.758-4.03Zm-8.39 11.013a.811.811 0 0 1-.552-.769v-3.239l8.7 2.748a.806.806 0 0 0 .486 0l8.626-2.734v3.223a.811.811 0 0 1-.556.77l-.923.308a23.554 23.554 0 0 1-14.858 0Zm1.067 2.818v-.785a24.693 24.693 0 0 0 14.576 0v.785a7.315 7.315 0 0 1-3.647 6.311 7.411 7.411 0 0 1-7.288 0 7.319 7.319 0 0 1-3.644-6.31Zm0 12.147h2.955l2.025 1.62H54.7a7.234 7.234 0 0 1 4.574-1.619Zm22.053 19.442H51.795l-4.418-16.2h38.37Z" fill="#4542cd"/><path data-name="Trazado 6011" d="M245.421 230.835a24.346 24.346 0 1 1 24.343-24.349 24.347 24.347 0 0 1-24.343 24.345m0-47.106a22.765 22.765 0 1 0 22.762 22.775 22.766 22.766 0 0 0-22.762-22.762Z" fill="#4744c4"/><path data-name="Trazado 6012" d="M226.988 220.986a14.346 14.346 0 0 1-4.392-.591 5.673 5.673 0 0 1-3.54-2.767c-1.182-2.378.29-6.372 2.273-9.274a.79.79 0 0 1 1.305.892c-1.976 2.888-2.9 6.189-2.162 7.679a4.165 4.165 0 0 0 2.614 1.968c5.421 1.765 16.478-.918 27.514-6.673 15.441-8.051 23.555-17.994 21.454-22.229-.835-1.678-3.478-2.582-7.267-2.491a.791.791 0 0 1-.08-1.58h.041c4.489-.109 7.588 1.084 8.721 3.368 2.831 5.7-6.893 16.384-22.139 24.335-8.977 4.681-18.06 7.364-24.342 7.364" fill="#37f2b9"/><path data-name="Trazado 6013" d="M267.214 190.494a.791.791 0 0 1-.613-.291l-2.446-3a.79.79 0 0 1 .111-1.112l.032-.025 3.184-2.347a.791.791 0 1 1 .938 1.281l-2.513 1.854 1.92 2.352a.79.79 0 0 1-.612 1.291Z" fill="#37f2b9"/><path data-name="Trazado 6014" d="M244.544 222.536a4 4 0 0 1-1.55-.306 7.665 7.665 0 0 1-3.527-3.865l-.047-.093c-.424-.844-.864-1.718-1.563-1.97a3.294 3.294 0 0 0-.756-.14 6.286 6.286 0 0 1-.772-.119c-1.378-.316-2.561-1.393-3.608-3.3l-.293-.553a7.522 7.522 0 0 0-1.981-2.729 2.374 2.374 0 0 0-1.862-.37 1.121 1.121 0 0 0-.786.576c-.316.638.028 1.452.422 2.4a4.843 4.843 0 0 1 .518 3.5c-.622 1.769-2.781 2.376-4.581 2.052a.852.852 0 0 1-.459-.237.79.79 0 0 1 .783-1.307c1.115.179 2.445-.117 2.767-1.033a3.652 3.652 0 0 0-.483-2.367c-.474-1.134-1.013-2.42-.382-3.7a2.7 2.7 0 0 1 1.818-1.412 3.937 3.937 0 0 1 3.167.621 8.789 8.789 0 0 1 2.46 3.268l.284.532c.814 1.482 1.66 2.306 2.579 2.515a5.069 5.069 0 0 0 .587.089 4.657 4.657 0 0 1 1.126.225 4.921 4.921 0 0 1 2.433 2.744l.046.092a6.283 6.283 0 0 0 2.733 3.122 2.543 2.543 0 0 0 2.044-.071 1.457 1.457 0 0 0 .806-.926 3.789 3.789 0 0 0-.818-2.529c-.158-.278-.32-.553-.462-.832a8.73 8.73 0 0 1 2.151-10.439q.207-.166.419-.328a4.245 4.245 0 0 0 1.022-.966 4.158 4.158 0 0 0 .4-2 10.47 10.47 0 0 1 .133-1.414 9.869 9.869 0 0 1 .66-1.988 7.278 7.278 0 0 0 .6-1.888 1.988 1.988 0 0 0-.644-1.62.589.589 0 0 0-.6-.149 2.176 2.176 0 0 0-.828.813 4.025 4.025 0 0 1-1.281 1.247 3.971 3.971 0 0 1-1.358.378q-2.947.4-5.893.822c-2.423.339-3.989-.164-4.651-1.5a4.212 4.212 0 0 1-.271-2.167c.057-.79.206-2.887 1.854-3.509 1.334-.492 2.569.364 3.469.988l.174.12c1.073.744 3.027 1.337 3.823.255.068-.1.13-.209.194-.323a3.344 3.344 0 0 1 .571-.8 3.482 3.482 0 0 1 2.121-.781c.115-.013.228-.027.341-.043a4.523 4.523 0 0 0 3.382-1.889c.749-1.213.79-3.043.1-5.156a.79.79 0 1 1 1.467-.586.743.743 0 0 1 .033.1c.585 1.812 1.014 4.4-.266 6.473a6.018 6.018 0 0 1-4.494 2.622c-.13.019-.257.034-.384.049a2.256 2.256 0 0 0-1.213.35 2.117 2.117 0 0 0-.291.441 5.238 5.238 0 0 1-.291.474c-1.356 1.845-4.1 1.436-6 .119l-.176-.122c-.717-.5-1.457-1.01-2.017-.806-.465.176-.738.875-.828 2.134a2.95 2.95 0 0 0 .112 1.361c.4.812 1.862.79 3.012.632 1.96-.277 3.93-.553 5.891-.823a2.606 2.606 0 0 0 .833-.206 2.784 2.784 0 0 0 .763-.8 3.392 3.392 0 0 1 1.586-1.37 2.159 2.159 0 0 1 2.1.415 3.564 3.564 0 0 1 1.221 3.033 8.571 8.571 0 0 1-.706 2.31 8.57 8.57 0 0 0-.567 1.671 9.1 9.1 0 0 0-.107 1.2 5.445 5.445 0 0 1-.651 2.778 5.572 5.572 0 0 1-1.392 1.369c-.128.1-.255.2-.379.3a7.1 7.1 0 0 0-1.751 8.493c.132.258.279.513.426.769a5 5 0 0 1 .983 3.7 3 3 0 0 1-1.636 1.962 4.1 4.1 0 0 1-1.816.418Z" fill="#4744c4"/><path data-name="Trazado 6015" d="M263.47 222.4a.79.79 0 0 1-.425-.125 3.629 3.629 0 0 1-1.507-4.6 5.172 5.172 0 0 1 1.035-1.288c.164-.163.328-.324.474-.5.237-.283.262-.452.255-.482a.8.8 0 0 0-.79 0 3.557 3.557 0 0 1-4.494-1.624 3.154 3.154 0 0 1 .082-2.716 2.906 2.906 0 0 1 1.97-1.6 4.949 4.949 0 0 1 1.209-.079 2.428 2.428 0 0 0 1.009-.1 1.545 1.545 0 0 0 .661-1.315 2.237 2.237 0 0 0-.72-1.982 8.375 8.375 0 0 0-1.484-1.028c-.294-.175-.594-.353-.888-.547-.158-.1-.293-.187-.414-.259-1.017-.615-1.3-1.077-1.091-2.774a6.544 6.544 0 0 1 1.2-2.846c.1-.158.208-.326.316-.5 1.513-2.473 1.541-4.355 1.581-6.956 0-.351.01-.711.02-1.083a.78.78 0 0 1 .787-.771h.023a.79.79 0 0 1 .77.809c-.009.366-.014.721-.019 1.066-.04 2.639-.074 4.919-1.812 7.76-.109.179-.22.353-.328.523a5.062 5.062 0 0 0-.96 2.187 2.425 2.425 0 0 0-.028.982 2.32 2.32 0 0 0 .368.247c.138.083.293.178.469.294.27.178.549.343.823.506a9.627 9.627 0 0 1 1.758 1.232 3.835 3.835 0 0 1 1.216 3.226 2.98 2.98 0 0 1-1.575 2.658 3.71 3.71 0 0 1-1.7.249 3.767 3.767 0 0 0-.842.041 1.343 1.343 0 0 0-.886.76 1.586 1.586 0 0 0-.062 1.344 1.976 1.976 0 0 0 2.442.843 2.241 2.241 0 0 1 2.683.524 1.866 1.866 0 0 1-.32 2.435 9.169 9.169 0 0 1-.569.6 3.88 3.88 0 0 0-.746.894 2.106 2.106 0 0 0 .956 2.539.79.79 0 0 1-.427 1.456Z" fill="#4744c4"/><path data-name="Trazado 6016" d="M253.024 229.57a.79.79 0 0 1-.778-.654 3.3 3.3 0 0 0-.425-1.138 5.134 5.134 0 0 0-2.227-1.908 3.454 3.454 0 0 0-1.791-.428 5.394 5.394 0 0 0-2.39 1.2c-1.107.78-2.353 1.668-3.891 1.362a5.132 5.132 0 0 1-1.314-.507l-3.042-1.5a1.463 1.463 0 0 0-1.259-.1 2.284 2.284 0 0 0-1.138 1.445.79.79 0 1 1-1.5-.481 3.807 3.807 0 0 1 2.027-2.42 3.019 3.019 0 0 1 2.578.142l3.052 1.51a3.805 3.805 0 0 0 .913.368c.864.174 1.7-.42 2.667-1.107a6.725 6.725 0 0 1 3.157-1.479 4.951 4.951 0 0 1 2.63.582 6.681 6.681 0 0 1 2.884 2.505 4.869 4.869 0 0 1 .632 1.684.791.791 0 0 1-.641.915.842.842 0 0 1-.142.009" fill="#4744c4"/></g></g></svg>