<svg width="994" height="603" fill="none" xmlns="http://www.w3.org/2000/svg"><rect x="1.813" y="1.523" width="990.373" height="599.891" rx="14" fill="#51BEF1" fill-opacity=".2" stroke="#51BEF1" stroke-width="2"/><path d="M512.8 399.775c.686.159 1.316.274 1.928.452 6.029 1.757 9.801 7.288 9.245 13.536-.487 5.474-4.987 10.315-10.422 11.219-4.129.686-7.765-.344-10.926-3.088-.174-.151-.477-.218-.72-.218-8.045-.011-16.089-.007-24.134-.01-2.198-.001-4.004-1.189-4.685-3.154a6.045 6.045 0 0 1-.306-1.938c-.017-13.699-.017-27.398-.009-41.097.002-3.06 2.055-5.076 5.121-5.077 6.725-.001 13.45.002 20.174-.002 2.391-.001 4.413.848 6.073 2.569 2.068 2.144 4.128 4.295 6.215 6.42 1.649 1.678 2.454 3.673 2.449 6.02-.011 4.549-.003 9.097-.003 13.646v.722Zm-3.215.023v-.609c0-4.548-.017-9.095.008-13.643.009-1.59-.523-2.901-1.641-4.031a442.718 442.718 0 0 1-5.99-6.19c-1.11-1.167-2.432-1.725-4.046-1.72-6.652.018-13.304.007-19.956.008-1.399 0-1.977.577-1.977 1.98v40.875c0 1.405.579 1.986 1.973 1.986l21.347.001h.592c-4.212-8.055 1.095-17.487 9.69-18.657Zm11.233 12.649c-.014-5.27-4.338-9.524-9.665-9.509-5.243.015-9.515 4.324-9.481 9.564.035 5.265 4.305 9.501 9.562 9.484 5.29-.017 9.598-4.305 9.584-9.539Z" fill="#fff"/><path d="M485.515 385.924c1.371 0 2.741-.004 4.112.001 1.035.004 1.755.665 1.757 1.601.003.935-.718 1.607-1.749 1.609-2.76.004-5.52.005-8.279-.001-1.023-.002-1.745-.691-1.731-1.628.014-.914.726-1.576 1.723-1.581 1.389-.006 2.778-.001 4.167-.001ZM485.466 397.691c-1.353 0-2.706.003-4.059-.001-1.065-.004-1.797-.679-1.782-1.632.016-.932.736-1.578 1.779-1.579 2.742-.003 5.484-.004 8.226 0 1.033.002 1.754.668 1.754 1.604.001.935-.72 1.602-1.752 1.606-1.388.006-2.777.001-4.166.002ZM485.493 406.253c-1.371 0-2.742.004-4.113-.001-1.032-.004-1.754-.67-1.755-1.604-.001-.934.722-1.604 1.752-1.606 2.76-.004 5.52-.004 8.279.001 1.022.002 1.744.693 1.728 1.629-.015.917-.725 1.575-1.725 1.58-1.389.006-2.778.001-4.166.001ZM499.17 389.128c-.302 0-.606.017-.906-.003a1.602 1.602 0 0 1-1.514-1.622 1.589 1.589 0 0 1 1.505-1.573c.638-.031 1.28-.033 1.918.001.844.046 1.484.755 1.487 1.59a1.598 1.598 0 0 1-1.478 1.601c-.335.026-.675.005-1.012.005v.001ZM499.216 394.482c.302 0 .605-.014.906.002a1.602 1.602 0 0 1 1.538 1.599 1.59 1.59 0 0 1-1.533 1.601 20.35 20.35 0 0 1-1.865-.002 1.59 1.59 0 0 1-1.512-1.621 1.602 1.602 0 0 1 1.506-1.574c.319-.021.64-.004.96-.005ZM509.931 412.103l2.262-2.705c.149-.178.29-.362.447-.533.628-.684 1.58-.768 2.253-.203.669.56.779 1.541.203 2.253-1.032 1.274-2.092 2.525-3.14 3.785-.365.438-.72.885-1.099 1.31-.856.961-2.141.81-2.734-.329-.566-1.09-1.113-2.19-1.65-3.294-.421-.866-.128-1.794.669-2.203.825-.423 1.735-.103 2.203.779.189.355.368.716.586 1.14ZM168.091 379.422c2.448.772 4.57 2.033 6.337 3.852 2.806 2.888 4.258 6.355 4.329 10.382.032 1.779-.03 3.559.021 5.336.164 5.7 2.159 10.678 5.972 14.922.173.193.359.376.511.583.334.454.393.952.156 1.465-.236.512-.654.788-1.211.846-.16.017-.323.007-.485.007l-12.273.001h-.56c-1.047 4.155-4.52 5.951-7.462 5.816-3.097-.142-6.012-2.253-6.843-5.816h-.548c-4.123 0-8.246 0-12.37-.002-.209 0-.425.007-.626-.039-1.14-.26-1.519-1.574-.689-2.473 1.278-1.384 2.413-2.868 3.342-4.507 2.012-3.55 2.979-7.372 2.996-11.446.009-2.02-.11-4.059.113-6.057.643-5.734 3.711-9.79 8.912-12.247.522-.246 1.075-.425 1.645-.647 0-.655-.004-1.316 0-1.977.017-2.503 1.919-4.453 4.348-4.46 2.455-.008 4.367 1.941 4.384 4.471.005.646.001 1.292.001 1.99Zm12.776 34.47c-.009-.074-.004-.11-.019-.132-.098-.148-.202-.293-.303-.438-2.722-3.906-4.311-8.225-4.599-12.981-.125-2.062-.054-4.135-.102-6.203-.018-.805-.063-1.617-.19-2.411-1.055-6.633-7.775-11.206-14.355-9.788-5.748 1.239-9.686 6.106-9.701 11.993-.005 1.584.014 3.169-.007 4.752-.071 5.422-1.659 10.356-4.793 14.787-.087.123-.163.253-.271.421h34.34Zm-13.09 2.952h-8.105c.432 1.611 2.209 2.872 4.028 2.88 1.847.008 3.628-1.239 4.077-2.88Zm-2.598-38.034v-.433c-.003-.403.022-.808-.015-1.207-.063-.681-.625-1.22-1.298-1.292-.668-.07-1.366.341-1.5 1.021-.123.627-.086 1.286-.119 1.911h2.932ZM185.555 393.259c0 .178.003.356-.001.534-.018.83-.625 1.466-1.418 1.487-.812.021-1.415-.613-1.501-1.462-.151-1.507-.236-3.034-.562-4.506-.737-3.322-2.395-6.177-4.742-8.638-.248-.26-.483-.582-.59-.918-.203-.641.117-1.294.688-1.606.581-.317 1.279-.215 1.778.287a21.707 21.707 0 0 1 3.219 4.112c1.981 3.295 3.005 6.871 3.129 10.71ZM141.895 393.121c.223-5.605 2.307-10.543 6.319-14.656.618-.633 1.54-.66 2.123-.083.584.577.583 1.477-.053 2.126-2.105 2.149-3.644 4.638-4.57 7.501a19.087 19.087 0 0 0-.91 5.766c-.005.621-.281 1.091-.845 1.36-.549.262-1.11.212-1.525-.218-.259-.269-.393-.676-.527-1.042-.068-.185-.012-.415-.012-.754ZM805.994 92.146h4.89c.491-2.847.874-3.423 3.417-5.153-1.21-2.273-.962-4.293.692-5.657a4.109 4.109 0 0 1 5.219-.03c1.684 1.354 1.94 3.35.72 5.713 2.111 1.047 3.244 2.76 3.401 5.129h4.915v-.563l.001-13.783c0-.172-.01-.345.011-.514.069-.532.493-.9 1.02-.899.526 0 .948.37 1.016.902.022.17.012.343.012.514v14.33h4.915c.159-2.358 1.287-4.074 3.405-5.112-1.227-2.349-.969-4.362.717-5.716a4.106 4.106 0 0 1 5.218.028c1.653 1.366 1.898 3.367.682 5.682 2.108 1.049 3.245 2.758 3.402 5.13h4.886c.01-.179.028-.343.028-.506.002-3.413.003-6.826.001-10.238-.002-2.053-1.28-3.324-3.348-3.325-5.265-.002-10.53 0-15.794-.002-.24 0-.483-.001-.717-.043a.985.985 0 0 1-.828-1.02.991.991 0 0 1 .881-.975c.186-.025.376-.02.565-.02 5.282-.002 10.564-.004 15.846-.001 3.283.002 5.454 2.167 5.455 5.44.001 9.45.003 18.899-.002 28.348-.001 2.609-1.624 4.665-4.109 5.19-.498.105-1.022.121-1.534.122-4.767.009-9.535.005-14.302.005h-.701v3.599c.374 0 .76.015 1.144-.003 3.278-.156 5.666 2.464 5.511 5.493-.012.223.007.447-.005.669-.032.585-.371.949-.953 1.024-.169.022-.341.022-.513.022-7.254.001-14.508.001-21.762-.001-.205 0-.412-.007-.614-.038-.46-.072-.772-.363-.824-.805-.391-3.301 1.351-5.692 4.201-6.277.481-.099.99-.065 1.487-.082.305-.011.61-.002.944-.002v-3.599h-.658c-4.819 0-9.638-.009-14.456.005-1.704.005-3.168-.51-4.299-1.82-.803-.929-1.234-2.019-1.235-3.245-.008-9.673-.018-19.345.004-29.017.006-2.682 2.143-4.847 4.827-5.011.206-.013.412-.017.617-.017h26.161c.939 0 1.43.352 1.43 1.023 0 .67-.501 1.037-1.429 1.037h-26.11c-2.209.001-3.447 1.234-3.447 3.432l-.001 10.032v.605Zm48.552 2.13H831.34v14.011h23.206V94.275Zm-25.324 14.02V94.272h-23.198v14.015h4.888c.164-2.377 1.301-4.067 3.396-5.108-1.185-2.408-.974-4.266.634-5.644a4.097 4.097 0 0 1 5.092-.207 4.031 4.031 0 0 1 1.536 2.188c.386 1.321.092 2.528-.66 3.649 2.141 1.072 3.262 2.774 3.422 5.131h4.89Zm25.256 2.135h-48.486c.144.381.226.717.389 1.008.688 1.227 1.793 1.63 3.148 1.629 13.835-.011 27.671-.007 41.506-.009.308 0 .618-.013.923-.053 1.298-.168 2.411-1.298 2.52-2.575Zm-13.911 13.412c-.019-.192-.022-.36-.054-.522-.293-1.511-1.481-2.509-3.049-2.535-1.251-.02-2.502.009-3.753-.018-.628-.014-1.032-.421-1.062-.971-.03-.55.335-.958.957-1.07.081-.014.161-.034.246-.053v-3.514h-7.146v3.561h.583c.754.001-.367-.014.386.009.61.018 1.022.436 1.034.993.011.556-.381.974-.991 1.041-.186.02-.376.017-.564.017-1.954.001-2.032-.007-3.985.004-1.459.008-2.6.811-3.017 2.115-.095.294-.118.611-.179.943h20.594ZM822.2 92.148c.126-1.494-1.121-3.168-2.727-3.397a13.48 13.48 0 0 0-3.626-.012c-1.407.186-2.29 1.153-2.715 2.504-.088.28-.102.585-.155.905h9.223Zm25.333.001c.006-1.649-1.172-3.184-2.788-3.406a14.16 14.16 0 0 0-3.577-.009c-1.281.154-2.147 1.01-2.618 2.21-.144.368-.185.777-.282 1.205h9.265Zm-25.327 16.15c.095-1.527-1.14-3.135-2.743-3.402-.969-.162-1.979-.123-2.97-.113-1.554.016-2.919 1.083-3.349 2.575-.086.298-.109.615-.164.94h9.226Zm-4.589-21.743a2.066 2.066 0 0 0 2.06-2.052 2.065 2.065 0 0 0-2.052-2.06 2.061 2.061 0 0 0-2.059 2.053 2.063 2.063 0 0 0 2.051 2.06Zm25.322 0a2.065 2.065 0 0 0 2.051-2.06 2.063 2.063 0 0 0-2.059-2.051 2.061 2.061 0 0 0-2.051 2.06 2.064 2.064 0 0 0 2.059 2.051Zm-23.262 14.112a2.063 2.063 0 0 0-2.044-2.068 2.062 2.062 0 0 0-2.067 2.044 2.064 2.064 0 0 0 2.043 2.068 2.066 2.066 0 0 0 2.068-2.044Z" fill="#fff"/><path d="M842.915 100.248c-1.472 0-2.945.003-4.417-.001-.748-.002-1.215-.4-1.22-1.023-.004-.623.465-1.033 1.207-1.034 2.962-.003 5.924-.003 8.887 0 .747 0 1.215.4 1.219 1.022.004.622-.466 1.033-1.207 1.035-1.489.004-2.979.001-4.469.001ZM837.5 104.366c-.975 0-1.951.003-2.926-.001-.74-.004-1.21-.412-1.206-1.036.004-.622.471-1.02 1.219-1.022 1.968-.003 3.936-.003 5.904 0 .74.002 1.21.413 1.206 1.035-.004.622-.473 1.019-1.219 1.023-.992.004-1.985.001-2.978.001ZM848.433 102.306c.959 0 1.917-.004 2.875.002.733.004 1.206.424 1.193 1.047-.011.605-.471 1.007-1.18 1.009-1.951.005-3.902.005-5.853 0-.735-.002-1.204-.422-1.192-1.048.011-.605.47-1.004 1.18-1.008.992-.006 1.985-.002 2.977-.002ZM521.493 90.846c.198.358.307.591.448.802 1.61 2.407 3.222 4.814 4.844 7.214.286.422.52.839.203 1.328-.317.487-.784.449-1.292.357-1.124-.203-2.256-.363-3.427-.547-.376 1.099-.745 2.159-1.101 3.222-.16.478-.349.926-.933.972-.583.047-.84-.361-1.076-.809-.786-1.494-1.584-2.982-2.38-4.471-.089-.166-.193-.323-.368-.615v18.029h.643c1.851 0 3.703-.002 5.555 0 .889.002 1.204.306 1.208 1.195.008 1.529.015 3.059-.001 4.589-.031 3.098-2.25 5.331-5.347 5.333-12.298.011-24.596.01-36.895.001-3.128-.002-5.262-2.189-5.263-5.362-.004-12.5-.002-25-.002-37.499v-.904h-.831l-6.702.021c-.7.003-1.098-.359-1.102-1.061-.01-1.67-.03-3.342.01-5.012.069-2.946 2.34-5.125 5.295-5.123 10.587.01 21.175.019 31.762.043.488.001.79-.11 1.072-.55.76-1.189 2.767-2.041 4.691-.62 1.317-2.592 4.69-2.577 5.985.1 1.146-.817 2.372-.986 3.62-.294 1.258.698 1.741 1.833 1.626 3.299 1.39-.102 2.552.324 3.271 1.569.713 1.235.584 2.46-.207 3.622 2.76 1.599 2.203 4.92-.187 5.933.836 1.165 1.008 2.411.292 3.673-.71 1.248-1.849 1.732-3.411 1.565ZM476.912 74.43c1.103 1.319 1.309 2.76 1.281 4.287-.035 1.862-.009 3.726-.009 5.588 0 11.671-.003 23.343.006 35.014.001 1.001.054 2.004.127 3.003.14 1.917 1.686 3.352 3.494 3.28 1.907-.076 3.268-1.541 3.279-3.54.008-1.449.001-2.898.002-4.346.001-1.133.253-1.388 1.374-1.388h28.05v-20.44l-2.642-.118c-.052.093-.163.282-.266.475-1.297 2.429-2.596 4.856-3.886 7.289-.216.407-.498.694-.982.66-.484-.034-.728-.358-.883-.79-.361-1.002-.751-1.993-1.1-2.999-.117-.337-.284-.415-.622-.352-.948.178-1.906.306-2.853.489-.504.098-.971.142-1.3-.338-.335-.488-.096-.903.183-1.327 1.585-2.4 3.162-4.804 4.732-7.213.168-.258.27-.557.427-.889-3.132.326-4.872-2.901-3.129-5.279-2.676-1.28-2.661-4.655-.05-5.972-.607-.893-.825-1.864-.499-2.913.322-1.038 1.055-1.705 2.186-2.18h-26.92Zm8.798 51.182h.71l31.75-.001c.181 0 .363.002.543-.012 1.605-.123 3.016-1.198 3.151-2.669.142-1.55.032-3.124.032-4.721h-34.884c-.303 2.475.581 5.108-1.302 7.403Zm34.181-51.452c-.009-.804-.308-1.217-.87-1.44-.574-.228-1.072-.084-1.473.364-.2.224-.361.483-.533.73-.406.588-.95.494-1.514.315-.515-.164-.713-.522-.72-1.05-.014-1.176-.436-1.748-1.265-1.773-.827-.026-1.294.552-1.336 1.705-.02.539-.265.86-.773 1.014-.813.245-1.09.16-1.601-.527-.144-.194-.268-.406-.432-.58-.36-.382-.81-.529-1.317-.36-.481.16-.774.427-.876 1.01-.094.542.049.922.303 1.341.368.607.318.966-.156 1.459-.598.622-.901.648-1.747.15-.837-.494-1.628-.349-2.037.374-.421.743-.154 1.474.707 1.933.727.388.859.662.675 1.397-.2.797-.418.963-1.269.973-.161.001-.324-.006-.482.019-.667.103-1.132.639-1.131 1.288a1.27 1.27 0 0 0 1.079 1.265c.275.048.561.036.842.045.462.014.742.262.892.682.297.838.192 1.18-.527 1.707-.162.119-.339.219-.493.347-.533.442-.636 1.14-.264 1.74.351.567.999.778 1.629.513.202-.085.389-.207.581-.316.621-.352.974-.299 1.498.228.52.522.569.871.208 1.5-.09.158-.195.308-.272.47-.374.792-.005 1.62.831 1.88.604.187 1.035.015 1.445-.548.325-.448.587-.995 1.297-.907.951.118 1.242.438 1.262 1.407.022 1.118.982 1.854 1.866 1.413.596-.296.775-.84.742-1.464-.03-.58.114-1.03.727-1.228.815-.263 1.127-.178 1.618.477.133.177.244.372.388.538.393.455.876.62 1.461.416.593-.207.935-.646.868-1.279-.038-.36-.261-.698-.363-1.057-.091-.315-.246-.675-.17-.963.228-.863 1.141-1.177 1.922-.727.173.1.345.209.53.285.627.262 1.279.049 1.627-.519.371-.603.268-1.287-.27-1.738-.154-.128-.328-.232-.49-.351-.714-.53-.796-.82-.541-1.65.202-.657.688-.77 1.277-.741.16.008.324-.004.48-.034.64-.126 1.079-.651 1.077-1.272a1.304 1.304 0 0 0-1.139-1.283c-.218-.03-.442-.022-.663-.016-.569.014-.896-.268-1.049-.803-.256-.89-.101-1.227.763-1.602.798-.347 1.105-1.078.759-1.81-.341-.725-1.142-.973-1.891-.582-.124.064-.241.144-.363.215-.669.386-.997.34-1.546-.216-.52-.526-.553-.848-.192-1.503.18-.327.323-.675.411-.86Zm-43.582 7.625c0-1.278.003-2.5-.002-3.721a5.492 5.492 0 0 0-.049-.842c-.264-1.69-1.893-2.93-3.664-2.799-1.711.127-2.952 1.496-2.959 3.265V81.785h6.674ZM502.7 98.408c.83-.13 1.461-.236 2.094-.326.818-.117 1.078.039 1.371.809.254.665.502 1.333.797 2.115 1.211-2.271 2.358-4.412 3.486-6.562.075-.145.01-.363.01-.627-1.682 1.029-3.112.818-4.482-.399l-3.276 4.99Zm13.758-4.437-.145.104 3.653 6.869c.271-.772.499-1.43.733-2.086.252-.707.537-.888 1.265-.788.717.099 1.431.212 2.277.339l-3.315-4.934c-1.386 1.3-2.862 1.507-4.468.496Z" fill="#fff"/><path d="M496.496 110.401h12.009c.202 0 .404-.01.603.011.503.052.876.45.845.926-.033.502-.307.82-.817.892-.178.025-.362.014-.543.014l-24.2.001c-.141 0-.282.004-.423-.004-.602-.033-.966-.39-.958-.935.008-.517.365-.866.931-.901.18-.011.362-.004.543-.004h12.01ZM489.834 106.919c-1.892 0-3.784.002-5.676-.001-.749-.001-1.152-.334-1.146-.93.005-.578.392-.905 1.108-.905 3.844-.004 7.689.001 11.533-.005.498-.001.939.163.997.666.037.32-.147.72-.352.994-.117.155-.476.172-.727.174-1.912.013-3.824.007-5.737.007ZM489.639 101.604c-1.83 0-3.66.003-5.491-.002-.744-.002-1.146-.343-1.136-.941.01-.577.393-.9 1.113-.9 3.661-.004 7.322-.004 10.983 0 .714.001 1.101.331 1.107.908.006.594-.4.932-1.145.933-1.81.004-3.62.002-5.431.002ZM489.432 80.339c-1.789 0-3.579.008-5.368-.004-.836-.005-1.351-.739-.922-1.354.173-.25.582-.47.886-.473 3.639-.032 7.279-.025 10.918-.016.659.002 1.03.369 1.023.931-.007.551-.399.91-1.047.913-1.83.008-3.66.003-5.49.003ZM489.559 83.814c1.749 0 3.498-.003 5.247.001.768.002 1.159.315 1.163.91.003.594-.404.931-1.149.932-3.559.002-7.118.002-10.676 0-.738-.001-1.143-.35-1.131-.948.012-.578.391-.891 1.117-.893 1.81-.006 3.619-.002 5.429-.002ZM505.33 105.08c1.187 0 2.374-.005 3.561.002.647.004 1.054.358 1.066.897.012.56-.41.935-1.088.937-2.374.005-4.748.005-7.122-.001-.645-.001-1.055-.359-1.068-.898-.013-.557.412-.931 1.09-.935 1.187-.007 2.374-.002 3.561-.002ZM487.11 94.44c.986 0 1.971-.006 2.956.002.701.005 1.089.35 1.078.933-.011.557-.395.9-1.053.902-2.011.007-4.022.007-6.033 0-.655-.002-1.04-.35-1.047-.907-.007-.565.37-.92 1.023-.927 1.025-.01 2.051-.003 3.076-.003ZM495.632 89.12c.743 0 1.487-.007 2.231.003.682.01 1.104.382 1.092.937-.012.536-.425.902-1.067.906-1.527.008-3.055.01-4.583-.001-.635-.005-1.03-.387-1.02-.94.01-.536.377-.886.995-.9.783-.016 1.568-.003 2.352-.004ZM485.675 89.123c.562 0 1.125-.016 1.687.005.562.02.937.387.954.885.018.515-.382.938-.959.947-1.145.017-2.29.02-3.435-.002-.556-.01-.911-.402-.91-.92 0-.52.346-.886.915-.909.582-.023 1.165-.005 1.748-.006ZM496.546 96.282c-.382 0-.765.018-1.145-.005-.542-.032-.907-.43-.896-.938a.884.884 0 0 1 .883-.884 37.201 37.201 0 0 1 2.29 0c.543.016.92.433.905.93-.015.475-.383.846-.891.896-.04.003-.081.003-.121.003h-1.025v-.002ZM513.486 87.743a5.097 5.097 0 0 1-5.124-5.132c.007-2.847 2.314-5.141 5.147-5.119a5.144 5.144 0 0 1 5.109 5.111c.02 2.827-2.287 5.137-5.132 5.14Zm3.258-5.126a3.236 3.236 0 0 0-3.254-3.258 3.258 3.258 0 0 0-3.282 3.24 3.272 3.272 0 0 0 3.294 3.295 3.25 3.25 0 0 0 3.242-3.277ZM385.729 191.882c0-3.744 2.862-6.39 6.39-6.39 2.61 0 4.86 1.314 5.814 3.762h-2.466c-.666-1.332-1.854-1.962-3.348-1.962-2.484 0-4.284 1.764-4.284 4.59 0 2.826 1.8 4.608 4.284 4.608 1.494 0 2.682-.63 3.348-1.962h2.466c-.954 2.448-3.204 3.744-5.814 3.744-3.528 0-6.39-2.628-6.39-6.39Zm18.782-2.07c-1.386 0-2.502.936-2.718 2.502h5.49c-.036-1.53-1.242-2.502-2.772-2.502Zm4.644 5.4c-.558 1.728-2.124 3.114-4.554 3.114-2.844 0-4.95-2.016-4.95-5.13s2.016-5.112 4.95-5.112c2.826 0 4.824 1.962 4.824 4.878 0 .342-.018.666-.072 1.008h-7.578c.144 1.638 1.314 2.628 2.826 2.628 1.26 0 1.962-.612 2.34-1.386h2.214Zm4.341-2.268v5.22h-2.052v-9.918h2.052v1.44c.576-.99 1.566-1.602 2.97-1.602v2.124h-.522c-1.512 0-2.448.63-2.448 2.736Zm5.18 2.466v-5.49h-1.17v-1.674h1.17v-2.466h2.07v2.466h2.412v1.674h-2.412v5.49c0 .738.288 1.044 1.152 1.044h1.26v1.71h-1.62c-1.764 0-2.862-.738-2.862-2.754Zm6.374 2.754v-9.918h2.052v9.918h-2.052Zm1.044-11.232a1.299 1.299 0 0 1-1.314-1.314c0-.738.576-1.314 1.314-1.314.72 0 1.296.576 1.296 1.314 0 .738-.576 1.314-1.296 1.314Zm3.954 11.232v-8.244h-1.17v-1.674h1.17v-.702c0-2.286 1.17-3.276 3.762-3.276v1.71c-1.26 0-1.692.432-1.692 1.566v.702h1.836v1.674h-1.836v8.244h-2.07Zm5.724 0v-9.918h2.052v9.918h-2.052Zm1.044-11.232a1.299 1.299 0 0 1-1.314-1.314c0-.738.576-1.314 1.314-1.314.72 0 1.296.576 1.296 1.314 0 .738-.576 1.314-1.296 1.314Zm3.018 6.264c0-3.096 2.016-5.112 4.86-5.112 2.43 0 4.014 1.206 4.572 3.294h-2.214c-.342-.954-1.134-1.566-2.358-1.566-1.656 0-2.754 1.224-2.754 3.384 0 2.178 1.098 3.402 2.754 3.402 1.224 0 1.98-.54 2.358-1.566h2.214c-.558 1.944-2.142 3.294-4.572 3.294-2.844 0-4.86-2.016-4.86-5.13Zm10.793-.036c0-3.06 2.07-5.076 4.68-5.076 1.674 0 2.826.792 3.438 1.602v-1.44h2.07v9.918h-2.07v-1.476c-.63.846-1.818 1.638-3.474 1.638-2.574 0-4.644-2.106-4.644-5.166Zm8.118.036c0-2.124-1.458-3.33-3.006-3.33-1.53 0-3.006 1.152-3.006 3.294 0 2.142 1.476 3.384 3.006 3.384 1.548 0 3.006-1.206 3.006-3.348Zm4.082 0c0-3.096 2.016-5.112 4.86-5.112 2.43 0 4.014 1.206 4.572 3.294h-2.214c-.342-.954-1.134-1.566-2.358-1.566-1.656 0-2.754 1.224-2.754 3.384 0 2.178 1.098 3.402 2.754 3.402 1.224 0 1.98-.54 2.358-1.566h2.214c-.558 1.944-2.142 3.294-4.572 3.294-2.844 0-4.86-2.016-4.86-5.13Zm11.476 4.968v-9.918h2.052v9.918h-2.052Zm1.044-11.232a1.299 1.299 0 0 1-1.314-1.314c0-.738.576-1.314 1.314-1.314.72 0 1.296.576 1.296 1.314 0 .738-.576 1.314-1.296 1.314Zm13.153 6.264c0 3.114-2.304 5.13-5.148 5.13-2.826 0-4.968-2.016-4.968-5.13s2.232-5.112 5.058-5.112c2.826 0 5.058 1.998 5.058 5.112Zm-8.028 0c0 2.25 1.332 3.348 2.88 3.348 1.53 0 3.042-1.098 3.042-3.348s-1.458-3.33-2.988-3.33c-1.548 0-2.934 1.08-2.934 3.33Zm.846-7.326 3.978-2.196v1.746l-3.978 1.962v-1.512Zm16.248 12.294v-5.544c0-1.818-.99-2.754-2.484-2.754-1.512 0-2.502.936-2.502 2.754v5.544h-2.052v-9.918h2.052v1.134c.666-.81 1.764-1.296 2.952-1.296 2.322 0 4.068 1.458 4.068 4.23v5.85h-2.034Zm11.379-5.22v5.22h-2.052v-9.918h2.052v1.44c.576-.99 1.566-1.602 2.97-1.602v2.124h-.522c-1.512 0-2.448.63-2.448 2.736Zm9.033-3.132c-1.386 0-2.502.936-2.718 2.502h5.49c-.036-1.53-1.242-2.502-2.772-2.502Zm4.644 5.4c-.558 1.728-2.124 3.114-4.554 3.114-2.844 0-4.95-2.016-4.95-5.13s2.016-5.112 4.95-5.112c2.826 0 4.824 1.962 4.824 4.878 0 .342-.018.666-.072 1.008h-7.578c.144 1.638 1.314 2.628 2.826 2.628 1.26 0 1.962-.612 2.34-1.386h2.214Zm1.605-2.016c0-3.096 2.016-5.112 4.86-5.112 2.43 0 4.014 1.206 4.572 3.294h-2.214c-.342-.954-1.134-1.566-2.358-1.566-1.656 0-2.754 1.224-2.754 3.384 0 2.178 1.098 3.402 2.754 3.402 1.224 0 1.98-.54 2.358-1.566h2.214c-.558 1.944-2.142 3.294-4.572 3.294-2.844 0-4.86-2.016-4.86-5.13Zm20.927 0c0 3.114-2.304 5.13-5.148 5.13-2.826 0-4.968-2.016-4.968-5.13s2.232-5.112 5.058-5.112c2.826 0 5.058 1.998 5.058 5.112Zm-8.028 0c0 2.25 1.332 3.348 2.88 3.348 1.53 0 3.042-1.098 3.042-3.348s-1.458-3.33-2.988-3.33c-1.548 0-2.934 1.08-2.934 3.33Zm17.094 4.968v-5.544c0-1.818-.99-2.754-2.484-2.754-1.512 0-2.502.936-2.502 2.754v5.544h-2.052v-9.918h2.052v1.134c.666-.81 1.764-1.296 2.952-1.296 2.322 0 4.068 1.458 4.068 4.23v5.85h-2.034Zm14.102-4.968c0 3.114-2.304 5.13-5.148 5.13-2.826 0-4.968-2.016-4.968-5.13s2.232-5.112 5.058-5.112c2.826 0 5.058 1.998 5.058 5.112Zm-8.028 0c0 2.25 1.332 3.348 2.88 3.348 1.53 0 3.042-1.098 3.042-3.348s-1.458-3.33-2.988-3.33c-1.548 0-2.934 1.08-2.934 3.33Zm9.372 0c0-3.096 2.016-5.112 4.86-5.112 2.43 0 4.014 1.206 4.572 3.294h-2.214c-.342-.954-1.134-1.566-2.358-1.566-1.656 0-2.754 1.224-2.754 3.384 0 2.178 1.098 3.402 2.754 3.402 1.224 0 1.98-.54 2.358-1.566h2.214c-.558 1.944-2.142 3.294-4.572 3.294-2.844 0-4.86-2.016-4.86-5.13Zm11.477 4.968v-9.918h2.052v9.918h-2.052Zm1.044-11.232a1.299 1.299 0 0 1-1.314-1.314c0-.738.576-1.314 1.314-1.314.72 0 1.296.576 1.296 1.314 0 .738-.576 1.314-1.296 1.314Zm3.018 6.228c0-3.06 2.07-5.076 4.698-5.076 1.296 0 2.664.612 3.42 1.548v-4.788h2.07v13.32h-2.07v-1.494c-.63.9-1.818 1.656-3.438 1.656-2.61 0-4.68-2.106-4.68-5.166Zm8.118.036c0-2.124-1.458-3.33-3.006-3.33-1.53 0-3.006 1.152-3.006 3.294 0 2.142 1.476 3.384 3.006 3.384 1.548 0 3.006-1.206 3.006-3.348Zm4.082-.036c0-3.06 2.07-5.076 4.68-5.076 1.674 0 2.826.792 3.438 1.602v-1.44h2.07v9.918h-2.07v-1.476c-.63.846-1.818 1.638-3.474 1.638-2.574 0-4.644-2.106-4.644-5.166Zm8.118.036c0-2.124-1.458-3.33-3.006-3.33-1.53 0-3.006 1.152-3.006 3.294 0 2.142 1.476 3.384 3.006 3.384 1.548 0 3.006-1.206 3.006-3.348Zm-210.607 23.508c.63-.828 1.836-1.62 3.456-1.62 2.61 0 4.662 2.016 4.662 5.076 0 3.06-2.052 5.166-4.662 5.166a4.484 4.484 0 0 1-3.456-1.602v6.156h-2.052v-14.634h2.052v1.458Zm6.03 3.456c0-2.142-1.476-3.294-3.024-3.294-1.53 0-3.006 1.206-3.006 3.33 0 2.142 1.476 3.348 3.006 3.348 1.548 0 3.024-1.242 3.024-3.384Zm13.567.036c0 3.114-2.304 5.13-5.148 5.13-2.826 0-4.968-2.016-4.968-5.13s2.232-5.112 5.058-5.112c2.826 0 5.058 1.998 5.058 5.112Zm-8.028 0c0 2.25 1.332 3.348 2.88 3.348 1.53 0 3.042-1.098 3.042-3.348s-1.458-3.33-2.988-3.33c-1.548 0-2.934 1.08-2.934 3.33Zm12.109-.252v5.22h-2.052v-9.918h2.052v1.44c.576-.99 1.566-1.602 2.97-1.602v2.124h-.522c-1.512 0-2.448.63-2.448 2.736Zm18.514-4.698v9.918h-2.052v-1.188c-.648.846-1.764 1.332-2.934 1.332-2.322 0-4.086-1.458-4.086-4.23v-5.832h2.034v5.526c0 1.818.99 2.754 2.484 2.754 1.512 0 2.502-.936 2.502-2.754v-5.526h2.052Zm9.745 9.918v-5.544c0-1.818-.99-2.754-2.484-2.754-1.512 0-2.502.936-2.502 2.754v5.544h-2.052v-9.918h2.052v1.134c.666-.81 1.764-1.296 2.952-1.296 2.322 0 4.068 1.458 4.068 4.23v5.85h-2.034Zm3.968-5.004c0-3.06 2.07-5.076 4.68-5.076 1.674 0 2.826.792 3.438 1.602v-1.44h2.07v9.918h-2.07v-1.476c-.63.846-1.818 1.638-3.474 1.638-2.574 0-4.644-2.106-4.644-5.166Zm8.118.036c0-2.124-1.458-3.33-3.006-3.33-1.53 0-3.006 1.152-3.006 3.294 0 2.142 1.476 3.384 3.006 3.384 1.548 0 3.006-1.206 3.006-3.348Zm18.423-4.95v9.918h-2.052v-1.188c-.648.846-1.764 1.332-2.934 1.332-2.322 0-4.086-1.458-4.086-4.23v-5.832h2.034v5.526c0 1.818.99 2.754 2.484 2.754 1.512 0 2.502-.936 2.502-2.754v-5.526h2.052Zm9.745 9.918v-5.544c0-1.818-.99-2.754-2.484-2.754-1.512 0-2.502.936-2.502 2.754v5.544h-2.052v-9.918h2.052v1.134c.666-.81 1.764-1.296 2.952-1.296 2.322 0 4.068 1.458 4.068 4.23v5.85h-2.034Zm4.652 0v-9.918h2.052v9.918h-2.052Zm1.044-11.232a1.299 1.299 0 0 1-1.314-1.314c0-.738.576-1.314 1.314-1.314.72 0 1.296.576 1.296 1.314 0 .738-.576 1.314-1.296 1.314Zm2.532 1.314h2.196l2.808 8.082 2.808-8.082h2.178l-3.78 9.918h-2.448l-3.762-9.918Zm15.717 1.566c-1.386 0-2.502.936-2.718 2.502h5.49c-.036-1.53-1.242-2.502-2.772-2.502Zm4.644 5.4c-.558 1.728-2.124 3.114-4.554 3.114-2.844 0-4.95-2.016-4.95-5.13s2.016-5.112 4.95-5.112c2.826 0 4.824 1.962 4.824 4.878 0 .342-.018.666-.072 1.008h-7.578c.144 1.638 1.314 2.628 2.826 2.628 1.26 0 1.962-.612 2.34-1.386h2.214Zm4.341-2.268v5.22h-2.052v-9.918h2.052v1.44c.576-.99 1.566-1.602 2.97-1.602v2.124h-.522c-1.512 0-2.448.63-2.448 2.736Zm12.254 2.448c0 1.674-1.458 2.934-3.798 2.934-2.376 0-4.05-1.404-4.14-3.204h2.124c.072.81.846 1.476 1.98 1.476 1.188 0 1.818-.504 1.818-1.188 0-1.944-5.76-.828-5.76-4.464 0-1.584 1.476-2.862 3.816-2.862 2.25 0 3.726 1.206 3.834 3.186h-2.052c-.072-.864-.738-1.458-1.854-1.458-1.098 0-1.674.45-1.674 1.116 0 1.998 5.598.882 5.706 4.464Zm2.218 2.772v-9.918h2.052v9.918h-2.052Zm1.044-11.232a1.299 1.299 0 0 1-1.314-1.314c0-.738.576-1.314 1.314-1.314.72 0 1.296.576 1.296 1.314 0 .738-.576 1.314-1.296 1.314Zm3.018 6.228c0-3.06 2.07-5.076 4.698-5.076 1.296 0 2.664.612 3.42 1.548v-4.788h2.07v13.32h-2.07v-1.494c-.63.9-1.818 1.656-3.438 1.656-2.61 0-4.68-2.106-4.68-5.166Zm8.118.036c0-2.124-1.458-3.33-3.006-3.33-1.53 0-3.006 1.152-3.006 3.294 0 2.142 1.476 3.384 3.006 3.384 1.548 0 3.006-1.206 3.006-3.348Zm4.081-.036c0-3.06 2.07-5.076 4.68-5.076 1.674 0 2.826.792 3.438 1.602v-1.44h2.07v9.918h-2.07v-1.476c-.63.846-1.818 1.638-3.474 1.638-2.574 0-4.644-2.106-4.644-5.166Zm8.118.036c0-2.124-1.458-3.33-3.006-3.33-1.53 0-3.006 1.152-3.006 3.294 0 2.142 1.476 3.384 3.006 3.384 1.548 0 3.006-1.206 3.006-3.348Zm4.081-.036c0-3.06 2.07-5.076 4.698-5.076 1.296 0 2.664.612 3.42 1.548v-4.788h2.07v13.32h-2.07v-1.494c-.63.9-1.818 1.656-3.438 1.656-2.61 0-4.68-2.106-4.68-5.166Zm8.118.036c0-2.124-1.458-3.33-3.006-3.33-1.53 0-3.006 1.152-3.006 3.294 0 2.142 1.476 3.384 3.006 3.384 1.548 0 3.006-1.206 3.006-3.348Zm8.757-.036c0-3.06 2.07-5.076 4.698-5.076 1.296 0 2.664.612 3.42 1.548v-4.788h2.07v13.32h-2.07v-1.494c-.63.9-1.818 1.656-3.438 1.656-2.61 0-4.68-2.106-4.68-5.166Zm8.118.036c0-2.124-1.458-3.33-3.006-3.33-1.53 0-3.006 1.152-3.006 3.294 0 2.142 1.476 3.384 3.006 3.384 1.548 0 3.006-1.206 3.006-3.348Zm8.941-3.384c-1.386 0-2.502.936-2.718 2.502h5.49c-.036-1.53-1.242-2.502-2.772-2.502Zm4.644 5.4c-.558 1.728-2.124 3.114-4.554 3.114-2.844 0-4.95-2.016-4.95-5.13s2.016-5.112 4.95-5.112c2.826 0 4.824 1.962 4.824 4.878 0 .342-.018.666-.072 1.008h-7.578c.144 1.638 1.314 2.628 2.826 2.628 1.26 0 1.962-.612 2.34-1.386h2.214Zm-187.493 29.952v-13.32h2.052v13.32h-2.052Zm14.197-4.968c0 3.114-2.304 5.13-5.148 5.13-2.826 0-4.968-2.016-4.968-5.13s2.232-5.112 5.058-5.112c2.826 0 5.058 1.998 5.058 5.112Zm-8.028 0c0 2.25 1.332 3.348 2.88 3.348 1.53 0 3.042-1.098 3.042-3.348s-1.458-3.33-2.988-3.33c-1.548 0-2.934 1.08-2.934 3.33Zm17.454 2.196c0 1.674-1.458 2.934-3.798 2.934-2.376 0-4.05-1.404-4.14-3.204h2.124c.072.81.846 1.476 1.98 1.476 1.188 0 1.818-.504 1.818-1.188 0-1.944-5.76-.828-5.76-4.464 0-1.584 1.476-2.862 3.816-2.862 2.25 0 3.726 1.206 3.834 3.186h-2.052c-.072-.864-.738-1.458-1.854-1.458-1.098 0-1.674.45-1.674 1.116 0 1.998 5.598.882 5.706 4.464Zm13.805-9.756v1.674h-4.86v3.672h4.32v1.674h-4.32v3.834h4.86v1.674h-6.912v-12.528h6.912Zm9.926 9.756c0 1.674-1.458 2.934-3.798 2.934-2.376 0-4.05-1.404-4.14-3.204h2.124c.072.81.846 1.476 1.98 1.476 1.188 0 1.818-.504 1.818-1.188 0-1.944-5.76-.828-5.76-4.464 0-1.584 1.476-2.862 3.816-2.862 2.25 0 3.726 1.206 3.834 3.186h-2.052c-.072-.864-.738-1.458-1.854-1.458-1.098 0-1.674.45-1.674 1.116 0 1.998 5.598.882 5.706 4.464Zm2.541.018v-5.49h-1.17v-1.674h1.17v-2.466h2.07v2.466h2.412v1.674h-2.412v5.49c0 .738.288 1.044 1.152 1.044h1.26v1.71h-1.62c-1.764 0-2.862-.738-2.862-2.754Zm5.689-2.25c0-3.06 2.07-5.076 4.68-5.076 1.674 0 2.826.792 3.438 1.602v-1.44h2.07v9.918h-2.07v-1.476c-.63.846-1.818 1.638-3.474 1.638-2.574 0-4.644-2.106-4.644-5.166Zm8.118.036c0-2.124-1.458-3.33-3.006-3.33-1.53 0-3.006 1.152-3.006 3.294 0 2.142 1.476 3.384 3.006 3.384 1.548 0 3.006-1.206 3.006-3.348Zm4.081-.036c0-3.06 2.07-5.076 4.698-5.076 1.296 0 2.664.612 3.42 1.548v-4.788h2.07v13.32h-2.07v-1.494c-.63.9-1.818 1.656-3.438 1.656-2.61 0-4.68-2.106-4.68-5.166Zm8.118.036c0-2.124-1.458-3.33-3.006-3.33-1.53 0-3.006 1.152-3.006 3.294 0 2.142 1.476 3.384 3.006 3.384 1.548 0 3.006-1.206 3.006-3.348Zm14.215 0c0 3.114-2.304 5.13-5.148 5.13-2.826 0-4.968-2.016-4.968-5.13s2.232-5.112 5.058-5.112c2.826 0 5.058 1.998 5.058 5.112Zm-8.028 0c0 2.25 1.332 3.348 2.88 3.348 1.53 0 3.042-1.098 3.042-3.348s-1.458-3.33-2.988-3.33c-1.548 0-2.934 1.08-2.934 3.33Zm17.455 2.196c0 1.674-1.458 2.934-3.798 2.934-2.376 0-4.05-1.404-4.14-3.204h2.124c.072.81.846 1.476 1.98 1.476 1.188 0 1.818-.504 1.818-1.188 0-1.944-5.76-.828-5.76-4.464 0-1.584 1.476-2.862 3.816-2.862 2.25 0 3.726 1.206 3.834 3.186h-2.052c-.072-.864-.738-1.458-1.854-1.458-1.098 0-1.674.45-1.674 1.116 0 1.998 5.598.882 5.706 4.464Zm6.875-1.8v-7.938h2.052v7.974c0 1.944 1.098 2.862 2.826 2.862 1.746 0 2.844-.918 2.844-2.862v-7.974h2.052v7.938c0 3.186-2.304 4.698-4.914 4.698-2.628 0-4.86-1.512-4.86-4.698Zm19.484 4.572v-5.544c0-1.818-.99-2.754-2.484-2.754-1.512 0-2.502.936-2.502 2.754v5.544h-2.052v-9.918h2.052v1.134c.666-.81 1.764-1.296 2.952-1.296 2.322 0 4.068 1.458 4.068 4.23v5.85h-2.034Zm4.651 0v-9.918h2.052v9.918h-2.052Zm1.044-11.232a1.299 1.299 0 0 1-1.314-1.314c0-.738.576-1.314 1.314-1.314.72 0 1.296.576 1.296 1.314 0 .738-.576 1.314-1.296 1.314Zm3.018 6.228c0-3.06 2.07-5.076 4.698-5.076 1.296 0 2.664.612 3.42 1.548v-4.788h2.07v13.32h-2.07v-1.494c-.63.9-1.818 1.656-3.438 1.656-2.61 0-4.68-2.106-4.68-5.166Zm8.118.036c0-2.124-1.458-3.33-3.006-3.33-1.53 0-3.006 1.152-3.006 3.294 0 2.142 1.476 3.384 3.006 3.384 1.548 0 3.006-1.206 3.006-3.348Zm14.215 0c0 3.114-2.304 5.13-5.148 5.13-2.826 0-4.968-2.016-4.968-5.13s2.232-5.112 5.058-5.112c2.826 0 5.058 1.998 5.058 5.112Zm-8.028 0c0 2.25 1.332 3.348 2.88 3.348 1.53 0 3.042-1.098 3.042-3.348s-1.458-3.33-2.988-3.33c-1.548 0-2.934 1.08-2.934 3.33Zm17.455 2.196c0 1.674-1.458 2.934-3.798 2.934-2.376 0-4.05-1.404-4.14-3.204h2.124c.072.81.846 1.476 1.98 1.476 1.188 0 1.818-.504 1.818-1.188 0-1.944-5.76-.828-5.76-4.464 0-1.584 1.476-2.862 3.816-2.862 2.25 0 3.726 1.206 3.834 3.186h-2.052c-.072-.864-.738-1.458-1.854-1.458-1.098 0-1.674.45-1.674 1.116 0 1.998 5.598.882 5.706 4.464Z" fill="#fff"/><circle cx="497" cy="98.45" r="52.653" stroke="#51BEF1"/><circle cx="830.278" cy="98.45" r="52.653" stroke="#fff"/><circle cx="497" cy="398.559" r="52.653" stroke="#fff"/><circle cx="830.278" cy="398.559" r="52.653" stroke="#fff"/><circle cx="163.722" cy="398.559" r="52.653" stroke="#fff"/><path d="M46.764 191.882c0-3.744 2.862-6.39 6.39-6.39 2.61 0 4.86 1.314 5.814 3.762h-2.466c-.666-1.332-1.854-1.962-3.348-1.962-2.484 0-4.284 1.764-4.284 4.59 0 2.826 1.8 4.608 4.284 4.608 1.494 0 2.682-.63 3.348-1.962h2.466c-.954 2.448-3.204 3.744-5.814 3.744-3.528 0-6.39-2.628-6.39-6.39Zm24.056 1.314c0 3.114-2.304 5.13-5.148 5.13-2.826 0-4.968-2.016-4.968-5.13s2.232-5.112 5.058-5.112c2.826 0 5.058 1.998 5.058 5.112Zm-8.028 0c0 2.25 1.332 3.348 2.88 3.348 1.53 0 3.042-1.098 3.042-3.348s-1.458-3.33-2.988-3.33c-1.548 0-2.934 1.08-2.934 3.33Zm17.094 4.968v-5.544c0-1.818-.99-2.754-2.484-2.754-1.512 0-2.502.936-2.502 2.754v5.544h-2.052v-9.918H74.9v1.134c.666-.81 1.764-1.296 2.952-1.296 2.322 0 4.068 1.458 4.068 4.23v5.85h-2.034Zm4.976-2.754v-5.49h-1.17v-1.674h1.17v-2.466h2.07v2.466h2.412v1.674h-2.412v5.49c0 .738.288 1.044 1.152 1.044h1.26v1.71h-1.62c-1.764 0-2.862-.738-2.862-2.754Zm10.55-5.598c-1.387 0-2.503.936-2.719 2.502h5.49c-.036-1.53-1.242-2.502-2.772-2.502Zm4.643 5.4c-.558 1.728-2.124 3.114-4.554 3.114-2.844 0-4.95-2.016-4.95-5.13s2.016-5.112 4.95-5.112c2.826 0 4.824 1.962 4.824 4.878 0 .342-.018.666-.072 1.008h-7.578c.144 1.638 1.314 2.628 2.826 2.628 1.26 0 1.962-.612 2.34-1.386h2.214Zm9.327 2.952v-5.544c0-1.818-.99-2.754-2.484-2.754-1.512 0-2.502.936-2.502 2.754v5.544h-2.052v-9.918h2.052v1.134c.666-.81 1.764-1.296 2.952-1.296 2.322 0 4.068 1.458 4.068 4.23v5.85h-2.034Zm4.652 0v-9.918h2.052v9.918h-2.052Zm1.044-11.232a1.299 1.299 0 0 1-1.314-1.314c0-.738.576-1.314 1.314-1.314.72 0 1.296.576 1.296 1.314 0 .738-.576 1.314-1.296 1.314Zm3.018 6.228c0-3.06 2.07-5.076 4.698-5.076 1.296 0 2.664.612 3.42 1.548v-4.788h2.07v13.32h-2.07v-1.494c-.63.9-1.818 1.656-3.438 1.656-2.61 0-4.68-2.106-4.68-5.166Zm8.118.036c0-2.124-1.458-3.33-3.006-3.33-1.53 0-3.006 1.152-3.006 3.294 0 2.142 1.476 3.384 3.006 3.384 1.548 0 3.006-1.206 3.006-3.348Zm14.215 0c0 3.114-2.304 5.13-5.148 5.13-2.826 0-4.968-2.016-4.968-5.13s2.232-5.112 5.058-5.112c2.826 0 5.058 1.998 5.058 5.112Zm-8.028 0c0 2.25 1.332 3.348 2.88 3.348 1.53 0 3.042-1.098 3.042-3.348s-1.458-3.33-2.988-3.33c-1.548 0-2.934 1.08-2.934 3.33Zm14.049-.036c0-3.06 2.07-5.076 4.698-5.076 1.296 0 2.664.612 3.42 1.548v-4.788h2.07v13.32h-2.07v-1.494c-.63.9-1.818 1.656-3.438 1.656-2.61 0-4.68-2.106-4.68-5.166Zm8.118.036c0-2.124-1.458-3.33-3.006-3.33-1.53 0-3.006 1.152-3.006 3.294 0 2.142 1.476 3.384 3.006 3.384 1.548 0 3.006-1.206 3.006-3.348Zm8.941-3.384c-1.386 0-2.502.936-2.718 2.502h5.49c-.036-1.53-1.242-2.502-2.772-2.502Zm4.644 5.4c-.558 1.728-2.124 3.114-4.554 3.114-2.844 0-4.95-2.016-4.95-5.13s2.016-5.112 4.95-5.112c2.826 0 4.824 1.962 4.824 4.878 0 .342-.018.666-.072 1.008h-7.578c.144 1.638 1.314 2.628 2.826 2.628 1.26 0 1.962-.612 2.34-1.386h2.214Zm6.281-2.052c0-3.06 2.07-5.076 4.68-5.076 1.674 0 2.826.792 3.438 1.602v-1.44h2.07v9.918h-2.07v-1.476c-.63.846-1.818 1.638-3.474 1.638-2.574 0-4.644-2.106-4.644-5.166Zm8.118.036c0-2.124-1.458-3.33-3.006-3.33-1.53 0-3.006 1.152-3.006 3.294 0 2.142 1.476 3.384 3.006 3.384 1.548 0 3.006-1.206 3.006-3.348Zm6.817-3.492c.63-.828 1.836-1.62 3.456-1.62 2.61 0 4.662 2.016 4.662 5.076 0 3.06-2.052 5.166-4.662 5.166a4.484 4.484 0 0 1-3.456-1.602v6.156h-2.052v-14.634h2.052v1.458Zm6.03 3.456c0-2.142-1.476-3.294-3.024-3.294-1.53 0-3.006 1.206-3.006 3.33 0 2.142 1.476 3.348 3.006 3.348 1.548 0 3.024-1.242 3.024-3.384Zm6.169-.216v5.22h-2.052v-9.918h2.052v1.44c.576-.99 1.566-1.602 2.97-1.602v2.124h-.522c-1.512 0-2.448.63-2.448 2.736Zm9.033-3.132c-1.386 0-2.502.936-2.718 2.502h5.49c-.036-1.53-1.242-2.502-2.772-2.502Zm4.644 5.4c-.558 1.728-2.124 3.114-4.554 3.114-2.844 0-4.95-2.016-4.95-5.13s2.016-5.112 4.95-5.112c2.826 0 4.824 1.962 4.824 4.878 0 .342-.018.666-.072 1.008h-7.578c.144 1.638 1.314 2.628 2.826 2.628 1.26 0 1.962-.612 2.34-1.386h2.214Zm9.327 2.952v-5.544c0-1.818-.99-2.754-2.484-2.754-1.512 0-2.502.936-2.502 2.754v5.544h-2.052v-9.918h2.052v1.134c.666-.81 1.764-1.296 2.952-1.296 2.322 0 4.068 1.458 4.068 4.23v5.85h-2.034Zm3.967-5.004c0-3.06 2.07-5.076 4.698-5.076 1.296 0 2.664.612 3.42 1.548v-4.788h2.07v13.32h-2.07v-1.494c-.63.9-1.818 1.656-3.438 1.656-2.61 0-4.68-2.106-4.68-5.166Zm8.118.036c0-2.124-1.458-3.33-3.006-3.33-1.53 0-3.006 1.152-3.006 3.294 0 2.142 1.476 3.384 3.006 3.384 1.548 0 3.006-1.206 3.006-3.348Zm4.766 4.968v-9.918h2.052v9.918h-2.052Zm1.044-11.232a1.299 1.299 0 0 1-1.314-1.314c0-.738.576-1.314 1.314-1.314.72 0 1.296.576 1.296 1.314 0 .738-.576 1.314-1.296 1.314Zm10.02 1.314v1.674l-4.5 6.57h4.5v1.674h-6.876v-1.674l4.518-6.57h-4.518v-1.674h6.876Zm1.47 4.914c0-3.06 2.07-5.076 4.68-5.076 1.674 0 2.826.792 3.438 1.602v-1.44h2.07v9.918h-2.07v-1.476c-.63.846-1.818 1.638-3.474 1.638-2.574 0-4.644-2.106-4.644-5.166Zm8.118.036c0-2.124-1.458-3.33-3.006-3.33-1.53 0-3.006 1.152-3.006 3.294 0 2.142 1.476 3.384 3.006 3.384 1.548 0 3.006-1.206 3.006-3.348Zm5.81-6.264a1.299 1.299 0 0 1-1.314-1.314c0-.738.576-1.314 1.314-1.314.72 0 1.296.576 1.296 1.314 0 .738-.576 1.314-1.296 1.314Zm-1.044 1.314h2.052v11.862c0 2.016-1.08 2.772-2.844 2.772h-1.062v-1.728h.702c.864 0 1.152-.306 1.152-1.044v-11.862Zm8.922 1.566c-1.386 0-2.502.936-2.718 2.502h5.49c-.036-1.53-1.242-2.502-2.772-2.502Zm4.644 5.4c-.558 1.728-2.124 3.114-4.554 3.114-2.844 0-4.95-2.016-4.95-5.13s2.016-5.112 4.95-5.112c2.826 0 4.824 1.962 4.824 4.878 0 .342-.018.666-.072 1.008h-7.578c.144 1.638 1.314 2.628 2.826 2.628 1.26 0 1.962-.612 2.34-1.386h2.214ZM97.196 220.16c0-3.06 2.07-5.076 4.698-5.076 1.296 0 2.664.612 3.42 1.548v-4.788h2.07v13.32h-2.07v-1.494c-.63.9-1.818 1.656-3.438 1.656-2.61 0-4.68-2.106-4.68-5.166Zm8.118.036c0-2.124-1.458-3.33-3.006-3.33-1.53 0-3.006 1.152-3.006 3.294 0 2.142 1.476 3.384 3.006 3.384 1.548 0 3.006-1.206 3.006-3.348Zm8.941-3.384c-1.386 0-2.502.936-2.718 2.502h5.49c-.036-1.53-1.242-2.502-2.772-2.502Zm4.644 5.4c-.558 1.728-2.124 3.114-4.554 3.114-2.844 0-4.95-2.016-4.95-5.13s2.016-5.112 4.95-5.112c2.826 0 4.824 1.962 4.824 4.878 0 .342-.018.666-.072 1.008h-7.578c.144 1.638 1.314 2.628 2.826 2.628 1.26 0 1.962-.612 2.34-1.386h2.214Zm5.795-6.966h2.196l2.808 8.082 2.808-8.082h2.178l-3.78 9.918h-2.448l-3.762-9.918Zm10.857 4.914c0-3.06 2.07-5.076 4.68-5.076 1.674 0 2.826.792 3.438 1.602v-1.44h2.07v9.918h-2.07v-1.476c-.63.846-1.818 1.638-3.474 1.638-2.574 0-4.644-2.106-4.644-5.166Zm8.118.036c0-2.124-1.458-3.33-3.006-3.33-1.53 0-3.006 1.152-3.006 3.294 0 2.142 1.476 3.384 3.006 3.384 1.548 0 3.006-1.206 3.006-3.348Zm11.803 4.968v-5.544c0-1.818-.99-2.754-2.484-2.754-1.512 0-2.502.936-2.502 2.754v5.544h-2.052v-9.918h2.052v1.134c.666-.81 1.764-1.296 2.952-1.296 2.322 0 4.068 1.458 4.068 4.23v5.85h-2.034Zm3.968-5.004c0-3.06 2.07-5.076 4.68-5.076 1.62 0 2.826.756 3.438 1.602v-1.44h2.07v10.08c0 2.7-1.746 4.734-4.842 4.734-2.646 0-4.608-1.314-4.86-3.51h2.034c.306 1.026 1.404 1.728 2.826 1.728 1.584 0 2.772-.972 2.772-2.952v-1.656c-.63.846-1.818 1.656-3.438 1.656-2.61 0-4.68-2.106-4.68-5.166Zm8.118.036c0-2.124-1.458-3.33-3.006-3.33-1.53 0-3.006 1.152-3.006 3.294 0 2.142 1.476 3.384 3.006 3.384 1.548 0 3.006-1.206 3.006-3.348Zm13.747-4.95v9.918h-2.052v-1.188c-.648.846-1.764 1.332-2.934 1.332-2.322 0-4.086-1.458-4.086-4.23v-5.832h2.034v5.526c0 1.818.99 2.754 2.484 2.754 1.512 0 2.502-.936 2.502-2.754v-5.526h2.052Zm2.023 4.914c0-3.06 2.07-5.076 4.68-5.076 1.674 0 2.826.792 3.438 1.602v-1.44h2.07v9.918h-2.07v-1.476c-.63.846-1.818 1.638-3.474 1.638-2.574 0-4.644-2.106-4.644-5.166Zm8.118.036c0-2.124-1.458-3.33-3.006-3.33-1.53 0-3.006 1.152-3.006 3.294 0 2.142 1.476 3.384 3.006 3.384 1.548 0 3.006-1.206 3.006-3.348Zm6.818-.252v5.22h-2.052v-9.918h2.052v1.44c.576-.99 1.566-1.602 2.97-1.602v2.124h-.522c-1.512 0-2.448.63-2.448 2.736Zm4.172.216c0-3.06 2.07-5.076 4.698-5.076 1.296 0 2.664.612 3.42 1.548v-4.788h2.07v13.32h-2.07v-1.494c-.63.9-1.818 1.656-3.438 1.656-2.61 0-4.68-2.106-4.68-5.166Zm8.118.036c0-2.124-1.458-3.33-3.006-3.33-1.53 0-3.006 1.152-3.006 3.294 0 2.142 1.476 3.384 3.006 3.384 1.548 0 3.006-1.206 3.006-3.348Zm4.765 4.968v-9.918h2.052v9.918h-2.052Zm1.044-11.232a1.299 1.299 0 0 1-1.314-1.314c0-.738.576-1.314 1.314-1.314.72 0 1.296.576 1.296 1.314 0 .738-.576 1.314-1.296 1.314Zm3.018 6.228c0-3.06 2.07-5.076 4.68-5.076 1.674 0 2.826.792 3.438 1.602v-1.44h2.07v9.918h-2.07v-1.476c-.63.846-1.818 1.638-3.474 1.638-2.574 0-4.644-2.106-4.644-5.166Zm8.118.036c0-2.124-1.458-3.33-3.006-3.33-1.53 0-3.006 1.152-3.006 3.294 0 2.142 1.476 3.384 3.006 3.384 1.548 0 3.006-1.206 3.006-3.348ZM758.205 191.882c0-3.744 2.862-6.39 6.39-6.39 2.61 0 4.86 1.314 5.814 3.762h-2.466c-.666-1.332-1.854-1.962-3.348-1.962-2.484 0-4.284 1.764-4.284 4.59 0 2.826 1.8 4.608 4.284 4.608 1.494 0 2.682-.63 3.348-1.962h2.466c-.954 2.448-3.204 3.744-5.814 3.744-3.528 0-6.39-2.628-6.39-6.39Zm14.606 6.282v-13.32h2.052v13.32h-2.052Zm4.062-5.004c0-3.06 2.07-5.076 4.68-5.076 1.674 0 2.826.792 3.438 1.602v-1.44h2.07v9.918h-2.07v-1.476c-.63.846-1.818 1.638-3.474 1.638-2.574 0-4.644-2.106-4.644-5.166Zm8.118.036c0-2.124-1.458-3.33-3.006-3.33-1.53 0-3.006 1.152-3.006 3.294 0 2.142 1.476 3.384 3.006 3.384 1.548 0 3.006-1.206 3.006-3.348Zm12.164 2.196c0 1.674-1.458 2.934-3.798 2.934-2.376 0-4.05-1.404-4.14-3.204h2.124c.072.81.846 1.476 1.98 1.476 1.188 0 1.818-.504 1.818-1.188 0-1.944-5.76-.828-5.76-4.464 0-1.584 1.476-2.862 3.816-2.862 2.25 0 3.726 1.206 3.834 3.186h-2.052c-.072-.864-.738-1.458-1.854-1.458-1.098 0-1.674.45-1.674 1.116 0 1.998 5.598.882 5.706 4.464Zm6.393-5.58c-1.386 0-2.502.936-2.718 2.502h5.49c-.036-1.53-1.242-2.502-2.772-2.502Zm4.644 5.4c-.558 1.728-2.124 3.114-4.554 3.114-2.844 0-4.95-2.016-4.95-5.13s2.016-5.112 4.95-5.112c2.826 0 4.824 1.962 4.824 4.878 0 .342-.018.666-.072 1.008h-7.578c.144 1.638 1.314 2.628 2.826 2.628 1.26 0 1.962-.612 2.34-1.386h2.214Zm9.687.18c0 1.674-1.458 2.934-3.798 2.934-2.376 0-4.05-1.404-4.14-3.204h2.124c.072.81.846 1.476 1.98 1.476 1.188 0 1.818-.504 1.818-1.188 0-1.944-5.76-.828-5.76-4.464 0-1.584 1.476-2.862 3.816-2.862 2.25 0 3.726 1.206 3.834 3.186h-2.052c-.072-.864-.738-1.458-1.854-1.458-1.098 0-1.674.45-1.674 1.116 0 1.998 5.598.882 5.706 4.464Zm11.069-5.58c-1.386 0-2.502.936-2.718 2.502h5.49c-.036-1.53-1.242-2.502-2.772-2.502Zm4.644 5.4c-.558 1.728-2.124 3.114-4.554 3.114-2.844 0-4.95-2.016-4.95-5.13s2.016-5.112 4.95-5.112c2.826 0 4.824 1.962 4.824 4.878 0 .342-.018.666-.072 1.008h-7.578c.144 1.638 1.314 2.628 2.826 2.628 1.26 0 1.962-.612 2.34-1.386h2.214Zm9.328 2.952v-5.544c0-1.818-.99-2.754-2.484-2.754-1.512 0-2.502.936-2.502 2.754v5.544h-2.052v-9.918h2.052v1.134c.666-.81 1.764-1.296 2.952-1.296 2.322 0 4.068 1.458 4.068 4.23v5.85h-2.034Zm8.157-9.918h2.196l2.808 8.082 2.808-8.082h2.178l-3.78 9.918h-2.448l-3.762-9.918Zm11.541 9.918v-9.918h2.052v9.918h-2.052Zm1.044-11.232a1.299 1.299 0 0 1-1.314-1.314c0-.738.576-1.314 1.314-1.314.72 0 1.296.576 1.296 1.314 0 .738-.576 1.314-1.296 1.314Zm2.532 1.314h2.196l2.808 8.082 2.808-8.082h2.178l-3.78 9.918h-2.448l-3.762-9.918Zm20.991 4.95c0 3.114-2.304 5.13-5.148 5.13-2.826 0-4.968-2.016-4.968-5.13s2.232-5.112 5.058-5.112c2.826 0 5.058 1.998 5.058 5.112Zm-8.028 0c0 2.25 1.332 3.348 2.88 3.348 1.53 0 3.042-1.098 3.042-3.348s-1.458-3.33-2.988-3.33c-1.548 0-2.934 1.08-2.934 3.33Zm18.638 2.61 2.898-7.56h2.124l-6.084 14.58h-2.124l2.016-4.824-3.906-9.756h2.286l2.79 7.56Zm-161.742 26.586c0 1.674-1.458 2.934-3.798 2.934-2.376 0-4.05-1.404-4.14-3.204h2.124c.072.81.846 1.476 1.98 1.476 1.188 0 1.818-.504 1.818-1.188 0-1.944-5.76-.828-5.76-4.464 0-1.584 1.476-2.862 3.816-2.862 2.25 0 3.726 1.206 3.834 3.186h-2.052c-.072-.864-.738-1.458-1.854-1.458-1.098 0-1.674.45-1.674 1.116 0 1.998 5.598.882 5.706 4.464Zm6.393-5.58c-1.386 0-2.502.936-2.718 2.502h5.49c-.036-1.53-1.242-2.502-2.772-2.502Zm4.644 5.4c-.558 1.728-2.124 3.114-4.554 3.114-2.844 0-4.95-2.016-4.95-5.13s2.016-5.112 4.95-5.112c2.826 0 4.824 1.962 4.824 4.878 0 .342-.018.666-.072 1.008h-7.578c.144 1.638 1.314 2.628 2.826 2.628 1.26 0 1.962-.612 2.34-1.386h2.214Zm9.688.18c0 1.674-1.458 2.934-3.798 2.934-2.376 0-4.05-1.404-4.14-3.204h2.124c.072.81.846 1.476 1.98 1.476 1.188 0 1.818-.504 1.818-1.188 0-1.944-5.76-.828-5.76-4.464 0-1.584 1.476-2.862 3.816-2.862 2.25 0 3.726 1.206 3.834 3.186H754.6c-.072-.864-.738-1.458-1.854-1.458-1.098 0-1.674.45-1.674 1.116 0 1.998 5.598.882 5.706 4.464Zm2.217 2.772v-9.918h2.052v9.918h-2.052Zm1.044-11.232a1.299 1.299 0 0 1-1.314-1.314c0-.738.576-1.314 1.314-1.314.72 0 1.296.576 1.296 1.314 0 .738-.576 1.314-1.296 1.314Zm13.152 6.264c0 3.114-2.304 5.13-5.148 5.13-2.826 0-4.968-2.016-4.968-5.13s2.232-5.112 5.058-5.112c2.826 0 5.058 1.998 5.058 5.112Zm-8.028 0c0 2.25 1.332 3.348 2.88 3.348 1.53 0 3.042-1.098 3.042-3.348s-1.458-3.33-2.988-3.33c-1.548 0-2.934 1.08-2.934 3.33Zm17.094 4.968v-5.544c0-1.818-.99-2.754-2.484-2.754-1.512 0-2.502.936-2.502 2.754v5.544h-2.052v-9.918h2.052v1.134c.666-.81 1.764-1.296 2.952-1.296 2.322 0 4.068 1.458 4.068 4.23v5.85h-2.034Zm8.828-8.352c-1.386 0-2.502.936-2.718 2.502h5.49c-.036-1.53-1.242-2.502-2.772-2.502Zm4.644 5.4c-.558 1.728-2.124 3.114-4.554 3.114-2.844 0-4.95-2.016-4.95-5.13s2.016-5.112 4.95-5.112c2.826 0 4.824 1.962 4.824 4.878 0 .342-.018.666-.072 1.008h-7.578c.144 1.638 1.314 2.628 2.826 2.628 1.26 0 1.962-.612 2.34-1.386h2.214Zm9.687.18c0 1.674-1.458 2.934-3.798 2.934-2.376 0-4.05-1.404-4.14-3.204h2.124c.072.81.846 1.476 1.98 1.476 1.188 0 1.818-.504 1.818-1.188 0-1.944-5.76-.828-5.76-4.464 0-1.584 1.476-2.862 3.816-2.862 2.25 0 3.726 1.206 3.834 3.186h-2.052c-.072-.864-.738-1.458-1.854-1.458-1.098 0-1.674.45-1.674 1.116 0 1.998 5.598.882 5.706 4.464Zm6.209-2.232c0-3.06 2.07-5.076 4.698-5.076 1.296 0 2.664.612 3.42 1.548v-4.788h2.07v13.32h-2.07v-1.494c-.63.9-1.818 1.656-3.438 1.656-2.61 0-4.68-2.106-4.68-5.166Zm8.118.036c0-2.124-1.458-3.33-3.006-3.33-1.53 0-3.006 1.152-3.006 3.294 0 2.142 1.476 3.384 3.006 3.384 1.548 0 3.006-1.206 3.006-3.348Zm8.942-3.384c-1.386 0-2.502.936-2.718 2.502h5.49c-.036-1.53-1.242-2.502-2.772-2.502Zm4.644 5.4c-.558 1.728-2.124 3.114-4.554 3.114-2.844 0-4.95-2.016-4.95-5.13s2.016-5.112 4.95-5.112c2.826 0 4.824 1.962 4.824 4.878 0 .342-.018.666-.072 1.008h-7.578c.144 1.638 1.314 2.628 2.826 2.628 1.26 0 1.962-.612 2.34-1.386h2.214Zm9.017-5.508c.63-.828 1.836-1.62 3.456-1.62 2.61 0 4.662 2.016 4.662 5.076 0 3.06-2.052 5.166-4.662 5.166a4.484 4.484 0 0 1-3.456-1.602v6.156h-2.052v-14.634h2.052v1.458Zm6.03 3.456c0-2.142-1.476-3.294-3.024-3.294-1.53 0-3.006 1.206-3.006 3.33 0 2.142 1.476 3.348 3.006 3.348 1.548 0 3.024-1.242 3.024-3.384Zm6.169-.216v5.22h-2.052v-9.918h2.052v1.44c.576-.99 1.566-1.602 2.97-1.602v2.124h-.522c-1.512 0-2.448.63-2.448 2.736Zm9.032-3.132c-1.386 0-2.502.936-2.718 2.502h5.49c-.036-1.53-1.242-2.502-2.772-2.502Zm4.644 5.4c-.558 1.728-2.124 3.114-4.554 3.114-2.844 0-4.95-2.016-4.95-5.13s2.016-5.112 4.95-5.112c2.826 0 4.824 1.962 4.824 4.878 0 .342-.018.666-.072 1.008h-7.578c.144 1.638 1.314 2.628 2.826 2.628 1.26 0 1.962-.612 2.34-1.386h2.214Zm1.606-2.052c0-3.06 2.07-5.076 4.68-5.076 1.62 0 2.826.756 3.438 1.602v-1.44h2.07v10.08c0 2.7-1.746 4.734-4.842 4.734-2.646 0-4.608-1.314-4.86-3.51h2.034c.306 1.026 1.404 1.728 2.826 1.728 1.584 0 2.772-.972 2.772-2.952v-1.656c-.63.846-1.818 1.656-3.438 1.656-2.61 0-4.68-2.106-4.68-5.166Zm8.118.036c0-2.124-1.458-3.33-3.006-3.33-1.53 0-3.006 1.152-3.006 3.294 0 2.142 1.476 3.384 3.006 3.384 1.548 0 3.006-1.206 3.006-3.348Zm13.747-4.95v9.918h-2.052v-1.188c-.648.846-1.764 1.332-2.934 1.332-2.322 0-4.086-1.458-4.086-4.23v-5.832h2.034v5.526c0 1.818.99 2.754 2.484 2.754 1.512 0 2.502-.936 2.502-2.754v-5.526h2.052Zm9.745 9.918v-5.544c0-1.818-.99-2.754-2.484-2.754-1.512 0-2.502.936-2.502 2.754v5.544h-2.052v-9.918h2.052v1.134c.666-.81 1.764-1.296 2.952-1.296 2.322 0 4.068 1.458 4.068 4.23v5.85h-2.034Zm4.976-2.754v-5.49h-1.17v-1.674h1.17v-2.466h2.07v2.466h2.412v1.674h-2.412v5.49c0 .738.288 1.044 1.152 1.044h1.26v1.71h-1.62c-1.764 0-2.862-.738-2.862-2.754Zm5.689-2.25c0-3.06 2.07-5.076 4.68-5.076 1.674 0 2.826.792 3.438 1.602v-1.44h2.07v9.918h-2.07v-1.476c-.63.846-1.818 1.638-3.474 1.638-2.574 0-4.644-2.106-4.644-5.166Zm8.118.036c0-2.124-1.458-3.33-3.006-3.33-1.53 0-3.006 1.152-3.006 3.294 0 2.142 1.476 3.384 3.006 3.384 1.548 0 3.006-1.206 3.006-3.348Zm12.163 2.196c0 1.674-1.458 2.934-3.798 2.934-2.376 0-4.05-1.404-4.14-3.204h2.124c.072.81.846 1.476 1.98 1.476 1.188 0 1.818-.504 1.818-1.188 0-1.944-5.76-.828-5.76-4.464 0-1.584 1.476-2.862 3.816-2.862 2.25 0 3.726 1.206 3.834 3.186h-2.052c-.072-.864-.738-1.458-1.854-1.458-1.098 0-1.674.45-1.674 1.116 0 1.998 5.598.882 5.706 4.464Zm-154.804 27.414 2.898-7.56h2.124l-6.084 14.58h-2.124l2.016-4.824-3.906-9.756h2.286l2.79 7.56Zm13.298-2.862v5.22h-2.052v-9.918h2.052v1.44c.576-.99 1.566-1.602 2.97-1.602v2.124h-.522c-1.512 0-2.448.63-2.448 2.736Zm9.032-3.132c-1.386 0-2.502.936-2.718 2.502h5.49c-.036-1.53-1.242-2.502-2.772-2.502Zm4.644 5.4c-.558 1.728-2.124 3.114-4.554 3.114-2.844 0-4.95-2.016-4.95-5.13s2.016-5.112 4.95-5.112c2.826 0 4.824 1.962 4.824 4.878 0 .342-.018.666-.072 1.008h-7.578c.144 1.638 1.314 2.628 2.826 2.628 1.26 0 1.962-.612 2.34-1.386h2.214Zm9.688.18c0 1.674-1.458 2.934-3.798 2.934-2.376 0-4.05-1.404-4.14-3.204h2.124c.072.81.846 1.476 1.98 1.476 1.188 0 1.818-.504 1.818-1.188 0-1.944-5.76-.828-5.76-4.464 0-1.584 1.476-2.862 3.816-2.862 2.25 0 3.726 1.206 3.834 3.186h-2.052c-.072-.864-.738-1.458-1.854-1.458-1.098 0-1.674.45-1.674 1.116 0 1.998 5.598.882 5.706 4.464Zm4.269-5.688c.63-.828 1.836-1.62 3.456-1.62 2.61 0 4.662 2.016 4.662 5.076 0 3.06-2.052 5.166-4.662 5.166a4.484 4.484 0 0 1-3.456-1.602v6.156h-2.052v-14.634h2.052v1.458Zm6.03 3.456c0-2.142-1.476-3.294-3.024-3.294-1.53 0-3.006 1.206-3.006 3.33 0 2.142 1.476 3.348 3.006 3.348 1.548 0 3.024-1.242 3.024-3.384Zm13.099-4.914v9.918h-2.052v-1.188c-.648.846-1.764 1.332-2.934 1.332-2.322 0-4.086-1.458-4.086-4.23v-5.832h2.034v5.526c0 1.818.99 2.754 2.484 2.754 1.512 0 2.502-.936 2.502-2.754v-5.526h2.052Zm6.883 1.566c-1.386 0-2.502.936-2.718 2.502h5.49c-.036-1.53-1.242-2.502-2.772-2.502Zm4.644 5.4c-.558 1.728-2.124 3.114-4.554 3.114-2.844 0-4.95-2.016-4.95-5.13s2.016-5.112 4.95-5.112c2.826 0 4.824 1.962 4.824 4.878 0 .342-.018.666-.072 1.008h-7.578c.144 1.638 1.314 2.628 2.826 2.628 1.26 0 1.962-.612 2.34-1.386h2.214Zm9.688.18c0 1.674-1.458 2.934-3.798 2.934-2.376 0-4.05-1.404-4.14-3.204h2.124c.072.81.846 1.476 1.98 1.476 1.188 0 1.818-.504 1.818-1.188 0-1.944-5.76-.828-5.76-4.464 0-1.584 1.476-2.862 3.816-2.862 2.25 0 3.726 1.206 3.834 3.186h-2.052c-.072-.864-.738-1.458-1.854-1.458-1.098 0-1.674.45-1.674 1.116 0 1.998 5.598.882 5.706 4.464Zm2.541.018v-5.49h-1.17v-1.674h1.17v-2.466h2.07v2.466h2.412v1.674h-2.412v5.49c0 .738.288 1.044 1.152 1.044h1.26v1.71h-1.62c-1.764 0-2.862-.738-2.862-2.754Zm5.689-2.25c0-3.06 2.07-5.076 4.68-5.076 1.674 0 2.826.792 3.438 1.602v-1.44h2.07v9.918h-2.07v-1.476c-.63.846-1.818 1.638-3.474 1.638-2.574 0-4.644-2.106-4.644-5.166Zm8.118.036c0-2.124-1.458-3.33-3.006-3.33-1.53 0-3.006 1.152-3.006 3.294 0 2.142 1.476 3.384 3.006 3.384 1.548 0 3.006-1.206 3.006-3.348Zm12.164 2.196c0 1.674-1.458 2.934-3.798 2.934-2.376 0-4.05-1.404-4.14-3.204h2.124c.072.81.846 1.476 1.98 1.476 1.188 0 1.818-.504 1.818-1.188 0-1.944-5.76-.828-5.76-4.464 0-1.584 1.476-2.862 3.816-2.862 2.25 0 3.726 1.206 3.834 3.186h-2.052c-.072-.864-.738-1.458-1.854-1.458-1.098 0-1.674.45-1.674 1.116 0 1.998 5.598.882 5.706 4.464ZM390.126 492.359h2.268c1.602 0 2.322-.774 2.322-2.034 0-1.296-.72-2.052-2.322-2.052h-2.268v4.086Zm6.696-2.034c0 1.782-1.17 3.708-4.428 3.708h-2.268v5.076h-2.052v-12.51h4.32c2.97 0 4.428 1.692 4.428 3.726Zm4.009 3.564v5.22h-2.052v-9.918h2.052v1.44c.576-.99 1.566-1.602 2.97-1.602v2.124h-.522c-1.512 0-2.448.63-2.448 2.736Zm14.306.252c0 3.114-2.304 5.13-5.148 5.13-2.826 0-4.968-2.016-4.968-5.13s2.232-5.112 5.058-5.112c2.826 0 5.058 1.998 5.058 5.112Zm-8.028 0c0 2.25 1.332 3.348 2.88 3.348 1.53 0 3.042-1.098 3.042-3.348s-1.458-3.33-2.988-3.33c-1.548 0-2.934 1.08-2.934 3.33Zm9.373 0c0-3.096 2.016-5.112 4.86-5.112 2.43 0 4.014 1.206 4.572 3.294H423.7c-.342-.954-1.134-1.566-2.358-1.566-1.656 0-2.754 1.224-2.754 3.384 0 2.178 1.098 3.402 2.754 3.402 1.224 0 1.98-.54 2.358-1.566h2.214c-.558 1.944-2.142 3.294-4.572 3.294-2.844 0-4.86-2.016-4.86-5.13Zm15.653-3.384c-1.386 0-2.502.936-2.718 2.502h5.49c-.036-1.53-1.242-2.502-2.772-2.502Zm4.644 5.4c-.558 1.728-2.124 3.114-4.554 3.114-2.844 0-4.95-2.016-4.95-5.13s2.016-5.112 4.95-5.112c2.826 0 4.824 1.962 4.824 4.878 0 .342-.018.666-.072 1.008h-7.578c.144 1.638 1.314 2.628 2.826 2.628 1.26 0 1.962-.612 2.34-1.386h2.214Zm9.687.18c0 1.674-1.458 2.934-3.798 2.934-2.376 0-4.05-1.404-4.14-3.204h2.124c.072.81.846 1.476 1.98 1.476 1.188 0 1.818-.504 1.818-1.188 0-1.944-5.76-.828-5.76-4.464 0-1.584 1.476-2.862 3.816-2.862 2.25 0 3.726 1.206 3.834 3.186h-2.052c-.072-.864-.738-1.458-1.854-1.458-1.098 0-1.674.45-1.674 1.116 0 1.998 5.598.882 5.706 4.464Zm11.667-2.196c0 3.114-2.304 5.13-5.148 5.13-2.826 0-4.968-2.016-4.968-5.13s2.232-5.112 5.058-5.112c2.826 0 5.058 1.998 5.058 5.112Zm-8.028 0c0 2.25 1.332 3.348 2.88 3.348 1.53 0 3.042-1.098 3.042-3.348s-1.458-3.33-2.988-3.33c-1.548 0-2.934 1.08-2.934 3.33Zm14.049-.036c0-3.06 2.07-5.076 4.698-5.076 1.296 0 2.664.612 3.42 1.548v-4.788h2.07v13.32h-2.07v-1.494c-.63.9-1.818 1.656-3.438 1.656-2.61 0-4.68-2.106-4.68-5.166Zm8.118.036c0-2.124-1.458-3.33-3.006-3.33-1.53 0-3.006 1.152-3.006 3.294 0 2.142 1.476 3.384 3.006 3.384 1.548 0 3.006-1.206 3.006-3.348Zm8.941-3.384c-1.386 0-2.502.936-2.718 2.502h5.49c-.036-1.53-1.242-2.502-2.772-2.502Zm4.644 5.4c-.558 1.728-2.124 3.114-4.554 3.114-2.844 0-4.95-2.016-4.95-5.13s2.016-5.112 4.95-5.112c2.826 0 4.824 1.962 4.824 4.878 0 .342-.018.666-.072 1.008h-7.578c.144 1.638 1.314 2.628 2.826 2.628 1.26 0 1.962-.612 2.34-1.386h2.214Zm6.281-3.33c0-3.744 2.862-6.39 6.39-6.39 2.61 0 4.86 1.314 5.814 3.762h-2.466c-.666-1.332-1.854-1.962-3.348-1.962-2.484 0-4.284 1.764-4.284 4.59 0 2.826 1.8 4.608 4.284 4.608 1.494 0 2.682-.63 3.348-1.962h2.466c-.954 2.448-3.204 3.744-5.814 3.744-3.528 0-6.39-2.628-6.39-6.39Zm18.782-2.07c-1.386 0-2.502.936-2.718 2.502h5.49c-.036-1.53-1.242-2.502-2.772-2.502Zm4.644 5.4c-.558 1.728-2.124 3.114-4.554 3.114-2.844 0-4.95-2.016-4.95-5.13s2.016-5.112 4.95-5.112c2.826 0 4.824 1.962 4.824 4.878 0 .342-.018.666-.072 1.008h-7.578c.144 1.638 1.314 2.628 2.826 2.628 1.26 0 1.962-.612 2.34-1.386h2.214Zm4.341-2.268v5.22h-2.052v-9.918h2.052v1.44c.576-.99 1.566-1.602 2.97-1.602v2.124h-.522c-1.512 0-2.448.63-2.448 2.736Zm5.18 2.466v-5.49h-1.17v-1.674h1.17v-2.466h2.07v2.466h2.412v1.674h-2.412v5.49c0 .738.288 1.044 1.152 1.044h1.26v1.71h-1.62c-1.764 0-2.862-.738-2.862-2.754Zm6.374 2.754v-9.918h2.052v9.918h-2.052Zm1.044-11.232a1.299 1.299 0 0 1-1.314-1.314c0-.738.576-1.314 1.314-1.314.72 0 1.296.576 1.296 1.314 0 .738-.576 1.314-1.296 1.314Zm3.954 11.232v-8.244h-1.17v-1.674h1.17v-.702c0-2.286 1.17-3.276 3.762-3.276v1.71c-1.26 0-1.692.432-1.692 1.566v.702h1.836v1.674h-1.836v8.244h-2.07Zm5.724 0v-9.918h2.052v9.918h-2.052Zm1.044-11.232a1.299 1.299 0 0 1-1.314-1.314c0-.738.576-1.314 1.314-1.314.72 0 1.296.576 1.296 1.314 0 .738-.576 1.314-1.296 1.314Zm3.018 6.264c0-3.096 2.016-5.112 4.86-5.112 2.43 0 4.014 1.206 4.573 3.294h-2.215c-.342-.954-1.134-1.566-2.358-1.566-1.656 0-2.754 1.224-2.754 3.384 0 2.178 1.098 3.402 2.754 3.402 1.224 0 1.98-.54 2.358-1.566h2.215c-.559 1.944-2.143 3.294-4.573 3.294-2.844 0-4.86-2.016-4.86-5.13Zm10.793-.036c0-3.06 2.07-5.076 4.68-5.076 1.674 0 2.826.792 3.438 1.602v-1.44h2.07v9.918h-2.07v-1.476c-.63.846-1.818 1.638-3.474 1.638-2.574 0-4.644-2.106-4.644-5.166Zm8.118.036c0-2.124-1.458-3.33-3.006-3.33-1.53 0-3.006 1.152-3.006 3.294 0 2.142 1.476 3.384 3.006 3.384 1.548 0 3.006-1.206 3.006-3.348Zm4.082 0c0-3.096 2.016-5.112 4.86-5.112 2.43 0 4.014 1.206 4.572 3.294h-2.214c-.342-.954-1.134-1.566-2.358-1.566-1.656 0-2.754 1.224-2.754 3.384 0 2.178 1.098 3.402 2.754 3.402 1.224 0 1.98-.54 2.358-1.566h2.214c-.558 1.944-2.142 3.294-4.572 3.294-2.844 0-4.86-2.016-4.86-5.13Zm11.477 4.968v-9.918h2.052v9.918h-2.052Zm1.044-11.232a1.299 1.299 0 0 1-1.314-1.314c0-.738.576-1.314 1.314-1.314.72 0 1.296.576 1.296 1.314 0 .738-.576 1.314-1.296 1.314Zm13.152 6.264c0 3.114-2.304 5.13-5.148 5.13-2.826 0-4.968-2.016-4.968-5.13s2.232-5.112 5.058-5.112c2.826 0 5.058 1.998 5.058 5.112Zm-8.028 0c0 2.25 1.332 3.348 2.88 3.348 1.53 0 3.042-1.098 3.042-3.348s-1.458-3.33-2.988-3.33c-1.548 0-2.934 1.08-2.934 3.33Zm.846-7.326 3.978-2.196v1.746l-3.978 1.962v-1.512Zm16.248 12.294v-5.544c0-1.818-.99-2.754-2.484-2.754-1.512 0-2.502.936-2.502 2.754v5.544h-2.052v-9.918h2.052v1.134c.666-.81 1.764-1.296 2.952-1.296 2.322 0 4.068 1.458 4.068 4.23v5.85h-2.034Zm-204.043 22.032c0-3.096 2.016-5.112 4.86-5.112 2.43 0 4.014 1.206 4.572 3.294h-2.214c-.342-.954-1.134-1.566-2.358-1.566-1.656 0-2.754 1.224-2.754 3.384 0 2.178 1.098 3.402 2.754 3.402 1.224 0 1.98-.54 2.358-1.566h2.214c-.558 1.944-2.142 3.294-4.572 3.294-2.844 0-4.86-2.016-4.86-5.13Zm20.927 0c0 3.114-2.304 5.13-5.148 5.13-2.826 0-4.968-2.016-4.968-5.13s2.232-5.112 5.058-5.112c2.826 0 5.058 1.998 5.058 5.112Zm-8.028 0c0 2.25 1.332 3.348 2.88 3.348 1.53 0 3.042-1.098 3.042-3.348s-1.458-3.33-2.988-3.33c-1.548 0-2.934 1.08-2.934 3.33Zm17.094 4.968v-5.544c0-1.818-.99-2.754-2.484-2.754-1.512 0-2.502.936-2.502 2.754v5.544h-2.052v-9.918h2.052v1.134c.666-.81 1.764-1.296 2.952-1.296 2.322 0 4.068 1.458 4.068 4.23v5.85h-2.034Zm13.504-8.352c-1.386 0-2.502.936-2.718 2.502h5.49c-.036-1.53-1.242-2.502-2.772-2.502Zm4.644 5.4c-.558 1.728-2.124 3.114-4.554 3.114-2.844 0-4.95-2.016-4.95-5.13s2.016-5.112 4.95-5.112c2.826 0 4.824 1.962 4.824 4.878 0 .342-.018.666-.072 1.008h-7.578c.144 1.638 1.314 2.628 2.826 2.628 1.26 0 1.962-.612 2.34-1.386h2.214Zm7.419 2.952-2.142-3.366-2.016 3.366h-2.142l3.204-4.878-3.204-5.04h2.322l2.142 3.366 2.016-3.366h2.142l-3.204 4.896 3.204 5.022h-2.322Zm3.168-5.004c0-3.06 2.07-5.076 4.68-5.076 1.674 0 2.826.792 3.438 1.602v-1.44h2.07v9.918h-2.07v-1.476c-.63.846-1.818 1.638-3.474 1.638-2.574 0-4.644-2.106-4.644-5.166Zm8.118.036c0-2.124-1.458-3.33-3.006-3.33-1.53 0-3.006 1.152-3.006 3.294 0 2.142 1.476 3.384 3.006 3.384 1.548 0 3.006-1.206 3.006-3.348Zm18.824 4.968v-5.544c0-1.818-.99-2.754-2.484-2.754-1.512 0-2.502.936-2.502 2.754v5.544h-2.034v-5.544c0-1.818-.99-2.754-2.484-2.754-1.512 0-2.502.936-2.502 2.754v5.544h-2.052v-9.918h2.052v1.134c.666-.81 1.746-1.296 2.934-1.296 1.566 0 2.88.666 3.564 1.962.612-1.206 2.016-1.962 3.456-1.962 2.322 0 4.086 1.458 4.086 4.23v5.85h-2.034Zm8.821-8.352c-1.386 0-2.502.936-2.718 2.502h5.49c-.036-1.53-1.242-2.502-2.772-2.502Zm4.644 5.4c-.558 1.728-2.124 3.114-4.554 3.114-2.844 0-4.95-2.016-4.95-5.13s2.016-5.112 4.95-5.112c2.826 0 4.824 1.962 4.824 4.878 0 .342-.018.666-.072 1.008h-7.578c.144 1.638 1.314 2.628 2.826 2.628 1.26 0 1.962-.612 2.34-1.386h2.214Zm9.327 2.952v-5.544c0-1.818-.99-2.754-2.484-2.754-1.512 0-2.502.936-2.502 2.754v5.544h-2.052v-9.918h2.052v1.134c.666-.81 1.764-1.296 2.952-1.296 2.322 0 4.068 1.458 4.068 4.23v5.85h-2.034Zm9.651-2.754v-5.49h-1.17v-1.674h1.17v-2.466h2.07v2.466h2.412v1.674h-2.412v5.49c0 .738.288 1.044 1.152 1.044h1.26v1.71h-1.62c-1.764 0-2.862-.738-2.862-2.754Zm10.55-5.598c-1.386 0-2.502.936-2.718 2.502h5.49c-.036-1.53-1.242-2.502-2.772-2.502Zm4.644 5.4c-.558 1.728-2.124 3.114-4.554 3.114-2.844 0-4.95-2.016-4.95-5.13s2.016-5.112 4.95-5.112c2.826 0 4.824 1.962 4.824 4.878 0 .342-.018.666-.072 1.008h-7.578c.144 1.638 1.314 2.628 2.826 2.628 1.26 0 1.962-.612 2.34-1.386h2.214Zm11.739-2.016c0 3.114-2.304 5.13-5.148 5.13-2.826 0-4.968-2.016-4.968-5.13s2.232-5.112 5.058-5.112c2.826 0 5.058 1.998 5.058 5.112Zm-8.028 0c0 2.25 1.332 3.348 2.88 3.348 1.53 0 3.042-1.098 3.042-3.348s-1.458-3.33-2.988-3.33c-1.548 0-2.934 1.08-2.934 3.33Zm.846-7.326 3.978-2.196v1.746l-3.978 1.962v-1.512Zm11.263 7.074v5.22h-2.052v-9.918h2.052v1.44c.576-.99 1.566-1.602 2.97-1.602v2.124h-.522c-1.512 0-2.448.63-2.448 2.736Zm4.856 5.22v-9.918h2.052v9.918h-2.052Zm1.044-11.232a1.299 1.299 0 0 1-1.314-1.314c0-.738.576-1.314 1.314-1.314.72 0 1.296.576 1.296 1.314 0 .738-.576 1.314-1.296 1.314Zm3.018 6.264c0-3.096 2.016-5.112 4.86-5.112 2.43 0 4.014 1.206 4.572 3.294h-2.214c-.342-.954-1.134-1.566-2.358-1.566-1.656 0-2.754 1.224-2.754 3.384 0 2.178 1.098 3.402 2.754 3.402 1.224 0 1.98-.54 2.358-1.566h2.214c-.558 1.944-2.142 3.294-4.572 3.294-2.844 0-4.86-2.016-4.86-5.13Zm20.927 0c0 3.114-2.304 5.13-5.148 5.13-2.826 0-4.968-2.016-4.968-5.13s2.232-5.112 5.058-5.112c2.826 0 5.058 1.998 5.058 5.112Zm-8.028 0c0 2.25 1.332 3.348 2.88 3.348 1.53 0 3.042-1.098 3.042-3.348s-1.458-3.33-2.988-3.33c-1.548 0-2.934 1.08-2.934 3.33Zm18.638 2.61 2.898-7.56h2.124l-6.084 14.58h-2.124l2.016-4.824-3.906-9.756h2.286l2.79 7.56Zm-154.136 24.39c0-3.096 2.016-5.112 4.86-5.112 2.43 0 4.014 1.206 4.572 3.294h-2.214c-.342-.954-1.134-1.566-2.358-1.566-1.656 0-2.754 1.224-2.754 3.384 0 2.178 1.098 3.402 2.754 3.402 1.224 0 1.98-.54 2.358-1.566h2.214c-.558 1.944-2.142 3.294-4.572 3.294-2.844 0-4.86-2.016-4.86-5.13Zm10.793-.036c0-3.06 2.07-5.076 4.68-5.076 1.674 0 2.826.792 3.438 1.602v-1.44h2.07v9.918h-2.07v-1.476c-.63.846-1.818 1.638-3.474 1.638-2.574 0-4.644-2.106-4.644-5.166Zm8.118.036c0-2.124-1.458-3.33-3.006-3.33-1.53 0-3.006 1.152-3.006 3.294 0 2.142 1.476 3.384 3.006 3.384 1.548 0 3.006-1.206 3.006-3.348Zm12.163 2.196c0 1.674-1.458 2.934-3.798 2.934-2.376 0-4.05-1.404-4.14-3.204h2.124c.072.81.846 1.476 1.98 1.476 1.188 0 1.818-.504 1.818-1.188 0-1.944-5.76-.828-5.76-4.464 0-1.584 1.476-2.862 3.816-2.862 2.25 0 3.726 1.206 3.834 3.186h-2.052c-.072-.864-.738-1.458-1.854-1.458-1.098 0-1.674.45-1.674 1.116 0 1.998 5.598.882 5.706 4.464Zm11.668-2.196c0 3.114-2.304 5.13-5.148 5.13-2.826 0-4.968-2.016-4.968-5.13s2.232-5.112 5.058-5.112c2.826 0 5.058 1.998 5.058 5.112Zm-8.028 0c0 2.25 1.332 3.348 2.88 3.348 1.53 0 3.042-1.098 3.042-3.348s-1.458-3.33-2.988-3.33c-1.548 0-2.934 1.08-2.934 3.33Zm16.784-3.492c.63-.828 1.836-1.62 3.456-1.62 2.61 0 4.662 2.016 4.662 5.076 0 3.06-2.052 5.166-4.662 5.166a4.484 4.484 0 0 1-3.456-1.602v6.156h-2.052v-14.634h2.052v1.458Zm6.03 3.456c0-2.142-1.476-3.294-3.024-3.294-1.53 0-3.006 1.206-3.006 3.33 0 2.142 1.476 3.348 3.006 3.348 1.548 0 3.024-1.242 3.024-3.384Zm6.169-.216v5.22h-2.052v-9.918h2.052v1.44c.576-.99 1.566-1.602 2.97-1.602v2.124h-.522c-1.512 0-2.448.63-2.448 2.736Zm4.172.216c0-3.06 2.07-5.076 4.68-5.076 1.674 0 2.826.792 3.438 1.602v-1.44h2.07v9.918h-2.07v-1.476c-.63.846-1.818 1.638-3.474 1.638-2.574 0-4.644-2.106-4.644-5.166Zm8.118.036c0-2.124-1.458-3.33-3.006-3.33-1.53 0-3.006 1.152-3.006 3.294 0 2.142 1.476 3.384 3.006 3.384 1.548 0 3.006-1.206 3.006-3.348Zm-4.806-7.164 3.978-2.196v1.746l-3.978 1.962v-1.512Zm8.888 7.164c0-3.096 2.016-5.112 4.86-5.112 2.43 0 4.014 1.206 4.572 3.294h-2.214c-.342-.954-1.134-1.566-2.358-1.566-1.656 0-2.754 1.224-2.754 3.384 0 2.178 1.098 3.402 2.754 3.402 1.224 0 1.98-.54 2.358-1.566h2.214c-.558 1.944-2.142 3.294-4.572 3.294-2.844 0-4.86-2.016-4.86-5.13Zm11.801 2.214v-5.49h-1.17v-1.674h1.17v-2.466h2.07v2.466h2.412v1.674h-2.412v5.49c0 .738.288 1.044 1.152 1.044h1.26v1.71h-1.62c-1.764 0-2.862-.738-2.862-2.754Zm6.373 2.754v-9.918h2.052v9.918h-2.052Zm1.044-11.232a1.299 1.299 0 0 1-1.314-1.314c0-.738.576-1.314 1.314-1.314.72 0 1.296.576 1.296 1.314 0 .738-.576 1.314-1.296 1.314Zm3.018 6.264c0-3.096 2.016-5.112 4.86-5.112 2.43 0 4.014 1.206 4.572 3.294h-2.214c-.342-.954-1.134-1.566-2.358-1.566-1.656 0-2.754 1.224-2.754 3.384 0 2.178 1.098 3.402 2.754 3.402 1.224 0 1.98-.54 2.358-1.566h2.214c-.558 1.944-2.142 3.294-4.572 3.294-2.844 0-4.86-2.016-4.86-5.13Zm20.927 0c0 3.114-2.304 5.13-5.148 5.13-2.826 0-4.968-2.016-4.968-5.13s2.232-5.112 5.058-5.112c2.826 0 5.058 1.998 5.058 5.112Zm-8.028 0c0 2.25 1.332 3.348 2.88 3.348 1.53 0 3.042-1.098 3.042-3.348s-1.458-3.33-2.988-3.33c-1.548 0-2.934 1.08-2.934 3.33ZM70.128 499.109l-.9-2.556H63.99l-.9 2.556h-2.142l4.482-12.528h2.376l4.482 12.528h-2.16Zm-1.476-4.23-2.034-5.814-2.052 5.814h4.086Zm4.901-.738c0-3.096 2.016-5.112 4.86-5.112 2.43 0 4.014 1.206 4.572 3.294h-2.214c-.342-.954-1.134-1.566-2.358-1.566-1.656 0-2.754 1.224-2.754 3.384 0 2.178 1.098 3.402 2.754 3.402 1.224 0 1.98-.54 2.358-1.566h2.214c-.558 1.944-2.142 3.294-4.572 3.294-2.844 0-4.86-2.016-4.86-5.13Zm11.801 2.214v-5.49h-1.17v-1.674h1.17v-2.466h2.07v2.466h2.412v1.674h-2.412v5.49c0 .738.288 1.044 1.152 1.044h1.26v1.71h-1.62c-1.764 0-2.862-.738-2.862-2.754Zm15.355-7.164v9.918h-2.052v-1.188c-.648.846-1.764 1.332-2.934 1.332-2.322 0-4.086-1.458-4.086-4.23v-5.832h2.034v5.526c0 1.818.99 2.754 2.484 2.754 1.512 0 2.502-.936 2.502-2.754v-5.526h2.052Zm2.024 4.914c0-3.06 2.07-5.076 4.68-5.076 1.674 0 2.826.792 3.438 1.602v-1.44h2.07v9.918h-2.07v-1.476c-.63.846-1.818 1.638-3.474 1.638-2.574 0-4.644-2.106-4.644-5.166Zm8.118.036c0-2.124-1.458-3.33-3.006-3.33-1.53 0-3.006 1.152-3.006 3.294 0 2.142 1.476 3.384 3.006 3.384 1.548 0 3.006-1.206 3.006-3.348Zm4.765 4.968v-13.32h2.052v13.32h-2.052Zm4.746 0v-9.918h2.052v9.918h-2.052Zm1.044-11.232a1.299 1.299 0 0 1-1.314-1.314c0-.738.576-1.314 1.314-1.314.72 0 1.296.576 1.296 1.314 0 .738-.576 1.314-1.296 1.314Zm10.02 1.314v1.674l-4.5 6.57h4.5v1.674h-6.876v-1.674l4.518-6.57h-4.518v-1.674h6.876Zm1.471 4.914c0-3.06 2.07-5.076 4.68-5.076 1.674 0 2.826.792 3.438 1.602v-1.44h2.07v9.918h-2.07v-1.476c-.63.846-1.818 1.638-3.474 1.638-2.574 0-4.644-2.106-4.644-5.166Zm8.118.036c0-2.124-1.458-3.33-3.006-3.33-1.53 0-3.006 1.152-3.006 3.294 0 2.142 1.476 3.384 3.006 3.384 1.548 0 3.006-1.206 3.006-3.348Zm4.081 0c0-3.096 2.016-5.112 4.86-5.112 2.43 0 4.014 1.206 4.572 3.294h-2.214c-.342-.954-1.134-1.566-2.358-1.566-1.656 0-2.754 1.224-2.754 3.384 0 2.178 1.098 3.402 2.754 3.402 1.224 0 1.98-.54 2.358-1.566h2.214c-.558 1.944-2.142 3.294-4.572 3.294-2.844 0-4.86-2.016-4.86-5.13Zm11.477 4.968v-9.918h2.052v9.918h-2.052Zm1.044-11.232a1.299 1.299 0 0 1-1.314-1.314c0-.738.576-1.314 1.314-1.314.72 0 1.296.576 1.296 1.314 0 .738-.576 1.314-1.296 1.314Zm13.152 6.264c0 3.114-2.304 5.13-5.148 5.13-2.826 0-4.968-2.016-4.968-5.13s2.232-5.112 5.058-5.112c2.826 0 5.058 1.998 5.058 5.112Zm-8.028 0c0 2.25 1.332 3.348 2.88 3.348 1.53 0 3.042-1.098 3.042-3.348s-1.458-3.33-2.988-3.33c-1.548 0-2.934 1.08-2.934 3.33Zm17.095 4.968v-5.544c0-1.818-.99-2.754-2.484-2.754-1.512 0-2.502.936-2.502 2.754v5.544h-2.052v-9.918h2.052v1.134c.666-.81 1.764-1.296 2.952-1.296 2.322 0 4.068 1.458 4.068 4.23v5.85h-2.034Zm8.827-8.352c-1.386 0-2.502.936-2.718 2.502h5.49c-.036-1.53-1.242-2.502-2.772-2.502Zm4.644 5.4c-.558 1.728-2.124 3.114-4.554 3.114-2.844 0-4.95-2.016-4.95-5.13s2.016-5.112 4.95-5.112c2.826 0 4.824 1.962 4.824 4.878 0 .342-.018.666-.072 1.008h-7.578c.144 1.638 1.314 2.628 2.826 2.628 1.26 0 1.962-.612 2.34-1.386h2.214Zm9.687.18c0 1.674-1.458 2.934-3.798 2.934-2.376 0-4.05-1.404-4.14-3.204h2.124c.072.81.846 1.476 1.98 1.476 1.188 0 1.818-.504 1.818-1.188 0-1.944-5.76-.828-5.76-4.464 0-1.584 1.476-2.862 3.816-2.862 2.25 0 3.726 1.206 3.834 3.186h-2.052c-.072-.864-.738-1.458-1.854-1.458-1.098 0-1.674.45-1.674 1.116 0 1.998 5.598.882 5.706 4.464Zm6.209-2.232c0-3.06 2.07-5.076 4.698-5.076 1.296 0 2.664.612 3.42 1.548v-4.788h2.07v13.32h-2.07v-1.494c-.63.9-1.818 1.656-3.438 1.656-2.61 0-4.68-2.106-4.68-5.166Zm8.118.036c0-2.124-1.458-3.33-3.006-3.33-1.53 0-3.006 1.152-3.006 3.294 0 2.142 1.476 3.384 3.006 3.384 1.548 0 3.006-1.206 3.006-3.348Zm8.942-3.384c-1.386 0-2.502.936-2.718 2.502h5.49c-.036-1.53-1.242-2.502-2.772-2.502Zm4.644 5.4c-.558 1.728-2.124 3.114-4.554 3.114-2.844 0-4.95-2.016-4.95-5.13s2.016-5.112 4.95-5.112c2.826 0 4.824 1.962 4.824 4.878 0 .342-.018.666-.072 1.008h-7.578c.144 1.638 1.314 2.628 2.826 2.628 1.26 0 1.962-.612 2.34-1.386h2.214Zm9.017-5.508c.63-.828 1.836-1.62 3.456-1.62 2.61 0 4.662 2.016 4.662 5.076 0 3.06-2.052 5.166-4.662 5.166a4.484 4.484 0 0 1-3.456-1.602v6.156h-2.052v-14.634h2.052v1.458Zm6.03 3.456c0-2.142-1.476-3.294-3.024-3.294-1.53 0-3.006 1.206-3.006 3.33 0 2.142 1.476 3.348 3.006 3.348 1.548 0 3.024-1.242 3.024-3.384Zm13.567.036c0 3.114-2.304 5.13-5.148 5.13-2.826 0-4.968-2.016-4.968-5.13s2.232-5.112 5.058-5.112c2.826 0 5.058 1.998 5.058 5.112Zm-8.028 0c0 2.25 1.332 3.348 2.88 3.348 1.53 0 3.042-1.098 3.042-3.348s-1.458-3.33-2.988-3.33c-1.548 0-2.934 1.08-2.934 3.33Zm12.109-.252v5.22h-2.052v-9.918h2.052v1.44c.576-.99 1.566-1.602 2.97-1.602v2.124h-.522c-1.512 0-2.448.63-2.448 2.736ZM76.31 516.191h2.196l2.808 8.082 2.808-8.082H86.3l-3.78 9.918h-2.448l-3.762-9.918Zm11.541 9.918v-9.918h2.052v9.918h-2.052Zm1.044-11.232a1.299 1.299 0 0 1-1.314-1.314c0-.738.576-1.314 1.314-1.314.72 0 1.296.576 1.296 1.314 0 .738-.576 1.314-1.296 1.314Zm3.018 6.228c0-3.06 2.07-5.076 4.698-5.076 1.296 0 2.664.612 3.42 1.548v-4.788h2.07v13.32h-2.07v-1.494c-.63.9-1.818 1.656-3.438 1.656-2.61 0-4.68-2.106-4.68-5.166Zm8.118.036c0-2.124-1.458-3.33-3.006-3.33-1.53 0-3.006 1.152-3.006 3.294 0 2.142 1.476 3.384 3.006 3.384 1.548 0 3.006-1.206 3.006-3.348Zm4.082-.036c0-3.06 2.07-5.076 4.68-5.076 1.674 0 2.826.792 3.438 1.602v-1.44h2.07v9.918h-2.07v-1.476c-.63.846-1.818 1.638-3.474 1.638-2.574 0-4.644-2.106-4.644-5.166Zm8.118.036c0-2.124-1.458-3.33-3.006-3.33-1.53 0-3.006 1.152-3.006 3.294 0 2.142 1.476 3.384 3.006 3.384 1.548 0 3.006-1.206 3.006-3.348Zm16.839 2.196c0 1.674-1.458 2.934-3.798 2.934-2.376 0-4.05-1.404-4.14-3.204h2.124c.072.81.846 1.476 1.98 1.476 1.188 0 1.818-.504 1.818-1.188 0-1.944-5.76-.828-5.76-4.464 0-1.584 1.476-2.862 3.816-2.862 2.25 0 3.726 1.206 3.834 3.186h-2.052c-.072-.864-.738-1.458-1.854-1.458-1.098 0-1.674.45-1.674 1.116 0 1.998 5.598.882 5.706 4.464Zm2.217 2.772v-9.918h2.052v9.918h-2.052Zm1.044-11.232a1.299 1.299 0 0 1-1.314-1.314c0-.738.576-1.314 1.314-1.314.72 0 1.296.576 1.296 1.314 0 .738-.576 1.314-1.296 1.314Zm10.74 11.232v-5.544c0-1.818-.99-2.754-2.484-2.754-1.512 0-2.502.936-2.502 2.754v5.544h-2.052v-9.918h2.052v1.134c.666-.81 1.764-1.296 2.952-1.296 2.322 0 4.068 1.458 4.068 4.23v5.85h-2.034Zm8.643-4.968c0-3.096 2.016-5.112 4.86-5.112 2.43 0 4.014 1.206 4.572 3.294h-2.214c-.342-.954-1.134-1.566-2.358-1.566-1.656 0-2.754 1.224-2.754 3.384 0 2.178 1.098 3.402 2.754 3.402 1.224 0 1.98-.54 2.358-1.566h2.214c-.558 1.944-2.142 3.294-4.572 3.294-2.844 0-4.86-2.016-4.86-5.13Zm20.927 0c0 3.114-2.304 5.13-5.148 5.13-2.826 0-4.968-2.016-4.968-5.13s2.232-5.112 5.058-5.112c2.826 0 5.058 1.998 5.058 5.112Zm-8.028 0c0 2.25 1.332 3.348 2.88 3.348 1.53 0 3.042-1.098 3.042-3.348s-1.458-3.33-2.988-3.33c-1.548 0-2.934 1.08-2.934 3.33Zm17.455 2.196c0 1.674-1.458 2.934-3.798 2.934-2.376 0-4.05-1.404-4.14-3.204h2.124c.072.81.846 1.476 1.98 1.476 1.188 0 1.818-.504 1.818-1.188 0-1.944-5.76-.828-5.76-4.464 0-1.584 1.476-2.862 3.816-2.862 2.25 0 3.726 1.206 3.834 3.186h-2.052c-.072-.864-.738-1.458-1.854-1.458-1.098 0-1.674.45-1.674 1.116 0 1.998 5.598.882 5.706 4.464Zm2.541.018v-5.49h-1.17v-1.674h1.17v-2.466h2.07v2.466h2.412v1.674h-2.412v5.49c0 .738.288 1.044 1.152 1.044h1.26v1.71h-1.62c-1.764 0-2.862-.738-2.862-2.754Zm10.549-5.598c-1.386 0-2.502.936-2.718 2.502h5.49c-.036-1.53-1.242-2.502-2.772-2.502Zm4.644 5.4c-.558 1.728-2.124 3.114-4.554 3.114-2.844 0-4.95-2.016-4.95-5.13s2.016-5.112 4.95-5.112c2.826 0 4.824 1.962 4.824 4.878 0 .342-.018.666-.072 1.008h-7.578c.144 1.638 1.314 2.628 2.826 2.628 1.26 0 1.962-.612 2.34-1.386h2.214Zm11.141-5.4c-1.386 0-2.502.936-2.718 2.502h5.49c-.036-1.53-1.242-2.502-2.772-2.502Zm4.644 5.4c-.558 1.728-2.124 3.114-4.554 3.114-2.844 0-4.95-2.016-4.95-5.13s2.016-5.112 4.95-5.112c2.826 0 4.824 1.962 4.824 4.878 0 .342-.018.666-.072 1.008h-7.578c.144 1.638 1.314 2.628 2.826 2.628 1.26 0 1.962-.612 2.34-1.386h2.214Zm7.42 2.952-2.142-3.366-2.016 3.366h-2.142l3.204-4.878-3.204-5.04h2.322l2.142 3.366 2.016-3.366h2.142l-3.204 4.896 3.204 5.022h-2.322Zm4.176-2.754v-5.49h-1.17v-1.674h1.17v-2.466h2.07v2.466h2.412v1.674h-2.412v5.49c0 .738.288 1.044 1.152 1.044h1.26v1.71h-1.62c-1.764 0-2.862-.738-2.862-2.754Zm8.425-2.466v5.22h-2.052v-9.918h2.052v1.44c.576-.99 1.566-1.602 2.97-1.602v2.124h-.522c-1.512 0-2.448.63-2.448 2.736Zm4.173.216c0-3.06 2.07-5.076 4.68-5.076 1.674 0 2.826.792 3.438 1.602v-1.44h2.07v9.918h-2.07v-1.476c-.63.846-1.818 1.638-3.474 1.638-2.574 0-4.644-2.106-4.644-5.166Zm8.118.036c0-2.124-1.458-3.33-3.006-3.33-1.53 0-3.006 1.152-3.006 3.294 0 2.142 1.476 3.384 3.006 3.384 1.548 0 3.006-1.206 3.006-3.348ZM790.71 495.563c0 1.872-1.53 3.672-4.32 3.672-2.502 0-4.428-1.368-4.428-3.582h2.196c.09 1.026.81 1.854 2.232 1.854 1.44 0 2.25-.774 2.25-1.836 0-3.024-6.642-1.062-6.642-5.67 0-2.196 1.746-3.564 4.302-3.564 2.394 0 4.086 1.26 4.266 3.402h-2.268c-.072-.846-.81-1.62-2.106-1.656-1.188-.036-2.106.54-2.106 1.746 0 2.826 6.624 1.062 6.624 5.634Zm11.872-1.422c0 3.114-2.304 5.13-5.148 5.13-2.826 0-4.968-2.016-4.968-5.13s2.232-5.112 5.058-5.112c2.826 0 5.058 1.998 5.058 5.112Zm-8.028 0c0 2.25 1.332 3.348 2.88 3.348 1.53 0 3.042-1.098 3.042-3.348s-1.458-3.33-2.988-3.33c-1.548 0-2.934 1.08-2.934 3.33Zm12.108-3.492c.63-.828 1.836-1.62 3.456-1.62 2.61 0 4.662 2.016 4.662 5.076 0 3.06-2.052 5.166-4.662 5.166a4.484 4.484 0 0 1-3.456-1.602v6.156h-2.052v-14.634h2.052v1.458Zm6.03 3.456c0-2.142-1.476-3.294-3.024-3.294-1.53 0-3.006 1.206-3.006 3.33 0 2.142 1.476 3.348 3.006 3.348 1.548 0 3.024-1.242 3.024-3.384Zm13.567.036c0 3.114-2.304 5.13-5.148 5.13-2.826 0-4.968-2.016-4.968-5.13s2.232-5.112 5.058-5.112c2.826 0 5.058 1.998 5.058 5.112Zm-8.028 0c0 2.25 1.332 3.348 2.88 3.348 1.53 0 3.042-1.098 3.042-3.348s-1.458-3.33-2.988-3.33c-1.548 0-2.934 1.08-2.934 3.33Zm12.109-.252v5.22h-2.052v-9.918h2.052v1.44c.576-.99 1.566-1.602 2.97-1.602v2.124h-.522c-1.512 0-2.448.63-2.448 2.736Zm5.18 2.466v-5.49h-1.17v-1.674h1.17v-2.466h2.07v2.466h2.412v1.674h-2.412v5.49c0 .738.288 1.044 1.152 1.044h1.26v1.71h-1.62c-1.764 0-2.862-.738-2.862-2.754Zm10.549-5.598c-1.386 0-2.502.936-2.718 2.502h5.49c-.036-1.53-1.242-2.502-2.772-2.502Zm4.644 5.4c-.558 1.728-2.124 3.114-4.554 3.114-2.844 0-4.95-2.016-4.95-5.13s2.016-5.112 4.95-5.112c2.826 0 4.824 1.962 4.824 4.878 0 .342-.018.666-.072 1.008h-7.578c.144 1.638 1.314 2.628 2.826 2.628 1.26 0 1.962-.612 2.34-1.386h2.214Zm6.281-2.052c0-3.06 2.07-5.076 4.698-5.076 1.296 0 2.664.612 3.42 1.548v-4.788h2.07v13.32h-2.07v-1.494c-.63.9-1.818 1.656-3.438 1.656-2.61 0-4.68-2.106-4.68-5.166Zm8.118.036c0-2.124-1.458-3.33-3.006-3.33-1.53 0-3.006 1.152-3.006 3.294 0 2.142 1.476 3.384 3.006 3.384 1.548 0 3.006-1.206 3.006-3.348Zm8.942-3.384c-1.386 0-2.502.936-2.718 2.502h5.49c-.036-1.53-1.242-2.502-2.772-2.502Zm4.644 5.4c-.558 1.728-2.124 3.114-4.554 3.114-2.844 0-4.95-2.016-4.95-5.13s2.016-5.112 4.95-5.112c2.826 0 4.824 1.962 4.824 4.878 0 .342-.018.666-.072 1.008h-7.578c.144 1.638 1.314 2.628 2.826 2.628 1.26 0 1.962-.612 2.34-1.386h2.214Zm-148.796 27.198v-5.49h-1.17v-1.674h1.17v-2.466h2.07v2.466h2.412v1.674h-2.412v5.49c0 .738.288 1.044 1.152 1.044h1.26v1.71h-1.62c-1.764 0-2.862-.738-2.862-2.754Zm15.355-7.164v9.918h-2.052v-1.188c-.648.846-1.764 1.332-2.934 1.332-2.322 0-4.086-1.458-4.086-4.23v-5.832h2.034v5.526c0 1.818.99 2.754 2.484 2.754 1.512 0 2.502-.936 2.502-2.754v-5.526h2.052Zm3.032 7.164v-5.49h-1.17v-1.674h1.17v-2.466h2.07v2.466h2.412v1.674h-2.412v5.49c0 .738.288 1.044 1.152 1.044h1.26v1.71h-1.62c-1.764 0-2.862-.738-2.862-2.754Zm15.823-2.214c0 3.114-2.304 5.13-5.148 5.13-2.826 0-4.968-2.016-4.968-5.13s2.232-5.112 5.058-5.112c2.826 0 5.058 1.998 5.058 5.112Zm-8.028 0c0 2.25 1.332 3.348 2.88 3.348 1.53 0 3.042-1.098 3.042-3.348s-1.458-3.33-2.988-3.33c-1.548 0-2.934 1.08-2.934 3.33Zm12.108-.252v5.22h-2.052v-9.918h2.052v1.44c.576-.99 1.566-1.602 2.97-1.602v2.124h-.522c-1.512 0-2.448.63-2.448 2.736Zm9.033-3.132c-1.386 0-2.502.936-2.718 2.502h5.49c-.036-1.53-1.242-2.502-2.772-2.502Zm4.644 5.4c-.558 1.728-2.124 3.114-4.554 3.114-2.844 0-4.95-2.016-4.95-5.13s2.016-5.112 4.95-5.112c2.826 0 4.824 1.962 4.824 4.878 0 .342-.018.666-.072 1.008h-7.578c.144 1.638 1.314 2.628 2.826 2.628 1.26 0 1.962-.612 2.34-1.386h2.214Zm9.687.18c0 1.674-1.458 2.934-3.798 2.934-2.376 0-4.05-1.404-4.14-3.204h2.124c.072.81.846 1.476 1.98 1.476 1.188 0 1.818-.504 1.818-1.188 0-1.944-5.76-.828-5.76-4.464 0-1.584 1.476-2.862 3.816-2.862 2.25 0 3.726 1.206 3.834 3.186h-2.052c-.072-.864-.738-1.458-1.854-1.458-1.098 0-1.674.45-1.674 1.116 0 1.998 5.598.882 5.706 4.464Zm11.069-5.58c-1.386 0-2.502.936-2.718 2.502h5.49c-.036-1.53-1.242-2.502-2.772-2.502Zm4.644 5.4c-.558 1.728-2.124 3.114-4.554 3.114-2.844 0-4.95-2.016-4.95-5.13s2.016-5.112 4.95-5.112c2.826 0 4.824 1.962 4.824 4.878 0 .342-.018.666-.072 1.008h-7.578c.144 1.638 1.314 2.628 2.826 2.628 1.26 0 1.962-.612 2.34-1.386h2.214Zm9.687.18c0 1.674-1.458 2.934-3.798 2.934-2.376 0-4.05-1.404-4.14-3.204h2.124c.072.81.846 1.476 1.98 1.476 1.188 0 1.818-.504 1.818-1.188 0-1.944-5.76-.828-5.76-4.464 0-1.584 1.476-2.862 3.816-2.862 2.25 0 3.726 1.206 3.834 3.186h-2.052c-.072-.864-.738-1.458-1.854-1.458-1.098 0-1.674.45-1.674 1.116 0 1.998 5.598.882 5.706 4.464Zm4.27-5.688c.63-.828 1.836-1.62 3.456-1.62 2.61 0 4.662 2.016 4.662 5.076 0 3.06-2.052 5.166-4.662 5.166a4.484 4.484 0 0 1-3.456-1.602v6.156h-2.052v-14.634h2.052v1.458Zm6.03 3.456c0-2.142-1.476-3.294-3.024-3.294-1.53 0-3.006 1.206-3.006 3.33 0 2.142 1.476 3.348 3.006 3.348 1.548 0 3.024-1.242 3.024-3.384Zm8.293-3.348c-1.386 0-2.502.936-2.718 2.502h5.49c-.036-1.53-1.242-2.502-2.772-2.502Zm4.644 5.4c-.558 1.728-2.124 3.114-4.554 3.114-2.844 0-4.95-2.016-4.95-5.13s2.016-5.112 4.95-5.112c2.826 0 4.824 1.962 4.824 4.878 0 .342-.018.666-.072 1.008h-7.578c.144 1.638 1.314 2.628 2.826 2.628 1.26 0 1.962-.612 2.34-1.386h2.214Zm1.605-2.016c0-3.096 2.016-5.112 4.86-5.112 2.43 0 4.014 1.206 4.572 3.294h-2.214c-.342-.954-1.134-1.566-2.358-1.566-1.656 0-2.754 1.224-2.754 3.384 0 2.178 1.098 3.402 2.754 3.402 1.224 0 1.98-.54 2.358-1.566h2.214c-.558 1.944-2.142 3.294-4.572 3.294-2.844 0-4.86-2.016-4.86-5.13Zm11.477 4.968v-9.918h2.052v9.918h-2.052Zm1.044-11.232a1.299 1.299 0 0 1-1.314-1.314c0-.738.576-1.314 1.314-1.314.72 0 1.296.576 1.296 1.314 0 .738-.576 1.314-1.296 1.314Zm3.018 6.228c0-3.06 2.07-5.076 4.68-5.076 1.674 0 2.826.792 3.438 1.602v-1.44h2.07v9.918h-2.07v-1.476c-.63.846-1.818 1.638-3.474 1.638-2.574 0-4.644-2.106-4.644-5.166Zm8.118.036c0-2.124-1.458-3.33-3.006-3.33-1.53 0-3.006 1.152-3.006 3.294 0 2.142 1.476 3.384 3.006 3.384 1.548 0 3.006-1.206 3.006-3.348Zm4.765 4.968v-13.32h2.052v13.32h-2.052Zm4.747 0v-9.918h2.052v9.918h-2.052Zm1.044-11.232a1.299 1.299 0 0 1-1.314-1.314c0-.738.576-1.314 1.314-1.314.72 0 1.296.576 1.296 1.314 0 .738-.576 1.314-1.296 1.314Zm10.02 1.314v1.674l-4.5 6.57h4.5v1.674h-6.876v-1.674l4.518-6.57h-4.518v-1.674h6.876Zm1.47 4.914c0-3.06 2.07-5.076 4.68-5.076 1.674 0 2.826.792 3.438 1.602v-1.44h2.07v9.918h-2.07v-1.476c-.63.846-1.818 1.638-3.474 1.638-2.574 0-4.644-2.106-4.644-5.166Zm8.118.036c0-2.124-1.458-3.33-3.006-3.33-1.53 0-3.006 1.152-3.006 3.294 0 2.142 1.476 3.384 3.006 3.384 1.548 0 3.006-1.206 3.006-3.348Zm4.082-.036c0-3.06 2.07-5.076 4.698-5.076 1.296 0 2.664.612 3.42 1.548v-4.788h2.07v13.32h-2.07v-1.494c-.63.9-1.818 1.656-3.438 1.656-2.61 0-4.68-2.106-4.68-5.166Zm8.118.036c0-2.124-1.458-3.33-3.006-3.33-1.53 0-3.006 1.152-3.006 3.294 0 2.142 1.476 3.384 3.006 3.384 1.548 0 3.006-1.206 3.006-3.348Zm14.215 0c0 3.114-2.304 5.13-5.148 5.13-2.826 0-4.968-2.016-4.968-5.13s2.232-5.112 5.058-5.112c2.826 0 5.058 1.998 5.058 5.112Zm-8.028 0c0 2.25 1.332 3.348 2.88 3.348 1.53 0 3.042-1.098 3.042-3.348s-1.458-3.33-2.988-3.33c-1.548 0-2.934 1.08-2.934 3.33Zm17.454 2.196c0 1.674-1.458 2.934-3.798 2.934-2.376 0-4.05-1.404-4.14-3.204h2.124c.072.81.846 1.476 1.98 1.476 1.188 0 1.818-.504 1.818-1.188 0-1.944-5.76-.828-5.76-4.464 0-1.584 1.476-2.862 3.816-2.862 2.25 0 3.726 1.206 3.834 3.186h-2.052c-.072-.864-.738-1.458-1.854-1.458-1.098 0-1.674.45-1.674 1.116 0 1.998 5.598.882 5.706 4.464ZM825.863 401.04v.59c0 6.073.003 12.147-.001 18.22-.001 1.817-.732 3.241-2.379 4.077-1.527.776-3.031.641-4.45-.327-.206-.141-.353-.322-.657-.093-1.39 1.046-2.915 1.213-4.474.462-1.68-.809-2.457-2.233-2.461-4.073-.011-4.166-.003-8.333-.004-12.499v-.517c-.647.035-1.259.151-1.85.085-2.288-.256-3.871-1.95-3.905-4.247-.045-3.028-.065-6.058.013-9.085.093-3.616 3.207-6.681 6.83-6.793 1.745-.053 3.492-.009 5.249-.043-1.596-.321-2.899-1.1-3.836-2.431-.951-1.352-1.258-2.859-.94-4.477.565-2.879 3.223-4.911 6.102-4.688 2.817.218 5.155 2.632 5.309 5.483.163 3.003-1.855 5.517-4.901 6.136 2.533-.305 4.716.271 6.23 2.532l.124-.105v-.492c0-3.012-.008-6.025.003-9.037.007-1.84.773-3.27 2.46-4.066a4.852 4.852 0 0 1 1.987-.447c6.715-.032 13.429-.03 20.144-.015 2.566.006 4.433 1.869 4.443 4.433.019 4.759.017 9.518.001 14.277-.009 2.611-1.886 4.454-4.517 4.459-5.192.009-10.384.007-15.576-.005a2.894 2.894 0 0 0-1.372.329 168.712 168.712 0 0 1-4.477 2.203c-.867.408-1.788.462-2.72.203-.106-.029-.219-.029-.375-.049Zm11.395-5.582c.101.004.241.016.382.016 4.23.001 8.461.002 12.691 0 1.13 0 1.686-.553 1.686-1.678.002-4.679.002-9.358 0-14.037 0-1.13-.553-1.686-1.678-1.687h-19.902c-1.131.001-1.687.553-1.688 1.678-.002 3.717-.001 7.435.001 11.152 0 .132.02.264.032.423.912-.441 1.758-.897 2.641-1.267 1.55-.65 3.013-.414 4.336.605.261.201.442.204.721.063 2.255-1.143 4.518-2.27 6.78-3.4.286-.143.569-.297.868-.407.777-.286 1.586.117 1.849.902.243.724-.076 1.407-.867 1.804-2.445 1.229-4.895 2.447-7.338 3.68-.149.075-.343.228-.362.367-.082.581-.105 1.171-.152 1.786Zm-22.934 11.587v12.644c0 .176-.007.354.011.529a1.446 1.446 0 0 0 1.414 1.313 1.447 1.447 0 0 0 1.449-1.328c.016-.175.009-.352.009-.529l.001-13.701c0-.177-.008-.354.01-.529.112-1.072 1.292-1.662 2.191-1.09.524.334.69.839.689 1.443-.008 4.68-.005 9.359-.004 14.039.001 1.028.558 1.686 1.427 1.695.884.009 1.453-.66 1.456-1.714v-.337l.001-20.913c0-.193-.006-.386.014-.577.061-.575.362-.995.899-1.204.512-.199 1.014-.134 1.442.233.279.24.533.508.798.764.66.636 1.189.732 1.998.331a729.314 729.314 0 0 0 5.452-2.731c.223-.113.445-.268.607-.456.439-.509.432-1.241.02-1.775-.414-.537-1.108-.719-1.769-.402-1.213.581-2.409 1.194-3.613 1.793-.948.471-1.459.393-2.197-.343-1.306-1.302-2.612-2.602-3.91-3.91-.354-.357-.747-.586-1.266-.585-2.837.005-5.674-.02-8.51.009-2.448.026-4.298 1.759-4.363 4.203-.079 2.931-.028 5.865-.017 8.798.002.616.33 1.067.901 1.303.965.399 1.963-.309 1.969-1.41.013-2.196.004-4.391.005-6.587 0-.657-.012-1.314.004-1.971.021-.83.635-1.447 1.422-1.456.806-.01 1.428.616 1.458 1.47.005.144.002.289.002.433v12.548Zm7.207-25.987c.006-1.584-1.314-2.962-2.855-2.982-1.548-.02-2.909 1.374-2.906 2.978.003 1.571 1.309 2.876 2.879 2.878 1.568.001 2.876-1.302 2.882-2.874Z" fill="#fff"/><path d="M663.639.523v601.891M330.361.523v601.891M991.506 301.469H1.621" stroke="#51BEF1" stroke-width="2"/><circle cx="163.722" cy="98.45" r="52.653" stroke="#51BEF1"/><path d="M191.588 117.199c.955.339 1.132.591 1.133 1.586v4.36c-.001 1.113-.375 1.48-1.507 1.48-7.456.001-14.913.003-22.369-.006-.372-.001-.598.082-.813.424a5.062 5.062 0 0 1-8.608.024c-.226-.356-.457-.451-.854-.45-7.419.012-14.838.009-22.257.009-1.25 0-1.59-.335-1.591-1.565 0-1.454-.001-2.907.001-4.36.001-.905.219-1.197 1.132-1.486 0-1.094-.007-2.203.003-3.313.007-.764.419-1.264 1.161-1.251 3.848.066 7.324-1.213 10.724-2.839 1.988-.951 4.082-1.566 6.311-1.605 3.258-.057 5.935 1.224 8.128 3.578.537.576 1.017 1.205 1.551 1.843.367-.459.714-.921 1.09-1.36 2.376-2.773 5.34-4.255 9.046-4.045 2.1.119 4.064.766 5.963 1.638 2.056.943 4.1 1.937 6.35 2.334 1.203.213 2.427.35 3.647.418 1.501.084 1.759.301 1.759 1.826v2.76Zm-1.149 2.33h-.44c-7.456 0-14.913.002-22.37-.001-1.258 0-2.258.433-2.955 1.543-.467.742-1.428.759-1.885.024-.746-1.203-1.834-1.574-3.17-1.572-7.344.013-14.687.006-22.031.006h-.56v2.83h22.456c1.046 0 1.22.114 1.618 1.059.452 1.073 1.471 1.766 2.604 1.771 1.157.006 2.185-.692 2.644-1.795.373-.897.581-1.035 1.578-1.035h22.511v-2.83Zm-1.144-4.634c-2.35-.129-4.605-.552-6.757-1.402-1.611-.636-3.174-1.389-4.779-2.039-2.154-.873-4.372-1.313-6.682-.701-2.517.667-4.199 2.391-5.66 4.435-.592.828-.616 1.673-.522 2.644 1.176-.568 2.397-.576 3.626-.574 6.696.009 13.392.004 20.088.004h.686v-2.367Zm-26.771 2.922c.261-1.158-.024-2.126-.76-2.978-.493-.57-.932-1.19-1.459-1.725-2.006-2.037-4.427-2.915-7.288-2.555-1.629.206-3.122.808-4.625 1.424-1.965.805-3.933 1.628-5.958 2.252-1.368.422-2.837.515-4.271.757v2.27h.712c6.809 0 13.619.005 20.428-.005 1.102-.002 2.181.08 3.221.56ZM156.924 98.567c0-1.019-.026-2.038.007-3.056a4.71 4.71 0 0 0-.904-2.973 213.93 213.93 0 0 0-2.226-3.067 12.461 12.461 0 0 1 7.263-19.714c7.067-1.628 14.231 3.474 15.023 10.682.37 3.366-.471 6.384-2.489 9.092-.732.983-1.446 1.979-2.162 2.974-.648.901-.944 1.9-.927 3.022.034 2.17.001 4.34.017 6.509.003.508-.149.911-.511 1.263-.664.643-1.282 1.337-1.979 1.942-.286.248-.724.444-1.097.451-2.15.042-4.302.04-6.452.001-.358-.006-.781-.187-1.051-.425a21.223 21.223 0 0 1-2.038-2.041 2.043 2.043 0 0 1-.453-1.152c-.059-1.166-.021-2.338-.021-3.508Zm11.379-4.21c.174-1.592 1.031-2.837 1.904-4.07.49-.692 1.007-1.366 1.519-2.043 1.731-2.287 2.439-4.839 2.092-7.702-.685-5.639-6.344-9.753-11.928-8.64-7.565 1.507-10.844 10.071-6.244 16.26 1.429 1.922 3.121 3.706 3.523 6.193h3.357c.026-.062.051-.095.051-.128.005-3.095.012-6.189 0-9.283-.001-.178-.121-.39-.249-.526-.531-.563-1.097-1.092-1.63-1.652-.436-.458-.49-.98-.192-1.443.411-.637 1.203-.715 1.801-.14.471.451.902.945 1.417 1.49.518-.552.929-1.018 1.372-1.453.557-.546 1.229-.562 1.701-.072.456.473.43 1.116-.092 1.663-.482.505-1.011.967-1.466 1.494-.197.23-.365.575-.368.87-.027 2.867-.016 5.735-.016 8.603v.578h3.448Zm-9.085 4.52h8.988V96.68h-8.988v2.197Zm-.169 2.329c.188.382.287.705.482.952.279.352.604.678.957.956.213.169.512.31.777.317 1.205.033 2.419-.074 3.614.038 1.3.123 2.312-.222 3.041-1.306.178-.265.287-.575.472-.957h-9.343ZM146.187 83.054c-.395 0-.791.019-1.185-.004-.642-.037-1.103-.524-1.101-1.13.003-.608.466-1.1 1.11-1.12a35.747 35.747 0 0 1 2.313 0 1.116 1.116 0 0 1 1.101 1.129c-.002.606-.466 1.086-1.11 1.122-.375.02-.752.004-1.128.003ZM181.253 83.055c-.376 0-.754.017-1.128-.004-.645-.037-1.106-.518-1.107-1.126a1.115 1.115 0 0 1 1.104-1.125c.77-.025 1.542-.025 2.312 0 .643.02 1.107.516 1.108 1.122 0 .607-.462 1.093-1.105 1.128-.393.022-.789.004-1.184.005ZM150.615 73.53c-.01 1.023-.842 1.572-1.599 1.195a21.96 21.96 0 0 1-2.142-1.243c-.502-.326-.606-.94-.322-1.448.274-.492.889-.746 1.408-.483.769.39 1.521.822 2.233 1.306.243.165.343.54.422.674ZM181.046 72.791c-.127.167-.309.555-.614.772-.593.423-1.248.764-1.892 1.112-.607.329-1.254.151-1.567-.395-.315-.547-.148-1.192.441-1.555.639-.394 1.286-.78 1.954-1.12.784-.401 1.652.113 1.678 1.186ZM150.605 90.385c-.086.13-.207.487-.456.655-.683.46-1.405.869-2.139 1.247-.546.28-1.178.047-1.459-.464-.292-.53-.165-1.147.368-1.484.682-.43 1.377-.85 2.1-1.205.782-.384 1.624.2 1.586 1.25ZM179.806 92.397c-.122-.043-.347-.09-.539-.195a47.111 47.111 0 0 1-1.804-1.042c-.628-.382-.816-1.024-.491-1.587.326-.563.977-.723 1.618-.37.642.352 1.279.715 1.899 1.103.458.287.654.722.5 1.26-.153.534-.532.797-1.183.83Z" fill="#fff"/></svg>