<svg width="138" height="43" fill="none" xmlns="http://www.w3.org/2000/svg"><g clip-path="url(#a)" fill="#009C9C"><path d="M.47 42.953v-3.601h.256v3.601H.47ZM4.189 39.835v3.114h-.256v-3.601h.197l2.51 3.172v-3.172h.257v3.601H6.66l-2.47-3.114ZM10.353 39.835v3.114h-.256v-3.601h.197l2.511 3.172v-3.172h.256v3.601h-.238l-2.47-3.114ZM17.69 42.977c-.249 0-.477-.053-.682-.158a1.72 1.72 0 0 1-.529-.41 1.923 1.923 0 0 1 .016-2.531c.151-.171.328-.304.533-.404.206-.1.427-.15.665-.15.238 0 .476.053.683.16.208.106.383.245.529.42.146.171.26.368.34.585a1.911 1.911 0 0 1-.36 1.94c-.15.167-.328.3-.533.4-.206.1-.427.15-.665.15l.002-.002Zm-1.418-1.827c0 .206.035.405.104.595.069.19.166.36.292.508.126.147.277.264.452.352.175.088.366.13.575.13.21 0 .409-.044.582-.137.172-.092.32-.212.443-.362a1.736 1.736 0 0 0 .28-1.684 1.678 1.678 0 0 0-.294-.508 1.46 1.46 0 0 0-.446-.351 1.217 1.217 0 0 0-.565-.131c-.215 0-.41.045-.585.137a1.466 1.466 0 0 0-.45.362c-.124.15-.22.321-.286.51a1.73 1.73 0 0 0-.102.579ZM22.075 39.348l1.36 3.278 1.36-3.278h.273l-1.513 3.601h-.237L21.8 39.348h.274ZM28.703 39.348h.222l1.513 3.601h-.273l-.498-1.187H27.96l-.498 1.187h-.276l1.523-3.601h-.005Zm.893 2.202-.78-1.887-.798 1.887h1.578ZM32.871 41.127c0-.217.039-.432.114-.647.075-.215.185-.407.33-.575a1.68 1.68 0 0 1 .532-.413c.21-.107.45-.16.718-.16.319 0 .592.074.817.221.226.147.393.336.504.565l-.211.12a1.227 1.227 0 0 0-.224-.315 1.184 1.184 0 0 0-.585-.319 1.418 1.418 0 0 0-.318-.035c-.227 0-.43.047-.605.14a1.45 1.45 0 0 0-.444.362c-.12.15-.213.317-.274.505a1.766 1.766 0 0 0-.094.565c0 .213.037.415.112.61.073.192.175.362.303.51.128.147.279.263.453.351.175.088.364.131.566.131.108 0 .217-.014.333-.04a1.278 1.278 0 0 0 .62-.349c.092-.09.167-.194.228-.317l.222.107a1.216 1.216 0 0 1-.246.36 1.568 1.568 0 0 1-.755.424 1.77 1.77 0 0 1-.42.053c-.246 0-.47-.053-.673-.162a1.796 1.796 0 0 1-.527-.424 1.981 1.981 0 0 1-.47-1.27l-.006.002ZM38.865 42.953v-3.601h.256v3.601h-.256ZM43.755 42.977c-.248 0-.475-.053-.68-.158a1.718 1.718 0 0 1-.53-.411 1.923 1.923 0 0 1 .016-2.531c.151-.17.328-.303.534-.404.205-.1.427-.149.665-.149.237 0 .475.053.683.16.207.106.382.245.528.42.147.171.26.368.34.584a1.91 1.91 0 0 1-.36 1.94c-.15.168-.327.301-.533.401-.205.1-.427.15-.665.15l.002-.002Zm-1.417-1.827c0 .206.035.405.104.595.07.19.167.36.293.508.126.147.276.264.451.351.175.088.366.131.576.131.209 0 .408-.045.581-.137.173-.092.321-.212.443-.362a1.736 1.736 0 0 0 .28-1.684 1.676 1.676 0 0 0-.294-.508 1.459 1.459 0 0 0-.445-.351 1.217 1.217 0 0 0-.565-.131c-.216 0-.411.044-.586.137a1.466 1.466 0 0 0-.45.362 1.728 1.728 0 0 0-.388 1.089Zm1.417-2.34-.176-.081.307-.432h.292l-.422.512v.002ZM48.65 39.835v3.114h-.256v-3.601h.197l2.51 3.172v-3.172h.257v3.601h-.238l-2.47-3.114ZM60.476 42.951l-.372-.39a1.57 1.57 0 0 1-.486.327 1.47 1.47 0 0 1-1.037.038 1.163 1.163 0 0 1-.368-.21.973.973 0 0 1-.244-.317.911.911 0 0 1-.087-.401.87.87 0 0 1 .059-.33c.038-.102.091-.194.156-.278a1.62 1.62 0 0 1 .224-.236 2.96 2.96 0 0 1 .266-.204 5.015 5.015 0 0 1-.207-.248 1.496 1.496 0 0 1-.138-.21.945.945 0 0 1-.078-.189.744.744 0 0 1 .047-.505.782.782 0 0 1 .193-.258.863.863 0 0 1 .293-.17c.114-.04.234-.061.366-.061.122 0 .234.016.34.05.105.035.199.085.276.148.078.064.14.141.187.233a.685.685 0 0 1 .067.305c0 .103-.02.197-.059.285a.984.984 0 0 1-.156.245 1.5 1.5 0 0 1-.234.215 8.68 8.68 0 0 1-.287.203l.913.964c.063-.121.114-.254.149-.4a1.95 1.95 0 0 0 .053-.458h.368a2.46 2.46 0 0 1-.084.614c-.053.19-.126.362-.223.518l.69.726h-.585l-.002-.006Zm-1.39-.305c.15 0 .292-.03.422-.092.13-.061.248-.145.354-.254l-1.018-1.08a1.95 1.95 0 0 0-.387.358.652.652 0 0 0-.083.698c.043.082.101.15.175.202a.821.821 0 0 0 .246.125.97.97 0 0 0 .29.043Zm-.54-2.541c0 .037.007.073.019.108a.61.61 0 0 0 .061.12c.029.046.067.101.118.163.05.063.116.137.197.22.175-.112.315-.218.423-.32a.469.469 0 0 0 .16-.349.374.374 0 0 0-.132-.292.483.483 0 0 0-.333-.115.519.519 0 0 0-.37.135.433.433 0 0 0-.144.328l.002.002ZM67.388 42.953v-3.601h1.486c.15 0 .29.032.419.096.128.063.238.15.33.255.09.107.164.228.217.36.053.134.077.269.077.404a1.199 1.199 0 0 1-.232.714.947.947 0 0 1-.61.37l.893 1.4h-.297l-.866-1.359h-1.16v1.36h-.255l-.002.001Zm.256-1.598h1.254a.65.65 0 0 0 .314-.076.79.79 0 0 0 .242-.2.936.936 0 0 0 .154-.285 1.05 1.05 0 0 0 .053-.327.889.889 0 0 0-.063-.332.986.986 0 0 0-.171-.282.861.861 0 0 0-.252-.195.668.668 0 0 0-.31-.073h-1.22v1.77h-.001ZM75.31 42.716v.233h-2.384v-3.601h2.338v.233h-2.082v1.416h1.82v.223h-1.82v1.496H75.311ZM80.287 39.948c-.232-.26-.56-.39-.982-.39-.35 0-.604.067-.765.2a.664.664 0 0 0-.24.54c0 .115.02.211.062.287a.52.52 0 0 0 .189.194c.085.053.193.1.325.137.13.037.289.076.474.117.19.04.366.086.522.135.157.05.289.11.399.184a.77.77 0 0 1 .252.274.828.828 0 0 1 .087.401.87.87 0 0 1-.093.416.851.851 0 0 1-.263.297c-.111.08-.246.139-.402.18a2.06 2.06 0 0 1-.523.061c-.557 0-1.03-.18-1.417-.538l.136-.209c.15.16.336.285.555.379.218.094.464.139.736.139.314 0 .558-.057.734-.172.177-.115.265-.289.265-.522a.611.611 0 0 0-.071-.303.619.619 0 0 0-.21-.215 1.404 1.404 0 0 0-.35-.157 6.14 6.14 0 0 0-.494-.127 6.085 6.085 0 0 1-.506-.129 1.315 1.315 0 0 1-.368-.172.674.674 0 0 1-.224-.252.827.827 0 0 1-.075-.37.95.95 0 0 1 .094-.432.913.913 0 0 1 .26-.317c.112-.086.244-.151.398-.194.155-.043.326-.066.515-.066.232 0 .44.035.62.105.181.07.346.173.494.317l-.13.202h-.004ZM84.96 42.736c.241 0 .442-.045.601-.137a1.07 1.07 0 0 0 .378-.36c.092-.15.159-.317.197-.507.039-.19.06-.381.06-.573v-1.811h.255v1.81c0 .24-.026.471-.077.69a1.69 1.69 0 0 1-.254.581c-.118.168-.27.301-.46.4-.188.098-.42.147-.695.147-.274 0-.524-.051-.716-.156a1.268 1.268 0 0 1-.461-.411c-.116-.17-.2-.364-.246-.581a3.045 3.045 0 0 1-.073-.67v-1.81h.256v1.81c0 .201.018.396.059.584.038.19.106.358.201.505.096.148.222.266.38.356.159.09.356.136.596.136l-.002-.003ZM89.603 42.953v-3.601h.256v3.368h2.137v.233H89.6h.002ZM96.705 39.58h-1.311v3.37h-.256v-3.37h-1.312v-.232h2.88v.233ZM99.04 41.686v-.233h1.451v.233h-1.452ZM103.319 41.127c0-.217.039-.432.114-.647.075-.215.185-.407.33-.575.144-.17.321-.307.532-.413.21-.107.45-.16.718-.16.319 0 .592.074.817.221.226.147.393.336.505.565l-.212.12a1.235 1.235 0 0 0-.223-.315 1.188 1.188 0 0 0-.586-.319 1.422 1.422 0 0 0-.317-.035c-.228 0-.431.047-.606.14a1.449 1.449 0 0 0-.443.362 1.58 1.58 0 0 0-.275.505 1.768 1.768 0 0 0-.093.565 1.7 1.7 0 0 0 .414 1.12c.128.147.279.263.454.351.175.088.364.131.565.131.108 0 .218-.014.333-.04a1.285 1.285 0 0 0 .848-.666l.222.107a1.21 1.21 0 0 1-.246.36 1.579 1.579 0 0 1-.754.424 1.777 1.777 0 0 1-.421.053c-.246 0-.47-.053-.673-.162a1.797 1.797 0 0 1-.527-.424 2.005 2.005 0 0 1-.47-1.27l-.006.002ZM111.697 42.716v.233h-2.385v-3.601h2.338v.233h-2.082v1.416h1.819v.223h-1.819v1.496h2.129ZM114.923 39.835v3.114h-.256v-3.601h.197l2.511 3.172v-3.172h.256v3.601h-.237l-2.471-3.114ZM123.33 39.58h-1.311v3.37h-.256v-3.37h-1.312v-.232h2.879v.233ZM126.154 42.953v-3.601h1.487c.15 0 .29.032.418.096.129.063.238.15.33.255.091.107.165.228.217.36.053.134.078.269.078.404a1.216 1.216 0 0 1-.232.714.953.953 0 0 1-.61.37l.892 1.4h-.296l-.867-1.359h-1.158v1.36h-.257l-.002.001Zm.256-1.598h1.255a.647.647 0 0 0 .313-.076.783.783 0 0 0 .242-.2.948.948 0 0 0 .207-.612.883.883 0 0 0-.063-.332.88.88 0 0 0-.422-.477.673.673 0 0 0-.31-.073h-1.219v1.77h-.003ZM131.693 42.953v-3.601h.257v3.601h-.257ZM134.909 41.127c0-.217.039-.432.114-.647.075-.215.185-.407.329-.575.145-.17.322-.307.533-.413.21-.107.449-.16.718-.16.319 0 .592.074.817.221.226.147.393.336.504.565l-.211.12a1.183 1.183 0 0 0-.809-.634 1.422 1.422 0 0 0-.317-.035c-.228 0-.431.047-.606.14a1.453 1.453 0 0 0-.444.362c-.12.15-.213.317-.274.505a1.77 1.77 0 0 0-.094.565c0 .213.037.415.112.61.073.192.175.362.303.51.128.147.279.263.454.351.174.088.364.131.565.131.108 0 .217-.014.333-.04a1.285 1.285 0 0 0 .848-.666l.222.107a1.23 1.23 0 0 1-.246.36 1.579 1.579 0 0 1-.755.424 1.762 1.762 0 0 1-.42.053c-.246 0-.47-.053-.673-.162a1.784 1.784 0 0 1-.527-.424 2.005 2.005 0 0 1-.47-1.27l-.006.002ZM31.066 7.45c-6.986 0-14.074 4.86-14.074 13.957 0 9.099 7.088 13.959 14.074 13.959 6.987 0 14.074-4.86 14.074-13.959C45.14 12.31 38 7.45 31.066 7.45ZM30.95 29.25c-4.304 0-7.793-3.512-7.793-7.844 0-4.332 3.489-7.843 7.793-7.843 4.305 0 7.794 3.511 7.794 7.843s-3.49 7.844-7.794 7.844ZM74.266 34.852h-6.882v-2.665c-.753.684-3.746 3.238-8.168 3.182-1.07-.014-4.05-.057-6.588-2.228-2.15-1.842-3.531-4.887-3.531-9.352V7.97h6.882V22.65c0 3.93 2.107 6.514 5.701 6.514 3.595 0 5.702-2.585 5.702-6.514V7.97h6.882v26.883h.002ZM79.506 7.967h6.882v3.28c1.192-1.01 2.585-1.923 4.187-2.73 0 0 2.12-1.068 4.186-1.068a7.09 7.09 0 0 1 1.798.207v6.618a9.874 9.874 0 0 0-1.747-.156c-5.189 0-8.424 3.62-8.424 8.996V34.85h-6.882V7.967ZM100.462 7.967h6.882v3.325c.385-.468.976-1.109 1.81-1.733 2.694-2.016 5.589-2.11 6.358-2.11 5.496 0 10.119 3.412 10.119 11.58v15.82h-6.882V20.168c0-3.929-2.107-6.513-5.701-6.513-3.595 0-5.702 2.584-5.702 6.513V34.85h-6.882V7.967h-.002ZM137.754 7.969h-6.883v26.883h6.883V7.969Z"/><path d="m27.027 25.02 4.134-9.055 3.89 9.15c-.698-1.513-2.154-2.522-3.782-2.616-1.765-.1-3.442.894-4.244 2.521h.002ZM31.15 3.438c.943 0 1.707-.77 1.707-1.72C32.857.77 32.093 0 31.15 0c-.943 0-1.708.77-1.708 1.719 0 .95.765 1.719 1.708 1.719ZM5.902 7.45v17.823c0 2.106-.79 3.16-2.37 3.16-.387 0-.712-.035-.974-.107a3.075 3.075 0 0 1-.818-.37L0 34.107a9.339 9.339 0 0 0 1.95.557 13.83 13.83 0 0 0 2.37.186c1.16 0 2.25-.17 3.268-.508a7.005 7.005 0 0 0 2.688-1.63c.773-.752 1.387-1.722 1.844-2.917.456-1.195.685-2.648.685-4.358V7.449H5.902Z"/></g><defs><clipPath id="a"><path fill="#fff" d="M0 0h138v43H0z"/></clipPath></defs></svg>