<svg width="26" height="24" viewBox="0 0 26 24" fill="none" xmlns="http://www.w3.org/2000/svg">
<path d="M24.4724 16.8058L24.4537 16.9621C23.8266 16.6496 20.7725 15.1558 20.2037 14.9496C18.9267 14.4767 19.2871 14.8746 16.835 17.6829C16.4704 18.0891 16.1079 18.1204 15.4892 17.8391C14.8642 17.5267 12.858 16.8704 10.483 14.7454C8.63303 13.0892 7.39138 11.058 7.02472 10.433C6.41431 9.37884 7.69138 9.22884 8.85386 7.02887C9.06219 6.59137 8.95594 6.24763 8.80178 5.93721C8.64553 5.62472 7.4018 2.56225 6.88097 1.34144C6.38097 0.124784 5.8664 0.27895 5.48099 0.27895C4.281 0.174784 3.40393 0.19145 2.63102 0.995607C-0.731438 4.69139 0.116469 8.50385 2.99352 12.558C8.64761 19.9579 11.6601 21.3204 17.1683 23.212C18.6558 23.6849 20.0121 23.6182 21.085 23.4641C22.2808 23.2745 24.7662 21.962 25.2849 20.4933C25.8162 19.0245 25.8162 17.8058 25.6599 17.5246C25.5057 17.2433 25.0974 17.0871 24.4724 16.8058Z" fill="#FAFAFA"/>
</svg>
