<svg width="20" height="14" viewBox="0 0 20 14" fill="none" xmlns="http://www.w3.org/2000/svg">
<path d="M19.841 4.52641C19.6994 4.34512 19.4822 4.23938 19.252 4.23938H4.618L3.94467 1.42217C3.86413 1.08553 3.56311 0.84787 3.21697 0.84787H0.74813C0.334924 0.847831 0 1.18275 0 1.59596C0 2.00917 0.334924 2.34409 0.74813 2.34409H2.62646L5.05788 12.5177C5.13843 12.8546 5.43945 13.092 5.78558 13.092H17.4316C17.7755 13.092 18.0752 12.8576 18.1577 12.5239L19.9782 5.16727C20.0333 4.94387 19.9827 4.7077 19.841 4.52641ZM16.8462 11.5958H6.3761L4.97558 5.73564H18.2961L16.8462 11.5958Z" fill="#CA3A2B"/>
</svg>
