<svg xmlns="http://www.w3.org/2000/svg" width="39.689" height="41.807"><g fill="#c79e4e"><path data-name="Trazado 3477" d="M38.792 4.334v-2.3a1.638 1.638 0 0 0-3.276 0v2.332a1.416 1.416 0 0 0-.824 1.285v23.858a.613.613 0 0 0 1.225 0V10.865h2.545v24.542h-2.548v-3.049a.613.613 0 0 0-1.225 0v3.661a.616.616 0 0 0 .02.154l1.211 4.654a1.311 1.311 0 0 0 2.537 0l1.211-4.654a.613.613 0 0 0 .02-.154V5.651a1.416 1.416 0 0 0-.9-1.316zM35.917 5.65a.189.189 0 0 1 .189-.189h2.169a.189.189 0 0 1 .189.189v1.46h-2.548V5.651zm1.237-4.025a.414.414 0 0 1 .413.413v2.2h-.826v-2.2a.413.413 0 0 1 .413-.412zm-1.237 8.014V8.335h2.545V9.64zm1.357 30.878a.086.086 0 0 1-.166 0l-1.011-3.887h2.188z"/><path data-name="Trazado 3478" d="M9.574 5.901h9.683a.613.613 0 0 0 0-1.225H9.574a.613.613 0 1 0 0 1.225z"/><path data-name="Trazado 3479" d="M9.574 12.452h18.221a.613.613 0 0 0 0-1.225H9.574a.613.613 0 0 0 0 1.225z"/><path data-name="Trazado 3480" d="M9.574 18.439h18.221a.613.613 0 1 0 0-1.225H9.574a.613.613 0 1 0 0 1.225z"/><path data-name="Trazado 3481" d="M9.574 24.425h18.221a.613.613 0 0 0 0-1.225H9.574a.613.613 0 0 0 0 1.225z"/><path data-name="Trazado 3482" d="M9.574 30.412h18.221a.613.613 0 0 0 0-1.225H9.574a.613.613 0 0 0 0 1.225z"/><path data-name="Trazado 3483" d="M9.574 36.399h18.221a.613.613 0 1 0 0-1.225H9.574a.613.613 0 1 0 0 1.225z"/><path data-name="Trazado 3484" d="M6.426 35.215a1.97 1.97 0 0 0-1.967-1.967h-.633v-3.221h.633a1.968 1.968 0 0 0 0-3.935h-.633v-3.221h.633a1.968 1.968 0 0 0 0-3.935h-.633v-3.22h.633a1.968 1.968 0 0 0 0-3.935h-.633V8.56h.633a1.968 1.968 0 0 0 0-3.935H1.967a1.968 1.968 0 0 0 0 3.935H2.6v3.221h-.633a1.968 1.968 0 0 0 0 3.935H2.6v3.221h-.633a1.968 1.968 0 0 0 0 3.935H2.6v3.221h-.633a1.968 1.968 0 0 0 0 3.935H2.6v3.221h-.633a1.968 1.968 0 0 0 0 3.935h2.491a1.97 1.97 0 0 0 1.968-1.969zm-5.2-28.623a.743.743 0 0 1 .743-.743H4.46a.743.743 0 0 1 0 1.485H1.967a.743.743 0 0 1-.742-.742zm0 7.156a.743.743 0 0 1 .743-.743H4.46a.743.743 0 0 1 0 1.485H1.967a.743.743 0 0 1-.742-.742zm0 7.156a.743.743 0 0 1 .743-.743H4.46a.743.743 0 0 1 0 1.485H1.967a.743.743 0 0 1-.742-.742zm0 7.156a.743.743 0 0 1 .743-.743H4.46a.743.743 0 0 1 0 1.485H1.967a.743.743 0 0 1-.742-.742zm0 7.156a.743.743 0 0 1 .743-.743H4.46a.743.743 0 0 1 0 1.485H1.967a.743.743 0 0 1-.742-.743z"/><path data-name="Trazado 3485" d="M30.499 0H5.155a2.569 2.569 0 0 0-2.549 2.336.612.612 0 1 0 1.22.1 1.337 1.337 0 0 1 1.325-1.215h25.348a1.331 1.331 0 0 1 1.33 1.33v36.7a1.331 1.331 0 0 1-1.33 1.33H5.155a1.337 1.337 0 0 1-1.325-1.215.612.612 0 1 0-1.22.1 2.569 2.569 0 0 0 2.545 2.336h25.344a2.557 2.557 0 0 0 2.554-2.555V2.554A2.557 2.557 0 0 0 30.499 0z"/></g></svg>