<svg xmlns="http://www.w3.org/2000/svg" width="584" height="45"><defs><clipPath id="a"><path data-name="Rectangle 1028" fill="none" d="M0 0h584v45H0z"/></clipPath></defs><g data-name="Group 2693"><g data-name="Group 2397" clip-path="url(#a)"><path data-name="Path 3955" d="M573 45H11A11.013 11.013 0 0 1 0 34V11A11.013 11.013 0 0 1 11 0h562a11.012 11.012 0 0 1 11 11v23a11.012 11.012 0 0 1-11 11M11 1A10.011 10.011 0 0 0 1 11v23a10.011 10.011 0 0 0 10 10h562a10.011 10.011 0 0 0 10-10V11a10.011 10.011 0 0 0-10-10Z" fill="#fff"/><path data-name="Path 3956" d="M96.5 7A15.5 15.5 0 1 1 81 22.5 15.5 15.5 0 0 1 96.5 7" fill="#fff"/><path data-name="Path 3957" d="M307.5 7A15.5 15.5 0 1 1 292 22.5 15.5 15.5 0 0 1 307.5 7" fill="#37f2b9"/><path data-name="Path 3958" d="M530.5 7A15.5 15.5 0 1 1 515 22.5 15.5 15.5 0 0 1 530.5 7" fill="#d5d5d5"/><path data-name="Path 3959" d="M37.16 17.5h3.975a3.317 3.317 0 0 1 3.51 3.39 3.405 3.405 0 0 1-3.51 3.435h-1.98V28H37.16Zm3.765 5.115A1.618 1.618 0 0 0 42.6 20.89a1.591 1.591 0 0 0-1.68-1.68h-1.77v3.405Z" fill="#fff"/><path data-name="Path 3960" d="M48.155 17.5h2.505L54.409 28h-2.114l-.735-2.07h-4.365l-.72 2.07H44.42Zm2.835 6.646-1.545-4.426h-.12l-1.545 4.425Z" fill="#fff"/><path data-name="Path 3961" d="M55.13 24.685h1.935c.015.944.8 1.68 2.115 1.68 1.125 0 1.845-.48 1.845-1.275 0-2.4-5.58-.465-5.58-4.756 0-1.664 1.32-3.028 3.63-3.028 1.994 0 3.69 1.049 3.749 3.239H60.83c-.015-.87-.63-1.455-1.755-1.455s-1.65.556-1.65 1.216c0 2.19 5.655.389 5.655 4.635 0 1.858-1.44 3.254-3.96 3.254-2.4 0-3.99-1.424-3.99-3.51" fill="#fff"/><path data-name="Path 3962" d="M64.31 22.75a5.535 5.535 0 1 1 5.519 5.445 5.363 5.363 0 0 1-5.519-5.445m8.984 0a3.458 3.458 0 1 0-6.915 0 3.458 3.458 0 1 0 6.915 0" fill="#fff"/><path data-name="Path 3963" d="M248.16 17.5h3.975a3.317 3.317 0 0 1 3.51 3.39 3.405 3.405 0 0 1-3.51 3.435h-1.98V28h-1.995Zm3.765 5.115a1.618 1.618 0 0 0 1.68-1.725 1.591 1.591 0 0 0-1.68-1.68h-1.77v3.405Z" fill="#37f2b9"/><path data-name="Path 3964" d="M259.155 17.5h2.505l3.749 10.5H263.3l-.735-2.07H258.2l-.72 2.07h-2.06Zm2.835 6.646-1.545-4.425h-.12l-1.545 4.425Z" fill="#37f2b9"/><path data-name="Path 3965" d="M266.13 24.685h1.935c.015.944.795 1.68 2.115 1.68 1.125 0 1.845-.48 1.845-1.275 0-2.4-5.58-.465-5.58-4.756 0-1.664 1.32-3.028 3.63-3.028 1.994 0 3.69 1.049 3.749 3.239h-1.994c-.015-.87-.63-1.455-1.755-1.455s-1.65.556-1.65 1.216c0 2.19 5.655.389 5.655 4.635 0 1.858-1.44 3.254-3.96 3.254-2.4 0-3.99-1.424-3.99-3.51" fill="#37f2b9"/><path data-name="Path 3966" d="M275.31 22.75a5.535 5.535 0 1 1 5.519 5.445 5.363 5.363 0 0 1-5.519-5.445m8.984 0a3.458 3.458 0 1 0-6.915 0 3.458 3.458 0 1 0 6.915 0" fill="#37f2b9"/><path data-name="Path 3967" d="M471.16 17.5h3.975a3.317 3.317 0 0 1 3.51 3.39 3.4 3.4 0 0 1-3.51 3.435h-1.981V28h-1.994Zm3.765 5.115a1.618 1.618 0 0 0 1.68-1.725 1.591 1.591 0 0 0-1.68-1.68h-1.771v3.405Z" fill="#d5d5d5"/><path data-name="Path 3968" d="M482.155 17.5h2.505l3.75 10.5h-2.11l-.735-2.07H481.2l-.72 2.07h-2.054Zm2.835 6.646-1.545-4.425h-.12l-1.545 4.425Z" fill="#d5d5d5"/><path data-name="Path 3969" d="M489.13 24.685h1.935c.014.944.794 1.68 2.115 1.68 1.125 0 1.845-.48 1.845-1.275 0-2.4-5.581-.465-5.581-4.756 0-1.664 1.321-3.028 3.63-3.028 1.995 0 3.691 1.049 3.75 3.239h-1.995c-.014-.87-.63-1.455-1.755-1.455-1.109 0-1.649.556-1.649 1.216 0 2.19 5.654.389 5.654 4.635 0 1.858-1.439 3.254-3.96 3.254-2.4 0-3.989-1.424-3.989-3.51" fill="#d5d5d5"/><path data-name="Path 3970" d="M498.31 22.75a5.535 5.535 0 1 1 5.519 5.445 5.362 5.362 0 0 1-5.519-5.445m8.984 0a3.458 3.458 0 1 0-6.915 0 3.458 3.458 0 1 0 6.915 0" fill="#d5d5d5"/><path data-name="Path 3971" d="M95.861 20.477H92.6v-2.339c2.7 0 3.5-.721 3.5-2.141H99V30h-3.139Z" fill="#1a1688"/><path data-name="Path 3972" d="M302.331 27.539c0-1.86.8-3.04 2.66-4.181l2.6-1.6a1.873 1.873 0 0 0 1.1-1.64 1.524 1.524 0 0 0-1.72-1.48 1.663 1.663 0 0 0-1.741 1.66h-2.92a4.44 4.44 0 0 1 4.682-4.561c3.021 0 4.86 1.9 4.86 4.261 0 1.92-.959 3.1-2.62 4.1l-2.8 1.64c-.7.44-.96.84-.96 1.361v.16h6.361V30h-9.5Z" fill="#1c168c"/><path data-name="Path 3973" d="M525.331 25.679h2.9a1.644 1.644 0 0 0 1.761 1.581 1.689 1.689 0 0 0 1.84-1.7 1.735 1.735 0 0 0-1.88-1.7h-1.98v-2.38l2.82-2.541V18.8h-5.221v-2.823h9.062v2.741l-2.92 2.62v.12a4.057 4.057 0 0 1 3.28 4.1 4.648 4.648 0 0 1-4.961 4.682 4.456 4.456 0 0 1-4.7-4.562" fill="#fff"/><path data-name="Rectangle 1026" fill="#37f2b9" d="M140.872 21.5h74.384v2h-74.384z"/><path data-name="Line 1" fill="#00168b" d="M358.872 22.5h74.384"/><path data-name="Rectangle 1027" fill="#d5d5d5" d="M358.872 21.5h74.384v2h-74.384z"/></g></g></svg>