<svg xmlns="http://www.w3.org/2000/svg" width="372.451" height="314.938"><g data-name="Group 2070"><path data-name="Path 3415" d="M13.588 285.589H7.276v16.848h6.312c5.376 0 8.832-3.432 8.832-8.424 0-5.016-3.456-8.424-8.832-8.424zm-2.208 13.3v-9.792h1.944c3.1 0 4.92 1.824 4.92 4.92s-1.824 4.872-4.92 4.872zm19.248-6.744a2.315 2.315 0 0 1 2.52 2.3h-5.136a2.538 2.538 0 0 1 2.616-2.308zm6.408 5.856h-4.368a2.182 2.182 0 0 1-2.136 1.3 2.483 2.483 0 0 1-2.544-2.568h9.288a10.37 10.37 0 0 0 .072-1.2 6.311 6.311 0 0 0-6.672-6.672c-3.984 0-6.768 2.64-6.768 6.888s2.832 6.88 6.768 6.88a6.259 6.259 0 0 0 6.36-4.632zm2.472 4.436h4.1v-17.76h-4.1zm13.7 0h4.272v-17.52h-6.648v3.82h2.376zm9.96-9.408a4.486 4.486 0 0 0-2.664 4.272c0 3.5 2.9 5.472 6.48 5.472s6.48-1.968 6.48-5.472a4.492 4.492 0 0 0-2.688-4.272 4.1 4.1 0 0 0 2.256-3.768c0-2.5-1.92-4.7-6.048-4.7s-6.072 2.208-6.072 4.7a4.029 4.029 0 0 0 2.26 3.768zm3.816-1.1a1.927 1.927 0 0 1-2.064-2.016 1.923 1.923 0 0 1 2.064-2.088 1.916 1.916 0 0 1 2.064 2.064 1.946 1.946 0 0 1-2.06 2.036zm0 2.88a2.24 2.24 0 0 1 2.472 2.3 2.265 2.265 0 0 1-2.472 2.3 2.281 2.281 0 0 1-2.52-2.3 2.254 2.254 0 0 1 2.524-2.304zm13.536.912c0 4.224 2.616 6.912 5.88 6.912a4.735 4.735 0 0 0 4.156-2.096v1.9h4.1v-13.392h-4.1v1.9a4.662 4.662 0 0 0-4.128-2.088c-3.288-.004-5.904 2.636-5.904 6.86zm10.032.024a2.99 2.99 0 0 1-2.928 3.312 3.025 3.025 0 0 1-2.924-3.34 2.982 2.982 0 0 1 2.928-3.288 2.99 2.99 0 0 1 2.928 3.308zm7.08 6.7h4.1v-17.768h-4.1zm11.616-.24H121.3v-3.344h-6.48c2.784-2.136 6.216-5.208 6.216-9.048 0-2.952-1.776-5.28-5.76-5.28-3.192 0-5.952 1.824-6.072 6.072h3.96c0-1.656.72-2.616 1.944-2.616 1.248 0 1.824.816 1.824 2.088 0 2.952-3.96 6-7.68 9.072zm13.992-12.336h4.008a1.823 1.823 0 0 1 1.872-1.92 1.66 1.66 0 0 1 1.8 1.824c0 1.584-1.344 1.92-2.736 1.92h-.768v3.336h.768c2.136 0 3.072.624 3.072 2.184a1.827 1.827 0 0 1-1.968 1.968 2.094 2.094 0 0 1-2.28-2.28h-3.984c.12 3.96 2.76 5.688 6.408 5.688 3.672 0 5.784-2.112 5.784-5.064a4.094 4.094 0 0 0-2.952-4.224v-.1a3.972 3.972 0 0 0 2.64-3.936c0-2.64-1.992-4.752-5.688-4.752-3.572-.004-5.828 1.892-5.972 5.348zm19.06 5.848c0 4.22 2.616 6.912 5.9 6.912a4.632 4.632 0 0 0 4.132-2.112v1.92h4.1v-17.76h-4.1v6.216a4.916 4.916 0 0 0-4.128-2.04c-3.288 0-5.904 2.64-5.904 6.864zm10.032.024a2.99 2.99 0 0 1-2.932 3.312 3.025 3.025 0 0 1-2.924-3.336 2.982 2.982 0 0 1 2.924-3.288 2.99 2.99 0 0 1 2.932 3.308zm12.984-3.6a2.315 2.315 0 0 1 2.52 2.3H162.7a2.538 2.538 0 0 1 2.616-2.304zm6.408 5.856h-4.368a2.182 2.182 0 0 1-2.136 1.3 2.483 2.483 0 0 1-2.544-2.568h9.288a10.371 10.371 0 0 0 .072-1.2 6.311 6.311 0 0 0-6.672-6.672c-3.984 0-6.768 2.64-6.768 6.888s2.832 6.884 6.768 6.884a6.259 6.259 0 0 0 6.36-4.632zm20.664-2.26a6.607 6.607 0 0 0-6.96-6.888 6.619 6.619 0 0 0-6.96 6.888 6.569 6.569 0 0 0 6.912 6.892 6.645 6.645 0 0 0 7.008-6.892zm-9.744 0c0-2.28 1.3-3.336 2.784-3.336 1.44 0 2.784 1.056 2.784 3.336 0 2.26-1.368 3.34-2.832 3.34-1.488 0-2.736-1.08-2.736-3.34zm11.112 0c0 4.248 2.784 6.888 6.72 6.888a6.219 6.219 0 0 0 6.432-5.04h-4.368a2.083 2.083 0 0 1-2.14 1.54c-1.464 0-2.472-1.152-2.472-3.384s1.012-3.384 2.472-3.384a2.116 2.116 0 0 1 2.14 1.536h4.368a6.135 6.135 0 0 0-6.432-5.04c-3.936 0-6.72 2.664-6.72 6.884zm15.984 2.044c0 3.48 1.944 4.656 4.728 4.656h2.088v-3.48h-1.464c-.912 0-1.248-.336-1.248-1.128v-5.376h2.688v-3.408h-2.688v-3.264h-4.1v3.264h-1.636v3.408h1.632zm22.32-8.736h-4.1v7.272c0 1.824-1.008 2.832-2.592 2.832-1.54 0-2.568-1.012-2.568-2.832v-7.272h-4.08v7.824c-.004 3.576 2.08 5.712 5.18 5.712a4.88 4.88 0 0 0 4.056-1.968v1.824h4.1zm7.056 1.9v-6.268h-4.1v17.76h4.1v-1.872a4.706 4.706 0 0 0 4.128 2.064c3.288 0 5.9-2.688 5.9-6.912s-2.592-6.864-5.9-6.864a4.728 4.728 0 0 0-4.128 2.084zm5.856 4.772a3.029 3.029 0 0 1-2.952 3.336 3 3 0 0 1-2.928-3.316 3 3 0 0 1 2.928-3.312 2.986 2.986 0 0 1 2.952 3.292zm10.44.5c0-2.3 1.128-2.976 3.072-2.976h1.128v-4.344a4.992 4.992 0 0 0-4.2 2.376v-2.232h-4.1v13.396h4.1zm12.072-4.08a2.315 2.315 0 0 1 2.516 2.308h-5.132a2.538 2.538 0 0 1 2.616-2.308zm6.408 5.86h-4.368a2.182 2.182 0 0 1-2.136 1.3 2.483 2.483 0 0 1-2.544-2.568h9.288a10.372 10.372 0 0 0 .072-1.2 6.311 6.311 0 0 0-6.672-6.672c-3.984 0-6.768 2.64-6.768 6.888s2.836 6.884 6.768 6.884a6.259 6.259 0 0 0 6.36-4.632zm6.744-2.28c0 4.224 2.616 6.912 5.9 6.912a4.632 4.632 0 0 0 4.128-2.112v1.92h4.1v-17.76h-4.1v6.216a4.916 4.916 0 0 0-4.128-2.04c-3.284 0-5.9 2.64-5.9 6.864zm10.032.024a2.99 2.99 0 0 1-2.928 3.312 3.025 3.025 0 0 1-2.928-3.336 2.982 2.982 0 0 1 2.928-3.288 2.99 2.99 0 0 1 2.928 3.308zm12.984-3.6a2.315 2.315 0 0 1 2.52 2.3h-5.136a2.538 2.538 0 0 1 2.616-2.304zm6.408 5.856h-4.368a2.182 2.182 0 0 1-2.136 1.3 2.483 2.483 0 0 1-2.544-2.568h9.288a10.372 10.372 0 0 0 .072-1.2 6.311 6.311 0 0 0-6.672-6.672c-3.984 0-6.768 2.64-6.768 6.888s2.832 6.884 6.768 6.884a6.259 6.259 0 0 0 6.36-4.632zm7.008 4.2h12.048v-3.336h-6.48c2.784-2.136 6.216-5.208 6.216-9.048 0-2.952-1.776-5.28-5.76-5.28-3.192 0-5.952 1.824-6.072 6.072h3.96c0-1.656.72-2.616 1.944-2.616 1.248 0 1.824.816 1.824 2.088 0 2.952-3.96 6-7.68 9.072zm13.848-8.76c0 5.184 1.752 8.928 6.744 8.928s6.74-3.744 6.74-8.928c0-5.136-1.752-8.88-6.744-8.88s-6.74 3.744-6.74 8.88zm9.456 0c0 2.784-.288 5.088-2.712 5.088s-2.712-2.3-2.712-5.088c0-2.688.288-5.04 2.712-5.04s2.712 2.352 2.712 5.04zm6.048 8.76h12.048v-3.336h-6.48c2.784-2.136 6.216-5.208 6.216-9.048 0-2.952-1.776-5.28-5.76-5.28-3.192 0-5.952 1.824-6.072 6.072h3.96c0-1.656.72-2.616 1.944-2.616 1.248 0 1.824.816 1.824 2.088 0 2.952-3.96 6-7.68 9.072zm15.792.24h4.272v-17.52h-6.648v3.82h2.376z" fill="#003296"/><path data-name="Path 3138" d="M0 314.437h372.451" fill="none" stroke="#00bfc9"/><path data-name="Path 3139" d="M0 270.437h372.451" fill="none" stroke="#00bfc9"/><g data-name="Group 2057"><g data-name="Group 1984"><g data-name="Group 1915"><path data-name="Path 3285" d="M172.697 227.493c.531.195 1.06.4 1.592.588l124.6-144.768c-.459-.283-.94-.53-1.407-.8z" fill="#2ecece"/></g><g data-name="Group 1916"><path data-name="Path 3286" d="M176.845 228.968c.545.184 1.1.35 1.642.528l123.83-143.878q-.653-.462-1.315-.908z" fill="#2ecece"/></g><g data-name="Group 1917"><path data-name="Path 3287" d="M168.614 225.945q.78.312 1.564.617L295.251 81.241c-.483-.254-.975-.491-1.465-.732z" fill="#2ecece"/></g><g data-name="Group 1918"><path data-name="Path 3288" d="M181.087 230.331c.556.168 1.11.336 1.667.5l122.84-142.727c-.412-.332-.809-.684-1.229-1.007z" fill="#2ecece"/></g><g data-name="Group 1919"><path data-name="Path 3289" d="M164.631 224.278c.511.222 1.028.43 1.541.645l125.23-145.5c-.5-.222-.991-.48-1.5-.687z" fill="#2ecece"/></g><g data-name="Group 1920"><path data-name="Path 3290" d="M199.067 234.616c.6.105 1.206.231 1.813.329l116.207-135.02c-.33-.43-.646-.87-.984-1.292z" fill="#2ecece"/></g><g data-name="Group 1921"><path data-name="Path 3291" d="M194.397 233.746c.6.124 1.2.23 1.8.347L314.456 96.688c-.349-.4-.706-.8-1.064-1.2z" fill="#2ecece"/></g><g data-name="Group 1922"><path data-name="Path 3292" d="M135.483 207.799c.434.31.877.606 1.313.912l117.46-136.478c-.63-.075-1.257-.162-1.886-.244z" fill="#2ecece"/></g><g data-name="Group 1923"><path data-name="Path 3293" d="M156.886 220.69c.491.245.986.476 1.479.716L283.097 76.48c-.572-.155-1.147-.293-1.722-.433z" fill="#2ecece"/></g><g data-name="Group 1924"><path data-name="Path 3294" d="M142.34 212.419c.451.289.9.576 1.356.86l120.466-139.97c-.641-.066-1.28-.138-1.921-.2z" fill="#2ecece"/></g><g data-name="Group 1925"><path data-name="Path 3295" d="M145.851 214.634c.461.278.936.534 1.4.807L269.092 73.875c-.63-.077-1.256-.171-1.888-.243z" fill="#2ecece"/></g><g data-name="Group 1926"><path data-name="Path 3296" d="M138.875 210.153c.441.3.871.612 1.315.906L259.198 72.785l-1.92-.2z" fill="#2ecece"/></g><g data-name="Group 1927"><path data-name="Path 3297" d="M160.732 222.516c.5.232.991.473 1.492.7l125.133-145.39c-.537-.19-1.067-.389-1.61-.564z" fill="#2ecece"/></g><g data-name="Group 1928"><path data-name="Path 3298" d="M203.835 235.369c.624.088 1.25.174 1.875.255l113.858-132.291c-.309-.454-.606-.914-.924-1.36z" fill="#2ecece"/></g><g data-name="Group 1929"><path data-name="Path 3299" d="M153.147 218.742c.48.257.965.5 1.448.755l124.038-144.12c-.6-.125-1.213-.211-1.817-.324z" fill="#2ecece"/></g><g data-name="Group 1930"><path data-name="Path 3300" d="M149.471 216.719c.469.266.929.546 1.4.808L273.933 74.541c-.618-.1-1.235-.192-1.854-.279z" fill="#2ecece"/></g><g data-name="Group 1931"><path data-name="Path 3301" d="M189.87 232.713c.582.141 1.168.266 1.752.4l120.061-139.5c-.37-.381-.767-.731-1.146-1.1z" fill="#2ecece"/></g><g data-name="Group 1932"><path data-name="Path 3302" d="M254.283 233.393c.874-.2 1.753-.391 2.623-.614l75.564-87.8c0-.506.041-1.009.034-1.515 0-.3-.041-.6-.049-.9z" fill="#2ecece"/></g><g data-name="Group 1933"><path data-name="Path 3303" d="M287.348 220.143q2.276-1.379 4.486-2.876c.077-.053.149-.11.227-.164l32.146-37.35q1.186-2.473 2.215-5.01z" fill="#2ecece"/></g><g data-name="Group 1934"><path data-name="Path 3304" d="M208.71 235.996c.644.07 1.292.122 1.938.182l111.253-129.264c-.284-.473-.609-.92-.9-1.386z" fill="#2ecece"/></g><g data-name="Group 1935"><path data-name="Path 3305" d="M317.542 191.359l-14.863 17.27a96.7 96.7 0 0 0 14.863-17.27z" fill="#2ecece"/></g><g data-name="Group 1936"><path data-name="Path 3306" d="M277.326 225.496c1.236-.579 2.454-1.2 3.669-1.827l47.768-55.5a85.76 85.76 0 0 0 1.1-3.711z" fill="#2ecece"/></g><g data-name="Group 1937"><path data-name="Path 3307" d="M72.103 76.203l59.4-69.02c-.732.023-1.462.047-2.184.1l-56.81 66.008c-.135.972-.306 1.939-.406 2.912z" fill="#2ecece"/></g><g data-name="Group 1938"><path data-name="Path 3308" d="M185.44 231.567c.565.154 1.127.318 1.7.465l121.582-141.27c-.392-.357-.782-.714-1.181-1.063z" fill="#2ecece"/></g><g data-name="Group 1939"><path data-name="Path 3309" d="M95.695 165.921c.3.464.6.93.9 1.39l104.13-120.99-1.2-1.035z" fill="#2ecece"/></g><g data-name="Group 1940"><path data-name="Path 3310" d="M247.697 234.75q1.255-.222 2.5-.472l82.059-95.342a69.857 69.857 0 0 0-.217-2.184z" fill="#2ecece"/></g><g data-name="Group 1941"><path data-name="Path 3311" d="M224.244 236.828c.711 0 1.421-.03 2.132-.042l101.348-117.753c-.214-.565-.407-1.137-.636-1.7z" fill="#2ecece"/></g><g data-name="Group 1942"><path data-name="Path 3312" d="M268.884 229.013c1.05-.39 2.1-.784 3.133-1.2l59.048-68.609c.194-1 .345-2.009.5-3.015z" fill="#2ecece"/></g><g data-name="Group 1943"><path data-name="Path 3313" d="M213.732 236.455c.666.048 1.333.072 2 .11L324.017 110.75c-.264-.5-.546-.989-.819-1.485z" fill="#2ecece"/></g><g data-name="Group 1944"><path data-name="Path 3314" d="M229.762 236.709c.738-.03 1.473-.09 2.209-.133l97.3-113.05c-.186-.6-.342-1.21-.542-1.805z" fill="#2ecece"/></g><g data-name="Group 1945"><path data-name="Path 3315" d="M218.903 236.74c.689.025 1.379.02 2.068.034l104.992-121.99a71.118 71.118 0 0 0-.73-1.588z" fill="#2ecece"/></g><g data-name="Group 1946"><path data-name="Path 3316" d="M261.28 231.555c.962-.284 1.916-.59 2.87-.9l67.971-78.976c.087-.913.205-1.82.259-2.736z" fill="#2ecece"/></g><g data-name="Group 1947"><path data-name="Path 3317" d="M235.483 236.359c.768-.064 1.533-.159 2.3-.236l92.792-107.816c-.148-.634-.3-1.266-.464-1.9z" fill="#2ecece"/></g><g data-name="Group 1948"><path data-name="Path 3318" d="M241.454 235.715c.8-.1 1.6-.229 2.394-.346L331.6 133.411a73.38 73.38 0 0 0-.361-2.016z" fill="#2ecece"/></g><g data-name="Group 1949"><path data-name="Path 3319" d="M110.993 185.91q.537.595 1.079 1.18L220.53 61.073c-.459-.279-.931-.536-1.386-.825z" fill="#2ecece"/></g><g data-name="Group 1950"><path data-name="Path 3320" d="M75.483 120.183c.159.625.318 1.248.485 1.872L165.782 17.7c-.45-.289-.9-.582-1.352-.863z" fill="#2ecece"/></g><g data-name="Group 1951"><path data-name="Path 3321" d="M74.348 115.208c.138.643.291 1.283.439 1.925l87.449-101.607c-.467-.271-.94-.532-1.412-.793z" fill="#2ecece"/></g><g data-name="Group 1952"><path data-name="Path 3322" d="M83.223 142.66c.234.541.458 1.086.7 1.624L182.171 30.13q-.6-.514-1.212-1.027z" fill="#2ecece"/></g><g data-name="Group 1953"><path data-name="Path 3323" d="M76.813 124.923c.175.6.351 1.21.535 1.813L169.213 20c-.437-.3-.87-.613-1.31-.911z" fill="#2ecece"/></g><g data-name="Group 1954"><path data-name="Path 3324" d="M81.419 138.458c.217.548.473 1.079.7 1.625l96.906-112.595c-.408-.336-.822-.668-1.233-1z" fill="#2ecece"/></g><g data-name="Group 1955"><path data-name="Path 3325" d="M72.499 104.772c.09.687.225 1.368.328 2.054L154.699 11.7a62.517 62.517 0 0 0-1.537-.649z" fill="#2ecece"/></g><g data-name="Group 1956"><path data-name="Path 3326" d="M78.2 129.61c.19.578.419 1.144.615 1.72L172.56 22.41q-.637-.476-1.283-.945z" fill="#2ecece"/></g><g data-name="Group 1957"><path data-name="Path 3327" d="M79.799 134.048c.208.571.407 1.144.621 1.713l95.406-110.85c-.416-.328-.838-.65-1.257-.974z" fill="#2ecece"/></g><g data-name="Group 1958"><path data-name="Path 3328" d="M73.345 110.081c.12.683.2 1.37.328 2.053l84.882-98.624c-.49-.25-.986-.478-1.479-.717z" fill="#2ecece"/></g><g data-name="Group 1959"><path data-name="Path 3329" d="M76.271 56.333c-.4 1.258-.818 2.512-1.165 3.783v.008l43.9-51.007c-1.027.3-2.011.7-3.01 1.062z" fill="#2ecece"/></g><g data-name="Group 1960"><path data-name="Path 3330" d="M80.88 44.685a88.286 88.286 0 0 0-2.232 5.029l32.072-37.263a53.554 53.554 0 0 0-3.992 2.2z" fill="#2ecece"/></g><g data-name="Group 1961"><path data-name="Path 3331" d="M71.923 99.146c.064.735.12 1.47.2 2.205l78.525-91.24c-.537-.189-1.072-.386-1.614-.557z" fill="#2ecece"/></g><g data-name="Group 1962"><path data-name="Path 3332" d="M87.741 32.856l9.036-10.5a70.642 70.642 0 0 0-9.036 10.5z" fill="#2ecece"/></g><g data-name="Group 1963"><path data-name="Path 3333" d="M73.913 65.367c-.24 1.1-.547 2.2-.752 3.307l52.475-60.97c-.83.124-1.65.265-2.464.429z" fill="#2ecece"/></g><g data-name="Group 1964"><path data-name="Path 3334" d="M71.523 93.317c.03.779.041 1.555.087 2.334l74.759-86.862c-.58-.151-1.167-.272-1.751-.4z" fill="#2ecece"/></g><g data-name="Group 1965"><path data-name="Path 3335" d="M71.42 87.145c-.009.795.034 1.592.04 2.388l70.292-81.671c-.641-.1-1.264-.151-1.9-.231z" fill="#2ecece"/></g><g data-name="Group 1966"><path data-name="Path 3336" d="M71.745 80.472q-.093 1.308-.156 2.616l65.259-75.824c-.689-.05-1.358-.042-2.04-.065z" fill="#2ecece"/></g><g data-name="Group 1967"><path data-name="Path 3337" d="M85.049 146.828c.244.52.52 1.024.769 1.541l99.463-115.567c-.4-.347-.794-.693-1.2-1.041z" fill="#2ecece"/></g><g data-name="Group 1968"><path data-name="Path 3338" d="M116.671 191.899c.377.374.752.748 1.132 1.118L227.91 65.084c-.493-.238-.992-.465-1.48-.714z" fill="#2ecece"/></g><g data-name="Group 1969"><path data-name="Path 3339" d="M105.592 179.592q.507.627 1.02 1.25l107-124.326c-.434-.31-.882-.594-1.313-.911z" fill="#2ecece"/></g><g data-name="Group 1970"><path data-name="Path 3340" d="M119.61 194.774c.385.363.789.707 1.178 1.065l111-128.964c-.513-.211-1.019-.439-1.526-.662z" fill="#2ecece"/></g><g data-name="Group 1971"><path data-name="Path 3341" d="M108.233 182.822q.522.611 1.047 1.217L217.015 58.867c-.442-.294-.873-.609-1.312-.909z" fill="#2ecece"/></g><g data-name="Group 1972"><path data-name="Path 3342" d="M113.78 188.96c.277.291.538.6.816.892.091.093.187.18.277.273L224.11 63.202c-.471-.258-.92-.557-1.387-.823z" fill="#2ecece"/></g><g data-name="Group 1973"><path data-name="Path 3343" d="M128.919 202.842c.413.331.834.653 1.252.98L244.694 70.759c-.591-.118-1.179-.252-1.767-.383z" fill="#2ecece"/></g><g data-name="Group 1974"><path data-name="Path 3344" d="M125.757 200.221c.405.341.815.676 1.224 1.013L240.197 69.687c-.573-.15-1.153-.267-1.723-.433z" fill="#2ecece"/></g><g data-name="Group 1975"><path data-name="Path 3345" d="M122.656 197.531c.395.352.778.717 1.177 1.065L235.916 68.368c-.537-.182-1.067-.381-1.6-.577z" fill="#2ecece"/></g><g data-name="Group 1976"><path data-name="Path 3346" d="M132.178 205.342c.424.32.842.647 1.268.963L249.392 71.591c-.61-.092-1.211-.221-1.818-.322z" fill="#2ecece"/></g><g data-name="Group 1977"><path data-name="Path 3347" d="M89.043 154.774c.266.495.563.972.835 1.464l101.575-118.02-1.191-1.05z" fill="#2ecece"/></g><g data-name="Group 1978"><path data-name="Path 3348" d="M91.207 158.557c.279.488.551.98.836 1.465L194.536 40.935l-1.191-1.052z" fill="#2ecece"/></g><g data-name="Group 1979"><path data-name="Path 3349" d="M87.037 150.811c.258.514.505 1.032.769 1.542L188.374 35.504q-.593-.522-1.194-1.047z" fill="#2ecece"/></g><g data-name="Group 1980"><path data-name="Path 3350" d="M102.977 176.342c.328.43.67.844 1 1.27L210.3 54.075c-.422-.321-.838-.649-1.257-.974z" fill="#2ecece"/></g><g data-name="Group 1981"><path data-name="Path 3351" d="M100.496 172.931c.319.442.636.884.96 1.321l105.6-122.695c-.414-.332-.835-.651-1.248-.986z" fill="#2ecece"/></g><g data-name="Group 1982"><path data-name="Path 3352" d="M98.018 169.519c.309.451.644.876.957 1.323l104.9-121.884q-.61-.508-1.218-1.019z" fill="#2ecece"/></g><g data-name="Group 1983"><path data-name="Path 3353" d="M93.371 162.33c.289.471.606.921.9 1.39L197.624 43.634l-1.2-1.044z" fill="#2ecece"/></g></g><g data-name="Group 2001"><g data-name="Group 1986"><g data-name="Group 1985"><path data-name="Path 3354" d="M295.502 28.837a.619.619 0 0 1-.86.175l-2.782-1.843a.621.621 0 1 1 .686-1.035l2.782 1.843a.619.619 0 0 1 .174.86z" fill="#2ecece"/></g></g><g data-name="Group 1988"><g data-name="Group 1987"><path data-name="Path 3355" d="M294.819 32.354a.619.619 0 0 1-.393.269l-3.274.665a.625.625 0 0 1-.249-1.224l3.275-.665a.635.635 0 0 1 .736.487.616.616 0 0 1-.095.468z" fill="#2ecece"/></g></g><g data-name="Group 1990"><g data-name="Group 1989"><path data-name="Path 3356" d="M296.816 35.319l-1.843 2.783a.621.621 0 0 1-1.035-.686l1.843-2.783a.621.621 0 0 1 1.036.686z" fill="#2ecece"/></g></g><g data-name="Group 1992"><g data-name="Group 1991"><path data-name="Path 3357" d="M300.997 39.28a.621.621 0 0 1-1.129-.218l-.665-3.274a.626.626 0 0 1 .487-.736.635.635 0 0 1 .736.487l.665 3.274a.621.621 0 0 1-.094.467z" fill="#2ecece"/></g></g><g data-name="Group 1994"><g data-name="Group 1993"><path data-name="Path 3358" d="M306.086 35.849a.62.62 0 0 1-.861.175l-2.782-1.843a.621.621 0 1 1 .686-1.035l2.782 1.843a.619.619 0 0 1 .175.86z" fill="#2ecece"/></g></g><g data-name="Group 1996"><g data-name="Group 1995"><path data-name="Path 3359" d="M307.258 29.829a.617.617 0 0 1-.393.269l-3.274.665a.625.625 0 1 1-.249-1.224l3.274-.665a.636.636 0 0 1 .736.487.621.621 0 0 1-.094.468z" fill="#2ecece"/></g></g><g data-name="Group 1998"><g data-name="Group 1997"><path data-name="Path 3360" d="M303.826 24.739l-1.843 2.782a.621.621 0 0 1-1.035-.686l1.843-2.783a.621.621 0 1 1 1.035.686z" fill="#2ecece"/></g></g><g data-name="Group 2000"><g data-name="Group 1999"><path data-name="Path 3361" d="M298.472 26.842a.621.621 0 0 1-1.13-.219l-.665-3.274a.627.627 0 0 1 .488-.736.636.636 0 0 1 .736.488l.665 3.274a.62.62 0 0 1-.094.467z" fill="#2ecece"/></g></g></g><g data-name="Group 2018"><g data-name="Group 2003"><g data-name="Group 2002"><path data-name="Path 3362" d="M18.881 104.393a.619.619 0 0 1-.861.175l-2.782-1.843a.621.621 0 1 1 .686-1.036l2.782 1.843a.619.619 0 0 1 .175.861z" fill="#003296"/></g></g><g data-name="Group 2005"><g data-name="Group 2004"><path data-name="Path 3363" d="M18.198 107.91a.618.618 0 0 1-.393.268l-3.274.665a.624.624 0 1 1-.248-1.224l3.274-.665a.637.637 0 0 1 .736.488.623.623 0 0 1-.095.468z" fill="#003296"/></g></g><g data-name="Group 2007"><g data-name="Group 2006"><path data-name="Path 3364" d="M20.194 110.88l-1.843 2.782a.621.621 0 1 1-1.036-.686l1.843-2.782a.621.621 0 0 1 1.035.686z" fill="#003296"/></g></g><g data-name="Group 2009"><g data-name="Group 2008"><path data-name="Path 3365" d="M24.375 114.836a.62.62 0 0 1-.394.269.626.626 0 0 1-.736-.488l-.665-3.274a.626.626 0 0 1 .487-.736.637.637 0 0 1 .737.488l.665 3.274a.622.622 0 0 1-.094.467z" fill="#003296"/></g></g><g data-name="Group 2011"><g data-name="Group 2010"><path data-name="Path 3366" d="M29.465 111.404a.619.619 0 0 1-.861.175l-2.782-1.843a.621.621 0 0 1 .686-1.035l2.783 1.843a.619.619 0 0 1 .174.86z" fill="#003296"/></g></g><g data-name="Group 2013"><g data-name="Group 2012"><path data-name="Path 3367" d="M30.635 105.384a.617.617 0 0 1-.394.269l-3.274.665a.625.625 0 0 1-.249-1.224l3.274-.665a.636.636 0 0 1 .736.488.617.617 0 0 1-.093.467z" fill="#003296"/></g></g><g data-name="Group 2015"><g data-name="Group 2014"><path data-name="Path 3368" d="M27.205 100.296l-1.844 2.783a.621.621 0 1 1-1.035-.686l1.843-2.783a.621.621 0 0 1 1.036.686z" fill="#003296"/></g></g><g data-name="Group 2017"><g data-name="Group 2016"><path data-name="Path 3369" d="M21.85 102.399a.621.621 0 0 1-1.129-.219l-.665-3.274a.626.626 0 0 1 .487-.736.636.636 0 0 1 .736.488l.665 3.274a.624.624 0 0 1-.094.467z" fill="#003296"/></g></g></g><g data-name="Group 2019"><path data-name="Path 3370" d="M95.602 222.078a4.035 4.035 0 1 0 1.136 5.593 4.035 4.035 0 0 0-1.136-5.593z" fill="#2ecece"/></g><g data-name="Group 2024"><g data-name="Group 2021"><g data-name="Group 2020"><path data-name="Path 3371" d="M337.295 96.574a1.244 1.244 0 0 1-1.721.349l-7.51-4.975a1.242 1.242 0 0 1 1.372-2.071l7.51 4.975a1.244 1.244 0 0 1 .349 1.722z" fill="#003296"/></g></g><g data-name="Group 2023"><g data-name="Group 2022"><path data-name="Path 3372" d="M336.028 90.335l-4.975 7.51a1.242 1.242 0 0 1-2.07-1.371l4.975-7.51a1.242 1.242 0 1 1 2.07 1.372z" fill="#003296"/></g></g></g><g data-name="Group 2029"><g data-name="Group 2026"><g data-name="Group 2025"><path data-name="Path 3373" d="M141.883 241.048a1.245 1.245 0 0 1-1.721.349l-7.51-4.975a1.242 1.242 0 0 1 1.372-2.071l7.51 4.975a1.245 1.245 0 0 1 .349 1.722z" fill="#2ecece"/></g></g><g data-name="Group 2028"><g data-name="Group 2027"><path data-name="Path 3374" d="M140.619 234.809l-4.975 7.51a1.242 1.242 0 1 1-2.071-1.371l4.975-7.51a1.242 1.242 0 1 1 2.07 1.372z" fill="#2ecece"/></g></g></g><g data-name="Group 2032"><g data-name="Group 2031"><g data-name="Group 2030"><path data-name="Path 3375" d="M177.02 232.534c-45.8-3.138-112.244-41.391-132.445-114.75s33.861-104.761 74.045-80.68 71.935 23.435 105.5 11.428 80.449.713 88.433 53.4-35.02 137.493-135.533 130.602z" fill="#2ecece"/></g></g></g><g data-name="Group 2035"><g data-name="Group 2034"><g data-name="Group 2033"><path data-name="Path 3376" d="M205.322 23.648c47.161 13.259 97.681 54.553 108.307 123.131 11.133 71.849-48.271 106.234-89.32 84.78-44.3-23.154-70.6-31.2-108.283-25.97s-83.879-18.274-80.738-75.054S101.834-5.446 205.322 23.648z" fill="#003296"/></g></g></g><g data-name="Group 2038"><g data-name="Group 2037" opacity=".18"><g data-name="Group 2036"><path data-name="Path 3377" d="M226.668 46.209c28.988 24.828 54.31 83.316 31.37 142.266s-74.58 53.056-89.426 17.052-36.34-51.334-64.687-59.989-53.3-40.406-32.467-79.508 91.598-74.308 155.21-19.821z" fill="#1764ff"/></g></g></g><g data-name="Group 2039" fill="#e3ff6c"><path data-name="Path 3378" d="M112.94 54.278l3.967-.683c3.09-.532 5.134.954 5.581 3.55a6.515 6.515 0 0 1-5.494 7.918l-4.206.724zm3.726 8.593a4.075 4.075 0 0 0 3.213-4.965 2.434 2.434 0 0 0-3.123-2.037l-1.338.231-.075 7z"/><path data-name="Path 3379" d="M125.188 52.17l7.057-1.215-.028 2.22-4.54.781-.033 2.384 3.871-.666-.044 2.222-3.855.663-.037 2.451 4.715-.812-.025 2.235-7.232 1.245z"/><path data-name="Path 3380" d="M134.174 58.364l2.405-.414c0 .952.726 1.45 1.983 1.234 1.147-.2 1.845-.81 1.7-1.638-.274-1.593-5.119.373-5.717-3.1-.416-2.422 1.211-4.309 3.967-4.783 2.325-.4 4.108.522 4.163 2.94l-2.5.431c0-.786-.592-1.243-1.626-1.065-.988.17-1.62.787-1.5 1.5.268 1.561 5.228-.408 5.815 3 .447 2.6-1.089 4.535-4.323 5.091-2.685.467-4.401-.829-4.367-3.196z"/><path data-name="Path 3381" d="M148.3 48.19l3.234-.557 3.689 10.847-2.645.455-.626-1.926-4.206.724-.679 2.151-2.692.463zm2.978 6.623l-1.321-4.054-.143.025-1.418 4.526z"/><path data-name="Path 3382" d="M157.471 46.613l7.057-1.215-.028 2.219-4.54.782-.036 2.647 4.078-.7-.028 2.219-4.078.7-.059 4.423-2.517.433z"/><path data-name="Path 3383" d="M167.063 44.96l2.517-.434-.151 11.508-2.517.434zm1.053-3.986l2.373-.409-1.511 2.753-1.656.285z"/><path data-name="Path 3384" d="M172.024 51.012a7.033 7.033 0 0 1 5.915-8.137c3.011-.518 5.286 1.074 5.758 3.814a7.04 7.04 0 0 1-5.917 8.121c-3.076.53-5.287-1.074-5.756-3.798zm9.086-3.435a2.605 2.605 0 0 0-3.2-2.205 4.117 4.117 0 0 0-3.3 4.751 2.589 2.589 0 0 0 3.214 2.186 4.109 4.109 0 0 0 3.286-4.731z"/><path data-name="Path 3385" d="M111.094 81.231a6.993 6.993 0 0 1 5.859-8.177c2.931-.5 4.958.983 5.468 3.274l-2.772.477a2.3 2.3 0 0 0-2.725-1.253 4.1 4.1 0 0 0-3.241 4.807 2.537 2.537 0 0 0 3.15 2.2 3.486 3.486 0 0 0 2.945-2.426l-3.027.521.026-2.137 5.831-1a6.6 6.6 0 0 1-5.767 7.472c-3.043.517-5.283-1.066-5.747-3.758z"/><path data-name="Path 3386" d="M125.238 71.841l4.365-.752a3.069 3.069 0 0 1 3.851 2.454 4.4 4.4 0 0 1-1.973 4.358l.732 1.3a.875.875 0 0 0 1.037.494l.558-.1-.023 2.251-1.29.222a1.785 1.785 0 0 1-2.161-1.022l-1.141-2.247-1.546.266-.043 3.845-2.517.433zm4.062 4.73a1.916 1.916 0 0 0 1.612-2.262 1.232 1.232 0 0 0-1.592-.956l-1.593.274-.036 3.22z"/><path data-name="Path 3387" d="M139.222 69.433l3.234-.557 3.689 10.846-2.645.455-.627-1.926-4.206.724-.679 2.151-2.692.464zm2.977 6.623l-1.321-4.054-.143.025-1.419 4.526z"/><path data-name="Path 3388" d="M149.904 69.841l-3.123.538.039-2.255 8.761-1.508-.038 2.255-3.122.537-.113 9.254-2.533.436z"/><path data-name="Path 3389" d="M157.71 73.369l.084-7.133 2.533-.436-.1 7.12c0 1.328.646 2.037 2 1.8a2.353 2.353 0 0 0 2.027-2.514l.089-7.1 2.533-.436-.1 7.12a5.012 5.012 0 0 1-4.5 5.368c-2.781.483-4.597-1.094-4.566-3.789z"/><path data-name="Path 3390" d="M169.756 64.176l2.517-.433-.151 11.508-2.517.434z"/><path data-name="Path 3391" d="M177.682 65.059l-3.123.538.038-2.255 8.762-1.508-.039 2.255-3.122.537-.113 9.253-2.534.436z"/><path data-name="Path 3392" d="M184.911 68.472a7.034 7.034 0 0 1 5.915-8.137c3.01-.518 5.286 1.075 5.758 3.815a7.04 7.04 0 0 1-5.918 8.121c-3.074.53-5.286-1.075-5.755-3.799zm9.086-3.434a2.605 2.605 0 0 0-3.2-2.205 4.115 4.115 0 0 0-3.3 4.751 2.589 2.589 0 0 0 3.214 2.186 4.109 4.109 0 0 0 3.286-4.727z"/></g><g data-name="Group 2053"><g data-name="Group 2040"><path data-name="Path 3393" d="M135.501 154.432l8.626-1.5.067-6.3-8.627 1.5.058-4.125 10.209-1.779.067-6.3-17.441 3.039-.3 27.223 17.818-3.1.06-6.337-10.585 1.845z" fill="#fff"/></g><g data-name="Group 2041"><path data-name="Path 3394" d="M162.828 145.091l-.075 6.029 5.651-.985c-.588 1.306-2.687 3.069-5.663 3.587a5.088 5.088 0 0 1-6.319-4.411 8.215 8.215 0 0 1 6.467-9.666c2.75-.479 4.739.688 5.38 2.361l7.948-1.385c-1.029-5.682-5.916-9.448-13.262-8.169-9.945 1.733-15.539 10.393-13.971 19.4 1.109 6.367 6.456 10.093 13.764 8.819 9.569-1.667 14.709-8.7 13.755-17.961z" fill="#fff"/></g><g data-name="Group 2042"><path data-name="Path 3395" d="M193.579 127.117c-9.87 1.72-15.709 10.306-14.147 19.271 1.123 6.442 6.406 10.257 13.828 8.964 9.832-1.713 15.665-10.337 14.116-19.227-1.141-6.556-6.597-10.262-13.797-9.008zm-.216 21.036c-3.5.611-5.963-1.251-6.5-4.34a8.2 8.2 0 0 1 6.651-9.5 5.219 5.219 0 0 1 6.432 4.391 8.151 8.151 0 0 1-6.581 9.449z" fill="#fff"/></g><g data-name="Group 2043"><path data-name="Path 3396" d="M224.179 142.784c-3.428.6-5.755-1.171-6.293-4.26a8.165 8.165 0 0 1 6.442-9.584c3.089-.538 5.112 1.05 5.535 3.034l7.874-1.372c-.818-6.029-5.7-10.186-13.343-8.854-9.945 1.733-15.5 10.386-13.933 19.389 1.109 6.366 6.3 10.119 13.65 8.839 8.325-1.451 13.293-7.245 13.913-13.487l-7.873 1.371a7.673 7.673 0 0 1-5.972 4.924z" fill="#fff"/></g><g data-name="Group 2044"><path data-name="Path 3397" d="M241.242 146.492l7.232-1.26.3-27.223-7.233 1.26z" fill="#fff"/></g><g data-name="Group 2045"><path data-name="Path 3398" d="M280.154 123.444c-1.142-6.555-6.6-10.261-13.8-9.008-9.87 1.72-15.709 10.306-14.147 19.272 1.122 6.442 6.406 10.257 13.827 8.964 9.837-1.712 15.67-10.338 14.12-19.228zm-14.012 12.028c-3.5.61-5.963-1.251-6.5-4.34a8.2 8.2 0 0 1 6.649-9.5 5.219 5.219 0 0 1 6.433 4.391 8.152 8.152 0 0 1-6.581 9.449z" fill="#fff"/></g><g data-name="Group 2046"><path data-name="Path 3399" d="M77.264 110.166l-7.233 1.26-.3 27.223 17.1-2.98.09-6.614-9.87 1.72z" fill="#fff"/></g><g data-name="Group 2047"><path data-name="Path 3400" d="M107.172 132.124l7.61-1.326-8.325-25.72-9.38 1.634-8.74 28.693 7.61-1.326 1.263-4.335 8.815-1.536zm-8.178-9.287l2.506-8.782.377-.066 2.315 7.942z" fill="#fff"/></g><g data-name="Group 2048"><path data-name="Path 3401" d="M141.038 126.225l.3-27.223-6.969 1.215-.159 15.126-.226.039-8.731-13.577-7.722 1.345-.05 52.9-.226.04-8.731-13.578-7.723 1.346-.3 27.222 6.969-1.214.159-15.126.226-.04 8.731 13.577 7.722-1.345.051-52.9.226-.04 8.731 13.578z" fill="#fff"/></g><g data-name="Group 2049"><path data-name="Path 3402" d="M165.281 115.673l-11.264 1.963.016-.352 11.348-16.184.067-6.3-20.079 3.5-.067 6.3 10.7-1.864-.016.352-11.31 16.177-.061 6.337 20.606-3.59z" fill="#fff"/></g><g data-name="Group 2050"><path data-name="Path 3403" d="M175.977 116.022l8.815-1.536 1.147 3.914 7.61-1.326-8.324-25.72-9.38 1.634-8.741 28.693 7.61-1.326zm4.291-15.692l.376-.066 2.315 7.942-5.2.906z" fill="#fff"/></g><g data-name="Group 2051"><path data-name="Path 3404" d="M211.29 113.983l7.232-1.26.218-20.8 7.12-1.241.085-6.419-21.435 3.735-.084 6.419 7.082-1.234z" fill="#fff"/></g><g data-name="Group 2052"><path data-name="Path 3405" d="M243.583 97.72a4.488 4.488 0 0 1-3.9 4.794c-2.6.453-3.872-.839-3.859-3.442l.179-16.566-7.232 1.26-.173 16.6c-.072 6.5 4.514 10.315 11.182 9.153 7.384-1.287 10.958-5.946 11.044-13.026l.173-16.6-7.233 1.26z" fill="#fff"/></g></g><g data-name="Group 2054" fill="#2ecece"><path data-name="Path 3406" d="M175.137 183.972c-1.086-6.944 3.538-13.495 11.181-14.69 5.572-.872 9.738 2.063 10.532 7.138 1.077 6.885-3.542 13.466-11.156 14.657-5.75.903-9.776-2.117-10.557-7.105zm15.941-5.663a4.03 4.03 0 0 0-4.907-3.476 6.332 6.332 0 0 0-5.262 7.249 4.011 4.011 0 0 0 4.961 3.438 6.294 6.294 0 0 0 5.208-7.211z"/><path data-name="Path 3407" d="M199.913 167.542l5.98-.936 6.56 10.6.175-.028.325-11.676 5.4-.845-.6 21.014-5.98.936-6.56-10.6-.175.027-.325 11.677-5.4.844z"/><path data-name="Path 3408" d="M221.556 164.156l5.6-.876-.439 15.909 7.644-1.2-.158 5.105-13.244 2.072z"/><path data-name="Path 3409" d="M237.284 161.696l5.6-.877-.6 21.015-5.6.876z"/><path data-name="Path 3410" d="M246.094 160.318l5.98-.936 6.56 10.6.174-.027.326-11.677 5.4-.844-.6 21.015-5.98.935-6.56-10.6-.175.028-.325 11.677-5.4.845z"/><path data-name="Path 3411" d="M267.739 156.931l13.508-2.113-.136 4.863-7.906 1.237-.1 3.184 6.681-1.046-.136 4.863-6.681 1.044-.1 3.213 8.2-1.283-.131 4.892-13.8 2.159z"/></g><g data-name="Group 2055"><path data-name="Path 3412" d="M63.561 235.426a.849.849 0 0 1 .844-.858.849.849 0 0 1 .853.848.845.845 0 0 1-.843.854.851.851 0 0 1-.854-.844zm4.763-.313a.847.847 0 0 1 .695-.977.846.846 0 0 1 .982.69.85.85 0 0 1-.694.982.754.754 0 0 1-.144.015.859.859 0 0 1-.838-.709zm-8.877.556a.85.85 0 0 1-.6-1.043.853.853 0 0 1 1.047-.595.849.849 0 0 1 .6 1.042.852.852 0 0 1-.818.625.9.9 0 0 1-.227-.029zm13.555-1.543a.847.847 0 0 1 .586-1.047.852.852 0 0 1 1.052.586.85.85 0 0 1-.586 1.046.763.763 0 0 1-.233.035.853.853 0 0 1-.818-.62zm-18.106-.774a.85.85 0 0 1-.114-1.2.855.855 0 0 1 1.2-.109.85.85 0 0 1 .114 1.2.848.848 0 0 1-.655.308.827.827 0 0 1-.543-.199zm22.676-.65a.852.852 0 0 1 .5-1.092.85.85 0 0 1 1.092.507.845.845 0 0 1-.506 1.087.853.853 0 0 1-.293.055.848.848 0 0 1-.792-.554zm4.461-1.737a.844.844 0 0 1 .442-1.116.854.854 0 0 1 1.116.447.857.857 0 0 1-.442 1.109.934.934 0 0 1-.337.069.854.854 0 0 1-.778-.509zm-30.218-1.7a.848.848 0 0 1 .422-1.127.844.844 0 0 1 1.121.417.849.849 0 0 1-.417 1.126.826.826 0 0 1-.352.079.85.85 0 0 1-.773-.497zm34.58-.268a.852.852 0 0 1 .392-1.136.852.852 0 0 1 1.136.392.852.852 0 0 1-.392 1.136.833.833 0 0 1-.372.084.844.844 0 0 1-.763-.477zm4.277-2.144a.855.855 0 0 1 .353-1.151.852.852 0 0 1 1.151.352.847.847 0 0 1-.352 1.146.872.872 0 0 1-.4.1.866.866 0 0 1-.751-.449zm-40.167-2.441a.851.851 0 0 1 .74-.948.85.85 0 0 1 .948.74.853.853 0 0 1-.74.948.74.74 0 0 1-.1 0 .856.856 0 0 1-.847-.741zm44.375.148a.847.847 0 0 1 .318-1.161.851.851 0 0 1 1.156.318.853.853 0 0 1-.318 1.161.839.839 0 0 1-.417.109.845.845 0 0 1-.738-.428zm4.138-2.411a.844.844 0 0 1 .282-1.167.85.85 0 0 1 1.167.288.849.849 0 0 1-.283 1.167.853.853 0 0 1-.442.124.845.845 0 0 1-.723-.413zm-47.838-1.771a.848.848 0 0 1-.794-.9.843.843 0 0 1 .9-.8.848.848 0 0 1 .793.9.847.847 0 0 1-.843.8h-.054zm51.912-.74a.855.855 0 0 1 .257-1.176.853.853 0 0 1 1.177.263.851.851 0 0 1-.264 1.171.837.837 0 0 1-.451.133.852.852 0 0 1-.718-.392zm4.019-2.6a.855.855 0 0 1 .238-1.181.849.849 0 0 1 1.176.239.851.851 0 0 1-.234 1.176.842.842 0 0 1-.471.144.853.853 0 0 1-.708-.379zm-55.449-1.419a.85.85 0 0 1-.685-.987.849.849 0 0 1 .982-.69.857.857 0 0 1 .69.987h-.005a.846.846 0 0 1-.834.7c-.048-.001-.098-.006-.148-.011zm59.419-1.26a.845.845 0 0 1 .213-1.181.845.845 0 0 1 1.181.213.845.845 0 0 1-.214 1.18.837.837 0 0 1-.481.154.85.85 0 0 1-.698-.367zm3.92-2.749a.851.851 0 0 1 .2-1.186.846.846 0 0 1 1.182.2.843.843 0 0 1-.194 1.18.834.834 0 0 1-.5.164.849.849 0 0 1-.687-.363zm-62.372-.68a.852.852 0 0 1-.605-1.037.851.851 0 0 1 1.037-.605.851.851 0 0 1 .61 1.037.856.856 0 0 1-.823.635.855.855 0 0 1-.218-.031zm66.251-2.129a.843.843 0 0 1 .174-1.186.849.849 0 0 1 1.19.174.854.854 0 0 1-.178 1.191.84.84 0 0 1-.507.169.844.844 0 0 1-.678-.344zm-64.942-2.476a.844.844 0 0 1-.541-1.071.849.849 0 0 1 1.072-.541.849.849 0 0 1 .541 1.072.846.846 0 0 1-.809.586.83.83 0 0 1-.261-.047zm68.773-.392a.846.846 0 0 1 .164-1.185.843.843 0 0 1 1.19.159.852.852 0 0 1-.164 1.19.853.853 0 0 1-.51.174.859.859 0 0 1-.679-.339zm3.8-2.918a.846.846 0 0 1 .149-1.19h-.005a.853.853 0 0 1 1.2.144.846.846 0 0 1-.149 1.19.825.825 0 0 1-.521.184.854.854 0 0 1-.678-.329zM55.502 201.8a.851.851 0 0 1-.491-1.1.851.851 0 0 1 1.1-.5.851.851 0 0 1 .491 1.1.851.851 0 0 1-.794.546.84.84 0 0 1-.31-.047zm74.771-1.752a.841.841 0 0 1 .13-1.191.846.846 0 0 1 1.2.128.851.851 0 0 1-.134 1.2.844.844 0 0 1-.531.184.848.848 0 0 1-.669-.321zm3.722-3.012a.85.85 0 0 1 .115-1.2.851.851 0 0 1 1.2.12.846.846 0 0 1-.119 1.2.838.838 0 0 1-.536.194.854.854 0 0 1-.665-.314zm3.687-3.052a.851.851 0 0 1 .1-1.2.85.85 0 0 1 1.2.11.849.849 0 0 1-.1 1.2.84.84 0 0 1-.545.2.85.85 0 0 1-.66-.31zm3.652-3.1a.848.848 0 0 1 .094-1.2.849.849 0 0 1 1.2.089.859.859 0 0 1-.09 1.2.85.85 0 0 1-.551.2.843.843 0 0 1-.658-.285zm3.622-3.131a.848.848 0 0 1 .079-1.2.854.854 0 0 1 1.2.079.848.848 0 0 1-.079 1.2.845.845 0 0 1-.561.213.844.844 0 0 1-.646-.289zm3.593-3.165a.849.849 0 0 1 .069-1.2.852.852 0 0 1 1.2.069.852.852 0 0 1-.064 1.2.855.855 0 0 1-.565.213.85.85 0 0 1-.64-.279zm3.557-3.2a.853.853 0 0 1 .06-1.2.847.847 0 0 1 1.2.06.848.848 0 0 1-.055 1.2.861.861 0 0 1-.57.219.861.861 0 0 1-.64-.277zm3.534-3.235a.842.842 0 0 1 .044-1.2.843.843 0 0 1 1.2.045.852.852 0 0 1-.044 1.2.861.861 0 0 1-.581.224.831.831 0 0 1-.624-.266zm3.5-3.265a.838.838 0 0 1 .034-1.2.847.847 0 0 1 1.2.03.862.862 0 0 1-.034 1.206.867.867 0 0 1-.586.228.835.835 0 0 1-.616-.261zm3.473-3.295a.848.848 0 0 1 .02-1.2.846.846 0 0 1 1.2.025.843.843 0 0 1-.025 1.2h.006a.856.856 0 0 1-.591.238.838.838 0 0 1-.612-.26zm3.444-3.325a.847.847 0 0 1 .015-1.2.848.848 0 0 1 1.2.015.852.852 0 0 1-.015 1.2.849.849 0 0 1-.6.243.849.849 0 0 1-.602-.255zm3.413-3.354a.852.852 0 0 1 .006-1.2.852.852 0 0 1 1.2 0 .847.847 0 0 1-.005 1.2h.005a.867.867 0 0 1-.6.248.855.855 0 0 1-.608-.245zm3.39-3.379a.847.847 0 0 1 0-1.2.842.842 0 0 1 1.2 0 .852.852 0 0 1 .01 1.2.853.853 0 0 1-.605.253.856.856 0 0 1-.608-.25zm3.364-3.409a.847.847 0 0 1-.015-1.2.847.847 0 0 1 1.2-.015.847.847 0 0 1 .015 1.2.832.832 0 0 1-.605.258.838.838 0 0 1-.597-.24zm3.334-3.433a.851.851 0 0 1-.025-1.2.857.857 0 0 1 1.205-.025.847.847 0 0 1 .02 1.2.84.84 0 0 1-.61.263.852.852 0 0 1-.592-.235zm3.309-3.458a.848.848 0 0 1-.034-1.2.848.848 0 0 1 1.2-.035.848.848 0 0 1 .034 1.2.837.837 0 0 1-.615.263.849.849 0 0 1-.587-.226zm3.28-3.488a.847.847 0 0 1-.04-1.2.848.848 0 0 1 1.2-.04.847.847 0 0 1 .04 1.2.837.837 0 0 1-.62.268.843.843 0 0 1-.578-.226zm3.254-3.508a.849.849 0 0 1-.049-1.2.849.849 0 0 1 1.2-.055.852.852 0 0 1 .049 1.2.848.848 0 0 1-.625.278.85.85 0 0 1-.576-.221zm3.225-3.533a.85.85 0 0 1-.059-1.2.849.849 0 0 1 1.2-.06.857.857 0 0 1 .059 1.2.859.859 0 0 1-.63.278.843.843 0 0 1-.571-.219zm3.2-3.558a.849.849 0 0 1-.069-1.2.843.843 0 0 1 1.2-.069.848.848 0 0 1 .074 1.2.854.854 0 0 1-.635.288.847.847 0 0 1-.57-.217zm3.176-3.587a.839.839 0 0 1-.08-1.2.839.839 0 0 1 1.2-.079.849.849 0 0 1 .08 1.2.845.845 0 0 1-.64.293.821.821 0 0 1-.56-.212zm3.141-3.607a.854.854 0 0 1-.084-1.2.852.852 0 0 1 1.2-.089.854.854 0 0 1 .09 1.2.855.855 0 0 1-.645.293.847.847 0 0 1-.561-.203zm3.121-3.632a.847.847 0 0 1-.1-1.2.849.849 0 0 1 1.2-.1.849.849 0 0 1 .1 1.2.84.84 0 0 1-.649.3.841.841 0 0 1-.551-.199zm3.086-3.662a.845.845 0 0 1-.109-1.2.848.848 0 0 1 1.2-.109.854.854 0 0 1 .11 1.2.849.849 0 0 1-.655.308.838.838 0 0 1-.547-.198zm3.057-3.687a.844.844 0 0 1-.119-1.191.85.85 0 0 1 1.2-.119.851.851 0 0 1 .119 1.2.853.853 0 0 1-.66.308.819.819 0 0 1-.54-.196zm3.027-3.707a.846.846 0 0 1-.129-1.2.85.85 0 0 1 1.2-.124.849.849 0 0 1 .124 1.191.855.855 0 0 1-.665.318.847.847 0 0 1-.53-.183zm2.992-3.736a.85.85 0 0 1-.139-1.191.852.852 0 0 1 1.2-.139.85.85 0 0 1 .139 1.191.847.847 0 0 1-.67.323.848.848 0 0 1-.531-.182zm2.962-3.761a.847.847 0 0 1-.149-1.191.846.846 0 0 1 1.191-.149.847.847 0 0 1 .149 1.191.853.853 0 0 1-.67.328.848.848 0 0 1-.521-.177zm2.928-3.786a.847.847 0 0 1-.159-1.191.852.852 0 0 1 1.19-.164.851.851 0 0 1 .158 1.191.841.841 0 0 1-.674.337.872.872 0 0 1-.515-.171zm2.893-3.816a.848.848 0 0 1-.168-1.191.846.846 0 0 1 1.186-.169.847.847 0 0 1 .173 1.186.849.849 0 0 1-.68.342.852.852 0 0 1-.512-.166zm2.853-3.845a.847.847 0 0 1-.178-1.186.847.847 0 0 1 1.185-.184.853.853 0 0 1 .184 1.191.86.86 0 0 1-.689.342.829.829 0 0 1-.503-.161zm2.818-3.87a.853.853 0 0 1-.193-1.186.849.849 0 0 1 1.186-.193.853.853 0 0 1 .193 1.186.838.838 0 0 1-.689.352.832.832 0 0 1-.498-.158zm2.778-3.9a.846.846 0 0 1-.208-1.181.851.851 0 0 1 1.187-.208.85.85 0 0 1 .2 1.181.838.838 0 0 1-.688.361.845.845 0 0 1-.491-.152zm2.734-3.93a.852.852 0 0 1-.223-1.181.847.847 0 0 1 1.181-.218.846.846 0 0 1 .224 1.176.846.846 0 0 1-.7.372.844.844 0 0 1-.482-.148zm2.689-3.96a.854.854 0 0 1-.238-1.181.857.857 0 0 1 1.181-.233.847.847 0 0 1 .234 1.176.847.847 0 0 1-.71.382.858.858 0 0 1-.466-.142zm2.639-3.994a.856.856 0 0 1-.252-1.176.856.856 0 0 1 1.176-.253.861.861 0 0 1 .252 1.181v-.005a.846.846 0 0 1-.714.387.875.875 0 0 1-.461-.133zm2.591-4.029a.847.847 0 0 1-.268-1.171.85.85 0 0 1 1.17-.268.852.852 0 0 1 .264 1.176.849.849 0 0 1-.72.392.815.815 0 0 1-.445-.128zm2.531-4.064a.843.843 0 0 1-.284-1.166.848.848 0 0 1 1.167-.283.846.846 0 0 1 .282 1.166.84.84 0 0 1-.724.407.837.837 0 0 1-.441-.123zm2.471-4.1a.846.846 0 0 1-.3-1.161.846.846 0 0 1 1.161-.3.845.845 0 0 1 .3 1.161.851.851 0 0 1-.734.417.834.834 0 0 1-.427-.114zm2.407-4.138a.851.851 0 0 1-.323-1.161.852.852 0 0 1 1.156-.323.857.857 0 0 1 .323 1.161.864.864 0 0 1-.744.432.826.826 0 0 1-.412-.106zm2.327-4.183a.85.85 0 0 1-.343-1.151.855.855 0 0 1 1.151-.347.849.849 0 0 1 .342 1.151.844.844 0 0 1-.749.447.845.845 0 0 1-.399-.097zm2.247-4.228a.855.855 0 0 1-.367-1.146.843.843 0 0 1 1.141-.367.854.854 0 0 1 .373 1.141.86.86 0 0 1-.759.461.9.9 0 0 1-.388-.086zm2.153-4.282a.843.843 0 0 1-.4-1.131.847.847 0 0 1 1.131-.4.853.853 0 0 1 .4 1.136.841.841 0 0 1-.764.476.815.815 0 0 1-.365-.078zm2.04-4.327a.849.849 0 0 1-.427-1.121.85.85 0 0 1 1.122-.432.848.848 0 0 1 .426 1.121.847.847 0 0 1-.774.506.875.875 0 0 1-.347-.071zm1.916-4.391a.846.846 0 0 1-.467-1.107.856.856 0 0 1 1.107-.466.851.851 0 0 1 .466 1.111.851.851 0 0 1-.789.526.808.808 0 0 1-.317-.061zm1.756-4.451a.853.853 0 0 1-.511-1.092.852.852 0 0 1 1.087-.506.849.849 0 0 1 .511 1.087.847.847 0 0 1-.8.561.817.817 0 0 1-.287-.047zm1.563-4.525a.853.853 0 0 1-.565-1.062.848.848 0 0 1 1.062-.561.842.842 0 0 1 .561 1.057.841.841 0 0 1-.809.6.838.838 0 0 1-.249-.031zm1.311-4.6a.849.849 0 0 1-.63-1.022.849.849 0 0 1 1.022-.63.849.849 0 0 1 .63 1.022.846.846 0 0 1-.824.655.9.9 0 0 1-.199-.027zm.978-4.684a.849.849 0 0 1-.725-.958.854.854 0 0 1 .962-.724.847.847 0 0 1 .72.963.849.849 0 0 1-.838.729.949.949 0 0 1-.12-.012zm.491-4.754a.848.848 0 0 1-.844-.853.848.848 0 0 1 .854-.844.842.842 0 0 1 .843.853.847.847 0 0 1-.848.844zm-1.26-5.428a.843.843 0 0 1 .654-1.007.842.842 0 0 1 1 .65.844.844 0 0 1-.651 1.007.784.784 0 0 1-.178.02.847.847 0 0 1-.826-.672zm-1.633-4.153a.847.847 0 0 1 .263-1.171.851.851 0 0 1 1.171.258.855.855 0 0 1-.258 1.176.869.869 0 0 1-.457.134.847.847 0 0 1-.72-.399zm-3.116-3.027a.844.844 0 0 1-.3-1.161.849.849 0 0 1 1.166-.3.843.843 0 0 1 .292 1.161.848.848 0 0 1-.729.417.844.844 0 0 1-.43-.116zm-14.4-1.583a.845.845 0 0 1 .65-1.007.849.849 0 0 1 1.007.65.851.851 0 0 1-.649 1.012 1.1 1.1 0 0 1-.179.02.848.848 0 0 1-.825-.677zm10.2.134a.851.851 0 0 1-.7-.973.848.848 0 0 1 .973-.7.847.847 0 0 1 .7.973.847.847 0 0 1-.833.715 2.52 2.52 0 0 0-.139-.017zM253.81.907a.842.842 0 0 1 .784-.9.843.843 0 0 1 .908.784.845.845 0 0 1-.79.908h-.059a.846.846 0 0 1-.842-.794z" fill="#2ecece"/></g><g data-name="Group 2056"><path data-name="Path 3413" d="M206.317 21.88a.845.845 0 0 1 .322-1.156.848.848 0 0 1 1.156.327.852.852 0 0 1-.323 1.156.856.856 0 0 1-.417.109.844.844 0 0 1-.738-.436zm4.172-2.347a.848.848 0 0 1 .328-1.156.849.849 0 0 1 1.156.323.85.85 0 0 1-.322 1.156.861.861 0 0 1-.417.109.856.856 0 0 1-.745-.432zm4.184-2.342a.849.849 0 0 1 .333-1.156.848.848 0 0 1 1.151.337.848.848 0 0 1-.327 1.151.891.891 0 0 1-.412.1.852.852 0 0 1-.746-.432zm4.2-2.3a.854.854 0 0 1 .347-1.151.85.85 0 0 1 1.151.342.852.852 0 0 1-.348 1.151.835.835 0 0 1-.4.1.853.853 0 0 1-.753-.445zm4.232-2.253a.85.85 0 0 1 .363-1.146.848.848 0 0 1 1.146.362.853.853 0 0 1-.367 1.146.842.842 0 0 1-.387.094.843.843 0 0 1-.758-.458zm4.268-2.178a.856.856 0 0 1 .382-1.141.853.853 0 0 1 1.142.387.852.852 0 0 1-.387 1.141.843.843 0 0 1-.377.089.843.843 0 0 1-.763-.479zm4.312-2.084a.851.851 0 0 1 .418-1.126.845.845 0 0 1 1.126.417.846.846 0 0 1-.417 1.126.81.81 0 0 1-.353.079.852.852 0 0 1-.778-.499zm4.377-1.95a.85.85 0 0 1 .457-1.111.85.85 0 0 1 1.111.461.845.845 0 0 1-.462 1.107.813.813 0 0 1-.322.065.852.852 0 0 1-.788-.521zm4.45-1.766a.851.851 0 0 1 .522-1.082.856.856 0 0 1 1.086.521.856.856 0 0 1-.521 1.087.937.937 0 0 1-.283.045.852.852 0 0 1-.808-.574zm4.561-1.459a.851.851 0 0 1 .625-1.027.843.843 0 0 1 1.027.62.847.847 0 0 1-.62 1.027.735.735 0 0 1-.2.025.858.858 0 0 1-.836-.648z" fill="#2ecece"/></g></g></g></svg>