<svg xmlns="http://www.w3.org/2000/svg" width="674" height="45"><defs><clipPath id="a"><path data-name="Rectángulo 1036" fill="none" d="M0 0h674v45H0z"/></clipPath></defs><g data-name="Grupo 2418"><g data-name="Grupo 2417"><g data-name="Grupo 2416" clip-path="url(#a)"><rect data-name="Rectángulo 1035" width="673" height="44" rx="10.5" transform="translate(.5 .5)" fill="none" stroke="#c79d4c"/><path data-name="Trazado 4095" d="M33.5 7A15.5 15.5 0 1 1 18 22.5 15.5 15.5 0 0 1 33.5 7" fill="#c79d4c"/><path data-name="Trazado 4096" d="M268.5 7A15.5 15.5 0 1 1 253 22.5 15.5 15.5 0 0 1 268.5 7" fill="#003296"/><path data-name="Trazado 4097" d="M485.5 7A15.5 15.5 0 1 1 470 22.5 15.5 15.5 0 0 1 485.5 7" fill="#d5d5d5"/><path data-name="Trazado 4098" d="M57.229 17.5h3.929a3.359 3.359 0 0 1 1.65 6.405L65.118 28h-2.235l-1.965-3.75h-1.695V28h-1.994zm3.779 5.04a1.667 1.667 0 1 0-.03-3.33h-1.755v3.33z" fill="#c79d4c"/><path data-name="Trazado 4099" d="M66.138 24.1a3.91 3.91 0 0 1 3.975-4.185 3.809 3.809 0 0 1 3.915 4.095v.615h-6a2.21 2.21 0 0 0 4.11.915h1.815a3.628 3.628 0 0 1-3.84 2.655 3.9 3.9 0 0 1-3.975-4.095m6.03-.855a1.923 1.923 0 0 0-2.055-1.77 2.028 2.028 0 0 0-2.055 1.77z" fill="#c79d4c"/><path data-name="Trazado 4100" d="M75.512 25.78v-9.03h1.95v8.85c0 .451.225.691.63.691h.316V28h-.736a2 2 0 0 1-2.16-2.22" fill="#c79d4c"/><path data-name="Trazado 4101" d="M79.953 25.78v-9.03H81.9v8.85c0 .451.225.691.63.691h.315V28h-.735a2 2 0 0 1-2.16-2.22" fill="#c79d4c"/><path data-name="Trazado 4102" d="M83.928 24.1a3.91 3.91 0 0 1 3.972-4.185 3.808 3.808 0 0 1 3.915 4.095v.615h-6a2.211 2.211 0 0 0 4.111.915h1.814a3.627 3.627 0 0 1-3.84 2.655 3.9 3.9 0 0 1-3.972-4.095m6.029-.855a1.922 1.922 0 0 0-2.055-1.77 2.027 2.027 0 0 0-2.054 1.77z" fill="#c79d4c"/><path data-name="Trazado 4103" d="M93.543 20.11H95.4v.96h.106a2.468 2.468 0 0 1 2.22-1.155 2.735 2.735 0 0 1 2.849 2.924V28h-1.947v-4.65a1.482 1.482 0 0 0-1.516-1.6 1.634 1.634 0 0 0-1.619 1.74V28h-1.95z" fill="#c79d4c"/><path data-name="Trazado 4104" d="M102.077 24.1c0-2.475 1.5-4.185 3.66-4.185a2.86 2.86 0 0 1 2.4 1.215h.1v-1.02h1.95V28h-1.92v-1h-.105a2.775 2.775 0 0 1-2.369 1.2c-2.2 0-3.721-1.65-3.721-4.095m6.21-.03a2.13 2.13 0 1 0-4.229 0 2.131 2.131 0 0 0 2.115 2.37 2.162 2.162 0 0 0 2.114-2.37" fill="#c79d4c"/><path data-name="Trazado 4105" d="M116.957 25.375v-3.7h-1.335v-1.55h.886a.543.543 0 0 0 .569-.6v-1.589h1.83v2.174h2.175v1.56h-2.175v3.63a.966.966 0 0 0 1.08 1.08h1.05V28h-1.455a2.392 2.392 0 0 1-2.625-2.625" fill="#c79d4c"/><path data-name="Trazado 4106" d="M122.642 25.271v-5.16h1.949v4.665a1.506 1.506 0 0 0 1.53 1.62 1.648 1.648 0 0 0 1.621-1.755v-4.53h1.95V28h-1.861v-.959h-.12a2.46 2.46 0 0 1-2.205 1.155 2.747 2.747 0 0 1-2.864-2.925" fill="#c79d4c"/><path data-name="Trazado 4107" d="M131.312 25.63h1.8c.074.675.614 1.035 1.5 1.035s1.409-.389 1.409-.945c0-1.68-4.529-.09-4.529-3.39 0-1.335 1.155-2.415 3.1-2.415 1.71 0 2.986.87 3.106 2.445h-1.726c-.09-.57-.54-.945-1.394-.945-.795 0-1.305.345-1.305.856 0 1.5 4.635-.076 4.635 3.344 0 1.5-1.215 2.58-3.33 2.58s-3.2-1-3.27-2.565" fill="#c79d4c"/><path data-name="Trazado 4108" d="M143.191 24.1c0-2.475 1.5-4.185 3.66-4.185a2.86 2.86 0 0 1 2.4 1.215h.1v-4.38h1.95V28h-1.92v-1h-.1a2.775 2.775 0 0 1-2.369 1.2c-2.205 0-3.721-1.65-3.721-4.095m6.21-.03a2.13 2.13 0 1 0-4.229 0 2.131 2.131 0 0 0 2.115 2.37 2.162 2.162 0 0 0 2.114-2.37" fill="#c79d4c"/><path data-name="Trazado 4109" d="M152.806 24.1c0-2.475 1.5-4.185 3.66-4.185a2.858 2.858 0 0 1 2.4 1.215h.1v-1.02h1.949V28H159v-1h-.1a2.777 2.777 0 0 1-2.37 1.2c-2.205 0-3.72-1.65-3.72-4.095m6.21-.03a2.13 2.13 0 1 0-4.23 0 2.131 2.131 0 0 0 2.115 2.37 2.163 2.163 0 0 0 2.115-2.37" fill="#c79d4c"/><path data-name="Trazado 4110" d="M163.712 25.375v-3.7h-1.335v-1.55h.885a.544.544 0 0 0 .57-.6v-1.589h1.83v2.174h2.175v1.56h-2.175v3.63a.966.966 0 0 0 1.079 1.08h1.051V28h-1.455a2.392 2.392 0 0 1-2.625-2.625" fill="#c79d4c"/><path data-name="Trazado 4111" d="M168.991 24.055a4.2 4.2 0 1 1 4.2 4.141 4.035 4.035 0 0 1-4.2-4.141m6.42 0a2.224 2.224 0 1 0-4.439 0 2.224 2.224 0 1 0 4.439 0" fill="#c79d4c"/><path data-name="Trazado 4112" d="M178.667 25.63h1.8c.074.675.614 1.035 1.5 1.035s1.409-.389 1.409-.945c0-1.68-4.529-.09-4.529-3.39 0-1.335 1.155-2.415 3.1-2.415 1.71 0 2.986.87 3.106 2.445h-1.726c-.09-.57-.54-.945-1.394-.945-.795 0-1.3.345-1.3.856 0 1.5 4.635-.076 4.635 3.344 0 1.5-1.215 2.58-3.33 2.58s-3.2-1-3.27-2.565" fill="#c79d4c"/><path data-name="Trazado 4113" d="M293.482 24.085V17.5h1.995v6.57a2.169 2.169 0 1 0 4.334-.016V17.5h1.981v6.57a4.155 4.155 0 0 1-8.31.015m4.05-10.02h1.95l-1.381 2.19h-1.364z" fill="#003296"/><path data-name="Trazado 4114" d="M303.967 20.11h1.86v.96h.105a2.471 2.471 0 0 1 2.221-1.155A2.735 2.735 0 0 1 311 22.839V28h-1.95v-4.65a1.482 1.482 0 0 0-1.515-1.6 1.635 1.635 0 0 0-1.62 1.74V28h-1.95z" fill="#003296"/><path data-name="Trazado 4115" d="M312.5 24.1a3.91 3.91 0 0 1 3.974-4.185 3.808 3.808 0 0 1 3.915 4.095v.615h-6a2.211 2.211 0 0 0 4.111.915h1.814a3.627 3.627 0 0 1-3.84 2.655A3.9 3.9 0 0 1 312.5 24.1m6.029-.855a1.922 1.922 0 0 0-2.055-1.77 2.027 2.027 0 0 0-2.054 1.77z" fill="#003296"/><path data-name="Trazado 4116" d="M322.912 25.375v-3.7h-1.335v-1.55h.885a.544.544 0 0 0 .57-.6v-1.589h1.83v2.174h2.175v1.56h-2.175v3.63a.966.966 0 0 0 1.079 1.08h1.051V28h-1.455a2.392 2.392 0 0 1-2.625-2.625" fill="#003296"/><path data-name="Trazado 4117" d="M328.191 24.1a3.91 3.91 0 0 1 3.975-4.185 3.809 3.809 0 0 1 3.915 4.095v.615h-6a2.21 2.21 0 0 0 4.11.915h1.815a3.628 3.628 0 0 1-3.84 2.655 3.9 3.9 0 0 1-3.975-4.095m6.03-.855a1.923 1.923 0 0 0-2.055-1.77 2.028 2.028 0 0 0-2.055 1.77z" fill="#003296"/><path data-name="Trazado 4118" d="M341.286 24.1c0-2.475 1.5-4.185 3.66-4.185a2.86 2.86 0 0 1 2.4 1.215h.1v-1.02h1.95V28h-1.92v-1h-.1a2.775 2.775 0 0 1-2.369 1.2c-2.2 0-3.721-1.65-3.721-4.095m6.21-.03a2.13 2.13 0 1 0-4.229 0 2.131 2.131 0 0 0 2.115 2.37 2.162 2.162 0 0 0 2.114-2.37" fill="#003296"/><path data-name="Trazado 4119" d="M351.4 25.78v-9.03h1.95v8.85c0 .451.225.691.63.691h.315V28h-.735a2 2 0 0 1-2.16-2.22" fill="#003296"/><path data-name="Trazado 4120" d="M360.021 28.884h1.8c.149.7.78 1.156 1.845 1.156a1.872 1.872 0 0 0 2.1-2.1v-1.02h-.119a2.752 2.752 0 0 1-2.37 1.2c-2.13 0-3.7-1.59-3.7-4.1 0-2.49 1.545-4.11 3.645-4.11a2.834 2.834 0 0 1 2.415 1.214h.12V20.11h1.934v7.83c0 2.145-1.349 3.7-4.019 3.7-2.281 0-3.51-1.29-3.645-2.76m5.76-4.859a2.126 2.126 0 1 0-4.23 0 2.1 2.1 0 0 0 2.115 2.34 2.129 2.129 0 0 0 2.115-2.34" fill="#003296"/><path data-name="Trazado 4121" d="M369.756 20.11h1.844v1.29h.119a2.231 2.231 0 0 1 2.07-1.32h.72v1.86h-.81c-1.245 0-1.995.915-1.995 2.325V28h-1.95z" fill="#003296"/><path data-name="Trazado 4122" d="M376.1 25.271v-5.16h1.95v4.665a1.506 1.506 0 0 0 1.53 1.62 1.648 1.648 0 0 0 1.62-1.755v-4.53h1.95V28h-1.86v-.959h-.12a2.462 2.462 0 0 1-2.205 1.155 2.748 2.748 0 0 1-2.865-2.925" fill="#003296"/><path data-name="Trazado 4123" d="M385.22 20.111h1.92v1h.1a2.749 2.749 0 0 1 2.37-1.2c2.205 0 3.719 1.651 3.719 4.111s-1.5 4.17-3.659 4.17a2.72 2.72 0 0 1-2.4-1.215h-.1v4.47h-1.95zm6.135 3.944a2.126 2.126 0 0 0-2.13-2.369 2.151 2.151 0 0 0-2.1 2.369 2.129 2.129 0 1 0 4.23 0" fill="#003296"/><path data-name="Trazado 4124" d="M394.565 24.055a4.2 4.2 0 1 1 4.2 4.141 4.035 4.035 0 0 1-4.2-4.141m6.42 0a2.225 2.225 0 1 0-4.44 0 2.225 2.225 0 1 0 4.44 0" fill="#003296"/><path data-name="Trazado 4125" d="M509.893 17.5h3.929a3.359 3.359 0 0 1 1.65 6.405l2.31 4.095h-2.235l-1.965-3.75h-1.695V28h-1.994zm3.779 5.04a1.667 1.667 0 1 0-.03-3.33h-1.755v3.33z" fill="#d5d5d5"/><path data-name="Trazado 4126" d="M518.8 24.1a3.91 3.91 0 0 1 3.975-4.185 3.809 3.809 0 0 1 3.915 4.095v.615h-6a2.21 2.21 0 0 0 4.11.915h1.815a3.628 3.628 0 0 1-3.84 2.655A3.9 3.9 0 0 1 518.8 24.1m6.03-.855a1.923 1.923 0 0 0-2.055-1.77 2.028 2.028 0 0 0-2.055 1.77z" fill="#d5d5d5"/><path data-name="Trazado 4127" d="M528.372 28.884h1.8c.149.7.78 1.156 1.845 1.156a1.872 1.872 0 0 0 2.1-2.1v-1.02H534a2.753 2.753 0 0 1-2.37 1.2c-2.13 0-3.705-1.59-3.705-4.1 0-2.49 1.545-4.11 3.645-4.11a2.834 2.834 0 0 1 2.415 1.214h.12V20.11h1.934v7.83c0 2.145-1.349 3.7-4.019 3.7-2.281 0-3.51-1.29-3.645-2.76m5.76-4.859a2.126 2.126 0 1 0-4.23 0 2.1 2.1 0 0 0 2.115 2.34 2.129 2.129 0 0 0 2.115-2.34" fill="#d5d5d5"/><path data-name="Trazado 4128" d="M537.882 17.92a1.2 1.2 0 1 1 1.2 1.141 1.107 1.107 0 0 1-1.2-1.141m.225 2.19h1.95V28h-1.95z" fill="#d5d5d5"/><path data-name="Trazado 4129" d="M541.6 25.63h1.8c.075.675.615 1.035 1.5 1.035.9 0 1.41-.389 1.41-.945 0-1.68-4.53-.09-4.53-3.39 0-1.335 1.155-2.415 3.1-2.415 1.71 0 2.985.87 3.105 2.445h-1.725c-.09-.57-.54-.945-1.4-.945-.795 0-1.3.345-1.3.856 0 1.5 4.635-.076 4.635 3.344 0 1.5-1.215 2.58-3.33 2.58s-3.195-1-3.27-2.565" fill="#d5d5d5"/><path data-name="Trazado 4130" d="M550.8 25.375v-3.7h-1.335v-1.55h.885a.544.544 0 0 0 .57-.6v-1.589h1.83v2.174h2.175v1.56h-2.175v3.63a.966.966 0 0 0 1.079 1.08h1.051V28h-1.455a2.392 2.392 0 0 1-2.625-2.625" fill="#d5d5d5"/><path data-name="Trazado 4131" d="M556.571 20.11h1.846v1.29h.119a2.231 2.231 0 0 1 2.07-1.32h.72v1.86h-.81c-1.245 0-1.995.915-1.995 2.325V28h-1.95z" fill="#d5d5d5"/><path data-name="Trazado 4132" d="M562.241 24.055a4.2 4.2 0 1 1 4.2 4.141 4.035 4.035 0 0 1-4.2-4.141m6.42 0a2.224 2.224 0 1 0-4.439 0 2.224 2.224 0 1 0 4.439 0" fill="#d5d5d5"/><path data-name="Trazado 4133" d="M575.846 24.055a3.991 3.991 0 0 1 4.125-4.14 3.746 3.746 0 0 1 3.9 3.106h-1.995a1.927 1.927 0 0 0-1.889-1.335 2.188 2.188 0 0 0-2.161 2.369 2.192 2.192 0 0 0 2.174 2.37 1.862 1.862 0 0 0 1.86-1.274h1.995a3.71 3.71 0 0 1-3.885 3.045 3.991 3.991 0 0 1-4.125-4.141" fill="#d5d5d5"/><path data-name="Trazado 4134" d="M585.1 24.055a4.2 4.2 0 1 1 4.2 4.141 4.035 4.035 0 0 1-4.2-4.141m6.42 0a2.225 2.225 0 1 0-4.44 0 2.225 2.225 0 1 0 4.44 0" fill="#d5d5d5"/><path data-name="Trazado 4135" d="M595.226 20.11h1.859v.96h.106a2.4 2.4 0 0 1 2.144-1.155 2.615 2.615 0 0 1 2.34 1.2h.12a2.6 2.6 0 0 1 2.34-1.2 2.724 2.724 0 0 1 2.88 2.85V28h-1.949v-4.56c0-1.08-.495-1.695-1.426-1.695a1.56 1.56 0 0 0-1.529 1.74V28h-1.95v-4.68a1.424 1.424 0 0 0-1.47-1.575 1.577 1.577 0 0 0-1.515 1.724V28h-1.95z" fill="#d5d5d5"/><path data-name="Trazado 4136" d="M609.01 20.111h1.92v1h.106a2.748 2.748 0 0 1 2.37-1.2c2.2 0 3.719 1.651 3.719 4.111s-1.5 4.17-3.66 4.17a2.72 2.72 0 0 1-2.4-1.215h-.106v4.47h-1.95zm6.135 3.944a2.126 2.126 0 0 0-2.13-2.369 2.15 2.15 0 0 0-2.1 2.369 2.128 2.128 0 1 0 4.229 0" fill="#d5d5d5"/><path data-name="Trazado 4137" d="M618.611 25.78v-9.03h1.95v8.85c0 .451.225.691.63.691h.315V28h-.735a2 2 0 0 1-2.16-2.22" fill="#d5d5d5"/><path data-name="Trazado 4138" d="M622.586 24.1a3.91 3.91 0 0 1 3.974-4.185 3.808 3.808 0 0 1 3.915 4.095v.615h-6a2.211 2.211 0 0 0 4.111.915h1.814a3.627 3.627 0 0 1-3.84 2.655 3.9 3.9 0 0 1-3.974-4.095m6.029-.855a1.922 1.922 0 0 0-2.055-1.77 2.027 2.027 0 0 0-2.054 1.77z" fill="#d5d5d5"/><path data-name="Trazado 4139" d="M633 25.375v-3.7h-1.335v-1.55h.885a.544.544 0 0 0 .57-.6v-1.589h1.83v2.174h2.175v1.56h-2.175v3.63a.966.966 0 0 0 1.079 1.08h1.051V28h-1.455A2.392 2.392 0 0 1 633 25.375" fill="#d5d5d5"/><path data-name="Trazado 4140" d="M638.275 24.055a4.2 4.2 0 1 1 4.2 4.141 4.035 4.035 0 0 1-4.2-4.141m6.42 0a2.224 2.224 0 1 0-4.439 0 2.224 2.224 0 1 0 4.439 0" fill="#d5d5d5"/><path data-name="Trazado 4141" d="M32.861 20.478H29.6v-2.34c2.7 0 3.5-.721 3.5-2.14H36V30h-3.139z" fill="#fff"/><path data-name="Trazado 4142" d="M263.331 27.539c0-1.86.8-3.04 2.66-4.181l2.6-1.6a1.873 1.873 0 0 0 1.1-1.64 1.525 1.525 0 0 0-1.72-1.48 1.663 1.663 0 0 0-1.741 1.66h-2.92a4.439 4.439 0 0 1 4.681-4.561c3.022 0 4.861 1.9 4.861 4.261 0 1.92-.959 3.1-2.621 4.1l-2.8 1.64c-.7.44-.96.84-.96 1.361v.16h6.361V30h-9.5z" fill="#fff"/><path data-name="Trazado 4143" d="M480.331 25.679h2.9a1.643 1.643 0 0 0 1.76 1.581 1.689 1.689 0 0 0 1.841-1.7 1.735 1.735 0 0 0-1.88-1.7h-1.98v-2.38l2.82-2.541V18.8h-5.221v-2.823h9.061v2.741l-2.92 2.62v.12a4.058 4.058 0 0 1 3.281 4.1 4.648 4.648 0 0 1-4.961 4.682 4.455 4.455 0 0 1-4.7-4.562" fill="#fff"/><path data-name="Línea 20" fill="none" stroke="#c79d4c" stroke-width="2" d="M197.872 22.5h38.423"/><path data-name="Línea 21" fill="none" stroke="#003296" stroke-width="2" d="M420.704 22.5h38.423"/></g></g></g></svg>